%TF.GenerationSoftware,KiCad,Pcbnew,10.0.6*%
%TF.CreationDate,2026-10-09T16:06:30+02:00*%
%TF.ProjectId,the_gameboy,7468655f-6761-46d6-9562-6f792e6b6963,rev?*%
%TF.SameCoordinates,Original*%
%TF.FileFunction,Copper,L1,Top*%
%TF.FilePolarity,Positive*%
%FSLAX46Y46*%
G04 Gerber Fmt 4.6, Leading zero omitted, Abs format (unit mm)*
G04 Created by KiCad (PCBNEW 10.0.6) date 2026-10-09 16:06:30*
%MOMM*%
%LPD*%
G01*
G04 APERTURE LIST*
%TA.AperFunction,ComponentPad*%
%ADD10C,2.000000*%
%TD*%
%TA.AperFunction,ComponentPad*%
%ADD11O,3.500000X2.200000*%
%TD*%
%TA.AperFunction,ComponentPad*%
%ADD12R,2.500000X1.500000*%
%TD*%
%TA.AperFunction,ComponentPad*%
%ADD13O,2.500000X1.500000*%
%TD*%
%TA.AperFunction,ComponentPad*%
%ADD14R,1.700000X1.700000*%
%TD*%
%TA.AperFunction,ComponentPad*%
%ADD15C,1.700000*%
%TD*%
%TA.AperFunction,ComponentPad*%
%ADD16C,1.600000*%
%TD*%
%TA.AperFunction,ComponentPad*%
%ADD17R,2.000000X2.000000*%
%TD*%
%TA.AperFunction,ViaPad*%
%ADD18C,0.600000*%
%TD*%
%TA.AperFunction,Conductor*%
%ADD19C,0.200000*%
%TD*%
G04 APERTURE END LIST*
D10*
%TO.P,SW8,1,1_1*%
%TO.N,Net-(J3-Pin_12)*%
X156000000Y-147500000D03*
X162500000Y-147500000D03*
%TO.P,SW8,2,2_2*%
%TO.N,GND*%
X156000000Y-152000000D03*
X162500000Y-152000000D03*
%TD*%
%TO.P,SW1,1,1_1*%
%TO.N,Net-(J2-Pin_7)*%
X124250000Y-130250000D03*
X130750000Y-130250000D03*
%TO.P,SW1,2,2_2*%
%TO.N,GND*%
X124250000Y-134750000D03*
X130750000Y-134750000D03*
%TD*%
%TO.P,SW4,1,1_1*%
%TO.N,Net-(J2-Pin_10)*%
X133750000Y-137750000D03*
X140250000Y-137750000D03*
%TO.P,SW4,2,2_2*%
%TO.N,GND*%
X133750000Y-142250000D03*
X140250000Y-142250000D03*
%TD*%
D11*
%TO.P,SW9,*%
%TO.N,*%
X177000000Y-88500000D03*
X177000000Y-80300000D03*
D12*
%TO.P,SW9,1,A_1*%
%TO.N,unconnected-(SW9-A-Pad1)*%
X177000000Y-86400000D03*
D13*
%TO.P,SW9,2,B_2*%
%TO.N,Net-(J1-Pin_2)*%
X177000000Y-84400000D03*
%TO.P,SW9,3,C_3*%
%TO.N,Net-(J2-Pin_1)*%
X177000000Y-82400000D03*
%TD*%
D10*
%TO.P,SW3,1,1_1*%
%TO.N,Net-(J2-Pin_9)*%
X114750000Y-137750000D03*
X121250000Y-137750000D03*
%TO.P,SW3,2,2_2*%
%TO.N,GND*%
X114750000Y-142250000D03*
X121250000Y-142250000D03*
%TD*%
D14*
%TO.P,J3,1,Pin_1_1*%
%TO.N,Net-(J1-Pin_4)*%
X148780000Y-114500000D03*
D15*
%TO.P,J3,2,Pin_2_2*%
%TO.N,unconnected-(J3-Pin_2-Pad2)*%
X146240000Y-114500000D03*
%TO.P,J3,3,Pin_3_3*%
%TO.N,unconnected-(J3-Pin_3-Pad3)*%
X143700000Y-114500000D03*
%TO.P,J3,4,Pin_4_4*%
%TO.N,unconnected-(J3-Pin_4-Pad4)*%
X141160000Y-114500000D03*
%TO.P,J3,5,Pin_5_5*%
%TO.N,unconnected-(J3-Pin_5-Pad5)*%
X138620000Y-114500000D03*
%TO.P,J3,6,Pin_6_6*%
%TO.N,unconnected-(J3-Pin_6-Pad6)*%
X136080000Y-114500000D03*
%TO.P,J3,7,Pin_7_7*%
%TO.N,unconnected-(J3-Pin_7-Pad7)*%
X133540000Y-114500000D03*
%TO.P,J3,8,Pin_8_8*%
%TO.N,Net-(J1-Pin_7)*%
X131000000Y-114500000D03*
%TO.P,J3,9,Pin_9_9*%
%TO.N,Net-(J1-Pin_8)*%
X128460000Y-114500000D03*
%TO.P,J3,10,Pin_10_10*%
%TO.N,unconnected-(J3-Pin_10-Pad10)*%
X125920000Y-114500000D03*
%TO.P,J3,11,Pin_11_11*%
%TO.N,Net-(J3-Pin_11)*%
X123380000Y-114500000D03*
%TO.P,J3,12,Pin_12_12*%
%TO.N,Net-(J3-Pin_12)*%
X120840000Y-114500000D03*
%TO.P,J3,13,Pin_13_13*%
%TO.N,Net-(J1-Pin_5)*%
X118300000Y-114500000D03*
%TO.P,J3,14,Pin_14_14*%
%TO.N,Net-(J1-Pin_6)*%
X115760000Y-114500000D03*
%TO.P,J3,15,Pin_15_15*%
%TO.N,Net-(J1-Pin_3)*%
X113220000Y-114500000D03*
%TD*%
D10*
%TO.P,SW6,1,1_1*%
%TO.N,Net-(J2-Pin_12)*%
X157500000Y-128000000D03*
X164000000Y-128000000D03*
%TO.P,SW6,2,2_2*%
%TO.N,GND*%
X157500000Y-132500000D03*
X164000000Y-132500000D03*
%TD*%
%TO.P,SW5,1,1_1*%
%TO.N,Net-(J2-Pin_11)*%
X167000000Y-120500000D03*
X173500000Y-120500000D03*
%TO.P,SW5,2,2_2*%
%TO.N,GND*%
X167000000Y-125000000D03*
X173500000Y-125000000D03*
%TD*%
D14*
%TO.P,J1,1,Pin_1_1*%
%TO.N,GND*%
X130500000Y-73160000D03*
D15*
%TO.P,J1,2,Pin_2_2*%
%TO.N,Net-(J1-Pin_2)*%
X130500000Y-70620000D03*
%TO.P,J1,3,Pin_3_3*%
%TO.N,Net-(J1-Pin_3)*%
X130500000Y-68080000D03*
%TO.P,J1,4,Pin_4_4*%
%TO.N,Net-(J1-Pin_4)*%
X130500000Y-65540000D03*
%TO.P,J1,5,Pin_5_5*%
%TO.N,Net-(J1-Pin_5)*%
X130500000Y-63000000D03*
%TO.P,J1,6,Pin_6_6*%
%TO.N,Net-(J1-Pin_6)*%
X130500000Y-60460000D03*
%TO.P,J1,7,Pin_7_7*%
%TO.N,Net-(J1-Pin_7)*%
X130500000Y-57920000D03*
%TO.P,J1,8,Pin_8_8*%
%TO.N,Net-(J1-Pin_8)*%
X130500000Y-55380000D03*
%TD*%
D16*
%TO.P,C1,1*%
%TO.N,Net-(J1-Pin_2)*%
X124500000Y-69500000D03*
%TO.P,C1,2*%
%TO.N,GND*%
X124500000Y-74500000D03*
%TD*%
D14*
%TO.P,J2,1,Pin_1_1*%
%TO.N,Net-(J2-Pin_1)*%
X148780000Y-89100000D03*
D15*
%TO.P,J2,2,Pin_2_2*%
%TO.N,unconnected-(J2-Pin_2-Pad2)*%
X146240000Y-89100000D03*
%TO.P,J2,3,Pin_3_3*%
%TO.N,unconnected-(J2-Pin_3-Pad3)*%
X143700000Y-89100000D03*
%TO.P,J2,4,Pin_4_4*%
%TO.N,unconnected-(J2-Pin_4-Pad4)*%
X141160000Y-89100000D03*
%TO.P,J2,5,Pin_5_5*%
%TO.N,unconnected-(J2-Pin_5-Pad5)*%
X138620000Y-89100000D03*
%TO.P,J2,6,Pin_6_6*%
%TO.N,unconnected-(J2-Pin_6-Pad6)*%
X136080000Y-89100000D03*
%TO.P,J2,7,Pin_7_7*%
%TO.N,Net-(J2-Pin_7)*%
X133540000Y-89100000D03*
%TO.P,J2,8,Pin_8_8*%
%TO.N,Net-(J2-Pin_8)*%
X131000000Y-89100000D03*
%TO.P,J2,9,Pin_9_9*%
%TO.N,Net-(J2-Pin_9)*%
X128460000Y-89100000D03*
%TO.P,J2,10,Pin_10_10*%
%TO.N,Net-(J2-Pin_10)*%
X125920000Y-89100000D03*
%TO.P,J2,11,Pin_11_11*%
%TO.N,Net-(J2-Pin_11)*%
X123380000Y-89100000D03*
%TO.P,J2,12,Pin_12_12*%
%TO.N,Net-(J2-Pin_12)*%
X120840000Y-89100000D03*
%TO.P,J2,13,Pin_13_13*%
%TO.N,Net-(BZ1-+)*%
X118300000Y-89100000D03*
%TO.P,J2,14,Pin_14_14*%
%TO.N,GND*%
X115760000Y-89100000D03*
%TO.P,J2,15,Pin_15_15*%
%TO.N,unconnected-(J2-Pin_15-Pad15)*%
X113220000Y-89100000D03*
%TD*%
D10*
%TO.P,SW7,1,1_1*%
%TO.N,Net-(J3-Pin_11)*%
X146500000Y-147500000D03*
X153000000Y-147500000D03*
%TO.P,SW7,2,2_2*%
%TO.N,GND*%
X146500000Y-152000000D03*
X153000000Y-152000000D03*
%TD*%
D17*
%TO.P,BZ1,1,+_1*%
%TO.N,Net-(BZ1-+)*%
X159900000Y-102750000D03*
D10*
%TO.P,BZ1,2,-_2*%
%TO.N,GND*%
X167500000Y-102750000D03*
%TD*%
%TO.P,SW2,1,1_1*%
%TO.N,Net-(J2-Pin_8)*%
X124250000Y-145250000D03*
X130750000Y-145250000D03*
%TO.P,SW2,2,2_2*%
%TO.N,GND*%
X124250000Y-149750000D03*
X130750000Y-149750000D03*
%TD*%
D18*
%TO.N,Net-(BZ1-+)*%
X152858578Y-112891422D03*
X155522794Y-110977206D03*
%TO.N,Net-(J3-Pin_11)*%
X153049265Y-143700735D03*
%TO.N,Net-(J2-Pin_1)*%
X148750000Y-83800000D03*
%TO.N,Net-(J2-Pin_7)*%
X156066914Y-112087014D03*
%TO.N,Net-(J2-Pin_8)*%
X156332108Y-112917892D03*
%TO.N,Net-(J2-Pin_9)*%
X156300000Y-113798640D03*
%TO.N,Net-(J2-Pin_10)*%
X155900000Y-114500000D03*
%TD*%
%TO.N,*%
D19*
X123750000Y-56000000D02*
X124500000Y-55250000D01*
X124000000Y-56500000D02*
X122000000Y-56500000D01*
X124500000Y-55250000D02*
X124500000Y-53500000D01*
X122250000Y-56000000D02*
X123750000Y-56000000D01*
X125000000Y-53000000D02*
X125000000Y-55500000D01*
X122000000Y-53750000D02*
X122000000Y-55750000D01*
X120750000Y-53250000D02*
X119000000Y-53250000D01*
X124500000Y-53500000D02*
X123750000Y-52750000D01*
X123750000Y-52750000D02*
X122250000Y-52750000D01*
X115000000Y-52250000D02*
X124250000Y-52250000D01*
X118000000Y-52750000D02*
X115000000Y-52750000D01*
X118500000Y-52750000D02*
X121000000Y-52750000D01*
X115000000Y-56250000D02*
X118500000Y-52750000D01*
X122000000Y-55750000D02*
X122250000Y-56000000D01*
X119000000Y-53250000D02*
X115000000Y-57250000D01*
X121500000Y-54000000D02*
X120750000Y-53250000D01*
X115000000Y-57250000D02*
X115000000Y-56250000D01*
X125000000Y-55500000D02*
X124000000Y-56500000D01*
X121500000Y-56000000D02*
X121500000Y-54000000D01*
X122000000Y-56500000D02*
X121500000Y-56000000D01*
X115000000Y-52750000D02*
X115000000Y-52250000D01*
X121000000Y-52750000D02*
X122000000Y-53750000D01*
X124250000Y-52250000D02*
X125000000Y-53000000D01*
X123750000Y-58750000D02*
X122250000Y-58750000D01*
X124500000Y-59500000D02*
X123750000Y-58750000D01*
X124500000Y-61250000D02*
X124500000Y-59500000D01*
X123750000Y-62000000D02*
X124500000Y-61250000D01*
X122250000Y-62000000D02*
X123750000Y-62000000D01*
X122000000Y-61750000D02*
X122250000Y-62000000D01*
X121000000Y-58750000D02*
X122000000Y-59750000D01*
X118500000Y-58750000D02*
X121000000Y-58750000D01*
X122000000Y-59750000D02*
X122000000Y-61750000D01*
X115000000Y-62250000D02*
X118500000Y-58750000D01*
X115000000Y-63250000D02*
X115000000Y-62250000D01*
X119000000Y-59250000D02*
X115000000Y-63250000D01*
X120750000Y-59250000D02*
X119000000Y-59250000D01*
X121500000Y-60000000D02*
X120750000Y-59250000D01*
X121500000Y-62000000D02*
X121500000Y-60000000D01*
X125000000Y-59000000D02*
X125000000Y-61500000D01*
X124250000Y-58250000D02*
X125000000Y-59000000D01*
X124000000Y-62500000D02*
X122000000Y-62500000D01*
X115000000Y-58250000D02*
X124250000Y-58250000D01*
X115000000Y-58750000D02*
X115000000Y-58250000D01*
X125000000Y-61500000D02*
X124000000Y-62500000D01*
X118000000Y-58750000D02*
X115000000Y-58750000D01*
X122000000Y-62500000D02*
X121500000Y-62000000D01*
%TO.N,Net-(BZ1-+)*%
X138600000Y-98350000D02*
X152858578Y-112608578D01*
X127550000Y-98350000D02*
X138600000Y-98350000D01*
X118300000Y-89100000D02*
X127550000Y-98350000D01*
X152858578Y-112608578D02*
X152858578Y-112891422D01*
X159900000Y-106600000D02*
X155522794Y-110977206D01*
X159900000Y-102750000D02*
X159900000Y-106600000D01*
%TO.N,Net-(J3-Pin_11)*%
X142915686Y-133850000D02*
X152766421Y-143700735D01*
X140755686Y-133850000D02*
X142915686Y-133850000D01*
X123380000Y-116474314D02*
X140755686Y-133850000D01*
X152766421Y-143700735D02*
X153049265Y-143700735D01*
X123380000Y-114500000D02*
X123380000Y-116474314D01*
%TO.N,Net-(J3-Pin_12)*%
X142750000Y-134250000D02*
X156000000Y-147500000D01*
X140590000Y-134250000D02*
X142750000Y-134250000D01*
X120840000Y-114500000D02*
X140590000Y-134250000D01*
%TO.N,Net-(J2-Pin_1)*%
X175400000Y-84000000D02*
X148750000Y-84000000D01*
X148750000Y-84000000D02*
X148750000Y-83800000D01*
X177000000Y-82400000D02*
X175400000Y-84000000D01*
%TO.N,Net-(J1-Pin_2)*%
X144280000Y-84400000D02*
X177000000Y-84400000D01*
X130500000Y-70620000D02*
X144280000Y-84400000D01*
%TO.N,Net-(J2-Pin_7)*%
X155784072Y-112087014D02*
X156066914Y-112087014D01*
X133750000Y-95950000D02*
X139647058Y-95950000D01*
X133540000Y-89100000D02*
X133540000Y-95740000D01*
X133540000Y-95740000D02*
X133750000Y-95950000D01*
X139647058Y-95950000D02*
X155784072Y-112087014D01*
%TO.N,Net-(J2-Pin_8)*%
X139481372Y-96350000D02*
X156049263Y-112917892D01*
X131000000Y-89100000D02*
X131000000Y-96350000D01*
X156049263Y-112917892D02*
X156332108Y-112917892D01*
X131000000Y-96350000D02*
X139481372Y-96350000D01*
%TO.N,Net-(J2-Pin_9)*%
X128500000Y-96750000D02*
X139315686Y-96750000D01*
X128460000Y-89100000D02*
X128460000Y-96710000D01*
X156300000Y-113734314D02*
X156300000Y-113798640D01*
X139315686Y-96750000D02*
X156300000Y-113734314D01*
X128460000Y-96710000D02*
X128500000Y-96750000D01*
%TO.N,Net-(J2-Pin_10)*%
X155700000Y-114500000D02*
X155900000Y-114500000D01*
X155700000Y-113700000D02*
X155700000Y-114500000D01*
X139150000Y-97150000D02*
X155700000Y-113700000D01*
X128047058Y-97150000D02*
X139150000Y-97150000D01*
X125920000Y-95022942D02*
X128047058Y-97150000D01*
X125920000Y-89100000D02*
X125920000Y-95022942D01*
%TO.N,Net-(J2-Pin_11)*%
X138931372Y-97550000D02*
X155300000Y-113918628D01*
X155300000Y-113918628D02*
X155300000Y-116300000D01*
X159500000Y-120500000D02*
X167000000Y-120500000D01*
X123380000Y-93048628D02*
X127881372Y-97550000D01*
X155300000Y-116300000D02*
X159500000Y-120500000D01*
X123380000Y-89100000D02*
X123380000Y-93048628D01*
X127881372Y-97550000D02*
X138931372Y-97550000D01*
%TO.N,Net-(J2-Pin_12)*%
X154900000Y-125400000D02*
X157500000Y-128000000D01*
X154900000Y-114084315D02*
X154900000Y-125400000D01*
X138765686Y-97950000D02*
X154900000Y-114084315D01*
X127715686Y-97950000D02*
X138765686Y-97950000D01*
X120840000Y-89100000D02*
X120840000Y-91074314D01*
X120840000Y-91074314D02*
X127715686Y-97950000D01*
%TO.N,Net-(J2-Pin_8)*%
X124250000Y-145250000D02*
X130750000Y-145250000D01*
%TO.N,Net-(J2-Pin_9)*%
X114750000Y-137750000D02*
X121250000Y-137750000D01*
%TO.N,Net-(J2-Pin_7)*%
X124250000Y-130250000D02*
X130750000Y-130250000D01*
%TO.N,Net-(J2-Pin_10)*%
X133750000Y-137750000D02*
X140250000Y-137750000D01*
%TO.N,Net-(J3-Pin_11)*%
X146500000Y-147500000D02*
X153000000Y-147500000D01*
%TO.N,Net-(J3-Pin_12)*%
X156000000Y-147500000D02*
X162500000Y-147500000D01*
%TO.N,Net-(J2-Pin_11)*%
X167000000Y-120500000D02*
X173500000Y-120500000D01*
%TO.N,Net-(J2-Pin_12)*%
X157500000Y-128000000D02*
X164000000Y-128000000D01*
%TO.N,Net-(J1-Pin_2)*%
X129380000Y-69500000D02*
X130500000Y-70620000D01*
X124500000Y-69500000D02*
X129380000Y-69500000D01*
%TD*%
%TA.AperFunction,Conductor*%
%TO.N,GND*%
G36*
X178942539Y-40520185D02*
G01*
X178988294Y-40572989D01*
X178999500Y-40624500D01*
X178999500Y-79086689D01*
X178979815Y-79153728D01*
X178927011Y-79199483D01*
X178857853Y-79209427D01*
X178794297Y-79180402D01*
X178787819Y-79174370D01*
X178692654Y-79079205D01*
X178692649Y-79079201D01*
X178488848Y-78931132D01*
X178488847Y-78931131D01*
X178488845Y-78931130D01*
X178418747Y-78895413D01*
X178264383Y-78816760D01*
X178024785Y-78738910D01*
X177775962Y-78699500D01*
X176224038Y-78699500D01*
X176099626Y-78719205D01*
X175975214Y-78738910D01*
X175735616Y-78816760D01*
X175511151Y-78931132D01*
X175307350Y-79079201D01*
X175307345Y-79079205D01*
X175129205Y-79257345D01*
X175129201Y-79257350D01*
X174981132Y-79461151D01*
X174866760Y-79685616D01*
X174788910Y-79925214D01*
X174749500Y-80174038D01*
X174749500Y-80425961D01*
X174788910Y-80674785D01*
X174866760Y-80914383D01*
X174981132Y-81138848D01*
X175129201Y-81342649D01*
X175129205Y-81342654D01*
X175307349Y-81520798D01*
X175394752Y-81584299D01*
X175437418Y-81639628D01*
X175443397Y-81709242D01*
X175432352Y-81740911D01*
X175341118Y-81919967D01*
X175280290Y-82107173D01*
X175249500Y-82301577D01*
X175249500Y-82498422D01*
X175280290Y-82692826D01*
X175341117Y-82880029D01*
X175411476Y-83018115D01*
X175424372Y-83086785D01*
X175398096Y-83151525D01*
X175388673Y-83162091D01*
X175187582Y-83363182D01*
X175126262Y-83396666D01*
X175099903Y-83399500D01*
X149511427Y-83399500D01*
X149444388Y-83379815D01*
X149408325Y-83344390D01*
X149371792Y-83289715D01*
X149371786Y-83289707D01*
X149260292Y-83178213D01*
X149260288Y-83178210D01*
X149129185Y-83090609D01*
X149129172Y-83090602D01*
X148983501Y-83030264D01*
X148983489Y-83030261D01*
X148828845Y-82999500D01*
X148828842Y-82999500D01*
X148671158Y-82999500D01*
X148671155Y-82999500D01*
X148516510Y-83030261D01*
X148516498Y-83030264D01*
X148370827Y-83090602D01*
X148370814Y-83090609D01*
X148239711Y-83178210D01*
X148239707Y-83178213D01*
X148128213Y-83289707D01*
X148128210Y-83289711D01*
X148040609Y-83420814D01*
X148040602Y-83420827D01*
X147980264Y-83566498D01*
X147980261Y-83566508D01*
X147953769Y-83699692D01*
X147921384Y-83761603D01*
X147860668Y-83796177D01*
X147832152Y-83799500D01*
X144580097Y-83799500D01*
X144513058Y-83779815D01*
X144492416Y-83763181D01*
X131833757Y-71104522D01*
X131800272Y-71043199D01*
X131803507Y-70978523D01*
X131817246Y-70936243D01*
X131850500Y-70726287D01*
X131850500Y-70513713D01*
X131817246Y-70303757D01*
X131751557Y-70101588D01*
X131655051Y-69912184D01*
X131655049Y-69912181D01*
X131655048Y-69912179D01*
X131530109Y-69740213D01*
X131379786Y-69589890D01*
X131207820Y-69464951D01*
X131207115Y-69464591D01*
X131199054Y-69460485D01*
X131148259Y-69412512D01*
X131131463Y-69344692D01*
X131153999Y-69278556D01*
X131199054Y-69239515D01*
X131207816Y-69235051D01*
X131229789Y-69219086D01*
X131379786Y-69110109D01*
X131379788Y-69110106D01*
X131379792Y-69110104D01*
X131530104Y-68959792D01*
X131530106Y-68959788D01*
X131530109Y-68959786D01*
X131655048Y-68787820D01*
X131655047Y-68787820D01*
X131655051Y-68787816D01*
X131751557Y-68598412D01*
X131817246Y-68396243D01*
X131850500Y-68186287D01*
X131850500Y-67973713D01*
X131817246Y-67763757D01*
X131751557Y-67561588D01*
X131655051Y-67372184D01*
X131655049Y-67372181D01*
X131655048Y-67372179D01*
X131530109Y-67200213D01*
X131379786Y-67049890D01*
X131207820Y-66924951D01*
X131207115Y-66924591D01*
X131199054Y-66920485D01*
X131148259Y-66872512D01*
X131131463Y-66804692D01*
X131153999Y-66738556D01*
X131199054Y-66699515D01*
X131207816Y-66695051D01*
X131229789Y-66679086D01*
X131379786Y-66570109D01*
X131379788Y-66570106D01*
X131379792Y-66570104D01*
X131530104Y-66419792D01*
X131530106Y-66419788D01*
X131530109Y-66419786D01*
X131655048Y-66247820D01*
X131655047Y-66247820D01*
X131655051Y-66247816D01*
X131751557Y-66058412D01*
X131817246Y-65856243D01*
X131850500Y-65646287D01*
X131850500Y-65433713D01*
X131817246Y-65223757D01*
X131751557Y-65021588D01*
X131655051Y-64832184D01*
X131655049Y-64832181D01*
X131655048Y-64832179D01*
X131530109Y-64660213D01*
X131379786Y-64509890D01*
X131207820Y-64384951D01*
X131207115Y-64384591D01*
X131199054Y-64380485D01*
X131148259Y-64332512D01*
X131131463Y-64264692D01*
X131153999Y-64198556D01*
X131199054Y-64159515D01*
X131207816Y-64155051D01*
X131229789Y-64139086D01*
X131379786Y-64030109D01*
X131379788Y-64030106D01*
X131379792Y-64030104D01*
X131530104Y-63879792D01*
X131530106Y-63879788D01*
X131530109Y-63879786D01*
X131655048Y-63707820D01*
X131655047Y-63707820D01*
X131655051Y-63707816D01*
X131751557Y-63518412D01*
X131817246Y-63316243D01*
X131850500Y-63106287D01*
X131850500Y-62893713D01*
X131817246Y-62683757D01*
X131751557Y-62481588D01*
X131655051Y-62292184D01*
X131655049Y-62292181D01*
X131655048Y-62292179D01*
X131530109Y-62120213D01*
X131379786Y-61969890D01*
X131207820Y-61844951D01*
X131207115Y-61844591D01*
X131199054Y-61840485D01*
X131148259Y-61792512D01*
X131131463Y-61724692D01*
X131153999Y-61658556D01*
X131199054Y-61619515D01*
X131207816Y-61615051D01*
X131257361Y-61579055D01*
X131379786Y-61490109D01*
X131379788Y-61490106D01*
X131379792Y-61490104D01*
X131530104Y-61339792D01*
X131530106Y-61339788D01*
X131530109Y-61339786D01*
X131655048Y-61167820D01*
X131655047Y-61167820D01*
X131655051Y-61167816D01*
X131751557Y-60978412D01*
X131817246Y-60776243D01*
X131850500Y-60566287D01*
X131850500Y-60353713D01*
X131817246Y-60143757D01*
X131751557Y-59941588D01*
X131655051Y-59752184D01*
X131655049Y-59752181D01*
X131655048Y-59752179D01*
X131530109Y-59580213D01*
X131379786Y-59429890D01*
X131207820Y-59304951D01*
X131207115Y-59304591D01*
X131199054Y-59300485D01*
X131148259Y-59252512D01*
X131131463Y-59184692D01*
X131153999Y-59118556D01*
X131199054Y-59079515D01*
X131207816Y-59075051D01*
X131336180Y-58981790D01*
X131379786Y-58950109D01*
X131379788Y-58950106D01*
X131379792Y-58950104D01*
X131530104Y-58799792D01*
X131530106Y-58799788D01*
X131530109Y-58799786D01*
X131655048Y-58627820D01*
X131655047Y-58627820D01*
X131655051Y-58627816D01*
X131751557Y-58438412D01*
X131817246Y-58236243D01*
X131850500Y-58026287D01*
X131850500Y-57813713D01*
X131817246Y-57603757D01*
X131751557Y-57401588D01*
X131655051Y-57212184D01*
X131655049Y-57212181D01*
X131655048Y-57212179D01*
X131530109Y-57040213D01*
X131379786Y-56889890D01*
X131207820Y-56764951D01*
X131207115Y-56764591D01*
X131199054Y-56760485D01*
X131148259Y-56712512D01*
X131131463Y-56644692D01*
X131153999Y-56578556D01*
X131199054Y-56539515D01*
X131207816Y-56535051D01*
X131282872Y-56480520D01*
X131379786Y-56410109D01*
X131379788Y-56410106D01*
X131379792Y-56410104D01*
X131530104Y-56259792D01*
X131530106Y-56259788D01*
X131530109Y-56259786D01*
X131655048Y-56087820D01*
X131655047Y-56087820D01*
X131655051Y-56087816D01*
X131751557Y-55898412D01*
X131817246Y-55696243D01*
X131850500Y-55486287D01*
X131850500Y-55273713D01*
X131817246Y-55063757D01*
X131751557Y-54861588D01*
X131655051Y-54672184D01*
X131655049Y-54672181D01*
X131655048Y-54672179D01*
X131530109Y-54500213D01*
X131379786Y-54349890D01*
X131207820Y-54224951D01*
X131018414Y-54128444D01*
X131018413Y-54128443D01*
X131018412Y-54128443D01*
X130816243Y-54062754D01*
X130816241Y-54062753D01*
X130816240Y-54062753D01*
X130654957Y-54037208D01*
X130606287Y-54029500D01*
X130393713Y-54029500D01*
X130345042Y-54037208D01*
X130183760Y-54062753D01*
X129981585Y-54128444D01*
X129792179Y-54224951D01*
X129620213Y-54349890D01*
X129469890Y-54500213D01*
X129344951Y-54672179D01*
X129248444Y-54861585D01*
X129182753Y-55063760D01*
X129149500Y-55273713D01*
X129149500Y-55486287D01*
X129182754Y-55696243D01*
X129238794Y-55868717D01*
X129248444Y-55898414D01*
X129344951Y-56087820D01*
X129469890Y-56259786D01*
X129620213Y-56410109D01*
X129792182Y-56535050D01*
X129800946Y-56539516D01*
X129851742Y-56587491D01*
X129868536Y-56655312D01*
X129845998Y-56721447D01*
X129800946Y-56760484D01*
X129792182Y-56764949D01*
X129620213Y-56889890D01*
X129469890Y-57040213D01*
X129344951Y-57212179D01*
X129248444Y-57401585D01*
X129182753Y-57603760D01*
X129149500Y-57813713D01*
X129149500Y-58026286D01*
X129182753Y-58236239D01*
X129248444Y-58438414D01*
X129344951Y-58627820D01*
X129469890Y-58799786D01*
X129620213Y-58950109D01*
X129792182Y-59075050D01*
X129800946Y-59079516D01*
X129851742Y-59127491D01*
X129868536Y-59195312D01*
X129845998Y-59261447D01*
X129800946Y-59300484D01*
X129792182Y-59304949D01*
X129620213Y-59429890D01*
X129469890Y-59580213D01*
X129344951Y-59752179D01*
X129248444Y-59941585D01*
X129182753Y-60143760D01*
X129149500Y-60353713D01*
X129149500Y-60566286D01*
X129182753Y-60776239D01*
X129248444Y-60978414D01*
X129344951Y-61167820D01*
X129469890Y-61339786D01*
X129620213Y-61490109D01*
X129792182Y-61615050D01*
X129800946Y-61619516D01*
X129851742Y-61667491D01*
X129868536Y-61735312D01*
X129845998Y-61801447D01*
X129800946Y-61840484D01*
X129792182Y-61844949D01*
X129620213Y-61969890D01*
X129469890Y-62120213D01*
X129344951Y-62292179D01*
X129248444Y-62481585D01*
X129182753Y-62683760D01*
X129155077Y-62858501D01*
X129149500Y-62893713D01*
X129149500Y-63106287D01*
X129182754Y-63316243D01*
X129248442Y-63518410D01*
X129248444Y-63518414D01*
X129344951Y-63707820D01*
X129469890Y-63879786D01*
X129620213Y-64030109D01*
X129792182Y-64155050D01*
X129800946Y-64159516D01*
X129851742Y-64207491D01*
X129868536Y-64275312D01*
X129845998Y-64341447D01*
X129800946Y-64380484D01*
X129792182Y-64384949D01*
X129620213Y-64509890D01*
X129469890Y-64660213D01*
X129344951Y-64832179D01*
X129248444Y-65021585D01*
X129182753Y-65223760D01*
X129149500Y-65433713D01*
X129149500Y-65646286D01*
X129182753Y-65856239D01*
X129248444Y-66058414D01*
X129344951Y-66247820D01*
X129469890Y-66419786D01*
X129620213Y-66570109D01*
X129792182Y-66695050D01*
X129800946Y-66699516D01*
X129851742Y-66747491D01*
X129868536Y-66815312D01*
X129845998Y-66881447D01*
X129800946Y-66920484D01*
X129792182Y-66924949D01*
X129620213Y-67049890D01*
X129469890Y-67200213D01*
X129344951Y-67372179D01*
X129248444Y-67561585D01*
X129182753Y-67763760D01*
X129149500Y-67973713D01*
X129149500Y-68186287D01*
X129182754Y-68396243D01*
X129219077Y-68508034D01*
X129248444Y-68598414D01*
X129309990Y-68719205D01*
X129322886Y-68787874D01*
X129296610Y-68852615D01*
X129239503Y-68892872D01*
X129199505Y-68899500D01*
X125729602Y-68899500D01*
X125662563Y-68879815D01*
X125619117Y-68831795D01*
X125612284Y-68818385D01*
X125491971Y-68652786D01*
X125347213Y-68508028D01*
X125181613Y-68387715D01*
X125181612Y-68387714D01*
X125181610Y-68387713D01*
X125124653Y-68358691D01*
X124999223Y-68294781D01*
X124804534Y-68231522D01*
X124629995Y-68203878D01*
X124602352Y-68199500D01*
X124397648Y-68199500D01*
X124373329Y-68203351D01*
X124195465Y-68231522D01*
X124000776Y-68294781D01*
X123818386Y-68387715D01*
X123652786Y-68508028D01*
X123508028Y-68652786D01*
X123387715Y-68818386D01*
X123294781Y-69000776D01*
X123231522Y-69195465D01*
X123199500Y-69397648D01*
X123199500Y-69602351D01*
X123231522Y-69804534D01*
X123294781Y-69999223D01*
X123346385Y-70100500D01*
X123383320Y-70172989D01*
X123387715Y-70181613D01*
X123508028Y-70347213D01*
X123652786Y-70491971D01*
X123807749Y-70604556D01*
X123818390Y-70612287D01*
X123934607Y-70671503D01*
X124000776Y-70705218D01*
X124000778Y-70705218D01*
X124000781Y-70705220D01*
X124065619Y-70726287D01*
X124195465Y-70768477D01*
X124296557Y-70784488D01*
X124397648Y-70800500D01*
X124397649Y-70800500D01*
X124602351Y-70800500D01*
X124602352Y-70800500D01*
X124804534Y-70768477D01*
X124999219Y-70705220D01*
X125181610Y-70612287D01*
X125317287Y-70513713D01*
X125347213Y-70491971D01*
X125347215Y-70491968D01*
X125347219Y-70491966D01*
X125491966Y-70347219D01*
X125491968Y-70347215D01*
X125491971Y-70347213D01*
X125612284Y-70181614D01*
X125612285Y-70181613D01*
X125612287Y-70181610D01*
X125619117Y-70168204D01*
X125667091Y-70117409D01*
X125729602Y-70100500D01*
X129078125Y-70100500D01*
X129145164Y-70120185D01*
X129190919Y-70172989D01*
X129200863Y-70242147D01*
X129196057Y-70262813D01*
X129190278Y-70280600D01*
X129182753Y-70303758D01*
X129149500Y-70513713D01*
X129149500Y-70726286D01*
X129182753Y-70936239D01*
X129182753Y-70936241D01*
X129182754Y-70936243D01*
X129237431Y-71104522D01*
X129248444Y-71138414D01*
X129344951Y-71327820D01*
X129469890Y-71499786D01*
X129583818Y-71613714D01*
X129617303Y-71675037D01*
X129612319Y-71744729D01*
X129570447Y-71800662D01*
X129539471Y-71817577D01*
X129407912Y-71866646D01*
X129407906Y-71866649D01*
X129292812Y-71952809D01*
X129292809Y-71952812D01*
X129206649Y-72067906D01*
X129206645Y-72067913D01*
X129156403Y-72202620D01*
X129156401Y-72202627D01*
X129150000Y-72262155D01*
X129150000Y-72910000D01*
X130066988Y-72910000D01*
X130034075Y-72967007D01*
X130000000Y-73094174D01*
X130000000Y-73225826D01*
X130034075Y-73352993D01*
X130066988Y-73410000D01*
X129150000Y-73410000D01*
X129150000Y-74057844D01*
X129156401Y-74117372D01*
X129156403Y-74117379D01*
X129206645Y-74252086D01*
X129206649Y-74252093D01*
X129292809Y-74367187D01*
X129292812Y-74367190D01*
X129407906Y-74453350D01*
X129407913Y-74453354D01*
X129542620Y-74503596D01*
X129542627Y-74503598D01*
X129602155Y-74509999D01*
X129602172Y-74510000D01*
X130250000Y-74510000D01*
X130250000Y-73593012D01*
X130307007Y-73625925D01*
X130434174Y-73660000D01*
X130565826Y-73660000D01*
X130692993Y-73625925D01*
X130750000Y-73593012D01*
X130750000Y-74510000D01*
X131397828Y-74510000D01*
X131397844Y-74509999D01*
X131457372Y-74503598D01*
X131457379Y-74503596D01*
X131592086Y-74453354D01*
X131592093Y-74453350D01*
X131707187Y-74367190D01*
X131707190Y-74367187D01*
X131793350Y-74252093D01*
X131793354Y-74252086D01*
X131843596Y-74117379D01*
X131843598Y-74117372D01*
X131849999Y-74057844D01*
X131850000Y-74057827D01*
X131850000Y-73410000D01*
X130933012Y-73410000D01*
X130965925Y-73352993D01*
X131000000Y-73225826D01*
X131000000Y-73094174D01*
X130965925Y-72967007D01*
X130933012Y-72910000D01*
X131889403Y-72910000D01*
X131956442Y-72929685D01*
X131977084Y-72946319D01*
X143795139Y-84764374D01*
X143795149Y-84764385D01*
X143799479Y-84768715D01*
X143799480Y-84768716D01*
X143911284Y-84880520D01*
X143998095Y-84930639D01*
X143998097Y-84930641D01*
X144036151Y-84952611D01*
X144048215Y-84959577D01*
X144200943Y-85000501D01*
X144200946Y-85000501D01*
X144366653Y-85000501D01*
X144366669Y-85000500D01*
X175327404Y-85000500D01*
X175394443Y-85020185D01*
X175427722Y-85051615D01*
X175456783Y-85091614D01*
X175480263Y-85157420D01*
X175464438Y-85225474D01*
X175430777Y-85263765D01*
X175392452Y-85292455D01*
X175306206Y-85407664D01*
X175306202Y-85407671D01*
X175255908Y-85542517D01*
X175249501Y-85602116D01*
X175249501Y-85602123D01*
X175249500Y-85602135D01*
X175249500Y-87197870D01*
X175249501Y-87197876D01*
X175256669Y-87264555D01*
X175244262Y-87333314D01*
X175221061Y-87365488D01*
X175129205Y-87457345D01*
X175129201Y-87457350D01*
X174981132Y-87661151D01*
X174866760Y-87885616D01*
X174788910Y-88125214D01*
X174773987Y-88219433D01*
X174749500Y-88374038D01*
X174749500Y-88625962D01*
X174774493Y-88783760D01*
X174788910Y-88874785D01*
X174866760Y-89114383D01*
X174981132Y-89338848D01*
X175129201Y-89542649D01*
X175129205Y-89542654D01*
X175307345Y-89720794D01*
X175307350Y-89720798D01*
X175485117Y-89849952D01*
X175511155Y-89868870D01*
X175654184Y-89941747D01*
X175735616Y-89983239D01*
X175735618Y-89983239D01*
X175735621Y-89983241D01*
X175975215Y-90061090D01*
X176224038Y-90100500D01*
X176224039Y-90100500D01*
X177775961Y-90100500D01*
X177775962Y-90100500D01*
X178024785Y-90061090D01*
X178264379Y-89983241D01*
X178488845Y-89868870D01*
X178692656Y-89720793D01*
X178787819Y-89625630D01*
X178849142Y-89592145D01*
X178918834Y-89597129D01*
X178974767Y-89639001D01*
X178999184Y-89704465D01*
X178999500Y-89713311D01*
X178999500Y-159375500D01*
X178979815Y-159442539D01*
X178927011Y-159488294D01*
X178875500Y-159499500D01*
X110124500Y-159499500D01*
X110057461Y-159479815D01*
X110011706Y-159427011D01*
X110000500Y-159375500D01*
X110000500Y-154378711D01*
X113149500Y-154378711D01*
X113149500Y-154621288D01*
X113181161Y-154861785D01*
X113243947Y-155096104D01*
X113336773Y-155320205D01*
X113336776Y-155320212D01*
X113458064Y-155530289D01*
X113458066Y-155530292D01*
X113458067Y-155530293D01*
X113605733Y-155722736D01*
X113605739Y-155722743D01*
X113777256Y-155894260D01*
X113777262Y-155894265D01*
X113969711Y-156041936D01*
X114179788Y-156163224D01*
X114403900Y-156256054D01*
X114638211Y-156318838D01*
X114818586Y-156342584D01*
X114878711Y-156350500D01*
X114878712Y-156350500D01*
X115121289Y-156350500D01*
X115169388Y-156344167D01*
X115361789Y-156318838D01*
X115596100Y-156256054D01*
X115820212Y-156163224D01*
X116030289Y-156041936D01*
X116222738Y-155894265D01*
X116394265Y-155722738D01*
X116541936Y-155530289D01*
X116663224Y-155320212D01*
X116756054Y-155096100D01*
X116818838Y-154861789D01*
X116850500Y-154621288D01*
X116850500Y-154378712D01*
X116850500Y-154378711D01*
X172149500Y-154378711D01*
X172149500Y-154621288D01*
X172181161Y-154861785D01*
X172243947Y-155096104D01*
X172336773Y-155320205D01*
X172336776Y-155320212D01*
X172458064Y-155530289D01*
X172458066Y-155530292D01*
X172458067Y-155530293D01*
X172605733Y-155722736D01*
X172605739Y-155722743D01*
X172777256Y-155894260D01*
X172777262Y-155894265D01*
X172969711Y-156041936D01*
X173179788Y-156163224D01*
X173403900Y-156256054D01*
X173638211Y-156318838D01*
X173818586Y-156342584D01*
X173878711Y-156350500D01*
X173878712Y-156350500D01*
X174121289Y-156350500D01*
X174169388Y-156344167D01*
X174361789Y-156318838D01*
X174596100Y-156256054D01*
X174820212Y-156163224D01*
X175030289Y-156041936D01*
X175222738Y-155894265D01*
X175394265Y-155722738D01*
X175541936Y-155530289D01*
X175663224Y-155320212D01*
X175756054Y-155096100D01*
X175818838Y-154861789D01*
X175850500Y-154621288D01*
X175850500Y-154378712D01*
X175818838Y-154138211D01*
X175756054Y-153903900D01*
X175663224Y-153679788D01*
X175541936Y-153469711D01*
X175394265Y-153277262D01*
X175394260Y-153277256D01*
X175222743Y-153105739D01*
X175222736Y-153105733D01*
X175030293Y-152958067D01*
X175030292Y-152958066D01*
X175030289Y-152958064D01*
X174820212Y-152836776D01*
X174820205Y-152836773D01*
X174596104Y-152743947D01*
X174361785Y-152681161D01*
X174121289Y-152649500D01*
X174121288Y-152649500D01*
X173878712Y-152649500D01*
X173878711Y-152649500D01*
X173638214Y-152681161D01*
X173403895Y-152743947D01*
X173179794Y-152836773D01*
X173179785Y-152836777D01*
X172969706Y-152958067D01*
X172777263Y-153105733D01*
X172777256Y-153105739D01*
X172605739Y-153277256D01*
X172605733Y-153277263D01*
X172458067Y-153469706D01*
X172336777Y-153679785D01*
X172336773Y-153679794D01*
X172243947Y-153903895D01*
X172181161Y-154138214D01*
X172149500Y-154378711D01*
X116850500Y-154378711D01*
X116818838Y-154138211D01*
X116756054Y-153903900D01*
X116663224Y-153679788D01*
X116541936Y-153469711D01*
X116394265Y-153277262D01*
X116394260Y-153277256D01*
X116222743Y-153105739D01*
X116222736Y-153105733D01*
X116030293Y-152958067D01*
X116030292Y-152958066D01*
X116030289Y-152958064D01*
X115820212Y-152836776D01*
X115820205Y-152836773D01*
X115596104Y-152743947D01*
X115361785Y-152681161D01*
X115121289Y-152649500D01*
X115121288Y-152649500D01*
X114878712Y-152649500D01*
X114878711Y-152649500D01*
X114638214Y-152681161D01*
X114403895Y-152743947D01*
X114179794Y-152836773D01*
X114179785Y-152836777D01*
X113969706Y-152958067D01*
X113777263Y-153105733D01*
X113777256Y-153105739D01*
X113605739Y-153277256D01*
X113605733Y-153277263D01*
X113458067Y-153469706D01*
X113336777Y-153679785D01*
X113336773Y-153679794D01*
X113243947Y-153903895D01*
X113181161Y-154138214D01*
X113149500Y-154378711D01*
X110000500Y-154378711D01*
X110000500Y-151881947D01*
X145000000Y-151881947D01*
X145000000Y-152118052D01*
X145036934Y-152351247D01*
X145109897Y-152575802D01*
X145217087Y-152786174D01*
X145277338Y-152869104D01*
X145277340Y-152869105D01*
X145976212Y-152170233D01*
X145987482Y-152212292D01*
X146059890Y-152337708D01*
X146162292Y-152440110D01*
X146287708Y-152512518D01*
X146329765Y-152523787D01*
X145630893Y-153222658D01*
X145713828Y-153282914D01*
X145924197Y-153390102D01*
X146148752Y-153463065D01*
X146148751Y-153463065D01*
X146381948Y-153500000D01*
X146618052Y-153500000D01*
X146851247Y-153463065D01*
X147075802Y-153390102D01*
X147286163Y-153282918D01*
X147286169Y-153282914D01*
X147369104Y-153222658D01*
X147369105Y-153222658D01*
X146670233Y-152523787D01*
X146712292Y-152512518D01*
X146837708Y-152440110D01*
X146940110Y-152337708D01*
X147012518Y-152212292D01*
X147023787Y-152170234D01*
X147722658Y-152869105D01*
X147722658Y-152869104D01*
X147782914Y-152786169D01*
X147782918Y-152786163D01*
X147890102Y-152575802D01*
X147963065Y-152351247D01*
X148000000Y-152118052D01*
X148000000Y-151881947D01*
X151500000Y-151881947D01*
X151500000Y-152118052D01*
X151536934Y-152351247D01*
X151609897Y-152575802D01*
X151717087Y-152786174D01*
X151777338Y-152869104D01*
X151777340Y-152869105D01*
X152476212Y-152170233D01*
X152487482Y-152212292D01*
X152559890Y-152337708D01*
X152662292Y-152440110D01*
X152787708Y-152512518D01*
X152829765Y-152523787D01*
X152130893Y-153222658D01*
X152213828Y-153282914D01*
X152424197Y-153390102D01*
X152648752Y-153463065D01*
X152648751Y-153463065D01*
X152881948Y-153500000D01*
X153118052Y-153500000D01*
X153351247Y-153463065D01*
X153575802Y-153390102D01*
X153786163Y-153282918D01*
X153786169Y-153282914D01*
X153869104Y-153222658D01*
X153869105Y-153222658D01*
X153170233Y-152523787D01*
X153212292Y-152512518D01*
X153337708Y-152440110D01*
X153440110Y-152337708D01*
X153512518Y-152212292D01*
X153523787Y-152170234D01*
X154222658Y-152869105D01*
X154222658Y-152869104D01*
X154282914Y-152786169D01*
X154282918Y-152786163D01*
X154389515Y-152576956D01*
X154437489Y-152526160D01*
X154505310Y-152509365D01*
X154571445Y-152531902D01*
X154610485Y-152576956D01*
X154717087Y-152786174D01*
X154777338Y-152869104D01*
X154777340Y-152869105D01*
X155476212Y-152170233D01*
X155487482Y-152212292D01*
X155559890Y-152337708D01*
X155662292Y-152440110D01*
X155787708Y-152512518D01*
X155829765Y-152523787D01*
X155130893Y-153222658D01*
X155213828Y-153282914D01*
X155424197Y-153390102D01*
X155648752Y-153463065D01*
X155648751Y-153463065D01*
X155881948Y-153500000D01*
X156118052Y-153500000D01*
X156351247Y-153463065D01*
X156575802Y-153390102D01*
X156786163Y-153282918D01*
X156786169Y-153282914D01*
X156869104Y-153222658D01*
X156869105Y-153222658D01*
X156170233Y-152523787D01*
X156212292Y-152512518D01*
X156337708Y-152440110D01*
X156440110Y-152337708D01*
X156512518Y-152212292D01*
X156523787Y-152170234D01*
X157222658Y-152869105D01*
X157222658Y-152869104D01*
X157282914Y-152786169D01*
X157282918Y-152786163D01*
X157390102Y-152575802D01*
X157463065Y-152351247D01*
X157500000Y-152118052D01*
X157500000Y-151881947D01*
X161000000Y-151881947D01*
X161000000Y-152118052D01*
X161036934Y-152351247D01*
X161109897Y-152575802D01*
X161217087Y-152786174D01*
X161277338Y-152869104D01*
X161277340Y-152869105D01*
X161976212Y-152170233D01*
X161987482Y-152212292D01*
X162059890Y-152337708D01*
X162162292Y-152440110D01*
X162287708Y-152512518D01*
X162329765Y-152523787D01*
X161630893Y-153222658D01*
X161713828Y-153282914D01*
X161924197Y-153390102D01*
X162148752Y-153463065D01*
X162148751Y-153463065D01*
X162381948Y-153500000D01*
X162618052Y-153500000D01*
X162851247Y-153463065D01*
X163075802Y-153390102D01*
X163286163Y-153282918D01*
X163286169Y-153282914D01*
X163369104Y-153222658D01*
X163369105Y-153222658D01*
X162670233Y-152523787D01*
X162712292Y-152512518D01*
X162837708Y-152440110D01*
X162940110Y-152337708D01*
X163012518Y-152212292D01*
X163023787Y-152170234D01*
X163722658Y-152869105D01*
X163722658Y-152869104D01*
X163782914Y-152786169D01*
X163782918Y-152786163D01*
X163890102Y-152575802D01*
X163963065Y-152351247D01*
X164000000Y-152118052D01*
X164000000Y-151881947D01*
X163963065Y-151648752D01*
X163890102Y-151424197D01*
X163782914Y-151213828D01*
X163722658Y-151130894D01*
X163722658Y-151130893D01*
X163023787Y-151829765D01*
X163012518Y-151787708D01*
X162940110Y-151662292D01*
X162837708Y-151559890D01*
X162712292Y-151487482D01*
X162670234Y-151476212D01*
X163369105Y-150777340D01*
X163369104Y-150777338D01*
X163286174Y-150717087D01*
X163075802Y-150609897D01*
X162851247Y-150536934D01*
X162851248Y-150536934D01*
X162618052Y-150500000D01*
X162381948Y-150500000D01*
X162148752Y-150536934D01*
X161924197Y-150609897D01*
X161713830Y-150717084D01*
X161630894Y-150777340D01*
X162329766Y-151476212D01*
X162287708Y-151487482D01*
X162162292Y-151559890D01*
X162059890Y-151662292D01*
X161987482Y-151787708D01*
X161976212Y-151829765D01*
X161277340Y-151130894D01*
X161217084Y-151213830D01*
X161109897Y-151424197D01*
X161036934Y-151648752D01*
X161000000Y-151881947D01*
X157500000Y-151881947D01*
X157463065Y-151648752D01*
X157390102Y-151424197D01*
X157282914Y-151213828D01*
X157222658Y-151130894D01*
X157222658Y-151130893D01*
X156523787Y-151829765D01*
X156512518Y-151787708D01*
X156440110Y-151662292D01*
X156337708Y-151559890D01*
X156212292Y-151487482D01*
X156170234Y-151476212D01*
X156869105Y-150777340D01*
X156869104Y-150777339D01*
X156786174Y-150717087D01*
X156575802Y-150609897D01*
X156351247Y-150536934D01*
X156351248Y-150536934D01*
X156118052Y-150500000D01*
X155881948Y-150500000D01*
X155648752Y-150536934D01*
X155424197Y-150609897D01*
X155213830Y-150717084D01*
X155130894Y-150777340D01*
X155829766Y-151476212D01*
X155787708Y-151487482D01*
X155662292Y-151559890D01*
X155559890Y-151662292D01*
X155487482Y-151787708D01*
X155476212Y-151829766D01*
X154777340Y-151130894D01*
X154717084Y-151213830D01*
X154610485Y-151423043D01*
X154562510Y-151473839D01*
X154494689Y-151490634D01*
X154428554Y-151468096D01*
X154389515Y-151423043D01*
X154282914Y-151213828D01*
X154222658Y-151130894D01*
X154222658Y-151130893D01*
X153523787Y-151829765D01*
X153512518Y-151787708D01*
X153440110Y-151662292D01*
X153337708Y-151559890D01*
X153212292Y-151487482D01*
X153170234Y-151476212D01*
X153869105Y-150777340D01*
X153869104Y-150777339D01*
X153786174Y-150717087D01*
X153575802Y-150609897D01*
X153351247Y-150536934D01*
X153351248Y-150536934D01*
X153118052Y-150500000D01*
X152881948Y-150500000D01*
X152648752Y-150536934D01*
X152424197Y-150609897D01*
X152213830Y-150717084D01*
X152130894Y-150777340D01*
X152829766Y-151476212D01*
X152787708Y-151487482D01*
X152662292Y-151559890D01*
X152559890Y-151662292D01*
X152487482Y-151787708D01*
X152476212Y-151829765D01*
X151777340Y-151130894D01*
X151717084Y-151213830D01*
X151609897Y-151424197D01*
X151536934Y-151648752D01*
X151500000Y-151881947D01*
X148000000Y-151881947D01*
X147963065Y-151648752D01*
X147890102Y-151424197D01*
X147782914Y-151213828D01*
X147722658Y-151130894D01*
X147722658Y-151130893D01*
X147023787Y-151829765D01*
X147012518Y-151787708D01*
X146940110Y-151662292D01*
X146837708Y-151559890D01*
X146712292Y-151487482D01*
X146670234Y-151476212D01*
X147369105Y-150777340D01*
X147369104Y-150777339D01*
X147286174Y-150717087D01*
X147075802Y-150609897D01*
X146851247Y-150536934D01*
X146851248Y-150536934D01*
X146618052Y-150500000D01*
X146381948Y-150500000D01*
X146148752Y-150536934D01*
X145924197Y-150609897D01*
X145713830Y-150717084D01*
X145630894Y-150777340D01*
X146329766Y-151476212D01*
X146287708Y-151487482D01*
X146162292Y-151559890D01*
X146059890Y-151662292D01*
X145987482Y-151787708D01*
X145976212Y-151829766D01*
X145277340Y-151130894D01*
X145217084Y-151213830D01*
X145109897Y-151424197D01*
X145036934Y-151648752D01*
X145000000Y-151881947D01*
X110000500Y-151881947D01*
X110000500Y-149631947D01*
X122750000Y-149631947D01*
X122750000Y-149868052D01*
X122786934Y-150101247D01*
X122859897Y-150325802D01*
X122967087Y-150536174D01*
X123027338Y-150619104D01*
X123027340Y-150619105D01*
X123726212Y-149920233D01*
X123737482Y-149962292D01*
X123809890Y-150087708D01*
X123912292Y-150190110D01*
X124037708Y-150262518D01*
X124079765Y-150273787D01*
X123380893Y-150972658D01*
X123463828Y-151032914D01*
X123674197Y-151140102D01*
X123898752Y-151213065D01*
X123898751Y-151213065D01*
X124131948Y-151250000D01*
X124368052Y-151250000D01*
X124601247Y-151213065D01*
X124825802Y-151140102D01*
X125036163Y-151032918D01*
X125036169Y-151032914D01*
X125119104Y-150972658D01*
X125119105Y-150972658D01*
X124420233Y-150273787D01*
X124462292Y-150262518D01*
X124587708Y-150190110D01*
X124690110Y-150087708D01*
X124762518Y-149962292D01*
X124773787Y-149920233D01*
X125472658Y-150619105D01*
X125472658Y-150619104D01*
X125532914Y-150536169D01*
X125532918Y-150536163D01*
X125640102Y-150325802D01*
X125713065Y-150101247D01*
X125750000Y-149868052D01*
X125750000Y-149631947D01*
X129250000Y-149631947D01*
X129250000Y-149868052D01*
X129286934Y-150101247D01*
X129359897Y-150325802D01*
X129467087Y-150536174D01*
X129527338Y-150619104D01*
X129527340Y-150619105D01*
X130226212Y-149920233D01*
X130237482Y-149962292D01*
X130309890Y-150087708D01*
X130412292Y-150190110D01*
X130537708Y-150262518D01*
X130579765Y-150273787D01*
X129880893Y-150972658D01*
X129963828Y-151032914D01*
X130174197Y-151140102D01*
X130398752Y-151213065D01*
X130398751Y-151213065D01*
X130631948Y-151250000D01*
X130868052Y-151250000D01*
X131101247Y-151213065D01*
X131325802Y-151140102D01*
X131536163Y-151032918D01*
X131536169Y-151032914D01*
X131619104Y-150972658D01*
X131619105Y-150972658D01*
X131558727Y-150912280D01*
X130920233Y-150273787D01*
X130962292Y-150262518D01*
X131087708Y-150190110D01*
X131190110Y-150087708D01*
X131262518Y-149962292D01*
X131273787Y-149920234D01*
X131972658Y-150619105D01*
X131972658Y-150619104D01*
X132032914Y-150536169D01*
X132032918Y-150536163D01*
X132140102Y-150325802D01*
X132213065Y-150101247D01*
X132250000Y-149868052D01*
X132250000Y-149631947D01*
X132213065Y-149398752D01*
X132140102Y-149174197D01*
X132032914Y-148963828D01*
X131972658Y-148880894D01*
X131972658Y-148880893D01*
X131273787Y-149579765D01*
X131262518Y-149537708D01*
X131190110Y-149412292D01*
X131087708Y-149309890D01*
X130962292Y-149237482D01*
X130920234Y-149226212D01*
X131619105Y-148527340D01*
X131619104Y-148527338D01*
X131536174Y-148467087D01*
X131325802Y-148359897D01*
X131101247Y-148286934D01*
X131101248Y-148286934D01*
X130868052Y-148250000D01*
X130631948Y-148250000D01*
X130398752Y-148286934D01*
X130174197Y-148359897D01*
X129963830Y-148467084D01*
X129880894Y-148527340D01*
X130579766Y-149226212D01*
X130537708Y-149237482D01*
X130412292Y-149309890D01*
X130309890Y-149412292D01*
X130237482Y-149537708D01*
X130226212Y-149579766D01*
X129527340Y-148880894D01*
X129467084Y-148963830D01*
X129359897Y-149174197D01*
X129286934Y-149398752D01*
X129250000Y-149631947D01*
X125750000Y-149631947D01*
X125713065Y-149398752D01*
X125640102Y-149174197D01*
X125532914Y-148963828D01*
X125472658Y-148880894D01*
X125472658Y-148880893D01*
X124773787Y-149579765D01*
X124762518Y-149537708D01*
X124690110Y-149412292D01*
X124587708Y-149309890D01*
X124462292Y-149237482D01*
X124420234Y-149226212D01*
X125119105Y-148527340D01*
X125119104Y-148527339D01*
X125036174Y-148467087D01*
X124825802Y-148359897D01*
X124601247Y-148286934D01*
X124601248Y-148286934D01*
X124368052Y-148250000D01*
X124131948Y-148250000D01*
X123898752Y-148286934D01*
X123674197Y-148359897D01*
X123463830Y-148467084D01*
X123380894Y-148527340D01*
X124079766Y-149226212D01*
X124037708Y-149237482D01*
X123912292Y-149309890D01*
X123809890Y-149412292D01*
X123737482Y-149537708D01*
X123726212Y-149579766D01*
X123027340Y-148880894D01*
X122967084Y-148963830D01*
X122859897Y-149174197D01*
X122786934Y-149398752D01*
X122750000Y-149631947D01*
X110000500Y-149631947D01*
X110000500Y-145131902D01*
X122749500Y-145131902D01*
X122749500Y-145368097D01*
X122786446Y-145601368D01*
X122859433Y-145825996D01*
X122929692Y-145963886D01*
X122966657Y-146036433D01*
X123105483Y-146227510D01*
X123272490Y-146394517D01*
X123463567Y-146533343D01*
X123562991Y-146584002D01*
X123674003Y-146640566D01*
X123674005Y-146640566D01*
X123674008Y-146640568D01*
X123794412Y-146679689D01*
X123898631Y-146713553D01*
X124131903Y-146750500D01*
X124131908Y-146750500D01*
X124368097Y-146750500D01*
X124601368Y-146713553D01*
X124825992Y-146640568D01*
X125036433Y-146533343D01*
X125227510Y-146394517D01*
X125394517Y-146227510D01*
X125533343Y-146036433D01*
X125593583Y-145918204D01*
X125641558Y-145867409D01*
X125704068Y-145850500D01*
X129295932Y-145850500D01*
X129362971Y-145870185D01*
X129406416Y-145918203D01*
X129466657Y-146036433D01*
X129605483Y-146227510D01*
X129772490Y-146394517D01*
X129963567Y-146533343D01*
X130062991Y-146584002D01*
X130174003Y-146640566D01*
X130174005Y-146640566D01*
X130174008Y-146640568D01*
X130294412Y-146679689D01*
X130398631Y-146713553D01*
X130631903Y-146750500D01*
X130631908Y-146750500D01*
X130868097Y-146750500D01*
X131101368Y-146713553D01*
X131325992Y-146640568D01*
X131536433Y-146533343D01*
X131727510Y-146394517D01*
X131894517Y-146227510D01*
X132033343Y-146036433D01*
X132140568Y-145825992D01*
X132213553Y-145601368D01*
X132250500Y-145368097D01*
X132250500Y-145131902D01*
X132213553Y-144898631D01*
X132140566Y-144674003D01*
X132033342Y-144463566D01*
X131894517Y-144272490D01*
X131727510Y-144105483D01*
X131536433Y-143966657D01*
X131325996Y-143859433D01*
X131101368Y-143786446D01*
X130868097Y-143749500D01*
X130868092Y-143749500D01*
X130631908Y-143749500D01*
X130631903Y-143749500D01*
X130398631Y-143786446D01*
X130174003Y-143859433D01*
X129963566Y-143966657D01*
X129854550Y-144045862D01*
X129772490Y-144105483D01*
X129772488Y-144105485D01*
X129772487Y-144105485D01*
X129605485Y-144272487D01*
X129605485Y-144272488D01*
X129605483Y-144272490D01*
X129549605Y-144349399D01*
X129466657Y-144463566D01*
X129406417Y-144581795D01*
X129358442Y-144632591D01*
X129295932Y-144649500D01*
X125704068Y-144649500D01*
X125637029Y-144629815D01*
X125593583Y-144581795D01*
X125533342Y-144463566D01*
X125394517Y-144272490D01*
X125227510Y-144105483D01*
X125036433Y-143966657D01*
X124825996Y-143859433D01*
X124601368Y-143786446D01*
X124368097Y-143749500D01*
X124368092Y-143749500D01*
X124131908Y-143749500D01*
X124131903Y-143749500D01*
X123898631Y-143786446D01*
X123674003Y-143859433D01*
X123463566Y-143966657D01*
X123354550Y-144045862D01*
X123272490Y-144105483D01*
X123272488Y-144105485D01*
X123272487Y-144105485D01*
X123105485Y-144272487D01*
X123105485Y-144272488D01*
X123105483Y-144272490D01*
X123049605Y-144349399D01*
X122966657Y-144463566D01*
X122859433Y-144674003D01*
X122786446Y-144898631D01*
X122749500Y-145131902D01*
X110000500Y-145131902D01*
X110000500Y-142131947D01*
X113250000Y-142131947D01*
X113250000Y-142368052D01*
X113286934Y-142601247D01*
X113359897Y-142825802D01*
X113467087Y-143036174D01*
X113527338Y-143119104D01*
X113527340Y-143119105D01*
X114226212Y-142420233D01*
X114237482Y-142462292D01*
X114309890Y-142587708D01*
X114412292Y-142690110D01*
X114537708Y-142762518D01*
X114579765Y-142773787D01*
X113880893Y-143472658D01*
X113963828Y-143532914D01*
X114174197Y-143640102D01*
X114398752Y-143713065D01*
X114398751Y-143713065D01*
X114631948Y-143750000D01*
X114868052Y-143750000D01*
X115101247Y-143713065D01*
X115325802Y-143640102D01*
X115536163Y-143532918D01*
X115536169Y-143532914D01*
X115619104Y-143472658D01*
X115619105Y-143472658D01*
X114920233Y-142773787D01*
X114962292Y-142762518D01*
X115087708Y-142690110D01*
X115190110Y-142587708D01*
X115262518Y-142462292D01*
X115273787Y-142420234D01*
X115972658Y-143119105D01*
X115972658Y-143119104D01*
X116032914Y-143036169D01*
X116032918Y-143036163D01*
X116140102Y-142825802D01*
X116213065Y-142601247D01*
X116250000Y-142368052D01*
X116250000Y-142131947D01*
X119750000Y-142131947D01*
X119750000Y-142368052D01*
X119786934Y-142601247D01*
X119859897Y-142825802D01*
X119967087Y-143036174D01*
X120027338Y-143119104D01*
X120027340Y-143119105D01*
X120726212Y-142420233D01*
X120737482Y-142462292D01*
X120809890Y-142587708D01*
X120912292Y-142690110D01*
X121037708Y-142762518D01*
X121079765Y-142773787D01*
X120380893Y-143472658D01*
X120463828Y-143532914D01*
X120674197Y-143640102D01*
X120898752Y-143713065D01*
X120898751Y-143713065D01*
X121131948Y-143750000D01*
X121368052Y-143750000D01*
X121601247Y-143713065D01*
X121825802Y-143640102D01*
X122036163Y-143532918D01*
X122036169Y-143532914D01*
X122119104Y-143472658D01*
X122119105Y-143472658D01*
X121420233Y-142773787D01*
X121462292Y-142762518D01*
X121587708Y-142690110D01*
X121690110Y-142587708D01*
X121762518Y-142462292D01*
X121773787Y-142420234D01*
X122472658Y-143119105D01*
X122472658Y-143119104D01*
X122532914Y-143036169D01*
X122532918Y-143036163D01*
X122640102Y-142825802D01*
X122713065Y-142601247D01*
X122750000Y-142368052D01*
X122750000Y-142131947D01*
X132250000Y-142131947D01*
X132250000Y-142368052D01*
X132286934Y-142601247D01*
X132359897Y-142825802D01*
X132467087Y-143036174D01*
X132527338Y-143119104D01*
X132527340Y-143119105D01*
X133226212Y-142420233D01*
X133237482Y-142462292D01*
X133309890Y-142587708D01*
X133412292Y-142690110D01*
X133537708Y-142762518D01*
X133579765Y-142773787D01*
X132880893Y-143472658D01*
X132963828Y-143532914D01*
X133174197Y-143640102D01*
X133398752Y-143713065D01*
X133398751Y-143713065D01*
X133631948Y-143750000D01*
X133868052Y-143750000D01*
X134101247Y-143713065D01*
X134325802Y-143640102D01*
X134536163Y-143532918D01*
X134536169Y-143532914D01*
X134619104Y-143472658D01*
X134619105Y-143472658D01*
X133920233Y-142773787D01*
X133962292Y-142762518D01*
X134087708Y-142690110D01*
X134190110Y-142587708D01*
X134262518Y-142462292D01*
X134273787Y-142420234D01*
X134972658Y-143119105D01*
X134972658Y-143119104D01*
X135032914Y-143036169D01*
X135032918Y-143036163D01*
X135140102Y-142825802D01*
X135213065Y-142601247D01*
X135250000Y-142368052D01*
X135250000Y-142131947D01*
X138750000Y-142131947D01*
X138750000Y-142368052D01*
X138786934Y-142601247D01*
X138859897Y-142825802D01*
X138967087Y-143036174D01*
X139027338Y-143119104D01*
X139027340Y-143119105D01*
X139726212Y-142420233D01*
X139737482Y-142462292D01*
X139809890Y-142587708D01*
X139912292Y-142690110D01*
X140037708Y-142762518D01*
X140079765Y-142773787D01*
X139380893Y-143472658D01*
X139463828Y-143532914D01*
X139674197Y-143640102D01*
X139898752Y-143713065D01*
X139898751Y-143713065D01*
X140131948Y-143750000D01*
X140368052Y-143750000D01*
X140601247Y-143713065D01*
X140825802Y-143640102D01*
X141036163Y-143532918D01*
X141036169Y-143532914D01*
X141119104Y-143472658D01*
X141119105Y-143472658D01*
X140420233Y-142773787D01*
X140462292Y-142762518D01*
X140587708Y-142690110D01*
X140690110Y-142587708D01*
X140762518Y-142462292D01*
X140773787Y-142420234D01*
X141472658Y-143119105D01*
X141472658Y-143119104D01*
X141532914Y-143036169D01*
X141532918Y-143036163D01*
X141640102Y-142825802D01*
X141713065Y-142601247D01*
X141750000Y-142368052D01*
X141750000Y-142131947D01*
X141713065Y-141898752D01*
X141640102Y-141674197D01*
X141532914Y-141463828D01*
X141472658Y-141380894D01*
X141472658Y-141380893D01*
X140773787Y-142079765D01*
X140762518Y-142037708D01*
X140690110Y-141912292D01*
X140587708Y-141809890D01*
X140462292Y-141737482D01*
X140420234Y-141726212D01*
X141119105Y-141027340D01*
X141119104Y-141027338D01*
X141036174Y-140967087D01*
X140825802Y-140859897D01*
X140601247Y-140786934D01*
X140601248Y-140786934D01*
X140368052Y-140750000D01*
X140131948Y-140750000D01*
X139898752Y-140786934D01*
X139674197Y-140859897D01*
X139463830Y-140967084D01*
X139380894Y-141027340D01*
X140079766Y-141726212D01*
X140037708Y-141737482D01*
X139912292Y-141809890D01*
X139809890Y-141912292D01*
X139737482Y-142037708D01*
X139726212Y-142079766D01*
X139027340Y-141380894D01*
X138967084Y-141463830D01*
X138859897Y-141674197D01*
X138786934Y-141898752D01*
X138750000Y-142131947D01*
X135250000Y-142131947D01*
X135213065Y-141898752D01*
X135140102Y-141674197D01*
X135032914Y-141463828D01*
X134972658Y-141380894D01*
X134972658Y-141380893D01*
X134273787Y-142079765D01*
X134262518Y-142037708D01*
X134190110Y-141912292D01*
X134087708Y-141809890D01*
X133962292Y-141737482D01*
X133920234Y-141726212D01*
X134619105Y-141027340D01*
X134619104Y-141027339D01*
X134536174Y-140967087D01*
X134325802Y-140859897D01*
X134101247Y-140786934D01*
X134101248Y-140786934D01*
X133868052Y-140750000D01*
X133631948Y-140750000D01*
X133398752Y-140786934D01*
X133174197Y-140859897D01*
X132963830Y-140967084D01*
X132880894Y-141027340D01*
X133579766Y-141726212D01*
X133537708Y-141737482D01*
X133412292Y-141809890D01*
X133309890Y-141912292D01*
X133237482Y-142037708D01*
X133226212Y-142079766D01*
X132527340Y-141380894D01*
X132467084Y-141463830D01*
X132359897Y-141674197D01*
X132286934Y-141898752D01*
X132250000Y-142131947D01*
X122750000Y-142131947D01*
X122713065Y-141898752D01*
X122640102Y-141674197D01*
X122532914Y-141463828D01*
X122472658Y-141380894D01*
X122472658Y-141380893D01*
X121773787Y-142079765D01*
X121762518Y-142037708D01*
X121690110Y-141912292D01*
X121587708Y-141809890D01*
X121462292Y-141737482D01*
X121420234Y-141726212D01*
X122119105Y-141027340D01*
X122119104Y-141027339D01*
X122036174Y-140967087D01*
X121825802Y-140859897D01*
X121601247Y-140786934D01*
X121601248Y-140786934D01*
X121368052Y-140750000D01*
X121131948Y-140750000D01*
X120898752Y-140786934D01*
X120674197Y-140859897D01*
X120463830Y-140967084D01*
X120380894Y-141027340D01*
X121079766Y-141726212D01*
X121037708Y-141737482D01*
X120912292Y-141809890D01*
X120809890Y-141912292D01*
X120737482Y-142037708D01*
X120726212Y-142079766D01*
X120027340Y-141380894D01*
X119967084Y-141463830D01*
X119859897Y-141674197D01*
X119786934Y-141898752D01*
X119750000Y-142131947D01*
X116250000Y-142131947D01*
X116213065Y-141898752D01*
X116140102Y-141674197D01*
X116032914Y-141463828D01*
X115972658Y-141380894D01*
X115972658Y-141380893D01*
X115273787Y-142079765D01*
X115262518Y-142037708D01*
X115190110Y-141912292D01*
X115087708Y-141809890D01*
X114962292Y-141737482D01*
X114920234Y-141726212D01*
X115619105Y-141027340D01*
X115619104Y-141027339D01*
X115536174Y-140967087D01*
X115325802Y-140859897D01*
X115101247Y-140786934D01*
X115101248Y-140786934D01*
X114868052Y-140750000D01*
X114631948Y-140750000D01*
X114398752Y-140786934D01*
X114174197Y-140859897D01*
X113963830Y-140967084D01*
X113880894Y-141027340D01*
X114579766Y-141726212D01*
X114537708Y-141737482D01*
X114412292Y-141809890D01*
X114309890Y-141912292D01*
X114237482Y-142037708D01*
X114226212Y-142079766D01*
X113527340Y-141380894D01*
X113467084Y-141463830D01*
X113359897Y-141674197D01*
X113286934Y-141898752D01*
X113250000Y-142131947D01*
X110000500Y-142131947D01*
X110000500Y-137631902D01*
X113249500Y-137631902D01*
X113249500Y-137868097D01*
X113286446Y-138101368D01*
X113359433Y-138325996D01*
X113466657Y-138536433D01*
X113605483Y-138727510D01*
X113772490Y-138894517D01*
X113963567Y-139033343D01*
X114062991Y-139084002D01*
X114174003Y-139140566D01*
X114174005Y-139140566D01*
X114174008Y-139140568D01*
X114294412Y-139179689D01*
X114398631Y-139213553D01*
X114631903Y-139250500D01*
X114631908Y-139250500D01*
X114868097Y-139250500D01*
X115101368Y-139213553D01*
X115325992Y-139140568D01*
X115536433Y-139033343D01*
X115727510Y-138894517D01*
X115894517Y-138727510D01*
X116033343Y-138536433D01*
X116093583Y-138418204D01*
X116141558Y-138367409D01*
X116204068Y-138350500D01*
X119795932Y-138350500D01*
X119862971Y-138370185D01*
X119906416Y-138418203D01*
X119966657Y-138536433D01*
X120105483Y-138727510D01*
X120272490Y-138894517D01*
X120463567Y-139033343D01*
X120562991Y-139084002D01*
X120674003Y-139140566D01*
X120674005Y-139140566D01*
X120674008Y-139140568D01*
X120794412Y-139179689D01*
X120898631Y-139213553D01*
X121131903Y-139250500D01*
X121131908Y-139250500D01*
X121368097Y-139250500D01*
X121601368Y-139213553D01*
X121825992Y-139140568D01*
X122036433Y-139033343D01*
X122227510Y-138894517D01*
X122394517Y-138727510D01*
X122533343Y-138536433D01*
X122640568Y-138325992D01*
X122713553Y-138101368D01*
X122750500Y-137868097D01*
X122750500Y-137631902D01*
X132249500Y-137631902D01*
X132249500Y-137868097D01*
X132286446Y-138101368D01*
X132359433Y-138325996D01*
X132466657Y-138536433D01*
X132605483Y-138727510D01*
X132772490Y-138894517D01*
X132963567Y-139033343D01*
X133062991Y-139084002D01*
X133174003Y-139140566D01*
X133174005Y-139140566D01*
X133174008Y-139140568D01*
X133294412Y-139179689D01*
X133398631Y-139213553D01*
X133631903Y-139250500D01*
X133631908Y-139250500D01*
X133868097Y-139250500D01*
X134101368Y-139213553D01*
X134325992Y-139140568D01*
X134536433Y-139033343D01*
X134727510Y-138894517D01*
X134894517Y-138727510D01*
X135033343Y-138536433D01*
X135093583Y-138418204D01*
X135141558Y-138367409D01*
X135204068Y-138350500D01*
X138795932Y-138350500D01*
X138862971Y-138370185D01*
X138906416Y-138418203D01*
X138966657Y-138536433D01*
X139105483Y-138727510D01*
X139272490Y-138894517D01*
X139463567Y-139033343D01*
X139562991Y-139084002D01*
X139674003Y-139140566D01*
X139674005Y-139140566D01*
X139674008Y-139140568D01*
X139794412Y-139179689D01*
X139898631Y-139213553D01*
X140131903Y-139250500D01*
X140131908Y-139250500D01*
X140368097Y-139250500D01*
X140601368Y-139213553D01*
X140825992Y-139140568D01*
X141036433Y-139033343D01*
X141227510Y-138894517D01*
X141394517Y-138727510D01*
X141533343Y-138536433D01*
X141640568Y-138325992D01*
X141713553Y-138101368D01*
X141750500Y-137868097D01*
X141750500Y-137631902D01*
X141713553Y-137398631D01*
X141640566Y-137174003D01*
X141533342Y-136963566D01*
X141394517Y-136772490D01*
X141227510Y-136605483D01*
X141036433Y-136466657D01*
X140825996Y-136359433D01*
X140601368Y-136286446D01*
X140368097Y-136249500D01*
X140368092Y-136249500D01*
X140131908Y-136249500D01*
X140131903Y-136249500D01*
X139898631Y-136286446D01*
X139674003Y-136359433D01*
X139463566Y-136466657D01*
X139354550Y-136545862D01*
X139272490Y-136605483D01*
X139272488Y-136605485D01*
X139272487Y-136605485D01*
X139105485Y-136772487D01*
X139105485Y-136772488D01*
X139105483Y-136772490D01*
X139045862Y-136854550D01*
X138966657Y-136963566D01*
X138906417Y-137081795D01*
X138858442Y-137132591D01*
X138795932Y-137149500D01*
X135204068Y-137149500D01*
X135137029Y-137129815D01*
X135093583Y-137081795D01*
X135033342Y-136963566D01*
X134894517Y-136772490D01*
X134727510Y-136605483D01*
X134536433Y-136466657D01*
X134325996Y-136359433D01*
X134101368Y-136286446D01*
X133868097Y-136249500D01*
X133868092Y-136249500D01*
X133631908Y-136249500D01*
X133631903Y-136249500D01*
X133398631Y-136286446D01*
X133174003Y-136359433D01*
X132963566Y-136466657D01*
X132854550Y-136545862D01*
X132772490Y-136605483D01*
X132772488Y-136605485D01*
X132772487Y-136605485D01*
X132605485Y-136772487D01*
X132605485Y-136772488D01*
X132605483Y-136772490D01*
X132545862Y-136854550D01*
X132466657Y-136963566D01*
X132359433Y-137174003D01*
X132286446Y-137398631D01*
X132249500Y-137631902D01*
X122750500Y-137631902D01*
X122713553Y-137398631D01*
X122640566Y-137174003D01*
X122533342Y-136963566D01*
X122394517Y-136772490D01*
X122227510Y-136605483D01*
X122036433Y-136466657D01*
X121825996Y-136359433D01*
X121601368Y-136286446D01*
X121368097Y-136249500D01*
X121368092Y-136249500D01*
X121131908Y-136249500D01*
X121131903Y-136249500D01*
X120898631Y-136286446D01*
X120674003Y-136359433D01*
X120463566Y-136466657D01*
X120354550Y-136545862D01*
X120272490Y-136605483D01*
X120272488Y-136605485D01*
X120272487Y-136605485D01*
X120105485Y-136772487D01*
X120105485Y-136772488D01*
X120105483Y-136772490D01*
X120045862Y-136854550D01*
X119966657Y-136963566D01*
X119906417Y-137081795D01*
X119858442Y-137132591D01*
X119795932Y-137149500D01*
X116204068Y-137149500D01*
X116137029Y-137129815D01*
X116093583Y-137081795D01*
X116033342Y-136963566D01*
X115894517Y-136772490D01*
X115727510Y-136605483D01*
X115536433Y-136466657D01*
X115325996Y-136359433D01*
X115101368Y-136286446D01*
X114868097Y-136249500D01*
X114868092Y-136249500D01*
X114631908Y-136249500D01*
X114631903Y-136249500D01*
X114398631Y-136286446D01*
X114174003Y-136359433D01*
X113963566Y-136466657D01*
X113854550Y-136545862D01*
X113772490Y-136605483D01*
X113772488Y-136605485D01*
X113772487Y-136605485D01*
X113605485Y-136772487D01*
X113605485Y-136772488D01*
X113605483Y-136772490D01*
X113545862Y-136854550D01*
X113466657Y-136963566D01*
X113359433Y-137174003D01*
X113286446Y-137398631D01*
X113249500Y-137631902D01*
X110000500Y-137631902D01*
X110000500Y-134631947D01*
X122750000Y-134631947D01*
X122750000Y-134868052D01*
X122786934Y-135101247D01*
X122859897Y-135325802D01*
X122967087Y-135536174D01*
X123027338Y-135619104D01*
X123027340Y-135619105D01*
X123726212Y-134920233D01*
X123737482Y-134962292D01*
X123809890Y-135087708D01*
X123912292Y-135190110D01*
X124037708Y-135262518D01*
X124079765Y-135273787D01*
X123380893Y-135972658D01*
X123463828Y-136032914D01*
X123674197Y-136140102D01*
X123898752Y-136213065D01*
X123898751Y-136213065D01*
X124131948Y-136250000D01*
X124368052Y-136250000D01*
X124601247Y-136213065D01*
X124825802Y-136140102D01*
X125036163Y-136032918D01*
X125036169Y-136032914D01*
X125119104Y-135972658D01*
X125119105Y-135972658D01*
X124420233Y-135273787D01*
X124462292Y-135262518D01*
X124587708Y-135190110D01*
X124690110Y-135087708D01*
X124762518Y-134962292D01*
X124773787Y-134920233D01*
X125472658Y-135619105D01*
X125472658Y-135619104D01*
X125532914Y-135536169D01*
X125532918Y-135536163D01*
X125640102Y-135325802D01*
X125713065Y-135101247D01*
X125750000Y-134868052D01*
X125750000Y-134631947D01*
X129250000Y-134631947D01*
X129250000Y-134868052D01*
X129286934Y-135101247D01*
X129359897Y-135325802D01*
X129467087Y-135536174D01*
X129527338Y-135619104D01*
X129527340Y-135619105D01*
X130226212Y-134920233D01*
X130237482Y-134962292D01*
X130309890Y-135087708D01*
X130412292Y-135190110D01*
X130537708Y-135262518D01*
X130579765Y-135273787D01*
X129880893Y-135972658D01*
X129963828Y-136032914D01*
X130174197Y-136140102D01*
X130398752Y-136213065D01*
X130398751Y-136213065D01*
X130631948Y-136250000D01*
X130868052Y-136250000D01*
X131101247Y-136213065D01*
X131325802Y-136140102D01*
X131536163Y-136032918D01*
X131536169Y-136032914D01*
X131619104Y-135972658D01*
X131619105Y-135972658D01*
X130920233Y-135273787D01*
X130962292Y-135262518D01*
X131087708Y-135190110D01*
X131190110Y-135087708D01*
X131262518Y-134962292D01*
X131273787Y-134920234D01*
X131972658Y-135619105D01*
X131972658Y-135619104D01*
X132032914Y-135536169D01*
X132032918Y-135536163D01*
X132140102Y-135325802D01*
X132213065Y-135101247D01*
X132250000Y-134868052D01*
X132250000Y-134631947D01*
X132213065Y-134398752D01*
X132140102Y-134174197D01*
X132032914Y-133963828D01*
X131972658Y-133880894D01*
X131972658Y-133880893D01*
X131273787Y-134579765D01*
X131262518Y-134537708D01*
X131190110Y-134412292D01*
X131087708Y-134309890D01*
X130962292Y-134237482D01*
X130920234Y-134226212D01*
X131619105Y-133527340D01*
X131619104Y-133527338D01*
X131536174Y-133467087D01*
X131325802Y-133359897D01*
X131101247Y-133286934D01*
X131101248Y-133286934D01*
X130868052Y-133250000D01*
X130631948Y-133250000D01*
X130398752Y-133286934D01*
X130174197Y-133359897D01*
X129963830Y-133467084D01*
X129880894Y-133527340D01*
X130579766Y-134226212D01*
X130537708Y-134237482D01*
X130412292Y-134309890D01*
X130309890Y-134412292D01*
X130237482Y-134537708D01*
X130226212Y-134579766D01*
X129527340Y-133880894D01*
X129467084Y-133963830D01*
X129359897Y-134174197D01*
X129286934Y-134398752D01*
X129250000Y-134631947D01*
X125750000Y-134631947D01*
X125713065Y-134398752D01*
X125640102Y-134174197D01*
X125532914Y-133963828D01*
X125472658Y-133880894D01*
X125472658Y-133880893D01*
X124773787Y-134579765D01*
X124762518Y-134537708D01*
X124690110Y-134412292D01*
X124587708Y-134309890D01*
X124462292Y-134237482D01*
X124420234Y-134226212D01*
X125119105Y-133527340D01*
X125119104Y-133527339D01*
X125036174Y-133467087D01*
X124825802Y-133359897D01*
X124601247Y-133286934D01*
X124601248Y-133286934D01*
X124368052Y-133250000D01*
X124131948Y-133250000D01*
X123898752Y-133286934D01*
X123674197Y-133359897D01*
X123463830Y-133467084D01*
X123380894Y-133527340D01*
X124079766Y-134226212D01*
X124037708Y-134237482D01*
X123912292Y-134309890D01*
X123809890Y-134412292D01*
X123737482Y-134537708D01*
X123726212Y-134579766D01*
X123027340Y-133880894D01*
X122967084Y-133963830D01*
X122859897Y-134174197D01*
X122786934Y-134398752D01*
X122750000Y-134631947D01*
X110000500Y-134631947D01*
X110000500Y-130131902D01*
X122749500Y-130131902D01*
X122749500Y-130368097D01*
X122786446Y-130601368D01*
X122859433Y-130825996D01*
X122948093Y-131000000D01*
X122966657Y-131036433D01*
X123105483Y-131227510D01*
X123272490Y-131394517D01*
X123463567Y-131533343D01*
X123562991Y-131584002D01*
X123674003Y-131640566D01*
X123674005Y-131640566D01*
X123674008Y-131640568D01*
X123794412Y-131679689D01*
X123898631Y-131713553D01*
X124131903Y-131750500D01*
X124131908Y-131750500D01*
X124368097Y-131750500D01*
X124601368Y-131713553D01*
X124825992Y-131640568D01*
X125036433Y-131533343D01*
X125227510Y-131394517D01*
X125394517Y-131227510D01*
X125533343Y-131036433D01*
X125593583Y-130918204D01*
X125641558Y-130867409D01*
X125704068Y-130850500D01*
X129295932Y-130850500D01*
X129362971Y-130870185D01*
X129406416Y-130918203D01*
X129466657Y-131036433D01*
X129605483Y-131227510D01*
X129772490Y-131394517D01*
X129963567Y-131533343D01*
X130062991Y-131584002D01*
X130174003Y-131640566D01*
X130174005Y-131640566D01*
X130174008Y-131640568D01*
X130294412Y-131679689D01*
X130398631Y-131713553D01*
X130631903Y-131750500D01*
X130631908Y-131750500D01*
X130868097Y-131750500D01*
X131101368Y-131713553D01*
X131325992Y-131640568D01*
X131536433Y-131533343D01*
X131727510Y-131394517D01*
X131894517Y-131227510D01*
X132033343Y-131036433D01*
X132140568Y-130825992D01*
X132213553Y-130601368D01*
X132250500Y-130368097D01*
X132250500Y-130131902D01*
X132213553Y-129898631D01*
X132140566Y-129674003D01*
X132033342Y-129463566D01*
X132033333Y-129463553D01*
X131894517Y-129272490D01*
X131727510Y-129105483D01*
X131536433Y-128966657D01*
X131325996Y-128859433D01*
X131101368Y-128786446D01*
X130868097Y-128749500D01*
X130868092Y-128749500D01*
X130631908Y-128749500D01*
X130631903Y-128749500D01*
X130398631Y-128786446D01*
X130174003Y-128859433D01*
X129963566Y-128966657D01*
X129948626Y-128977512D01*
X129772490Y-129105483D01*
X129772488Y-129105485D01*
X129772487Y-129105485D01*
X129605485Y-129272487D01*
X129605485Y-129272488D01*
X129605483Y-129272490D01*
X129597599Y-129283342D01*
X129466657Y-129463566D01*
X129406417Y-129581795D01*
X129358442Y-129632591D01*
X129295932Y-129649500D01*
X125704068Y-129649500D01*
X125637029Y-129629815D01*
X125593583Y-129581795D01*
X125533342Y-129463566D01*
X125533333Y-129463553D01*
X125394517Y-129272490D01*
X125227510Y-129105483D01*
X125036433Y-128966657D01*
X124825996Y-128859433D01*
X124601368Y-128786446D01*
X124368097Y-128749500D01*
X124368092Y-128749500D01*
X124131908Y-128749500D01*
X124131903Y-128749500D01*
X123898631Y-128786446D01*
X123674003Y-128859433D01*
X123463566Y-128966657D01*
X123448626Y-128977512D01*
X123272490Y-129105483D01*
X123272488Y-129105485D01*
X123272487Y-129105485D01*
X123105485Y-129272487D01*
X123105485Y-129272488D01*
X123105483Y-129272490D01*
X123097599Y-129283342D01*
X122966657Y-129463566D01*
X122859433Y-129674003D01*
X122786446Y-129898631D01*
X122749500Y-130131902D01*
X110000500Y-130131902D01*
X110000500Y-114393713D01*
X111869500Y-114393713D01*
X111869500Y-114606287D01*
X111902754Y-114816243D01*
X111965803Y-115010288D01*
X111968444Y-115018414D01*
X112064951Y-115207820D01*
X112189890Y-115379786D01*
X112340213Y-115530109D01*
X112512179Y-115655048D01*
X112512181Y-115655049D01*
X112512184Y-115655051D01*
X112701588Y-115751557D01*
X112903757Y-115817246D01*
X113113713Y-115850500D01*
X113113714Y-115850500D01*
X113326286Y-115850500D01*
X113326287Y-115850500D01*
X113536243Y-115817246D01*
X113738412Y-115751557D01*
X113927816Y-115655051D01*
X114014138Y-115592335D01*
X114099786Y-115530109D01*
X114099788Y-115530106D01*
X114099792Y-115530104D01*
X114250104Y-115379792D01*
X114250106Y-115379788D01*
X114250109Y-115379786D01*
X114373902Y-115209397D01*
X114375051Y-115207816D01*
X114379514Y-115199054D01*
X114427488Y-115148259D01*
X114495308Y-115131463D01*
X114561444Y-115153999D01*
X114600486Y-115199056D01*
X114604951Y-115207820D01*
X114729890Y-115379786D01*
X114880213Y-115530109D01*
X115052179Y-115655048D01*
X115052181Y-115655049D01*
X115052184Y-115655051D01*
X115241588Y-115751557D01*
X115443757Y-115817246D01*
X115653713Y-115850500D01*
X115653714Y-115850500D01*
X115866286Y-115850500D01*
X115866287Y-115850500D01*
X116076243Y-115817246D01*
X116278412Y-115751557D01*
X116467816Y-115655051D01*
X116554138Y-115592335D01*
X116639786Y-115530109D01*
X116639788Y-115530106D01*
X116639792Y-115530104D01*
X116790104Y-115379792D01*
X116790106Y-115379788D01*
X116790109Y-115379786D01*
X116913902Y-115209397D01*
X116915051Y-115207816D01*
X116919514Y-115199054D01*
X116967488Y-115148259D01*
X117035308Y-115131463D01*
X117101444Y-115153999D01*
X117140486Y-115199056D01*
X117144951Y-115207820D01*
X117269890Y-115379786D01*
X117420213Y-115530109D01*
X117592179Y-115655048D01*
X117592181Y-115655049D01*
X117592184Y-115655051D01*
X117781588Y-115751557D01*
X117983757Y-115817246D01*
X118193713Y-115850500D01*
X118193714Y-115850500D01*
X118406286Y-115850500D01*
X118406287Y-115850500D01*
X118616243Y-115817246D01*
X118818412Y-115751557D01*
X119007816Y-115655051D01*
X119094138Y-115592335D01*
X119179786Y-115530109D01*
X119179788Y-115530106D01*
X119179792Y-115530104D01*
X119330104Y-115379792D01*
X119330106Y-115379788D01*
X119330109Y-115379786D01*
X119453902Y-115209397D01*
X119455051Y-115207816D01*
X119459514Y-115199054D01*
X119507488Y-115148259D01*
X119575308Y-115131463D01*
X119641444Y-115153999D01*
X119680486Y-115199056D01*
X119684951Y-115207820D01*
X119809890Y-115379786D01*
X119960213Y-115530109D01*
X120132179Y-115655048D01*
X120132181Y-115655049D01*
X120132184Y-115655051D01*
X120321588Y-115751557D01*
X120523757Y-115817246D01*
X120733713Y-115850500D01*
X120733714Y-115850500D01*
X120946286Y-115850500D01*
X120946287Y-115850500D01*
X121156243Y-115817246D01*
X121198523Y-115803507D01*
X121268362Y-115801511D01*
X121324522Y-115833757D01*
X140105139Y-134614374D01*
X140105149Y-134614385D01*
X140109479Y-134618715D01*
X140109480Y-134618716D01*
X140221284Y-134730520D01*
X140308095Y-134780639D01*
X140308097Y-134780641D01*
X140346151Y-134802611D01*
X140358215Y-134809577D01*
X140510943Y-134850501D01*
X140510946Y-134850501D01*
X140676653Y-134850501D01*
X140676669Y-134850500D01*
X142449903Y-134850500D01*
X142516942Y-134870185D01*
X142537584Y-134886819D01*
X153483636Y-145832871D01*
X153517121Y-145894194D01*
X153512137Y-145963886D01*
X153470265Y-146019819D01*
X153404801Y-146044236D01*
X153357640Y-146038484D01*
X153351373Y-146036448D01*
X153351369Y-146036447D01*
X153118097Y-145999500D01*
X153118092Y-145999500D01*
X152881908Y-145999500D01*
X152881903Y-145999500D01*
X152648631Y-146036446D01*
X152424003Y-146109433D01*
X152213566Y-146216657D01*
X152198626Y-146227512D01*
X152022490Y-146355483D01*
X152022488Y-146355485D01*
X152022487Y-146355485D01*
X151855485Y-146522487D01*
X151855485Y-146522488D01*
X151855483Y-146522490D01*
X151847599Y-146533342D01*
X151716657Y-146713566D01*
X151656417Y-146831795D01*
X151608442Y-146882591D01*
X151545932Y-146899500D01*
X147954068Y-146899500D01*
X147887029Y-146879815D01*
X147843583Y-146831795D01*
X147783342Y-146713566D01*
X147783333Y-146713553D01*
X147644517Y-146522490D01*
X147477510Y-146355483D01*
X147286433Y-146216657D01*
X147075996Y-146109433D01*
X146851368Y-146036446D01*
X146618097Y-145999500D01*
X146618092Y-145999500D01*
X146381908Y-145999500D01*
X146381903Y-145999500D01*
X146148631Y-146036446D01*
X145924003Y-146109433D01*
X145713566Y-146216657D01*
X145698626Y-146227512D01*
X145522490Y-146355483D01*
X145522488Y-146355485D01*
X145522487Y-146355485D01*
X145355485Y-146522487D01*
X145355485Y-146522488D01*
X145355483Y-146522490D01*
X145347599Y-146533342D01*
X145216657Y-146713566D01*
X145109433Y-146924003D01*
X145036446Y-147148631D01*
X144999500Y-147381902D01*
X144999500Y-147618097D01*
X145036446Y-147851368D01*
X145109433Y-148075996D01*
X145198093Y-148250000D01*
X145216657Y-148286433D01*
X145355483Y-148477510D01*
X145522490Y-148644517D01*
X145713567Y-148783343D01*
X145812991Y-148834002D01*
X145924003Y-148890566D01*
X145924005Y-148890566D01*
X145924008Y-148890568D01*
X146044412Y-148929689D01*
X146148631Y-148963553D01*
X146381903Y-149000500D01*
X146381908Y-149000500D01*
X146618097Y-149000500D01*
X146851368Y-148963553D01*
X147075992Y-148890568D01*
X147286433Y-148783343D01*
X147477510Y-148644517D01*
X147644517Y-148477510D01*
X147783343Y-148286433D01*
X147843583Y-148168204D01*
X147891558Y-148117409D01*
X147954068Y-148100500D01*
X151545932Y-148100500D01*
X151612971Y-148120185D01*
X151656416Y-148168203D01*
X151716657Y-148286433D01*
X151855483Y-148477510D01*
X152022490Y-148644517D01*
X152213567Y-148783343D01*
X152312991Y-148834002D01*
X152424003Y-148890566D01*
X152424005Y-148890566D01*
X152424008Y-148890568D01*
X152544412Y-148929689D01*
X152648631Y-148963553D01*
X152881903Y-149000500D01*
X152881908Y-149000500D01*
X153118097Y-149000500D01*
X153351368Y-148963553D01*
X153575992Y-148890568D01*
X153786433Y-148783343D01*
X153977510Y-148644517D01*
X154144517Y-148477510D01*
X154283343Y-148286433D01*
X154389515Y-148078057D01*
X154437489Y-148027262D01*
X154505310Y-148010467D01*
X154571445Y-148033004D01*
X154610484Y-148078057D01*
X154716657Y-148286433D01*
X154855483Y-148477510D01*
X155022490Y-148644517D01*
X155213567Y-148783343D01*
X155312991Y-148834002D01*
X155424003Y-148890566D01*
X155424005Y-148890566D01*
X155424008Y-148890568D01*
X155544412Y-148929689D01*
X155648631Y-148963553D01*
X155881903Y-149000500D01*
X155881908Y-149000500D01*
X156118097Y-149000500D01*
X156351368Y-148963553D01*
X156575992Y-148890568D01*
X156786433Y-148783343D01*
X156977510Y-148644517D01*
X157144517Y-148477510D01*
X157283343Y-148286433D01*
X157343583Y-148168204D01*
X157391558Y-148117409D01*
X157454068Y-148100500D01*
X161045932Y-148100500D01*
X161112971Y-148120185D01*
X161156416Y-148168203D01*
X161216657Y-148286433D01*
X161355483Y-148477510D01*
X161522490Y-148644517D01*
X161713567Y-148783343D01*
X161812991Y-148834002D01*
X161924003Y-148890566D01*
X161924005Y-148890566D01*
X161924008Y-148890568D01*
X162044412Y-148929689D01*
X162148631Y-148963553D01*
X162381903Y-149000500D01*
X162381908Y-149000500D01*
X162618097Y-149000500D01*
X162851368Y-148963553D01*
X163075992Y-148890568D01*
X163286433Y-148783343D01*
X163477510Y-148644517D01*
X163644517Y-148477510D01*
X163783343Y-148286433D01*
X163890568Y-148075992D01*
X163963553Y-147851368D01*
X164000500Y-147618097D01*
X164000500Y-147381902D01*
X163963553Y-147148631D01*
X163929689Y-147044412D01*
X163890568Y-146924008D01*
X163890566Y-146924005D01*
X163890566Y-146924003D01*
X163783342Y-146713566D01*
X163783333Y-146713553D01*
X163644517Y-146522490D01*
X163477510Y-146355483D01*
X163286433Y-146216657D01*
X163075996Y-146109433D01*
X162851368Y-146036446D01*
X162618097Y-145999500D01*
X162618092Y-145999500D01*
X162381908Y-145999500D01*
X162381903Y-145999500D01*
X162148631Y-146036446D01*
X161924003Y-146109433D01*
X161713566Y-146216657D01*
X161698626Y-146227512D01*
X161522490Y-146355483D01*
X161522488Y-146355485D01*
X161522487Y-146355485D01*
X161355485Y-146522487D01*
X161355485Y-146522488D01*
X161355483Y-146522490D01*
X161347599Y-146533342D01*
X161216657Y-146713566D01*
X161156417Y-146831795D01*
X161108442Y-146882591D01*
X161045932Y-146899500D01*
X157454068Y-146899500D01*
X157387029Y-146879815D01*
X157343583Y-146831795D01*
X157283342Y-146713566D01*
X157283333Y-146713553D01*
X157144517Y-146522490D01*
X156977510Y-146355483D01*
X156786433Y-146216657D01*
X156575996Y-146109433D01*
X156351368Y-146036446D01*
X156118097Y-145999500D01*
X156118092Y-145999500D01*
X155881908Y-145999500D01*
X155881903Y-145999500D01*
X155648628Y-146036447D01*
X155522433Y-146077450D01*
X155452592Y-146079445D01*
X155396435Y-146047200D01*
X153698634Y-144349399D01*
X153665149Y-144288076D01*
X153670133Y-144218384D01*
X153683213Y-144192827D01*
X153758655Y-144079920D01*
X153758655Y-144079919D01*
X153758659Y-144079914D01*
X153819002Y-143934232D01*
X153849765Y-143779577D01*
X153849765Y-143621893D01*
X153849765Y-143621890D01*
X153849764Y-143621888D01*
X153819002Y-143467238D01*
X153819000Y-143467233D01*
X153758662Y-143321562D01*
X153758655Y-143321549D01*
X153671054Y-143190446D01*
X153671051Y-143190442D01*
X153559557Y-143078948D01*
X153559553Y-143078945D01*
X153428450Y-142991344D01*
X153428437Y-142991337D01*
X153282766Y-142930999D01*
X153282754Y-142930996D01*
X153128110Y-142900235D01*
X153128107Y-142900235D01*
X152970423Y-142900235D01*
X152937237Y-142906836D01*
X152905920Y-142913065D01*
X152836328Y-142906836D01*
X152794049Y-142879128D01*
X143403276Y-133488355D01*
X143403274Y-133488352D01*
X143284403Y-133369481D01*
X143284402Y-133369480D01*
X143197590Y-133319360D01*
X143197590Y-133319359D01*
X143197586Y-133319358D01*
X143147471Y-133290423D01*
X142994743Y-133249499D01*
X142836629Y-133249499D01*
X142829033Y-133249499D01*
X142829017Y-133249500D01*
X141055784Y-133249500D01*
X140988745Y-133229815D01*
X140968103Y-133213181D01*
X140136869Y-132381947D01*
X156000000Y-132381947D01*
X156000000Y-132618052D01*
X156036934Y-132851247D01*
X156109897Y-133075802D01*
X156217087Y-133286174D01*
X156277338Y-133369104D01*
X156277340Y-133369105D01*
X156976212Y-132670233D01*
X156987482Y-132712292D01*
X157059890Y-132837708D01*
X157162292Y-132940110D01*
X157287708Y-133012518D01*
X157329765Y-133023787D01*
X156630893Y-133722658D01*
X156713828Y-133782914D01*
X156924197Y-133890102D01*
X157148752Y-133963065D01*
X157148751Y-133963065D01*
X157381948Y-134000000D01*
X157618052Y-134000000D01*
X157851247Y-133963065D01*
X158075802Y-133890102D01*
X158286163Y-133782918D01*
X158286169Y-133782914D01*
X158369104Y-133722658D01*
X158369105Y-133722658D01*
X157670233Y-133023787D01*
X157712292Y-133012518D01*
X157837708Y-132940110D01*
X157940110Y-132837708D01*
X158012518Y-132712292D01*
X158023787Y-132670234D01*
X158722658Y-133369105D01*
X158722658Y-133369104D01*
X158782914Y-133286169D01*
X158782918Y-133286163D01*
X158890102Y-133075802D01*
X158963065Y-132851247D01*
X159000000Y-132618052D01*
X159000000Y-132381947D01*
X162500000Y-132381947D01*
X162500000Y-132618052D01*
X162536934Y-132851247D01*
X162609897Y-133075802D01*
X162717087Y-133286174D01*
X162777338Y-133369104D01*
X162777340Y-133369105D01*
X163476212Y-132670233D01*
X163487482Y-132712292D01*
X163559890Y-132837708D01*
X163662292Y-132940110D01*
X163787708Y-133012518D01*
X163829765Y-133023787D01*
X163130893Y-133722658D01*
X163213828Y-133782914D01*
X163424197Y-133890102D01*
X163648752Y-133963065D01*
X163648751Y-133963065D01*
X163881948Y-134000000D01*
X164118052Y-134000000D01*
X164351247Y-133963065D01*
X164575802Y-133890102D01*
X164786163Y-133782918D01*
X164786169Y-133782914D01*
X164869104Y-133722658D01*
X164869105Y-133722658D01*
X164170233Y-133023787D01*
X164212292Y-133012518D01*
X164337708Y-132940110D01*
X164440110Y-132837708D01*
X164512518Y-132712292D01*
X164523787Y-132670234D01*
X165222658Y-133369105D01*
X165222658Y-133369104D01*
X165282914Y-133286169D01*
X165282918Y-133286163D01*
X165390102Y-133075802D01*
X165463065Y-132851247D01*
X165500000Y-132618052D01*
X165500000Y-132381947D01*
X165463065Y-132148752D01*
X165390102Y-131924197D01*
X165282914Y-131713828D01*
X165222658Y-131630894D01*
X165222658Y-131630893D01*
X164523787Y-132329765D01*
X164512518Y-132287708D01*
X164440110Y-132162292D01*
X164337708Y-132059890D01*
X164212292Y-131987482D01*
X164170234Y-131976212D01*
X164869105Y-131277340D01*
X164869104Y-131277338D01*
X164786174Y-131217087D01*
X164575802Y-131109897D01*
X164351247Y-131036934D01*
X164351248Y-131036934D01*
X164118052Y-131000000D01*
X163881948Y-131000000D01*
X163648752Y-131036934D01*
X163424197Y-131109897D01*
X163213830Y-131217084D01*
X163130894Y-131277340D01*
X163829766Y-131976212D01*
X163787708Y-131987482D01*
X163662292Y-132059890D01*
X163559890Y-132162292D01*
X163487482Y-132287708D01*
X163476212Y-132329765D01*
X162777340Y-131630894D01*
X162717084Y-131713830D01*
X162609897Y-131924197D01*
X162536934Y-132148752D01*
X162500000Y-132381947D01*
X159000000Y-132381947D01*
X158963065Y-132148752D01*
X158890102Y-131924197D01*
X158782914Y-131713828D01*
X158722658Y-131630894D01*
X158722658Y-131630893D01*
X158023787Y-132329765D01*
X158012518Y-132287708D01*
X157940110Y-132162292D01*
X157837708Y-132059890D01*
X157712292Y-131987482D01*
X157670234Y-131976212D01*
X158369105Y-131277340D01*
X158369104Y-131277339D01*
X158286174Y-131217087D01*
X158075802Y-131109897D01*
X157851247Y-131036934D01*
X157851248Y-131036934D01*
X157618052Y-131000000D01*
X157381948Y-131000000D01*
X157148752Y-131036934D01*
X156924197Y-131109897D01*
X156713830Y-131217084D01*
X156630894Y-131277340D01*
X157329766Y-131976212D01*
X157287708Y-131987482D01*
X157162292Y-132059890D01*
X157059890Y-132162292D01*
X156987482Y-132287708D01*
X156976212Y-132329766D01*
X156277340Y-131630894D01*
X156217084Y-131713830D01*
X156109897Y-131924197D01*
X156036934Y-132148752D01*
X156000000Y-132381947D01*
X140136869Y-132381947D01*
X124016819Y-116261897D01*
X123983334Y-116200574D01*
X123980500Y-116174216D01*
X123980500Y-115785718D01*
X124000185Y-115718679D01*
X124048207Y-115675233D01*
X124087815Y-115655052D01*
X124087815Y-115655051D01*
X124087816Y-115655051D01*
X124179193Y-115588661D01*
X124259786Y-115530109D01*
X124259788Y-115530106D01*
X124259792Y-115530104D01*
X124410104Y-115379792D01*
X124410106Y-115379788D01*
X124410109Y-115379786D01*
X124533902Y-115209397D01*
X124535051Y-115207816D01*
X124539514Y-115199054D01*
X124587488Y-115148259D01*
X124655308Y-115131463D01*
X124721444Y-115153999D01*
X124760486Y-115199056D01*
X124764951Y-115207820D01*
X124889890Y-115379786D01*
X125040213Y-115530109D01*
X125212179Y-115655048D01*
X125212181Y-115655049D01*
X125212184Y-115655051D01*
X125401588Y-115751557D01*
X125603757Y-115817246D01*
X125813713Y-115850500D01*
X125813714Y-115850500D01*
X126026286Y-115850500D01*
X126026287Y-115850500D01*
X126236243Y-115817246D01*
X126438412Y-115751557D01*
X126627816Y-115655051D01*
X126714138Y-115592335D01*
X126799786Y-115530109D01*
X126799788Y-115530106D01*
X126799792Y-115530104D01*
X126950104Y-115379792D01*
X126950106Y-115379788D01*
X126950109Y-115379786D01*
X127073902Y-115209397D01*
X127075051Y-115207816D01*
X127079514Y-115199054D01*
X127127488Y-115148259D01*
X127195308Y-115131463D01*
X127261444Y-115153999D01*
X127300486Y-115199056D01*
X127304951Y-115207820D01*
X127429890Y-115379786D01*
X127580213Y-115530109D01*
X127752179Y-115655048D01*
X127752181Y-115655049D01*
X127752184Y-115655051D01*
X127941588Y-115751557D01*
X128143757Y-115817246D01*
X128353713Y-115850500D01*
X128353714Y-115850500D01*
X128566286Y-115850500D01*
X128566287Y-115850500D01*
X128776243Y-115817246D01*
X128978412Y-115751557D01*
X129167816Y-115655051D01*
X129254138Y-115592335D01*
X129339786Y-115530109D01*
X129339788Y-115530106D01*
X129339792Y-115530104D01*
X129490104Y-115379792D01*
X129490106Y-115379788D01*
X129490109Y-115379786D01*
X129613902Y-115209397D01*
X129615051Y-115207816D01*
X129619514Y-115199054D01*
X129667488Y-115148259D01*
X129735308Y-115131463D01*
X129801444Y-115153999D01*
X129840486Y-115199056D01*
X129844951Y-115207820D01*
X129969890Y-115379786D01*
X130120213Y-115530109D01*
X130292179Y-115655048D01*
X130292181Y-115655049D01*
X130292184Y-115655051D01*
X130481588Y-115751557D01*
X130683757Y-115817246D01*
X130893713Y-115850500D01*
X130893714Y-115850500D01*
X131106286Y-115850500D01*
X131106287Y-115850500D01*
X131316243Y-115817246D01*
X131518412Y-115751557D01*
X131707816Y-115655051D01*
X131794138Y-115592335D01*
X131879786Y-115530109D01*
X131879788Y-115530106D01*
X131879792Y-115530104D01*
X132030104Y-115379792D01*
X132030106Y-115379788D01*
X132030109Y-115379786D01*
X132153902Y-115209397D01*
X132155051Y-115207816D01*
X132159514Y-115199054D01*
X132207488Y-115148259D01*
X132275308Y-115131463D01*
X132341444Y-115153999D01*
X132380486Y-115199056D01*
X132384951Y-115207820D01*
X132509890Y-115379786D01*
X132660213Y-115530109D01*
X132832179Y-115655048D01*
X132832181Y-115655049D01*
X132832184Y-115655051D01*
X133021588Y-115751557D01*
X133223757Y-115817246D01*
X133433713Y-115850500D01*
X133433714Y-115850500D01*
X133646286Y-115850500D01*
X133646287Y-115850500D01*
X133856243Y-115817246D01*
X134058412Y-115751557D01*
X134247816Y-115655051D01*
X134334138Y-115592335D01*
X134419786Y-115530109D01*
X134419788Y-115530106D01*
X134419792Y-115530104D01*
X134570104Y-115379792D01*
X134570106Y-115379788D01*
X134570109Y-115379786D01*
X134693902Y-115209397D01*
X134695051Y-115207816D01*
X134699514Y-115199054D01*
X134747488Y-115148259D01*
X134815308Y-115131463D01*
X134881444Y-115153999D01*
X134920486Y-115199056D01*
X134924951Y-115207820D01*
X135049890Y-115379786D01*
X135200213Y-115530109D01*
X135372179Y-115655048D01*
X135372181Y-115655049D01*
X135372184Y-115655051D01*
X135561588Y-115751557D01*
X135763757Y-115817246D01*
X135973713Y-115850500D01*
X135973714Y-115850500D01*
X136186286Y-115850500D01*
X136186287Y-115850500D01*
X136396243Y-115817246D01*
X136598412Y-115751557D01*
X136787816Y-115655051D01*
X136874138Y-115592335D01*
X136959786Y-115530109D01*
X136959788Y-115530106D01*
X136959792Y-115530104D01*
X137110104Y-115379792D01*
X137110106Y-115379788D01*
X137110109Y-115379786D01*
X137233902Y-115209397D01*
X137235051Y-115207816D01*
X137239514Y-115199054D01*
X137287488Y-115148259D01*
X137355308Y-115131463D01*
X137421444Y-115153999D01*
X137460486Y-115199056D01*
X137464951Y-115207820D01*
X137589890Y-115379786D01*
X137740213Y-115530109D01*
X137912179Y-115655048D01*
X137912181Y-115655049D01*
X137912184Y-115655051D01*
X138101588Y-115751557D01*
X138303757Y-115817246D01*
X138513713Y-115850500D01*
X138513714Y-115850500D01*
X138726286Y-115850500D01*
X138726287Y-115850500D01*
X138936243Y-115817246D01*
X139138412Y-115751557D01*
X139327816Y-115655051D01*
X139414138Y-115592335D01*
X139499786Y-115530109D01*
X139499788Y-115530106D01*
X139499792Y-115530104D01*
X139650104Y-115379792D01*
X139650106Y-115379788D01*
X139650109Y-115379786D01*
X139773902Y-115209397D01*
X139775051Y-115207816D01*
X139779514Y-115199054D01*
X139827488Y-115148259D01*
X139895308Y-115131463D01*
X139961444Y-115153999D01*
X140000486Y-115199056D01*
X140004951Y-115207820D01*
X140129890Y-115379786D01*
X140280213Y-115530109D01*
X140452179Y-115655048D01*
X140452181Y-115655049D01*
X140452184Y-115655051D01*
X140641588Y-115751557D01*
X140843757Y-115817246D01*
X141053713Y-115850500D01*
X141053714Y-115850500D01*
X141266286Y-115850500D01*
X141266287Y-115850500D01*
X141476243Y-115817246D01*
X141678412Y-115751557D01*
X141867816Y-115655051D01*
X141954138Y-115592335D01*
X142039786Y-115530109D01*
X142039788Y-115530106D01*
X142039792Y-115530104D01*
X142190104Y-115379792D01*
X142190106Y-115379788D01*
X142190109Y-115379786D01*
X142313902Y-115209397D01*
X142315051Y-115207816D01*
X142319514Y-115199054D01*
X142367488Y-115148259D01*
X142435308Y-115131463D01*
X142501444Y-115153999D01*
X142540486Y-115199056D01*
X142544951Y-115207820D01*
X142669890Y-115379786D01*
X142820213Y-115530109D01*
X142992179Y-115655048D01*
X142992181Y-115655049D01*
X142992184Y-115655051D01*
X143181588Y-115751557D01*
X143383757Y-115817246D01*
X143593713Y-115850500D01*
X143593714Y-115850500D01*
X143806286Y-115850500D01*
X143806287Y-115850500D01*
X144016243Y-115817246D01*
X144218412Y-115751557D01*
X144407816Y-115655051D01*
X144494138Y-115592335D01*
X144579786Y-115530109D01*
X144579788Y-115530106D01*
X144579792Y-115530104D01*
X144730104Y-115379792D01*
X144730106Y-115379788D01*
X144730109Y-115379786D01*
X144853902Y-115209397D01*
X144855051Y-115207816D01*
X144859514Y-115199054D01*
X144907488Y-115148259D01*
X144975308Y-115131463D01*
X145041444Y-115153999D01*
X145080486Y-115199056D01*
X145084951Y-115207820D01*
X145209890Y-115379786D01*
X145360213Y-115530109D01*
X145532179Y-115655048D01*
X145532181Y-115655049D01*
X145532184Y-115655051D01*
X145721588Y-115751557D01*
X145923757Y-115817246D01*
X146133713Y-115850500D01*
X146133714Y-115850500D01*
X146346286Y-115850500D01*
X146346287Y-115850500D01*
X146556243Y-115817246D01*
X146758412Y-115751557D01*
X146947816Y-115655051D01*
X147119792Y-115530104D01*
X147233329Y-115416566D01*
X147294648Y-115383084D01*
X147364340Y-115388068D01*
X147420274Y-115429939D01*
X147437189Y-115460917D01*
X147486202Y-115592328D01*
X147486206Y-115592335D01*
X147572452Y-115707544D01*
X147572455Y-115707547D01*
X147687664Y-115793793D01*
X147687671Y-115793797D01*
X147822517Y-115844091D01*
X147822516Y-115844091D01*
X147829444Y-115844835D01*
X147882127Y-115850500D01*
X149677872Y-115850499D01*
X149737483Y-115844091D01*
X149872331Y-115793796D01*
X149987546Y-115707546D01*
X150073796Y-115592331D01*
X150124091Y-115457483D01*
X150130500Y-115397873D01*
X150130499Y-113602128D01*
X150124091Y-113542517D01*
X150123447Y-113540791D01*
X150073797Y-113407671D01*
X150073793Y-113407664D01*
X149987547Y-113292455D01*
X149987544Y-113292452D01*
X149872335Y-113206206D01*
X149872328Y-113206202D01*
X149737482Y-113155908D01*
X149737483Y-113155908D01*
X149677883Y-113149501D01*
X149677881Y-113149500D01*
X149677873Y-113149500D01*
X149677864Y-113149500D01*
X147882129Y-113149500D01*
X147882123Y-113149501D01*
X147822516Y-113155908D01*
X147687671Y-113206202D01*
X147687664Y-113206206D01*
X147572455Y-113292452D01*
X147572452Y-113292455D01*
X147486206Y-113407664D01*
X147486203Y-113407669D01*
X147437189Y-113539083D01*
X147395317Y-113595016D01*
X147329853Y-113619433D01*
X147261580Y-113604581D01*
X147233326Y-113583430D01*
X147119786Y-113469890D01*
X146947820Y-113344951D01*
X146758414Y-113248444D01*
X146758413Y-113248443D01*
X146758412Y-113248443D01*
X146556243Y-113182754D01*
X146556241Y-113182753D01*
X146556240Y-113182753D01*
X146394957Y-113157208D01*
X146346287Y-113149500D01*
X146133713Y-113149500D01*
X146085042Y-113157208D01*
X145923760Y-113182753D01*
X145721585Y-113248444D01*
X145532179Y-113344951D01*
X145360213Y-113469890D01*
X145209890Y-113620213D01*
X145084949Y-113792182D01*
X145080484Y-113800946D01*
X145032509Y-113851742D01*
X144964688Y-113868536D01*
X144898553Y-113845998D01*
X144859516Y-113800946D01*
X144855050Y-113792182D01*
X144730109Y-113620213D01*
X144579786Y-113469890D01*
X144407820Y-113344951D01*
X144218414Y-113248444D01*
X144218413Y-113248443D01*
X144218412Y-113248443D01*
X144016243Y-113182754D01*
X144016241Y-113182753D01*
X144016240Y-113182753D01*
X143854957Y-113157208D01*
X143806287Y-113149500D01*
X143593713Y-113149500D01*
X143545042Y-113157208D01*
X143383760Y-113182753D01*
X143181585Y-113248444D01*
X142992179Y-113344951D01*
X142820213Y-113469890D01*
X142669890Y-113620213D01*
X142544949Y-113792182D01*
X142540484Y-113800946D01*
X142492509Y-113851742D01*
X142424688Y-113868536D01*
X142358553Y-113845998D01*
X142319516Y-113800946D01*
X142315050Y-113792182D01*
X142190109Y-113620213D01*
X142039786Y-113469890D01*
X141867820Y-113344951D01*
X141678414Y-113248444D01*
X141678413Y-113248443D01*
X141678412Y-113248443D01*
X141476243Y-113182754D01*
X141476241Y-113182753D01*
X141476240Y-113182753D01*
X141314957Y-113157208D01*
X141266287Y-113149500D01*
X141053713Y-113149500D01*
X141005042Y-113157208D01*
X140843760Y-113182753D01*
X140641585Y-113248444D01*
X140452179Y-113344951D01*
X140280213Y-113469890D01*
X140129890Y-113620213D01*
X140004949Y-113792182D01*
X140000484Y-113800946D01*
X139952509Y-113851742D01*
X139884688Y-113868536D01*
X139818553Y-113845998D01*
X139779516Y-113800946D01*
X139775050Y-113792182D01*
X139650109Y-113620213D01*
X139499786Y-113469890D01*
X139327820Y-113344951D01*
X139138414Y-113248444D01*
X139138413Y-113248443D01*
X139138412Y-113248443D01*
X138936243Y-113182754D01*
X138936241Y-113182753D01*
X138936240Y-113182753D01*
X138774957Y-113157208D01*
X138726287Y-113149500D01*
X138513713Y-113149500D01*
X138465042Y-113157208D01*
X138303760Y-113182753D01*
X138101585Y-113248444D01*
X137912179Y-113344951D01*
X137740213Y-113469890D01*
X137589890Y-113620213D01*
X137464949Y-113792182D01*
X137460484Y-113800946D01*
X137412509Y-113851742D01*
X137344688Y-113868536D01*
X137278553Y-113845998D01*
X137239516Y-113800946D01*
X137235050Y-113792182D01*
X137110109Y-113620213D01*
X136959786Y-113469890D01*
X136787820Y-113344951D01*
X136598414Y-113248444D01*
X136598413Y-113248443D01*
X136598412Y-113248443D01*
X136396243Y-113182754D01*
X136396241Y-113182753D01*
X136396240Y-113182753D01*
X136234957Y-113157208D01*
X136186287Y-113149500D01*
X135973713Y-113149500D01*
X135925042Y-113157208D01*
X135763760Y-113182753D01*
X135561585Y-113248444D01*
X135372179Y-113344951D01*
X135200213Y-113469890D01*
X135049890Y-113620213D01*
X134924949Y-113792182D01*
X134920484Y-113800946D01*
X134872509Y-113851742D01*
X134804688Y-113868536D01*
X134738553Y-113845998D01*
X134699516Y-113800946D01*
X134695050Y-113792182D01*
X134570109Y-113620213D01*
X134419786Y-113469890D01*
X134247820Y-113344951D01*
X134058414Y-113248444D01*
X134058413Y-113248443D01*
X134058412Y-113248443D01*
X133856243Y-113182754D01*
X133856241Y-113182753D01*
X133856240Y-113182753D01*
X133694957Y-113157208D01*
X133646287Y-113149500D01*
X133433713Y-113149500D01*
X133385042Y-113157208D01*
X133223760Y-113182753D01*
X133021585Y-113248444D01*
X132832179Y-113344951D01*
X132660213Y-113469890D01*
X132509890Y-113620213D01*
X132384949Y-113792182D01*
X132380484Y-113800946D01*
X132332509Y-113851742D01*
X132264688Y-113868536D01*
X132198553Y-113845998D01*
X132159516Y-113800946D01*
X132155050Y-113792182D01*
X132030109Y-113620213D01*
X131879786Y-113469890D01*
X131707820Y-113344951D01*
X131518414Y-113248444D01*
X131518413Y-113248443D01*
X131518412Y-113248443D01*
X131316243Y-113182754D01*
X131316241Y-113182753D01*
X131316240Y-113182753D01*
X131154957Y-113157208D01*
X131106287Y-113149500D01*
X130893713Y-113149500D01*
X130845042Y-113157208D01*
X130683760Y-113182753D01*
X130481585Y-113248444D01*
X130292179Y-113344951D01*
X130120213Y-113469890D01*
X129969890Y-113620213D01*
X129844949Y-113792182D01*
X129840484Y-113800946D01*
X129792509Y-113851742D01*
X129724688Y-113868536D01*
X129658553Y-113845998D01*
X129619516Y-113800946D01*
X129615050Y-113792182D01*
X129490109Y-113620213D01*
X129339786Y-113469890D01*
X129167820Y-113344951D01*
X128978414Y-113248444D01*
X128978413Y-113248443D01*
X128978412Y-113248443D01*
X128776243Y-113182754D01*
X128776241Y-113182753D01*
X128776240Y-113182753D01*
X128614957Y-113157208D01*
X128566287Y-113149500D01*
X128353713Y-113149500D01*
X128305042Y-113157208D01*
X128143760Y-113182753D01*
X127941585Y-113248444D01*
X127752179Y-113344951D01*
X127580213Y-113469890D01*
X127429890Y-113620213D01*
X127304949Y-113792182D01*
X127300484Y-113800946D01*
X127252509Y-113851742D01*
X127184688Y-113868536D01*
X127118553Y-113845998D01*
X127079516Y-113800946D01*
X127075050Y-113792182D01*
X126950109Y-113620213D01*
X126799786Y-113469890D01*
X126627820Y-113344951D01*
X126438414Y-113248444D01*
X126438413Y-113248443D01*
X126438412Y-113248443D01*
X126236243Y-113182754D01*
X126236241Y-113182753D01*
X126236240Y-113182753D01*
X126074957Y-113157208D01*
X126026287Y-113149500D01*
X125813713Y-113149500D01*
X125765042Y-113157208D01*
X125603760Y-113182753D01*
X125401585Y-113248444D01*
X125212179Y-113344951D01*
X125040213Y-113469890D01*
X124889890Y-113620213D01*
X124764949Y-113792182D01*
X124760484Y-113800946D01*
X124712509Y-113851742D01*
X124644688Y-113868536D01*
X124578553Y-113845998D01*
X124539516Y-113800946D01*
X124535050Y-113792182D01*
X124410109Y-113620213D01*
X124259786Y-113469890D01*
X124087820Y-113344951D01*
X123898414Y-113248444D01*
X123898413Y-113248443D01*
X123898412Y-113248443D01*
X123696243Y-113182754D01*
X123696241Y-113182753D01*
X123696240Y-113182753D01*
X123534957Y-113157208D01*
X123486287Y-113149500D01*
X123273713Y-113149500D01*
X123225042Y-113157208D01*
X123063760Y-113182753D01*
X122861585Y-113248444D01*
X122672179Y-113344951D01*
X122500213Y-113469890D01*
X122349890Y-113620213D01*
X122224949Y-113792182D01*
X122220484Y-113800946D01*
X122172509Y-113851742D01*
X122104688Y-113868536D01*
X122038553Y-113845998D01*
X121999516Y-113800946D01*
X121995050Y-113792182D01*
X121870109Y-113620213D01*
X121719786Y-113469890D01*
X121547820Y-113344951D01*
X121358414Y-113248444D01*
X121358413Y-113248443D01*
X121358412Y-113248443D01*
X121156243Y-113182754D01*
X121156241Y-113182753D01*
X121156240Y-113182753D01*
X120994957Y-113157208D01*
X120946287Y-113149500D01*
X120733713Y-113149500D01*
X120685042Y-113157208D01*
X120523760Y-113182753D01*
X120321585Y-113248444D01*
X120132179Y-113344951D01*
X119960213Y-113469890D01*
X119809890Y-113620213D01*
X119684949Y-113792182D01*
X119680484Y-113800946D01*
X119632509Y-113851742D01*
X119564688Y-113868536D01*
X119498553Y-113845998D01*
X119459516Y-113800946D01*
X119455050Y-113792182D01*
X119330109Y-113620213D01*
X119179786Y-113469890D01*
X119007820Y-113344951D01*
X118818414Y-113248444D01*
X118818413Y-113248443D01*
X118818412Y-113248443D01*
X118616243Y-113182754D01*
X118616241Y-113182753D01*
X118616240Y-113182753D01*
X118454957Y-113157208D01*
X118406287Y-113149500D01*
X118193713Y-113149500D01*
X118145042Y-113157208D01*
X117983760Y-113182753D01*
X117781585Y-113248444D01*
X117592179Y-113344951D01*
X117420213Y-113469890D01*
X117269890Y-113620213D01*
X117144949Y-113792182D01*
X117140484Y-113800946D01*
X117092509Y-113851742D01*
X117024688Y-113868536D01*
X116958553Y-113845998D01*
X116919516Y-113800946D01*
X116915050Y-113792182D01*
X116790109Y-113620213D01*
X116639786Y-113469890D01*
X116467820Y-113344951D01*
X116278414Y-113248444D01*
X116278413Y-113248443D01*
X116278412Y-113248443D01*
X116076243Y-113182754D01*
X116076241Y-113182753D01*
X116076240Y-113182753D01*
X115914957Y-113157208D01*
X115866287Y-113149500D01*
X115653713Y-113149500D01*
X115605042Y-113157208D01*
X115443760Y-113182753D01*
X115241585Y-113248444D01*
X115052179Y-113344951D01*
X114880213Y-113469890D01*
X114729890Y-113620213D01*
X114604949Y-113792182D01*
X114600484Y-113800946D01*
X114552509Y-113851742D01*
X114484688Y-113868536D01*
X114418553Y-113845998D01*
X114379516Y-113800946D01*
X114375050Y-113792182D01*
X114250109Y-113620213D01*
X114099786Y-113469890D01*
X113927820Y-113344951D01*
X113738414Y-113248444D01*
X113738413Y-113248443D01*
X113738412Y-113248443D01*
X113536243Y-113182754D01*
X113536241Y-113182753D01*
X113536240Y-113182753D01*
X113374957Y-113157208D01*
X113326287Y-113149500D01*
X113113713Y-113149500D01*
X113065042Y-113157208D01*
X112903760Y-113182753D01*
X112701585Y-113248444D01*
X112512179Y-113344951D01*
X112340213Y-113469890D01*
X112189890Y-113620213D01*
X112064951Y-113792179D01*
X111968444Y-113981585D01*
X111902753Y-114183760D01*
X111882928Y-114308932D01*
X111869500Y-114393713D01*
X110000500Y-114393713D01*
X110000500Y-88993713D01*
X111869500Y-88993713D01*
X111869500Y-89206287D01*
X111902754Y-89416243D01*
X111959908Y-89592145D01*
X111968444Y-89618414D01*
X112064951Y-89807820D01*
X112189890Y-89979786D01*
X112340213Y-90130109D01*
X112512179Y-90255048D01*
X112512181Y-90255049D01*
X112512184Y-90255051D01*
X112701588Y-90351557D01*
X112903757Y-90417246D01*
X113113713Y-90450500D01*
X113113714Y-90450500D01*
X113326286Y-90450500D01*
X113326287Y-90450500D01*
X113536243Y-90417246D01*
X113738412Y-90351557D01*
X113927816Y-90255051D01*
X114014138Y-90192335D01*
X114099786Y-90130109D01*
X114099788Y-90130106D01*
X114099792Y-90130104D01*
X114250104Y-89979792D01*
X114250106Y-89979788D01*
X114250109Y-89979786D01*
X114335890Y-89861717D01*
X114375051Y-89807816D01*
X114379793Y-89798508D01*
X114427763Y-89747711D01*
X114495583Y-89730911D01*
X114561719Y-89753445D01*
X114600763Y-89798500D01*
X114605373Y-89807547D01*
X114644728Y-89861716D01*
X115277037Y-89229408D01*
X115294075Y-89292993D01*
X115359901Y-89407007D01*
X115452993Y-89500099D01*
X115567007Y-89565925D01*
X115630590Y-89582962D01*
X114998282Y-90215269D01*
X114998282Y-90215270D01*
X115052449Y-90254624D01*
X115241782Y-90351095D01*
X115443870Y-90416757D01*
X115653754Y-90450000D01*
X115866246Y-90450000D01*
X116076127Y-90416757D01*
X116076130Y-90416757D01*
X116278217Y-90351095D01*
X116467554Y-90254622D01*
X116521716Y-90215270D01*
X116521717Y-90215270D01*
X115889408Y-89582962D01*
X115952993Y-89565925D01*
X116067007Y-89500099D01*
X116160099Y-89407007D01*
X116225925Y-89292993D01*
X116242962Y-89229409D01*
X116875270Y-89861717D01*
X116875270Y-89861716D01*
X116914622Y-89807555D01*
X116919232Y-89798507D01*
X116967205Y-89747709D01*
X117035025Y-89730912D01*
X117101161Y-89753447D01*
X117140204Y-89798504D01*
X117144949Y-89807817D01*
X117269890Y-89979786D01*
X117420213Y-90130109D01*
X117592179Y-90255048D01*
X117592181Y-90255049D01*
X117592184Y-90255051D01*
X117781588Y-90351557D01*
X117983757Y-90417246D01*
X118193713Y-90450500D01*
X118193714Y-90450500D01*
X118406286Y-90450500D01*
X118406287Y-90450500D01*
X118616243Y-90417246D01*
X118658523Y-90403507D01*
X118728362Y-90401511D01*
X118784522Y-90433757D01*
X127065139Y-98714374D01*
X127065149Y-98714385D01*
X127069479Y-98718715D01*
X127069480Y-98718716D01*
X127181284Y-98830520D01*
X127181286Y-98830521D01*
X127181290Y-98830524D01*
X127318209Y-98909573D01*
X127318216Y-98909577D01*
X127430019Y-98939534D01*
X127470942Y-98950500D01*
X127470943Y-98950500D01*
X138299903Y-98950500D01*
X138366942Y-98970185D01*
X138387584Y-98986819D01*
X152036971Y-112636206D01*
X152070456Y-112697529D01*
X152070908Y-112748077D01*
X152058078Y-112812581D01*
X152058078Y-112970268D01*
X152088839Y-113124911D01*
X152088842Y-113124923D01*
X152149180Y-113270594D01*
X152149187Y-113270607D01*
X152236788Y-113401710D01*
X152236791Y-113401714D01*
X152348285Y-113513208D01*
X152348289Y-113513211D01*
X152479392Y-113600812D01*
X152479405Y-113600819D01*
X152625076Y-113661157D01*
X152625081Y-113661159D01*
X152779731Y-113691921D01*
X152779734Y-113691922D01*
X152779736Y-113691922D01*
X152937422Y-113691922D01*
X152937423Y-113691921D01*
X153092075Y-113661159D01*
X153204744Y-113614489D01*
X153237750Y-113600819D01*
X153237750Y-113600818D01*
X153237757Y-113600816D01*
X153350670Y-113525370D01*
X153417347Y-113504492D01*
X153484727Y-113522976D01*
X153507242Y-113540791D01*
X154263181Y-114296730D01*
X154296666Y-114358053D01*
X154299500Y-114384411D01*
X154299500Y-125313330D01*
X154299499Y-125313348D01*
X154299499Y-125479054D01*
X154299498Y-125479054D01*
X154340423Y-125631785D01*
X154369358Y-125681900D01*
X154369359Y-125681904D01*
X154369360Y-125681904D01*
X154419479Y-125768714D01*
X154419481Y-125768717D01*
X154538349Y-125887585D01*
X154538355Y-125887590D01*
X156047200Y-127396435D01*
X156080685Y-127457758D01*
X156077450Y-127522433D01*
X156036447Y-127648628D01*
X155999500Y-127881902D01*
X155999500Y-128118097D01*
X156036446Y-128351368D01*
X156109433Y-128575996D01*
X156197839Y-128749500D01*
X156216657Y-128786433D01*
X156355483Y-128977510D01*
X156522490Y-129144517D01*
X156713567Y-129283343D01*
X156812991Y-129334002D01*
X156924003Y-129390566D01*
X156924005Y-129390566D01*
X156924008Y-129390568D01*
X157044412Y-129429689D01*
X157148631Y-129463553D01*
X157381903Y-129500500D01*
X157381908Y-129500500D01*
X157618097Y-129500500D01*
X157851368Y-129463553D01*
X158075992Y-129390568D01*
X158286433Y-129283343D01*
X158477510Y-129144517D01*
X158644517Y-128977510D01*
X158783343Y-128786433D01*
X158843583Y-128668204D01*
X158891558Y-128617409D01*
X158954068Y-128600500D01*
X162545932Y-128600500D01*
X162612971Y-128620185D01*
X162656416Y-128668203D01*
X162716657Y-128786433D01*
X162855483Y-128977510D01*
X163022490Y-129144517D01*
X163213567Y-129283343D01*
X163312991Y-129334002D01*
X163424003Y-129390566D01*
X163424005Y-129390566D01*
X163424008Y-129390568D01*
X163544412Y-129429689D01*
X163648631Y-129463553D01*
X163881903Y-129500500D01*
X163881908Y-129500500D01*
X164118097Y-129500500D01*
X164351368Y-129463553D01*
X164575992Y-129390568D01*
X164786433Y-129283343D01*
X164977510Y-129144517D01*
X165144517Y-128977510D01*
X165283343Y-128786433D01*
X165390568Y-128575992D01*
X165463553Y-128351368D01*
X165500500Y-128118097D01*
X165500500Y-127881902D01*
X165463553Y-127648631D01*
X165401534Y-127457758D01*
X165390568Y-127424008D01*
X165390566Y-127424005D01*
X165390566Y-127424003D01*
X165283342Y-127213566D01*
X165144517Y-127022490D01*
X164977510Y-126855483D01*
X164786433Y-126716657D01*
X164575996Y-126609433D01*
X164351368Y-126536446D01*
X164118097Y-126499500D01*
X164118092Y-126499500D01*
X163881908Y-126499500D01*
X163881903Y-126499500D01*
X163648631Y-126536446D01*
X163424003Y-126609433D01*
X163213566Y-126716657D01*
X163104550Y-126795862D01*
X163022490Y-126855483D01*
X163022488Y-126855485D01*
X163022487Y-126855485D01*
X162855485Y-127022487D01*
X162855485Y-127022488D01*
X162855483Y-127022490D01*
X162795862Y-127104550D01*
X162716657Y-127213566D01*
X162656417Y-127331795D01*
X162608442Y-127382591D01*
X162545932Y-127399500D01*
X158954068Y-127399500D01*
X158887029Y-127379815D01*
X158843583Y-127331795D01*
X158783342Y-127213566D01*
X158644517Y-127022490D01*
X158477510Y-126855483D01*
X158286433Y-126716657D01*
X158075996Y-126609433D01*
X157851368Y-126536446D01*
X157618097Y-126499500D01*
X157618092Y-126499500D01*
X157381908Y-126499500D01*
X157381903Y-126499500D01*
X157148628Y-126536447D01*
X157022433Y-126577450D01*
X156952592Y-126579445D01*
X156896435Y-126547200D01*
X155536819Y-125187584D01*
X155522115Y-125160656D01*
X155505523Y-125134838D01*
X155504631Y-125128637D01*
X155503334Y-125126261D01*
X155500500Y-125099903D01*
X155500500Y-124881947D01*
X165500000Y-124881947D01*
X165500000Y-125118052D01*
X165536934Y-125351247D01*
X165609897Y-125575802D01*
X165717087Y-125786174D01*
X165777338Y-125869104D01*
X165777340Y-125869105D01*
X166476212Y-125170233D01*
X166487482Y-125212292D01*
X166559890Y-125337708D01*
X166662292Y-125440110D01*
X166787708Y-125512518D01*
X166829765Y-125523787D01*
X166130893Y-126222658D01*
X166213828Y-126282914D01*
X166424197Y-126390102D01*
X166648752Y-126463065D01*
X166648751Y-126463065D01*
X166881948Y-126500000D01*
X167118052Y-126500000D01*
X167351247Y-126463065D01*
X167575802Y-126390102D01*
X167786163Y-126282918D01*
X167786169Y-126282914D01*
X167869104Y-126222658D01*
X167869105Y-126222658D01*
X167170233Y-125523787D01*
X167212292Y-125512518D01*
X167337708Y-125440110D01*
X167440110Y-125337708D01*
X167512518Y-125212292D01*
X167523787Y-125170233D01*
X168222658Y-125869105D01*
X168222658Y-125869104D01*
X168282914Y-125786169D01*
X168282918Y-125786163D01*
X168390102Y-125575802D01*
X168463065Y-125351247D01*
X168500000Y-125118052D01*
X168500000Y-124881947D01*
X172000000Y-124881947D01*
X172000000Y-125118052D01*
X172036934Y-125351247D01*
X172109897Y-125575802D01*
X172217087Y-125786174D01*
X172277338Y-125869104D01*
X172277340Y-125869105D01*
X172976212Y-125170233D01*
X172987482Y-125212292D01*
X173059890Y-125337708D01*
X173162292Y-125440110D01*
X173287708Y-125512518D01*
X173329765Y-125523787D01*
X172630893Y-126222658D01*
X172713828Y-126282914D01*
X172924197Y-126390102D01*
X173148752Y-126463065D01*
X173148751Y-126463065D01*
X173381948Y-126500000D01*
X173618052Y-126500000D01*
X173851247Y-126463065D01*
X174075802Y-126390102D01*
X174286163Y-126282918D01*
X174286169Y-126282914D01*
X174369104Y-126222658D01*
X174369105Y-126222658D01*
X173670233Y-125523787D01*
X173712292Y-125512518D01*
X173837708Y-125440110D01*
X173940110Y-125337708D01*
X174012518Y-125212292D01*
X174023787Y-125170233D01*
X174722658Y-125869105D01*
X174722658Y-125869104D01*
X174782914Y-125786169D01*
X174782918Y-125786163D01*
X174890102Y-125575802D01*
X174963065Y-125351247D01*
X175000000Y-125118052D01*
X175000000Y-124881947D01*
X174963065Y-124648752D01*
X174890102Y-124424197D01*
X174782914Y-124213828D01*
X174722658Y-124130894D01*
X174722658Y-124130893D01*
X174023787Y-124829765D01*
X174012518Y-124787708D01*
X173940110Y-124662292D01*
X173837708Y-124559890D01*
X173712292Y-124487482D01*
X173670234Y-124476212D01*
X174369105Y-123777340D01*
X174369104Y-123777338D01*
X174286174Y-123717087D01*
X174075802Y-123609897D01*
X173851247Y-123536934D01*
X173851248Y-123536934D01*
X173618052Y-123500000D01*
X173381948Y-123500000D01*
X173148752Y-123536934D01*
X172924197Y-123609897D01*
X172713830Y-123717084D01*
X172630894Y-123777340D01*
X173329766Y-124476212D01*
X173287708Y-124487482D01*
X173162292Y-124559890D01*
X173059890Y-124662292D01*
X172987482Y-124787708D01*
X172976212Y-124829766D01*
X172277340Y-124130894D01*
X172217084Y-124213830D01*
X172109897Y-124424197D01*
X172036934Y-124648752D01*
X172000000Y-124881947D01*
X168500000Y-124881947D01*
X168463065Y-124648752D01*
X168390102Y-124424197D01*
X168282914Y-124213828D01*
X168222658Y-124130894D01*
X168222658Y-124130893D01*
X167523787Y-124829765D01*
X167512518Y-124787708D01*
X167440110Y-124662292D01*
X167337708Y-124559890D01*
X167212292Y-124487482D01*
X167170234Y-124476212D01*
X167869105Y-123777340D01*
X167869104Y-123777339D01*
X167786174Y-123717087D01*
X167575802Y-123609897D01*
X167351247Y-123536934D01*
X167351248Y-123536934D01*
X167118052Y-123500000D01*
X166881948Y-123500000D01*
X166648752Y-123536934D01*
X166424197Y-123609897D01*
X166213830Y-123717084D01*
X166130894Y-123777340D01*
X166829766Y-124476212D01*
X166787708Y-124487482D01*
X166662292Y-124559890D01*
X166559890Y-124662292D01*
X166487482Y-124787708D01*
X166476212Y-124829766D01*
X165777340Y-124130894D01*
X165717084Y-124213830D01*
X165609897Y-124424197D01*
X165536934Y-124648752D01*
X165500000Y-124881947D01*
X155500500Y-124881947D01*
X155500500Y-117649097D01*
X155520185Y-117582058D01*
X155572989Y-117536303D01*
X155642147Y-117526359D01*
X155705703Y-117555384D01*
X155712181Y-117561416D01*
X159015139Y-120864374D01*
X159015149Y-120864385D01*
X159019479Y-120868715D01*
X159019480Y-120868716D01*
X159131284Y-120980520D01*
X159218095Y-121030639D01*
X159218097Y-121030641D01*
X159256151Y-121052611D01*
X159268215Y-121059577D01*
X159420943Y-121100501D01*
X159420946Y-121100501D01*
X159586653Y-121100501D01*
X159586669Y-121100500D01*
X165545932Y-121100500D01*
X165612971Y-121120185D01*
X165656416Y-121168203D01*
X165716657Y-121286433D01*
X165855483Y-121477510D01*
X166022490Y-121644517D01*
X166213567Y-121783343D01*
X166312991Y-121834002D01*
X166424003Y-121890566D01*
X166424005Y-121890566D01*
X166424008Y-121890568D01*
X166544412Y-121929689D01*
X166648631Y-121963553D01*
X166881903Y-122000500D01*
X166881908Y-122000500D01*
X167118097Y-122000500D01*
X167351368Y-121963553D01*
X167575992Y-121890568D01*
X167786433Y-121783343D01*
X167977510Y-121644517D01*
X168144517Y-121477510D01*
X168283343Y-121286433D01*
X168343583Y-121168204D01*
X168391558Y-121117409D01*
X168454068Y-121100500D01*
X172045932Y-121100500D01*
X172112971Y-121120185D01*
X172156416Y-121168203D01*
X172216657Y-121286433D01*
X172355483Y-121477510D01*
X172522490Y-121644517D01*
X172713567Y-121783343D01*
X172812991Y-121834002D01*
X172924003Y-121890566D01*
X172924005Y-121890566D01*
X172924008Y-121890568D01*
X173044412Y-121929689D01*
X173148631Y-121963553D01*
X173381903Y-122000500D01*
X173381908Y-122000500D01*
X173618097Y-122000500D01*
X173851368Y-121963553D01*
X174075992Y-121890568D01*
X174286433Y-121783343D01*
X174477510Y-121644517D01*
X174644517Y-121477510D01*
X174783343Y-121286433D01*
X174890568Y-121075992D01*
X174963553Y-120851368D01*
X175000500Y-120618097D01*
X175000500Y-120381902D01*
X174963553Y-120148631D01*
X174890566Y-119924003D01*
X174783342Y-119713566D01*
X174644517Y-119522490D01*
X174477510Y-119355483D01*
X174286433Y-119216657D01*
X174075996Y-119109433D01*
X173851368Y-119036446D01*
X173618097Y-118999500D01*
X173618092Y-118999500D01*
X173381908Y-118999500D01*
X173381903Y-118999500D01*
X173148631Y-119036446D01*
X172924003Y-119109433D01*
X172713566Y-119216657D01*
X172604550Y-119295862D01*
X172522490Y-119355483D01*
X172522488Y-119355485D01*
X172522487Y-119355485D01*
X172355485Y-119522487D01*
X172355485Y-119522488D01*
X172355483Y-119522490D01*
X172295862Y-119604550D01*
X172216657Y-119713566D01*
X172156417Y-119831795D01*
X172108442Y-119882591D01*
X172045932Y-119899500D01*
X168454068Y-119899500D01*
X168387029Y-119879815D01*
X168343583Y-119831795D01*
X168283342Y-119713566D01*
X168144517Y-119522490D01*
X167977510Y-119355483D01*
X167786433Y-119216657D01*
X167575996Y-119109433D01*
X167351368Y-119036446D01*
X167118097Y-118999500D01*
X167118092Y-118999500D01*
X166881908Y-118999500D01*
X166881903Y-118999500D01*
X166648631Y-119036446D01*
X166424003Y-119109433D01*
X166213566Y-119216657D01*
X166104550Y-119295862D01*
X166022490Y-119355483D01*
X166022488Y-119355485D01*
X166022487Y-119355485D01*
X165855485Y-119522487D01*
X165855485Y-119522488D01*
X165855483Y-119522490D01*
X165795862Y-119604550D01*
X165716657Y-119713566D01*
X165656417Y-119831795D01*
X165608442Y-119882591D01*
X165545932Y-119899500D01*
X159800097Y-119899500D01*
X159733058Y-119879815D01*
X159712416Y-119863181D01*
X155936819Y-116087584D01*
X155903334Y-116026261D01*
X155900500Y-115999903D01*
X155900500Y-115417847D01*
X155920185Y-115350808D01*
X155972989Y-115305053D01*
X156000309Y-115296230D01*
X156016291Y-115293050D01*
X156133497Y-115269737D01*
X156279179Y-115209394D01*
X156410289Y-115121789D01*
X156521789Y-115010289D01*
X156609394Y-114879179D01*
X156669737Y-114733497D01*
X156700500Y-114578842D01*
X156700500Y-114560066D01*
X156720185Y-114493027D01*
X156755607Y-114456965D01*
X156810289Y-114420429D01*
X156921789Y-114308929D01*
X157009394Y-114177819D01*
X157069737Y-114032137D01*
X157100500Y-113877482D01*
X157100500Y-113719798D01*
X157100500Y-113719795D01*
X157100499Y-113719793D01*
X157088836Y-113661159D01*
X157069737Y-113565143D01*
X157015748Y-113434802D01*
X157008280Y-113365335D01*
X157027207Y-113318463D01*
X157041502Y-113297071D01*
X157101845Y-113151389D01*
X157132608Y-112996734D01*
X157132608Y-112839050D01*
X157132608Y-112839047D01*
X157132607Y-112839045D01*
X157114512Y-112748077D01*
X157101845Y-112684395D01*
X157081885Y-112636206D01*
X157041505Y-112538719D01*
X157041498Y-112538706D01*
X156953897Y-112407603D01*
X156953894Y-112407599D01*
X156888520Y-112342225D01*
X156855035Y-112280902D01*
X156854584Y-112230354D01*
X156867414Y-112165856D01*
X156867414Y-112008172D01*
X156867414Y-112008169D01*
X156867413Y-112008167D01*
X156836652Y-111853524D01*
X156836651Y-111853517D01*
X156836649Y-111853512D01*
X156776311Y-111707841D01*
X156776304Y-111707828D01*
X156688703Y-111576725D01*
X156688700Y-111576721D01*
X156577206Y-111465227D01*
X156577202Y-111465224D01*
X156446099Y-111377623D01*
X156446086Y-111377616D01*
X156367564Y-111345092D01*
X156313160Y-111301251D01*
X156291095Y-111234957D01*
X156293399Y-111206339D01*
X156323432Y-111055355D01*
X156355817Y-110993445D01*
X156357313Y-110991921D01*
X160268713Y-107080521D01*
X160268716Y-107080520D01*
X160380520Y-106968716D01*
X160430639Y-106881904D01*
X160459577Y-106831785D01*
X160500500Y-106679057D01*
X160500500Y-106520943D01*
X160500500Y-104374499D01*
X160520185Y-104307460D01*
X160572989Y-104261705D01*
X160624500Y-104250499D01*
X160947871Y-104250499D01*
X160947872Y-104250499D01*
X161007483Y-104244091D01*
X161142331Y-104193796D01*
X161257546Y-104107546D01*
X161343796Y-103992331D01*
X161394091Y-103857483D01*
X161400500Y-103797873D01*
X161400499Y-102631947D01*
X166000000Y-102631947D01*
X166000000Y-102868052D01*
X166036934Y-103101247D01*
X166109897Y-103325802D01*
X166217087Y-103536174D01*
X166277338Y-103619104D01*
X166277340Y-103619105D01*
X167017037Y-102879408D01*
X167034075Y-102942993D01*
X167099901Y-103057007D01*
X167192993Y-103150099D01*
X167307007Y-103215925D01*
X167370590Y-103232962D01*
X166630893Y-103972658D01*
X166713828Y-104032914D01*
X166924197Y-104140102D01*
X167148752Y-104213065D01*
X167148751Y-104213065D01*
X167381948Y-104250000D01*
X167618052Y-104250000D01*
X167851247Y-104213065D01*
X168075802Y-104140102D01*
X168286163Y-104032918D01*
X168286169Y-104032914D01*
X168369104Y-103972658D01*
X168369105Y-103972658D01*
X167629408Y-103232962D01*
X167692993Y-103215925D01*
X167807007Y-103150099D01*
X167900099Y-103057007D01*
X167965925Y-102942993D01*
X167982962Y-102879409D01*
X168722658Y-103619105D01*
X168722658Y-103619104D01*
X168782914Y-103536169D01*
X168782918Y-103536163D01*
X168890102Y-103325802D01*
X168963065Y-103101247D01*
X169000000Y-102868052D01*
X169000000Y-102631947D01*
X168963065Y-102398752D01*
X168890102Y-102174197D01*
X168782914Y-101963828D01*
X168722658Y-101880894D01*
X168722658Y-101880893D01*
X167982962Y-102620590D01*
X167965925Y-102557007D01*
X167900099Y-102442993D01*
X167807007Y-102349901D01*
X167692993Y-102284075D01*
X167629409Y-102267037D01*
X168369105Y-101527340D01*
X168369104Y-101527338D01*
X168286174Y-101467087D01*
X168075802Y-101359897D01*
X167851247Y-101286934D01*
X167851248Y-101286934D01*
X167618052Y-101250000D01*
X167381948Y-101250000D01*
X167148752Y-101286934D01*
X166924197Y-101359897D01*
X166713830Y-101467084D01*
X166630894Y-101527340D01*
X167370591Y-102267037D01*
X167307007Y-102284075D01*
X167192993Y-102349901D01*
X167099901Y-102442993D01*
X167034075Y-102557007D01*
X167017037Y-102620591D01*
X166277340Y-101880894D01*
X166217084Y-101963830D01*
X166109897Y-102174197D01*
X166036934Y-102398752D01*
X166000000Y-102631947D01*
X161400499Y-102631947D01*
X161400499Y-101702128D01*
X161394091Y-101642517D01*
X161394090Y-101642514D01*
X161384922Y-101617931D01*
X161343797Y-101507671D01*
X161343793Y-101507664D01*
X161257547Y-101392455D01*
X161257544Y-101392452D01*
X161142335Y-101306206D01*
X161142328Y-101306202D01*
X161007482Y-101255908D01*
X161007483Y-101255908D01*
X160947883Y-101249501D01*
X160947881Y-101249500D01*
X160947873Y-101249500D01*
X160947864Y-101249500D01*
X158852129Y-101249500D01*
X158852123Y-101249501D01*
X158792516Y-101255908D01*
X158657671Y-101306202D01*
X158657664Y-101306206D01*
X158542455Y-101392452D01*
X158542452Y-101392455D01*
X158456206Y-101507664D01*
X158456202Y-101507671D01*
X158405908Y-101642517D01*
X158399501Y-101702116D01*
X158399501Y-101702123D01*
X158399500Y-101702135D01*
X158399500Y-103797870D01*
X158399501Y-103797876D01*
X158405908Y-103857483D01*
X158456202Y-103992328D01*
X158456206Y-103992335D01*
X158542452Y-104107544D01*
X158542455Y-104107547D01*
X158657664Y-104193793D01*
X158657671Y-104193797D01*
X158702618Y-104210561D01*
X158792517Y-104244091D01*
X158852127Y-104250500D01*
X159175500Y-104250499D01*
X159242539Y-104270183D01*
X159288294Y-104322987D01*
X159299500Y-104374499D01*
X159299500Y-106299903D01*
X159279815Y-106366942D01*
X159263181Y-106387584D01*
X155508133Y-110142631D01*
X155446810Y-110176116D01*
X155444644Y-110176567D01*
X155289302Y-110207467D01*
X155289292Y-110207470D01*
X155143621Y-110267808D01*
X155143610Y-110267814D01*
X155030700Y-110343258D01*
X154964023Y-110364135D01*
X154896642Y-110345650D01*
X154874129Y-110327836D01*
X140134648Y-95588355D01*
X140134646Y-95588352D01*
X140015775Y-95469481D01*
X140015774Y-95469480D01*
X139928962Y-95419360D01*
X139928962Y-95419359D01*
X139928958Y-95419358D01*
X139878843Y-95390423D01*
X139726115Y-95349499D01*
X139568001Y-95349499D01*
X139560405Y-95349499D01*
X139560389Y-95349500D01*
X134264500Y-95349500D01*
X134197461Y-95329815D01*
X134151706Y-95277011D01*
X134140500Y-95225500D01*
X134140500Y-90385718D01*
X134160185Y-90318679D01*
X134208207Y-90275233D01*
X134247815Y-90255052D01*
X134247815Y-90255051D01*
X134247816Y-90255051D01*
X134339193Y-90188661D01*
X134419786Y-90130109D01*
X134419788Y-90130106D01*
X134419792Y-90130104D01*
X134570104Y-89979792D01*
X134570106Y-89979788D01*
X134570109Y-89979786D01*
X134695048Y-89807820D01*
X134695047Y-89807820D01*
X134695051Y-89807816D01*
X134699514Y-89799054D01*
X134747488Y-89748259D01*
X134815308Y-89731463D01*
X134881444Y-89753999D01*
X134920486Y-89799056D01*
X134924951Y-89807820D01*
X135049890Y-89979786D01*
X135200213Y-90130109D01*
X135372179Y-90255048D01*
X135372181Y-90255049D01*
X135372184Y-90255051D01*
X135561588Y-90351557D01*
X135763757Y-90417246D01*
X135973713Y-90450500D01*
X135973714Y-90450500D01*
X136186286Y-90450500D01*
X136186287Y-90450500D01*
X136396243Y-90417246D01*
X136598412Y-90351557D01*
X136787816Y-90255051D01*
X136874138Y-90192335D01*
X136959786Y-90130109D01*
X136959788Y-90130106D01*
X136959792Y-90130104D01*
X137110104Y-89979792D01*
X137110106Y-89979788D01*
X137110109Y-89979786D01*
X137235048Y-89807820D01*
X137235047Y-89807820D01*
X137235051Y-89807816D01*
X137239514Y-89799054D01*
X137287488Y-89748259D01*
X137355308Y-89731463D01*
X137421444Y-89753999D01*
X137460486Y-89799056D01*
X137464951Y-89807820D01*
X137589890Y-89979786D01*
X137740213Y-90130109D01*
X137912179Y-90255048D01*
X137912181Y-90255049D01*
X137912184Y-90255051D01*
X138101588Y-90351557D01*
X138303757Y-90417246D01*
X138513713Y-90450500D01*
X138513714Y-90450500D01*
X138726286Y-90450500D01*
X138726287Y-90450500D01*
X138936243Y-90417246D01*
X139138412Y-90351557D01*
X139327816Y-90255051D01*
X139414138Y-90192335D01*
X139499786Y-90130109D01*
X139499788Y-90130106D01*
X139499792Y-90130104D01*
X139650104Y-89979792D01*
X139650106Y-89979788D01*
X139650109Y-89979786D01*
X139775048Y-89807820D01*
X139775047Y-89807820D01*
X139775051Y-89807816D01*
X139779514Y-89799054D01*
X139827488Y-89748259D01*
X139895308Y-89731463D01*
X139961444Y-89753999D01*
X140000486Y-89799056D01*
X140004951Y-89807820D01*
X140129890Y-89979786D01*
X140280213Y-90130109D01*
X140452179Y-90255048D01*
X140452181Y-90255049D01*
X140452184Y-90255051D01*
X140641588Y-90351557D01*
X140843757Y-90417246D01*
X141053713Y-90450500D01*
X141053714Y-90450500D01*
X141266286Y-90450500D01*
X141266287Y-90450500D01*
X141476243Y-90417246D01*
X141678412Y-90351557D01*
X141867816Y-90255051D01*
X141954138Y-90192335D01*
X142039786Y-90130109D01*
X142039788Y-90130106D01*
X142039792Y-90130104D01*
X142190104Y-89979792D01*
X142190106Y-89979788D01*
X142190109Y-89979786D01*
X142315048Y-89807820D01*
X142315047Y-89807820D01*
X142315051Y-89807816D01*
X142319514Y-89799054D01*
X142367488Y-89748259D01*
X142435308Y-89731463D01*
X142501444Y-89753999D01*
X142540486Y-89799056D01*
X142544951Y-89807820D01*
X142669890Y-89979786D01*
X142820213Y-90130109D01*
X142992179Y-90255048D01*
X142992181Y-90255049D01*
X142992184Y-90255051D01*
X143181588Y-90351557D01*
X143383757Y-90417246D01*
X143593713Y-90450500D01*
X143593714Y-90450500D01*
X143806286Y-90450500D01*
X143806287Y-90450500D01*
X144016243Y-90417246D01*
X144218412Y-90351557D01*
X144407816Y-90255051D01*
X144494138Y-90192335D01*
X144579786Y-90130109D01*
X144579788Y-90130106D01*
X144579792Y-90130104D01*
X144730104Y-89979792D01*
X144730106Y-89979788D01*
X144730109Y-89979786D01*
X144855048Y-89807820D01*
X144855047Y-89807820D01*
X144855051Y-89807816D01*
X144859514Y-89799054D01*
X144907488Y-89748259D01*
X144975308Y-89731463D01*
X145041444Y-89753999D01*
X145080486Y-89799056D01*
X145084951Y-89807820D01*
X145209890Y-89979786D01*
X145360213Y-90130109D01*
X145532179Y-90255048D01*
X145532181Y-90255049D01*
X145532184Y-90255051D01*
X145721588Y-90351557D01*
X145923757Y-90417246D01*
X146133713Y-90450500D01*
X146133714Y-90450500D01*
X146346286Y-90450500D01*
X146346287Y-90450500D01*
X146556243Y-90417246D01*
X146758412Y-90351557D01*
X146947816Y-90255051D01*
X147119792Y-90130104D01*
X147233329Y-90016566D01*
X147294648Y-89983084D01*
X147364340Y-89988068D01*
X147420274Y-90029939D01*
X147437189Y-90060917D01*
X147486202Y-90192328D01*
X147486206Y-90192335D01*
X147572452Y-90307544D01*
X147572455Y-90307547D01*
X147687664Y-90393793D01*
X147687671Y-90393797D01*
X147822517Y-90444091D01*
X147822516Y-90444091D01*
X147829444Y-90444835D01*
X147882127Y-90450500D01*
X149677872Y-90450499D01*
X149737483Y-90444091D01*
X149872331Y-90393796D01*
X149987546Y-90307546D01*
X150073796Y-90192331D01*
X150124091Y-90057483D01*
X150130500Y-89997873D01*
X150130499Y-88202128D01*
X150124091Y-88142517D01*
X150122810Y-88139083D01*
X150073797Y-88007671D01*
X150073793Y-88007664D01*
X149987547Y-87892455D01*
X149987544Y-87892452D01*
X149872335Y-87806206D01*
X149872328Y-87806202D01*
X149737482Y-87755908D01*
X149737483Y-87755908D01*
X149677883Y-87749501D01*
X149677881Y-87749500D01*
X149677873Y-87749500D01*
X149677864Y-87749500D01*
X147882129Y-87749500D01*
X147882123Y-87749501D01*
X147822516Y-87755908D01*
X147687671Y-87806202D01*
X147687664Y-87806206D01*
X147572455Y-87892452D01*
X147572452Y-87892455D01*
X147486206Y-88007664D01*
X147486203Y-88007669D01*
X147437189Y-88139083D01*
X147395317Y-88195016D01*
X147329853Y-88219433D01*
X147261580Y-88204581D01*
X147233326Y-88183430D01*
X147119786Y-88069890D01*
X146947820Y-87944951D01*
X146758414Y-87848444D01*
X146758413Y-87848443D01*
X146758412Y-87848443D01*
X146556243Y-87782754D01*
X146556241Y-87782753D01*
X146556240Y-87782753D01*
X146394957Y-87757208D01*
X146346287Y-87749500D01*
X146133713Y-87749500D01*
X146085042Y-87757208D01*
X145923760Y-87782753D01*
X145721585Y-87848444D01*
X145532179Y-87944951D01*
X145360213Y-88069890D01*
X145209890Y-88220213D01*
X145084949Y-88392182D01*
X145080484Y-88400946D01*
X145032509Y-88451742D01*
X144964688Y-88468536D01*
X144898553Y-88445998D01*
X144859516Y-88400946D01*
X144855050Y-88392182D01*
X144730109Y-88220213D01*
X144579786Y-88069890D01*
X144407820Y-87944951D01*
X144218414Y-87848444D01*
X144218413Y-87848443D01*
X144218412Y-87848443D01*
X144016243Y-87782754D01*
X144016241Y-87782753D01*
X144016240Y-87782753D01*
X143854957Y-87757208D01*
X143806287Y-87749500D01*
X143593713Y-87749500D01*
X143545042Y-87757208D01*
X143383760Y-87782753D01*
X143181585Y-87848444D01*
X142992179Y-87944951D01*
X142820213Y-88069890D01*
X142669890Y-88220213D01*
X142544949Y-88392182D01*
X142540484Y-88400946D01*
X142492509Y-88451742D01*
X142424688Y-88468536D01*
X142358553Y-88445998D01*
X142319516Y-88400946D01*
X142315050Y-88392182D01*
X142190109Y-88220213D01*
X142039786Y-88069890D01*
X141867820Y-87944951D01*
X141678414Y-87848444D01*
X141678413Y-87848443D01*
X141678412Y-87848443D01*
X141476243Y-87782754D01*
X141476241Y-87782753D01*
X141476240Y-87782753D01*
X141314957Y-87757208D01*
X141266287Y-87749500D01*
X141053713Y-87749500D01*
X141005042Y-87757208D01*
X140843760Y-87782753D01*
X140641585Y-87848444D01*
X140452179Y-87944951D01*
X140280213Y-88069890D01*
X140129890Y-88220213D01*
X140004949Y-88392182D01*
X140000484Y-88400946D01*
X139952509Y-88451742D01*
X139884688Y-88468536D01*
X139818553Y-88445998D01*
X139779516Y-88400946D01*
X139775050Y-88392182D01*
X139650109Y-88220213D01*
X139499786Y-88069890D01*
X139327820Y-87944951D01*
X139138414Y-87848444D01*
X139138413Y-87848443D01*
X139138412Y-87848443D01*
X138936243Y-87782754D01*
X138936241Y-87782753D01*
X138936240Y-87782753D01*
X138774957Y-87757208D01*
X138726287Y-87749500D01*
X138513713Y-87749500D01*
X138465042Y-87757208D01*
X138303760Y-87782753D01*
X138101585Y-87848444D01*
X137912179Y-87944951D01*
X137740213Y-88069890D01*
X137589890Y-88220213D01*
X137464949Y-88392182D01*
X137460484Y-88400946D01*
X137412509Y-88451742D01*
X137344688Y-88468536D01*
X137278553Y-88445998D01*
X137239516Y-88400946D01*
X137235050Y-88392182D01*
X137110109Y-88220213D01*
X136959786Y-88069890D01*
X136787820Y-87944951D01*
X136598414Y-87848444D01*
X136598413Y-87848443D01*
X136598412Y-87848443D01*
X136396243Y-87782754D01*
X136396241Y-87782753D01*
X136396240Y-87782753D01*
X136234957Y-87757208D01*
X136186287Y-87749500D01*
X135973713Y-87749500D01*
X135925042Y-87757208D01*
X135763760Y-87782753D01*
X135561585Y-87848444D01*
X135372179Y-87944951D01*
X135200213Y-88069890D01*
X135049890Y-88220213D01*
X134924949Y-88392182D01*
X134920484Y-88400946D01*
X134872509Y-88451742D01*
X134804688Y-88468536D01*
X134738553Y-88445998D01*
X134699516Y-88400946D01*
X134695050Y-88392182D01*
X134570109Y-88220213D01*
X134419786Y-88069890D01*
X134247820Y-87944951D01*
X134058414Y-87848444D01*
X134058413Y-87848443D01*
X134058412Y-87848443D01*
X133856243Y-87782754D01*
X133856241Y-87782753D01*
X133856240Y-87782753D01*
X133694957Y-87757208D01*
X133646287Y-87749500D01*
X133433713Y-87749500D01*
X133385042Y-87757208D01*
X133223760Y-87782753D01*
X133021585Y-87848444D01*
X132832179Y-87944951D01*
X132660213Y-88069890D01*
X132509890Y-88220213D01*
X132384949Y-88392182D01*
X132380484Y-88400946D01*
X132332509Y-88451742D01*
X132264688Y-88468536D01*
X132198553Y-88445998D01*
X132159516Y-88400946D01*
X132155050Y-88392182D01*
X132030109Y-88220213D01*
X131879786Y-88069890D01*
X131707820Y-87944951D01*
X131518414Y-87848444D01*
X131518413Y-87848443D01*
X131518412Y-87848443D01*
X131316243Y-87782754D01*
X131316241Y-87782753D01*
X131316240Y-87782753D01*
X131154957Y-87757208D01*
X131106287Y-87749500D01*
X130893713Y-87749500D01*
X130845042Y-87757208D01*
X130683760Y-87782753D01*
X130481585Y-87848444D01*
X130292179Y-87944951D01*
X130120213Y-88069890D01*
X129969890Y-88220213D01*
X129844949Y-88392182D01*
X129840484Y-88400946D01*
X129792509Y-88451742D01*
X129724688Y-88468536D01*
X129658553Y-88445998D01*
X129619516Y-88400946D01*
X129615050Y-88392182D01*
X129490109Y-88220213D01*
X129339786Y-88069890D01*
X129167820Y-87944951D01*
X128978414Y-87848444D01*
X128978413Y-87848443D01*
X128978412Y-87848443D01*
X128776243Y-87782754D01*
X128776241Y-87782753D01*
X128776240Y-87782753D01*
X128614957Y-87757208D01*
X128566287Y-87749500D01*
X128353713Y-87749500D01*
X128305042Y-87757208D01*
X128143760Y-87782753D01*
X127941585Y-87848444D01*
X127752179Y-87944951D01*
X127580213Y-88069890D01*
X127429890Y-88220213D01*
X127304949Y-88392182D01*
X127300484Y-88400946D01*
X127252509Y-88451742D01*
X127184688Y-88468536D01*
X127118553Y-88445998D01*
X127079516Y-88400946D01*
X127075050Y-88392182D01*
X126950109Y-88220213D01*
X126799786Y-88069890D01*
X126627820Y-87944951D01*
X126438414Y-87848444D01*
X126438413Y-87848443D01*
X126438412Y-87848443D01*
X126236243Y-87782754D01*
X126236241Y-87782753D01*
X126236240Y-87782753D01*
X126074957Y-87757208D01*
X126026287Y-87749500D01*
X125813713Y-87749500D01*
X125765042Y-87757208D01*
X125603760Y-87782753D01*
X125401585Y-87848444D01*
X125212179Y-87944951D01*
X125040213Y-88069890D01*
X124889890Y-88220213D01*
X124764949Y-88392182D01*
X124760484Y-88400946D01*
X124712509Y-88451742D01*
X124644688Y-88468536D01*
X124578553Y-88445998D01*
X124539516Y-88400946D01*
X124535050Y-88392182D01*
X124410109Y-88220213D01*
X124259786Y-88069890D01*
X124087820Y-87944951D01*
X123898414Y-87848444D01*
X123898413Y-87848443D01*
X123898412Y-87848443D01*
X123696243Y-87782754D01*
X123696241Y-87782753D01*
X123696240Y-87782753D01*
X123534957Y-87757208D01*
X123486287Y-87749500D01*
X123273713Y-87749500D01*
X123225042Y-87757208D01*
X123063760Y-87782753D01*
X122861585Y-87848444D01*
X122672179Y-87944951D01*
X122500213Y-88069890D01*
X122349890Y-88220213D01*
X122224949Y-88392182D01*
X122220484Y-88400946D01*
X122172509Y-88451742D01*
X122104688Y-88468536D01*
X122038553Y-88445998D01*
X121999516Y-88400946D01*
X121995050Y-88392182D01*
X121870109Y-88220213D01*
X121719786Y-88069890D01*
X121547820Y-87944951D01*
X121358414Y-87848444D01*
X121358413Y-87848443D01*
X121358412Y-87848443D01*
X121156243Y-87782754D01*
X121156241Y-87782753D01*
X121156240Y-87782753D01*
X120994957Y-87757208D01*
X120946287Y-87749500D01*
X120733713Y-87749500D01*
X120685042Y-87757208D01*
X120523760Y-87782753D01*
X120321585Y-87848444D01*
X120132179Y-87944951D01*
X119960213Y-88069890D01*
X119809890Y-88220213D01*
X119684949Y-88392182D01*
X119680484Y-88400946D01*
X119632509Y-88451742D01*
X119564688Y-88468536D01*
X119498553Y-88445998D01*
X119459516Y-88400946D01*
X119455050Y-88392182D01*
X119330109Y-88220213D01*
X119179786Y-88069890D01*
X119007820Y-87944951D01*
X118818414Y-87848444D01*
X118818413Y-87848443D01*
X118818412Y-87848443D01*
X118616243Y-87782754D01*
X118616241Y-87782753D01*
X118616240Y-87782753D01*
X118454957Y-87757208D01*
X118406287Y-87749500D01*
X118193713Y-87749500D01*
X118145042Y-87757208D01*
X117983760Y-87782753D01*
X117781585Y-87848444D01*
X117592179Y-87944951D01*
X117420213Y-88069890D01*
X117269890Y-88220213D01*
X117144949Y-88392182D01*
X117140202Y-88401499D01*
X117092227Y-88452293D01*
X117024405Y-88469087D01*
X116958271Y-88446548D01*
X116919234Y-88401495D01*
X116914626Y-88392452D01*
X116875270Y-88338282D01*
X116875269Y-88338282D01*
X116242962Y-88970590D01*
X116225925Y-88907007D01*
X116160099Y-88792993D01*
X116067007Y-88699901D01*
X115952993Y-88634075D01*
X115889409Y-88617037D01*
X116521716Y-87984728D01*
X116467550Y-87945375D01*
X116278217Y-87848904D01*
X116076129Y-87783242D01*
X115866246Y-87750000D01*
X115653754Y-87750000D01*
X115443872Y-87783242D01*
X115443869Y-87783242D01*
X115241782Y-87848904D01*
X115052439Y-87945380D01*
X114998282Y-87984727D01*
X114998282Y-87984728D01*
X115630591Y-88617037D01*
X115567007Y-88634075D01*
X115452993Y-88699901D01*
X115359901Y-88792993D01*
X115294075Y-88907007D01*
X115277037Y-88970591D01*
X114644728Y-88338282D01*
X114644727Y-88338282D01*
X114605380Y-88392440D01*
X114605376Y-88392446D01*
X114600760Y-88401505D01*
X114552781Y-88452297D01*
X114484959Y-88469087D01*
X114418826Y-88446543D01*
X114379794Y-88401493D01*
X114375051Y-88392184D01*
X114375049Y-88392181D01*
X114375048Y-88392179D01*
X114250109Y-88220213D01*
X114099786Y-88069890D01*
X113927820Y-87944951D01*
X113738414Y-87848444D01*
X113738413Y-87848443D01*
X113738412Y-87848443D01*
X113536243Y-87782754D01*
X113536241Y-87782753D01*
X113536240Y-87782753D01*
X113374957Y-87757208D01*
X113326287Y-87749500D01*
X113113713Y-87749500D01*
X113065042Y-87757208D01*
X112903760Y-87782753D01*
X112701585Y-87848444D01*
X112512179Y-87944951D01*
X112340213Y-88069890D01*
X112189890Y-88220213D01*
X112064951Y-88392179D01*
X111968444Y-88581585D01*
X111902753Y-88783760D01*
X111901291Y-88792993D01*
X111869500Y-88993713D01*
X110000500Y-88993713D01*
X110000500Y-74397682D01*
X123200000Y-74397682D01*
X123200000Y-74602317D01*
X123232009Y-74804417D01*
X123295244Y-74999031D01*
X123388141Y-75181350D01*
X123388147Y-75181359D01*
X123420523Y-75225921D01*
X123420524Y-75225922D01*
X124100000Y-74546446D01*
X124100000Y-74552661D01*
X124127259Y-74654394D01*
X124179920Y-74745606D01*
X124254394Y-74820080D01*
X124345606Y-74872741D01*
X124447339Y-74900000D01*
X124453553Y-74900000D01*
X123774076Y-75579474D01*
X123818650Y-75611859D01*
X124000968Y-75704755D01*
X124195582Y-75767990D01*
X124397683Y-75800000D01*
X124602317Y-75800000D01*
X124804417Y-75767990D01*
X124999031Y-75704755D01*
X125181349Y-75611859D01*
X125225921Y-75579474D01*
X124546447Y-74900000D01*
X124552661Y-74900000D01*
X124654394Y-74872741D01*
X124745606Y-74820080D01*
X124820080Y-74745606D01*
X124872741Y-74654394D01*
X124900000Y-74552661D01*
X124900000Y-74546448D01*
X125579474Y-75225922D01*
X125579474Y-75225921D01*
X125611859Y-75181349D01*
X125704755Y-74999031D01*
X125767990Y-74804417D01*
X125800000Y-74602317D01*
X125800000Y-74397682D01*
X125767990Y-74195582D01*
X125704755Y-74000968D01*
X125611859Y-73818650D01*
X125579474Y-73774077D01*
X125579474Y-73774076D01*
X124900000Y-74453551D01*
X124900000Y-74447339D01*
X124872741Y-74345606D01*
X124820080Y-74254394D01*
X124745606Y-74179920D01*
X124654394Y-74127259D01*
X124552661Y-74100000D01*
X124546446Y-74100000D01*
X125225921Y-73420525D01*
X125225921Y-73420523D01*
X125181359Y-73388147D01*
X125181350Y-73388141D01*
X124999031Y-73295244D01*
X124804417Y-73232009D01*
X124602317Y-73200000D01*
X124397683Y-73200000D01*
X124195582Y-73232009D01*
X124000968Y-73295244D01*
X123818644Y-73388143D01*
X123774077Y-73420523D01*
X123774077Y-73420524D01*
X124453554Y-74100000D01*
X124447339Y-74100000D01*
X124345606Y-74127259D01*
X124254394Y-74179920D01*
X124179920Y-74254394D01*
X124127259Y-74345606D01*
X124100000Y-74447339D01*
X124100000Y-74453553D01*
X123420524Y-73774077D01*
X123420523Y-73774077D01*
X123388143Y-73818644D01*
X123295244Y-74000968D01*
X123232009Y-74195582D01*
X123200000Y-74397682D01*
X110000500Y-74397682D01*
X110000500Y-57329054D01*
X114399498Y-57329054D01*
X114440423Y-57481785D01*
X114469358Y-57531900D01*
X114469359Y-57531904D01*
X114469360Y-57531904D01*
X114519479Y-57618714D01*
X114519481Y-57618717D01*
X114563083Y-57662319D01*
X114596568Y-57723642D01*
X114591584Y-57793334D01*
X114563083Y-57837681D01*
X114519481Y-57881282D01*
X114519475Y-57881290D01*
X114440426Y-58018209D01*
X114440423Y-58018216D01*
X114399500Y-58170943D01*
X114399500Y-58670943D01*
X114399500Y-58829057D01*
X114431935Y-58950104D01*
X114440423Y-58981783D01*
X114440426Y-58981790D01*
X114519475Y-59118709D01*
X114519479Y-59118714D01*
X114519480Y-59118716D01*
X114631284Y-59230520D01*
X114631286Y-59230521D01*
X114631290Y-59230524D01*
X114752466Y-59300484D01*
X114768216Y-59309577D01*
X114920943Y-59350500D01*
X116750903Y-59350500D01*
X116817942Y-59370185D01*
X116863697Y-59422989D01*
X116873641Y-59492147D01*
X116844616Y-59555703D01*
X116838585Y-59562179D01*
X115624525Y-60776239D01*
X114631286Y-61769478D01*
X114519481Y-61881282D01*
X114519479Y-61881285D01*
X114469361Y-61968094D01*
X114469359Y-61968096D01*
X114440425Y-62018209D01*
X114440424Y-62018210D01*
X114440423Y-62018215D01*
X114399499Y-62170943D01*
X114399499Y-62170945D01*
X114399499Y-62339046D01*
X114399500Y-62339059D01*
X114399500Y-63163330D01*
X114399499Y-63163348D01*
X114399499Y-63329054D01*
X114399498Y-63329054D01*
X114399499Y-63329057D01*
X114440423Y-63481785D01*
X114461570Y-63518412D01*
X114519480Y-63618716D01*
X114631284Y-63730520D01*
X114712031Y-63777139D01*
X114768215Y-63809577D01*
X114920943Y-63850501D01*
X114920946Y-63850501D01*
X115079054Y-63850501D01*
X115079057Y-63850501D01*
X115231785Y-63809577D01*
X115287969Y-63777139D01*
X115368716Y-63730520D01*
X115480520Y-63618716D01*
X115480520Y-63618714D01*
X115490724Y-63608511D01*
X115490727Y-63608506D01*
X119212416Y-59886819D01*
X119273739Y-59853334D01*
X119300097Y-59850500D01*
X120449903Y-59850500D01*
X120516942Y-59870185D01*
X120537584Y-59886819D01*
X120863181Y-60212416D01*
X120896666Y-60273739D01*
X120899500Y-60300097D01*
X120899500Y-61913330D01*
X120899499Y-61913348D01*
X120899499Y-62079054D01*
X120899498Y-62079054D01*
X120940424Y-62231789D01*
X120940425Y-62231790D01*
X120961455Y-62268214D01*
X120961456Y-62268216D01*
X121019475Y-62368709D01*
X121019479Y-62368714D01*
X121019480Y-62368716D01*
X121131284Y-62480520D01*
X121131285Y-62480521D01*
X121631284Y-62980520D01*
X121631286Y-62980521D01*
X121631290Y-62980524D01*
X121768209Y-63059573D01*
X121768216Y-63059577D01*
X121920943Y-63100501D01*
X121920945Y-63100501D01*
X122086654Y-63100501D01*
X122086670Y-63100500D01*
X123913331Y-63100500D01*
X123913347Y-63100501D01*
X123920943Y-63100501D01*
X124079054Y-63100501D01*
X124079057Y-63100501D01*
X124231785Y-63059577D01*
X124281904Y-63030639D01*
X124368716Y-62980520D01*
X124480520Y-62868716D01*
X124480520Y-62868714D01*
X124490728Y-62858507D01*
X124490729Y-62858504D01*
X125480520Y-61868716D01*
X125559577Y-61731784D01*
X125600501Y-61579057D01*
X125600501Y-61420942D01*
X125600501Y-61413347D01*
X125600500Y-61413329D01*
X125600500Y-58920945D01*
X125600500Y-58920943D01*
X125559577Y-58768216D01*
X125559577Y-58768215D01*
X125518541Y-58697139D01*
X125480520Y-58631284D01*
X125368716Y-58519480D01*
X125364385Y-58515149D01*
X125364374Y-58515139D01*
X124737590Y-57888355D01*
X124737588Y-57888352D01*
X124618717Y-57769481D01*
X124618716Y-57769480D01*
X124531904Y-57719360D01*
X124531904Y-57719359D01*
X124531900Y-57719358D01*
X124481785Y-57690423D01*
X124329057Y-57649499D01*
X124170943Y-57649499D01*
X124163347Y-57649499D01*
X124163331Y-57649500D01*
X115749096Y-57649500D01*
X115682057Y-57629815D01*
X115636302Y-57577011D01*
X115626358Y-57507853D01*
X115655383Y-57444297D01*
X115661415Y-57437819D01*
X117367445Y-55731790D01*
X119212416Y-53886819D01*
X119273739Y-53853334D01*
X119300097Y-53850500D01*
X120449903Y-53850500D01*
X120516942Y-53870185D01*
X120537584Y-53886819D01*
X120863181Y-54212416D01*
X120896666Y-54273739D01*
X120899500Y-54300097D01*
X120899500Y-55913330D01*
X120899499Y-55913348D01*
X120899499Y-56079054D01*
X120899498Y-56079054D01*
X120940424Y-56231787D01*
X120956592Y-56259790D01*
X120956593Y-56259792D01*
X121019477Y-56368712D01*
X121019479Y-56368715D01*
X121019480Y-56368716D01*
X121131284Y-56480520D01*
X121131285Y-56480521D01*
X121631284Y-56980520D01*
X121631286Y-56980521D01*
X121631290Y-56980524D01*
X121734676Y-57040213D01*
X121768216Y-57059577D01*
X121920943Y-57100501D01*
X121920945Y-57100501D01*
X122086654Y-57100501D01*
X122086670Y-57100500D01*
X123913331Y-57100500D01*
X123913347Y-57100501D01*
X123920943Y-57100501D01*
X124079054Y-57100501D01*
X124079057Y-57100501D01*
X124231785Y-57059577D01*
X124281904Y-57030639D01*
X124368716Y-56980520D01*
X124480520Y-56868716D01*
X124480520Y-56868714D01*
X124490728Y-56858507D01*
X124490729Y-56858504D01*
X125480520Y-55868716D01*
X125559577Y-55731784D01*
X125600501Y-55579057D01*
X125600501Y-55420942D01*
X125600501Y-55413347D01*
X125600500Y-55413329D01*
X125600500Y-52920945D01*
X125600500Y-52920943D01*
X125559577Y-52768216D01*
X125559577Y-52768215D01*
X125559577Y-52768214D01*
X125530639Y-52718095D01*
X125530637Y-52718092D01*
X125480520Y-52631284D01*
X125368716Y-52519480D01*
X125368715Y-52519479D01*
X125364385Y-52515149D01*
X125364374Y-52515139D01*
X124737590Y-51888355D01*
X124737588Y-51888352D01*
X124618717Y-51769481D01*
X124618716Y-51769480D01*
X124531904Y-51719360D01*
X124531904Y-51719359D01*
X124531900Y-51719358D01*
X124481785Y-51690423D01*
X124329057Y-51649499D01*
X124170943Y-51649499D01*
X124163347Y-51649499D01*
X124163331Y-51649500D01*
X114920943Y-51649500D01*
X114768216Y-51690423D01*
X114768209Y-51690426D01*
X114631290Y-51769475D01*
X114631282Y-51769481D01*
X114519481Y-51881282D01*
X114519475Y-51881290D01*
X114440426Y-52018209D01*
X114440423Y-52018216D01*
X114399500Y-52170943D01*
X114399500Y-52829057D01*
X114424122Y-52920945D01*
X114440423Y-52981783D01*
X114440426Y-52981790D01*
X114519475Y-53118709D01*
X114519479Y-53118714D01*
X114519480Y-53118716D01*
X114631284Y-53230520D01*
X114631286Y-53230521D01*
X114631290Y-53230524D01*
X114768209Y-53309573D01*
X114768216Y-53309577D01*
X114920943Y-53350500D01*
X115079057Y-53350500D01*
X116750903Y-53350500D01*
X116817942Y-53370185D01*
X116863697Y-53422989D01*
X116873641Y-53492147D01*
X116844616Y-53555703D01*
X116838584Y-53562181D01*
X114631286Y-55769478D01*
X114519481Y-55881282D01*
X114519479Y-55881285D01*
X114469361Y-55968094D01*
X114469359Y-55968096D01*
X114440425Y-56018209D01*
X114440424Y-56018210D01*
X114440423Y-56018215D01*
X114399499Y-56170943D01*
X114399499Y-56170945D01*
X114399499Y-56339046D01*
X114399500Y-56339059D01*
X114399500Y-57163330D01*
X114399499Y-57163348D01*
X114399499Y-57329054D01*
X114399498Y-57329054D01*
X110000500Y-57329054D01*
X110000500Y-45378711D01*
X113149500Y-45378711D01*
X113149500Y-45621288D01*
X113181161Y-45861785D01*
X113243947Y-46096104D01*
X113336773Y-46320205D01*
X113336776Y-46320212D01*
X113458064Y-46530289D01*
X113458066Y-46530292D01*
X113458067Y-46530293D01*
X113605733Y-46722736D01*
X113605739Y-46722743D01*
X113777256Y-46894260D01*
X113777262Y-46894265D01*
X113969711Y-47041936D01*
X114179788Y-47163224D01*
X114403900Y-47256054D01*
X114638211Y-47318838D01*
X114818586Y-47342584D01*
X114878711Y-47350500D01*
X114878712Y-47350500D01*
X115121289Y-47350500D01*
X115169388Y-47344167D01*
X115361789Y-47318838D01*
X115596100Y-47256054D01*
X115820212Y-47163224D01*
X116030289Y-47041936D01*
X116222738Y-46894265D01*
X116394265Y-46722738D01*
X116541936Y-46530289D01*
X116663224Y-46320212D01*
X116756054Y-46096100D01*
X116818838Y-45861789D01*
X116850500Y-45621288D01*
X116850500Y-45378712D01*
X116850500Y-45378711D01*
X172149500Y-45378711D01*
X172149500Y-45621288D01*
X172181161Y-45861785D01*
X172243947Y-46096104D01*
X172336773Y-46320205D01*
X172336776Y-46320212D01*
X172458064Y-46530289D01*
X172458066Y-46530292D01*
X172458067Y-46530293D01*
X172605733Y-46722736D01*
X172605739Y-46722743D01*
X172777256Y-46894260D01*
X172777262Y-46894265D01*
X172969711Y-47041936D01*
X173179788Y-47163224D01*
X173403900Y-47256054D01*
X173638211Y-47318838D01*
X173818586Y-47342584D01*
X173878711Y-47350500D01*
X173878712Y-47350500D01*
X174121289Y-47350500D01*
X174169388Y-47344167D01*
X174361789Y-47318838D01*
X174596100Y-47256054D01*
X174820212Y-47163224D01*
X175030289Y-47041936D01*
X175222738Y-46894265D01*
X175394265Y-46722738D01*
X175541936Y-46530289D01*
X175663224Y-46320212D01*
X175756054Y-46096100D01*
X175818838Y-45861789D01*
X175850500Y-45621288D01*
X175850500Y-45378712D01*
X175818838Y-45138211D01*
X175756054Y-44903900D01*
X175663224Y-44679788D01*
X175541936Y-44469711D01*
X175394265Y-44277262D01*
X175394260Y-44277256D01*
X175222743Y-44105739D01*
X175222736Y-44105733D01*
X175030293Y-43958067D01*
X175030292Y-43958066D01*
X175030289Y-43958064D01*
X174820212Y-43836776D01*
X174820205Y-43836773D01*
X174596104Y-43743947D01*
X174361785Y-43681161D01*
X174121289Y-43649500D01*
X174121288Y-43649500D01*
X173878712Y-43649500D01*
X173878711Y-43649500D01*
X173638214Y-43681161D01*
X173403895Y-43743947D01*
X173179794Y-43836773D01*
X173179785Y-43836777D01*
X172969706Y-43958067D01*
X172777263Y-44105733D01*
X172777256Y-44105739D01*
X172605739Y-44277256D01*
X172605733Y-44277263D01*
X172458067Y-44469706D01*
X172336777Y-44679785D01*
X172336773Y-44679794D01*
X172243947Y-44903895D01*
X172181161Y-45138214D01*
X172149500Y-45378711D01*
X116850500Y-45378711D01*
X116818838Y-45138211D01*
X116756054Y-44903900D01*
X116663224Y-44679788D01*
X116541936Y-44469711D01*
X116394265Y-44277262D01*
X116394260Y-44277256D01*
X116222743Y-44105739D01*
X116222736Y-44105733D01*
X116030293Y-43958067D01*
X116030292Y-43958066D01*
X116030289Y-43958064D01*
X115820212Y-43836776D01*
X115820205Y-43836773D01*
X115596104Y-43743947D01*
X115361785Y-43681161D01*
X115121289Y-43649500D01*
X115121288Y-43649500D01*
X114878712Y-43649500D01*
X114878711Y-43649500D01*
X114638214Y-43681161D01*
X114403895Y-43743947D01*
X114179794Y-43836773D01*
X114179785Y-43836777D01*
X113969706Y-43958067D01*
X113777263Y-44105733D01*
X113777256Y-44105739D01*
X113605739Y-44277256D01*
X113605733Y-44277263D01*
X113458067Y-44469706D01*
X113336777Y-44679785D01*
X113336773Y-44679794D01*
X113243947Y-44903895D01*
X113181161Y-45138214D01*
X113149500Y-45378711D01*
X110000500Y-45378711D01*
X110000500Y-40624500D01*
X110020185Y-40557461D01*
X110072989Y-40511706D01*
X110124500Y-40500500D01*
X178875500Y-40500500D01*
X178942539Y-40520185D01*
G37*
%TD.AperFunction*%
%TD*%
M02*
