%TF.GenerationSoftware,KiCad,Pcbnew,10.0.6*%
%TF.CreationDate,2026-10-09T16:06:30+02:00*%
%TF.ProjectId,the_gameboy,7468655f-6761-46d6-9562-6f792e6b6963,rev?*%
%TF.SameCoordinates,Original*%
%TF.FileFunction,Legend,Top*%
%TF.FilePolarity,Positive*%
%FSLAX46Y46*%
G04 Gerber Fmt 4.6, Leading zero omitted, Abs format (unit mm)*
G04 Created by KiCad (PCBNEW 10.0.6) date 2026-10-09 16:06:30*
%MOMM*%
%LPD*%
G01*
G04 APERTURE LIST*
%ADD10C,0.150000*%
%ADD11C,0.120000*%
G04 APERTURE END LIST*
D10*
X157916667Y-145907200D02*
X158059524Y-145954819D01*
X158059524Y-145954819D02*
X158297619Y-145954819D01*
X158297619Y-145954819D02*
X158392857Y-145907200D01*
X158392857Y-145907200D02*
X158440476Y-145859580D01*
X158440476Y-145859580D02*
X158488095Y-145764342D01*
X158488095Y-145764342D02*
X158488095Y-145669104D01*
X158488095Y-145669104D02*
X158440476Y-145573866D01*
X158440476Y-145573866D02*
X158392857Y-145526247D01*
X158392857Y-145526247D02*
X158297619Y-145478628D01*
X158297619Y-145478628D02*
X158107143Y-145431009D01*
X158107143Y-145431009D02*
X158011905Y-145383390D01*
X158011905Y-145383390D02*
X157964286Y-145335771D01*
X157964286Y-145335771D02*
X157916667Y-145240533D01*
X157916667Y-145240533D02*
X157916667Y-145145295D01*
X157916667Y-145145295D02*
X157964286Y-145050057D01*
X157964286Y-145050057D02*
X158011905Y-145002438D01*
X158011905Y-145002438D02*
X158107143Y-144954819D01*
X158107143Y-144954819D02*
X158345238Y-144954819D01*
X158345238Y-144954819D02*
X158488095Y-145002438D01*
X158821429Y-144954819D02*
X159059524Y-145954819D01*
X159059524Y-145954819D02*
X159250000Y-145240533D01*
X159250000Y-145240533D02*
X159440476Y-145954819D01*
X159440476Y-145954819D02*
X159678572Y-144954819D01*
X160202381Y-145383390D02*
X160107143Y-145335771D01*
X160107143Y-145335771D02*
X160059524Y-145288152D01*
X160059524Y-145288152D02*
X160011905Y-145192914D01*
X160011905Y-145192914D02*
X160011905Y-145145295D01*
X160011905Y-145145295D02*
X160059524Y-145050057D01*
X160059524Y-145050057D02*
X160107143Y-145002438D01*
X160107143Y-145002438D02*
X160202381Y-144954819D01*
X160202381Y-144954819D02*
X160392857Y-144954819D01*
X160392857Y-144954819D02*
X160488095Y-145002438D01*
X160488095Y-145002438D02*
X160535714Y-145050057D01*
X160535714Y-145050057D02*
X160583333Y-145145295D01*
X160583333Y-145145295D02*
X160583333Y-145192914D01*
X160583333Y-145192914D02*
X160535714Y-145288152D01*
X160535714Y-145288152D02*
X160488095Y-145335771D01*
X160488095Y-145335771D02*
X160392857Y-145383390D01*
X160392857Y-145383390D02*
X160202381Y-145383390D01*
X160202381Y-145383390D02*
X160107143Y-145431009D01*
X160107143Y-145431009D02*
X160059524Y-145478628D01*
X160059524Y-145478628D02*
X160011905Y-145573866D01*
X160011905Y-145573866D02*
X160011905Y-145764342D01*
X160011905Y-145764342D02*
X160059524Y-145859580D01*
X160059524Y-145859580D02*
X160107143Y-145907200D01*
X160107143Y-145907200D02*
X160202381Y-145954819D01*
X160202381Y-145954819D02*
X160392857Y-145954819D01*
X160392857Y-145954819D02*
X160488095Y-145907200D01*
X160488095Y-145907200D02*
X160535714Y-145859580D01*
X160535714Y-145859580D02*
X160583333Y-145764342D01*
X160583333Y-145764342D02*
X160583333Y-145573866D01*
X160583333Y-145573866D02*
X160535714Y-145478628D01*
X160535714Y-145478628D02*
X160488095Y-145431009D01*
X160488095Y-145431009D02*
X160392857Y-145383390D01*
X114377200Y-99833332D02*
X114424819Y-99690475D01*
X114424819Y-99690475D02*
X114424819Y-99452380D01*
X114424819Y-99452380D02*
X114377200Y-99357142D01*
X114377200Y-99357142D02*
X114329580Y-99309523D01*
X114329580Y-99309523D02*
X114234342Y-99261904D01*
X114234342Y-99261904D02*
X114139104Y-99261904D01*
X114139104Y-99261904D02*
X114043866Y-99309523D01*
X114043866Y-99309523D02*
X113996247Y-99357142D01*
X113996247Y-99357142D02*
X113948628Y-99452380D01*
X113948628Y-99452380D02*
X113901009Y-99642856D01*
X113901009Y-99642856D02*
X113853390Y-99738094D01*
X113853390Y-99738094D02*
X113805771Y-99785713D01*
X113805771Y-99785713D02*
X113710533Y-99833332D01*
X113710533Y-99833332D02*
X113615295Y-99833332D01*
X113615295Y-99833332D02*
X113520057Y-99785713D01*
X113520057Y-99785713D02*
X113472438Y-99738094D01*
X113472438Y-99738094D02*
X113424819Y-99642856D01*
X113424819Y-99642856D02*
X113424819Y-99404761D01*
X113424819Y-99404761D02*
X113472438Y-99261904D01*
X113424819Y-98928570D02*
X114424819Y-98690475D01*
X114424819Y-98690475D02*
X113710533Y-98499999D01*
X113710533Y-98499999D02*
X114424819Y-98309523D01*
X114424819Y-98309523D02*
X113424819Y-98071428D01*
X114424819Y-97166666D02*
X114424819Y-97738094D01*
X114424819Y-97452380D02*
X113424819Y-97452380D01*
X113424819Y-97452380D02*
X113567676Y-97547618D01*
X113567676Y-97547618D02*
X113662914Y-97642856D01*
X113662914Y-97642856D02*
X113710533Y-97738094D01*
X135666667Y-136157200D02*
X135809524Y-136204819D01*
X135809524Y-136204819D02*
X136047619Y-136204819D01*
X136047619Y-136204819D02*
X136142857Y-136157200D01*
X136142857Y-136157200D02*
X136190476Y-136109580D01*
X136190476Y-136109580D02*
X136238095Y-136014342D01*
X136238095Y-136014342D02*
X136238095Y-135919104D01*
X136238095Y-135919104D02*
X136190476Y-135823866D01*
X136190476Y-135823866D02*
X136142857Y-135776247D01*
X136142857Y-135776247D02*
X136047619Y-135728628D01*
X136047619Y-135728628D02*
X135857143Y-135681009D01*
X135857143Y-135681009D02*
X135761905Y-135633390D01*
X135761905Y-135633390D02*
X135714286Y-135585771D01*
X135714286Y-135585771D02*
X135666667Y-135490533D01*
X135666667Y-135490533D02*
X135666667Y-135395295D01*
X135666667Y-135395295D02*
X135714286Y-135300057D01*
X135714286Y-135300057D02*
X135761905Y-135252438D01*
X135761905Y-135252438D02*
X135857143Y-135204819D01*
X135857143Y-135204819D02*
X136095238Y-135204819D01*
X136095238Y-135204819D02*
X136238095Y-135252438D01*
X136571429Y-135204819D02*
X136809524Y-136204819D01*
X136809524Y-136204819D02*
X137000000Y-135490533D01*
X137000000Y-135490533D02*
X137190476Y-136204819D01*
X137190476Y-136204819D02*
X137428572Y-135204819D01*
X138238095Y-135538152D02*
X138238095Y-136204819D01*
X138000000Y-135157200D02*
X137761905Y-135871485D01*
X137761905Y-135871485D02*
X138380952Y-135871485D01*
X113666666Y-41804819D02*
X113333333Y-41328628D01*
X113095238Y-41804819D02*
X113095238Y-40804819D01*
X113095238Y-40804819D02*
X113476190Y-40804819D01*
X113476190Y-40804819D02*
X113571428Y-40852438D01*
X113571428Y-40852438D02*
X113619047Y-40900057D01*
X113619047Y-40900057D02*
X113666666Y-40995295D01*
X113666666Y-40995295D02*
X113666666Y-41138152D01*
X113666666Y-41138152D02*
X113619047Y-41233390D01*
X113619047Y-41233390D02*
X113571428Y-41281009D01*
X113571428Y-41281009D02*
X113476190Y-41328628D01*
X113476190Y-41328628D02*
X113095238Y-41328628D01*
X114095238Y-41281009D02*
X114428571Y-41281009D01*
X114571428Y-41804819D02*
X114095238Y-41804819D01*
X114095238Y-41804819D02*
X114095238Y-40804819D01*
X114095238Y-40804819D02*
X114571428Y-40804819D01*
X115333333Y-41281009D02*
X115000000Y-41281009D01*
X115000000Y-41804819D02*
X115000000Y-40804819D01*
X115000000Y-40804819D02*
X115476190Y-40804819D01*
X116000000Y-40804819D02*
X116000000Y-41042914D01*
X115761905Y-40947676D02*
X116000000Y-41042914D01*
X116000000Y-41042914D02*
X116238095Y-40947676D01*
X115857143Y-41233390D02*
X116000000Y-41042914D01*
X116000000Y-41042914D02*
X116142857Y-41233390D01*
X116761905Y-40804819D02*
X116761905Y-41042914D01*
X116523810Y-40947676D02*
X116761905Y-41042914D01*
X116761905Y-41042914D02*
X117000000Y-40947676D01*
X116619048Y-41233390D02*
X116761905Y-41042914D01*
X116761905Y-41042914D02*
X116904762Y-41233390D01*
X173807200Y-86333332D02*
X173854819Y-86190475D01*
X173854819Y-86190475D02*
X173854819Y-85952380D01*
X173854819Y-85952380D02*
X173807200Y-85857142D01*
X173807200Y-85857142D02*
X173759580Y-85809523D01*
X173759580Y-85809523D02*
X173664342Y-85761904D01*
X173664342Y-85761904D02*
X173569104Y-85761904D01*
X173569104Y-85761904D02*
X173473866Y-85809523D01*
X173473866Y-85809523D02*
X173426247Y-85857142D01*
X173426247Y-85857142D02*
X173378628Y-85952380D01*
X173378628Y-85952380D02*
X173331009Y-86142856D01*
X173331009Y-86142856D02*
X173283390Y-86238094D01*
X173283390Y-86238094D02*
X173235771Y-86285713D01*
X173235771Y-86285713D02*
X173140533Y-86333332D01*
X173140533Y-86333332D02*
X173045295Y-86333332D01*
X173045295Y-86333332D02*
X172950057Y-86285713D01*
X172950057Y-86285713D02*
X172902438Y-86238094D01*
X172902438Y-86238094D02*
X172854819Y-86142856D01*
X172854819Y-86142856D02*
X172854819Y-85904761D01*
X172854819Y-85904761D02*
X172902438Y-85761904D01*
X172854819Y-85428570D02*
X173854819Y-85190475D01*
X173854819Y-85190475D02*
X173140533Y-84999999D01*
X173140533Y-84999999D02*
X173854819Y-84809523D01*
X173854819Y-84809523D02*
X172854819Y-84571428D01*
X173854819Y-84142856D02*
X173854819Y-83952380D01*
X173854819Y-83952380D02*
X173807200Y-83857142D01*
X173807200Y-83857142D02*
X173759580Y-83809523D01*
X173759580Y-83809523D02*
X173616723Y-83714285D01*
X173616723Y-83714285D02*
X173426247Y-83666666D01*
X173426247Y-83666666D02*
X173045295Y-83666666D01*
X173045295Y-83666666D02*
X172950057Y-83714285D01*
X172950057Y-83714285D02*
X172902438Y-83761904D01*
X172902438Y-83761904D02*
X172854819Y-83857142D01*
X172854819Y-83857142D02*
X172854819Y-84047618D01*
X172854819Y-84047618D02*
X172902438Y-84142856D01*
X172902438Y-84142856D02*
X172950057Y-84190475D01*
X172950057Y-84190475D02*
X173045295Y-84238094D01*
X173045295Y-84238094D02*
X173283390Y-84238094D01*
X173283390Y-84238094D02*
X173378628Y-84190475D01*
X173378628Y-84190475D02*
X173426247Y-84142856D01*
X173426247Y-84142856D02*
X173473866Y-84047618D01*
X173473866Y-84047618D02*
X173473866Y-83857142D01*
X173473866Y-83857142D02*
X173426247Y-83761904D01*
X173426247Y-83761904D02*
X173378628Y-83714285D01*
X173378628Y-83714285D02*
X173283390Y-83666666D01*
X116666667Y-136157200D02*
X116809524Y-136204819D01*
X116809524Y-136204819D02*
X117047619Y-136204819D01*
X117047619Y-136204819D02*
X117142857Y-136157200D01*
X117142857Y-136157200D02*
X117190476Y-136109580D01*
X117190476Y-136109580D02*
X117238095Y-136014342D01*
X117238095Y-136014342D02*
X117238095Y-135919104D01*
X117238095Y-135919104D02*
X117190476Y-135823866D01*
X117190476Y-135823866D02*
X117142857Y-135776247D01*
X117142857Y-135776247D02*
X117047619Y-135728628D01*
X117047619Y-135728628D02*
X116857143Y-135681009D01*
X116857143Y-135681009D02*
X116761905Y-135633390D01*
X116761905Y-135633390D02*
X116714286Y-135585771D01*
X116714286Y-135585771D02*
X116666667Y-135490533D01*
X116666667Y-135490533D02*
X116666667Y-135395295D01*
X116666667Y-135395295D02*
X116714286Y-135300057D01*
X116714286Y-135300057D02*
X116761905Y-135252438D01*
X116761905Y-135252438D02*
X116857143Y-135204819D01*
X116857143Y-135204819D02*
X117095238Y-135204819D01*
X117095238Y-135204819D02*
X117238095Y-135252438D01*
X117571429Y-135204819D02*
X117809524Y-136204819D01*
X117809524Y-136204819D02*
X118000000Y-135490533D01*
X118000000Y-135490533D02*
X118190476Y-136204819D01*
X118190476Y-136204819D02*
X118428572Y-135204819D01*
X118714286Y-135204819D02*
X119333333Y-135204819D01*
X119333333Y-135204819D02*
X119000000Y-135585771D01*
X119000000Y-135585771D02*
X119142857Y-135585771D01*
X119142857Y-135585771D02*
X119238095Y-135633390D01*
X119238095Y-135633390D02*
X119285714Y-135681009D01*
X119285714Y-135681009D02*
X119333333Y-135776247D01*
X119333333Y-135776247D02*
X119333333Y-136014342D01*
X119333333Y-136014342D02*
X119285714Y-136109580D01*
X119285714Y-136109580D02*
X119238095Y-136157200D01*
X119238095Y-136157200D02*
X119142857Y-136204819D01*
X119142857Y-136204819D02*
X118857143Y-136204819D01*
X118857143Y-136204819D02*
X118761905Y-136157200D01*
X118761905Y-136157200D02*
X118714286Y-136109580D01*
X151004819Y-114833333D02*
X151719104Y-114833333D01*
X151719104Y-114833333D02*
X151861961Y-114880952D01*
X151861961Y-114880952D02*
X151957200Y-114976190D01*
X151957200Y-114976190D02*
X152004819Y-115119047D01*
X152004819Y-115119047D02*
X152004819Y-115214285D01*
X151004819Y-114452380D02*
X151004819Y-113833333D01*
X151004819Y-113833333D02*
X151385771Y-114166666D01*
X151385771Y-114166666D02*
X151385771Y-114023809D01*
X151385771Y-114023809D02*
X151433390Y-113928571D01*
X151433390Y-113928571D02*
X151481009Y-113880952D01*
X151481009Y-113880952D02*
X151576247Y-113833333D01*
X151576247Y-113833333D02*
X151814342Y-113833333D01*
X151814342Y-113833333D02*
X151909580Y-113880952D01*
X151909580Y-113880952D02*
X151957200Y-113928571D01*
X151957200Y-113928571D02*
X152004819Y-114023809D01*
X152004819Y-114023809D02*
X152004819Y-114309523D01*
X152004819Y-114309523D02*
X151957200Y-114404761D01*
X151957200Y-114404761D02*
X151909580Y-114452380D01*
X172666666Y-150804819D02*
X172333333Y-150328628D01*
X172095238Y-150804819D02*
X172095238Y-149804819D01*
X172095238Y-149804819D02*
X172476190Y-149804819D01*
X172476190Y-149804819D02*
X172571428Y-149852438D01*
X172571428Y-149852438D02*
X172619047Y-149900057D01*
X172619047Y-149900057D02*
X172666666Y-149995295D01*
X172666666Y-149995295D02*
X172666666Y-150138152D01*
X172666666Y-150138152D02*
X172619047Y-150233390D01*
X172619047Y-150233390D02*
X172571428Y-150281009D01*
X172571428Y-150281009D02*
X172476190Y-150328628D01*
X172476190Y-150328628D02*
X172095238Y-150328628D01*
X173095238Y-150281009D02*
X173428571Y-150281009D01*
X173571428Y-150804819D02*
X173095238Y-150804819D01*
X173095238Y-150804819D02*
X173095238Y-149804819D01*
X173095238Y-149804819D02*
X173571428Y-149804819D01*
X174333333Y-150281009D02*
X174000000Y-150281009D01*
X174000000Y-150804819D02*
X174000000Y-149804819D01*
X174000000Y-149804819D02*
X174476190Y-149804819D01*
X175000000Y-149804819D02*
X175000000Y-150042914D01*
X174761905Y-149947676D02*
X175000000Y-150042914D01*
X175000000Y-150042914D02*
X175238095Y-149947676D01*
X174857143Y-150233390D02*
X175000000Y-150042914D01*
X175000000Y-150042914D02*
X175142857Y-150233390D01*
X175761905Y-149804819D02*
X175761905Y-150042914D01*
X175523810Y-149947676D02*
X175761905Y-150042914D01*
X175761905Y-150042914D02*
X176000000Y-149947676D01*
X175619048Y-150233390D02*
X175761905Y-150042914D01*
X175761905Y-150042914D02*
X175904762Y-150233390D01*
X159416667Y-126407200D02*
X159559524Y-126454819D01*
X159559524Y-126454819D02*
X159797619Y-126454819D01*
X159797619Y-126454819D02*
X159892857Y-126407200D01*
X159892857Y-126407200D02*
X159940476Y-126359580D01*
X159940476Y-126359580D02*
X159988095Y-126264342D01*
X159988095Y-126264342D02*
X159988095Y-126169104D01*
X159988095Y-126169104D02*
X159940476Y-126073866D01*
X159940476Y-126073866D02*
X159892857Y-126026247D01*
X159892857Y-126026247D02*
X159797619Y-125978628D01*
X159797619Y-125978628D02*
X159607143Y-125931009D01*
X159607143Y-125931009D02*
X159511905Y-125883390D01*
X159511905Y-125883390D02*
X159464286Y-125835771D01*
X159464286Y-125835771D02*
X159416667Y-125740533D01*
X159416667Y-125740533D02*
X159416667Y-125645295D01*
X159416667Y-125645295D02*
X159464286Y-125550057D01*
X159464286Y-125550057D02*
X159511905Y-125502438D01*
X159511905Y-125502438D02*
X159607143Y-125454819D01*
X159607143Y-125454819D02*
X159845238Y-125454819D01*
X159845238Y-125454819D02*
X159988095Y-125502438D01*
X160321429Y-125454819D02*
X160559524Y-126454819D01*
X160559524Y-126454819D02*
X160750000Y-125740533D01*
X160750000Y-125740533D02*
X160940476Y-126454819D01*
X160940476Y-126454819D02*
X161178572Y-125454819D01*
X161988095Y-125454819D02*
X161797619Y-125454819D01*
X161797619Y-125454819D02*
X161702381Y-125502438D01*
X161702381Y-125502438D02*
X161654762Y-125550057D01*
X161654762Y-125550057D02*
X161559524Y-125692914D01*
X161559524Y-125692914D02*
X161511905Y-125883390D01*
X161511905Y-125883390D02*
X161511905Y-126264342D01*
X161511905Y-126264342D02*
X161559524Y-126359580D01*
X161559524Y-126359580D02*
X161607143Y-126407200D01*
X161607143Y-126407200D02*
X161702381Y-126454819D01*
X161702381Y-126454819D02*
X161892857Y-126454819D01*
X161892857Y-126454819D02*
X161988095Y-126407200D01*
X161988095Y-126407200D02*
X162035714Y-126359580D01*
X162035714Y-126359580D02*
X162083333Y-126264342D01*
X162083333Y-126264342D02*
X162083333Y-126026247D01*
X162083333Y-126026247D02*
X162035714Y-125931009D01*
X162035714Y-125931009D02*
X161988095Y-125883390D01*
X161988095Y-125883390D02*
X161892857Y-125835771D01*
X161892857Y-125835771D02*
X161702381Y-125835771D01*
X161702381Y-125835771D02*
X161607143Y-125883390D01*
X161607143Y-125883390D02*
X161559524Y-125931009D01*
X161559524Y-125931009D02*
X161511905Y-126026247D01*
X168916667Y-118907200D02*
X169059524Y-118954819D01*
X169059524Y-118954819D02*
X169297619Y-118954819D01*
X169297619Y-118954819D02*
X169392857Y-118907200D01*
X169392857Y-118907200D02*
X169440476Y-118859580D01*
X169440476Y-118859580D02*
X169488095Y-118764342D01*
X169488095Y-118764342D02*
X169488095Y-118669104D01*
X169488095Y-118669104D02*
X169440476Y-118573866D01*
X169440476Y-118573866D02*
X169392857Y-118526247D01*
X169392857Y-118526247D02*
X169297619Y-118478628D01*
X169297619Y-118478628D02*
X169107143Y-118431009D01*
X169107143Y-118431009D02*
X169011905Y-118383390D01*
X169011905Y-118383390D02*
X168964286Y-118335771D01*
X168964286Y-118335771D02*
X168916667Y-118240533D01*
X168916667Y-118240533D02*
X168916667Y-118145295D01*
X168916667Y-118145295D02*
X168964286Y-118050057D01*
X168964286Y-118050057D02*
X169011905Y-118002438D01*
X169011905Y-118002438D02*
X169107143Y-117954819D01*
X169107143Y-117954819D02*
X169345238Y-117954819D01*
X169345238Y-117954819D02*
X169488095Y-118002438D01*
X169821429Y-117954819D02*
X170059524Y-118954819D01*
X170059524Y-118954819D02*
X170250000Y-118240533D01*
X170250000Y-118240533D02*
X170440476Y-118954819D01*
X170440476Y-118954819D02*
X170678572Y-117954819D01*
X171535714Y-117954819D02*
X171059524Y-117954819D01*
X171059524Y-117954819D02*
X171011905Y-118431009D01*
X171011905Y-118431009D02*
X171059524Y-118383390D01*
X171059524Y-118383390D02*
X171154762Y-118335771D01*
X171154762Y-118335771D02*
X171392857Y-118335771D01*
X171392857Y-118335771D02*
X171488095Y-118383390D01*
X171488095Y-118383390D02*
X171535714Y-118431009D01*
X171535714Y-118431009D02*
X171583333Y-118526247D01*
X171583333Y-118526247D02*
X171583333Y-118764342D01*
X171583333Y-118764342D02*
X171535714Y-118859580D01*
X171535714Y-118859580D02*
X171488095Y-118907200D01*
X171488095Y-118907200D02*
X171392857Y-118954819D01*
X171392857Y-118954819D02*
X171154762Y-118954819D01*
X171154762Y-118954819D02*
X171059524Y-118907200D01*
X171059524Y-118907200D02*
X171011905Y-118859580D01*
X130166666Y-75384819D02*
X130166666Y-76099104D01*
X130166666Y-76099104D02*
X130119047Y-76241961D01*
X130119047Y-76241961D02*
X130023809Y-76337200D01*
X130023809Y-76337200D02*
X129880952Y-76384819D01*
X129880952Y-76384819D02*
X129785714Y-76384819D01*
X131166666Y-76384819D02*
X130595238Y-76384819D01*
X130880952Y-76384819D02*
X130880952Y-75384819D01*
X130880952Y-75384819D02*
X130785714Y-75527676D01*
X130785714Y-75527676D02*
X130690476Y-75622914D01*
X130690476Y-75622914D02*
X130595238Y-75670533D01*
X113666666Y-150804819D02*
X113333333Y-150328628D01*
X113095238Y-150804819D02*
X113095238Y-149804819D01*
X113095238Y-149804819D02*
X113476190Y-149804819D01*
X113476190Y-149804819D02*
X113571428Y-149852438D01*
X113571428Y-149852438D02*
X113619047Y-149900057D01*
X113619047Y-149900057D02*
X113666666Y-149995295D01*
X113666666Y-149995295D02*
X113666666Y-150138152D01*
X113666666Y-150138152D02*
X113619047Y-150233390D01*
X113619047Y-150233390D02*
X113571428Y-150281009D01*
X113571428Y-150281009D02*
X113476190Y-150328628D01*
X113476190Y-150328628D02*
X113095238Y-150328628D01*
X114095238Y-150281009D02*
X114428571Y-150281009D01*
X114571428Y-150804819D02*
X114095238Y-150804819D01*
X114095238Y-150804819D02*
X114095238Y-149804819D01*
X114095238Y-149804819D02*
X114571428Y-149804819D01*
X115333333Y-150281009D02*
X115000000Y-150281009D01*
X115000000Y-150804819D02*
X115000000Y-149804819D01*
X115000000Y-149804819D02*
X115476190Y-149804819D01*
X116000000Y-149804819D02*
X116000000Y-150042914D01*
X115761905Y-149947676D02*
X116000000Y-150042914D01*
X116000000Y-150042914D02*
X116238095Y-149947676D01*
X115857143Y-150233390D02*
X116000000Y-150042914D01*
X116000000Y-150042914D02*
X116142857Y-150233390D01*
X116761905Y-149804819D02*
X116761905Y-150042914D01*
X116523810Y-149947676D02*
X116761905Y-150042914D01*
X116761905Y-150042914D02*
X117000000Y-149947676D01*
X116619048Y-150233390D02*
X116761905Y-150042914D01*
X116761905Y-150042914D02*
X116904762Y-150233390D01*
X127359580Y-72166666D02*
X127407200Y-72214285D01*
X127407200Y-72214285D02*
X127454819Y-72357142D01*
X127454819Y-72357142D02*
X127454819Y-72452380D01*
X127454819Y-72452380D02*
X127407200Y-72595237D01*
X127407200Y-72595237D02*
X127311961Y-72690475D01*
X127311961Y-72690475D02*
X127216723Y-72738094D01*
X127216723Y-72738094D02*
X127026247Y-72785713D01*
X127026247Y-72785713D02*
X126883390Y-72785713D01*
X126883390Y-72785713D02*
X126692914Y-72738094D01*
X126692914Y-72738094D02*
X126597676Y-72690475D01*
X126597676Y-72690475D02*
X126502438Y-72595237D01*
X126502438Y-72595237D02*
X126454819Y-72452380D01*
X126454819Y-72452380D02*
X126454819Y-72357142D01*
X126454819Y-72357142D02*
X126502438Y-72214285D01*
X126502438Y-72214285D02*
X126550057Y-72166666D01*
X127454819Y-71214285D02*
X127454819Y-71785713D01*
X127454819Y-71499999D02*
X126454819Y-71499999D01*
X126454819Y-71499999D02*
X126597676Y-71595237D01*
X126597676Y-71595237D02*
X126692914Y-71690475D01*
X126692914Y-71690475D02*
X126740533Y-71785713D01*
X151004819Y-89433333D02*
X151719104Y-89433333D01*
X151719104Y-89433333D02*
X151861961Y-89480952D01*
X151861961Y-89480952D02*
X151957200Y-89576190D01*
X151957200Y-89576190D02*
X152004819Y-89719047D01*
X152004819Y-89719047D02*
X152004819Y-89814285D01*
X151100057Y-89004761D02*
X151052438Y-88957142D01*
X151052438Y-88957142D02*
X151004819Y-88861904D01*
X151004819Y-88861904D02*
X151004819Y-88623809D01*
X151004819Y-88623809D02*
X151052438Y-88528571D01*
X151052438Y-88528571D02*
X151100057Y-88480952D01*
X151100057Y-88480952D02*
X151195295Y-88433333D01*
X151195295Y-88433333D02*
X151290533Y-88433333D01*
X151290533Y-88433333D02*
X151433390Y-88480952D01*
X151433390Y-88480952D02*
X152004819Y-89052380D01*
X152004819Y-89052380D02*
X152004819Y-88433333D01*
X148416667Y-145907200D02*
X148559524Y-145954819D01*
X148559524Y-145954819D02*
X148797619Y-145954819D01*
X148797619Y-145954819D02*
X148892857Y-145907200D01*
X148892857Y-145907200D02*
X148940476Y-145859580D01*
X148940476Y-145859580D02*
X148988095Y-145764342D01*
X148988095Y-145764342D02*
X148988095Y-145669104D01*
X148988095Y-145669104D02*
X148940476Y-145573866D01*
X148940476Y-145573866D02*
X148892857Y-145526247D01*
X148892857Y-145526247D02*
X148797619Y-145478628D01*
X148797619Y-145478628D02*
X148607143Y-145431009D01*
X148607143Y-145431009D02*
X148511905Y-145383390D01*
X148511905Y-145383390D02*
X148464286Y-145335771D01*
X148464286Y-145335771D02*
X148416667Y-145240533D01*
X148416667Y-145240533D02*
X148416667Y-145145295D01*
X148416667Y-145145295D02*
X148464286Y-145050057D01*
X148464286Y-145050057D02*
X148511905Y-145002438D01*
X148511905Y-145002438D02*
X148607143Y-144954819D01*
X148607143Y-144954819D02*
X148845238Y-144954819D01*
X148845238Y-144954819D02*
X148988095Y-145002438D01*
X149321429Y-144954819D02*
X149559524Y-145954819D01*
X149559524Y-145954819D02*
X149750000Y-145240533D01*
X149750000Y-145240533D02*
X149940476Y-145954819D01*
X149940476Y-145954819D02*
X150178572Y-144954819D01*
X150464286Y-144954819D02*
X151130952Y-144954819D01*
X151130952Y-144954819D02*
X150702381Y-145954819D01*
X162819047Y-95481009D02*
X162961904Y-95528628D01*
X162961904Y-95528628D02*
X163009523Y-95576247D01*
X163009523Y-95576247D02*
X163057142Y-95671485D01*
X163057142Y-95671485D02*
X163057142Y-95814342D01*
X163057142Y-95814342D02*
X163009523Y-95909580D01*
X163009523Y-95909580D02*
X162961904Y-95957200D01*
X162961904Y-95957200D02*
X162866666Y-96004819D01*
X162866666Y-96004819D02*
X162485714Y-96004819D01*
X162485714Y-96004819D02*
X162485714Y-95004819D01*
X162485714Y-95004819D02*
X162819047Y-95004819D01*
X162819047Y-95004819D02*
X162914285Y-95052438D01*
X162914285Y-95052438D02*
X162961904Y-95100057D01*
X162961904Y-95100057D02*
X163009523Y-95195295D01*
X163009523Y-95195295D02*
X163009523Y-95290533D01*
X163009523Y-95290533D02*
X162961904Y-95385771D01*
X162961904Y-95385771D02*
X162914285Y-95433390D01*
X162914285Y-95433390D02*
X162819047Y-95481009D01*
X162819047Y-95481009D02*
X162485714Y-95481009D01*
X163390476Y-95004819D02*
X164057142Y-95004819D01*
X164057142Y-95004819D02*
X163390476Y-96004819D01*
X163390476Y-96004819D02*
X164057142Y-96004819D01*
X164961904Y-96004819D02*
X164390476Y-96004819D01*
X164676190Y-96004819D02*
X164676190Y-95004819D01*
X164676190Y-95004819D02*
X164580952Y-95147676D01*
X164580952Y-95147676D02*
X164485714Y-95242914D01*
X164485714Y-95242914D02*
X164390476Y-95290533D01*
X159509048Y-100283866D02*
X160270953Y-100283866D01*
X159890000Y-100664819D02*
X159890000Y-99902914D01*
X126166667Y-143657200D02*
X126309524Y-143704819D01*
X126309524Y-143704819D02*
X126547619Y-143704819D01*
X126547619Y-143704819D02*
X126642857Y-143657200D01*
X126642857Y-143657200D02*
X126690476Y-143609580D01*
X126690476Y-143609580D02*
X126738095Y-143514342D01*
X126738095Y-143514342D02*
X126738095Y-143419104D01*
X126738095Y-143419104D02*
X126690476Y-143323866D01*
X126690476Y-143323866D02*
X126642857Y-143276247D01*
X126642857Y-143276247D02*
X126547619Y-143228628D01*
X126547619Y-143228628D02*
X126357143Y-143181009D01*
X126357143Y-143181009D02*
X126261905Y-143133390D01*
X126261905Y-143133390D02*
X126214286Y-143085771D01*
X126214286Y-143085771D02*
X126166667Y-142990533D01*
X126166667Y-142990533D02*
X126166667Y-142895295D01*
X126166667Y-142895295D02*
X126214286Y-142800057D01*
X126214286Y-142800057D02*
X126261905Y-142752438D01*
X126261905Y-142752438D02*
X126357143Y-142704819D01*
X126357143Y-142704819D02*
X126595238Y-142704819D01*
X126595238Y-142704819D02*
X126738095Y-142752438D01*
X127071429Y-142704819D02*
X127309524Y-143704819D01*
X127309524Y-143704819D02*
X127500000Y-142990533D01*
X127500000Y-142990533D02*
X127690476Y-143704819D01*
X127690476Y-143704819D02*
X127928572Y-142704819D01*
X128261905Y-142800057D02*
X128309524Y-142752438D01*
X128309524Y-142752438D02*
X128404762Y-142704819D01*
X128404762Y-142704819D02*
X128642857Y-142704819D01*
X128642857Y-142704819D02*
X128738095Y-142752438D01*
X128738095Y-142752438D02*
X128785714Y-142800057D01*
X128785714Y-142800057D02*
X128833333Y-142895295D01*
X128833333Y-142895295D02*
X128833333Y-142990533D01*
X128833333Y-142990533D02*
X128785714Y-143133390D01*
X128785714Y-143133390D02*
X128214286Y-143704819D01*
X128214286Y-143704819D02*
X128833333Y-143704819D01*
X172666666Y-41804819D02*
X172333333Y-41328628D01*
X172095238Y-41804819D02*
X172095238Y-40804819D01*
X172095238Y-40804819D02*
X172476190Y-40804819D01*
X172476190Y-40804819D02*
X172571428Y-40852438D01*
X172571428Y-40852438D02*
X172619047Y-40900057D01*
X172619047Y-40900057D02*
X172666666Y-40995295D01*
X172666666Y-40995295D02*
X172666666Y-41138152D01*
X172666666Y-41138152D02*
X172619047Y-41233390D01*
X172619047Y-41233390D02*
X172571428Y-41281009D01*
X172571428Y-41281009D02*
X172476190Y-41328628D01*
X172476190Y-41328628D02*
X172095238Y-41328628D01*
X173095238Y-41281009D02*
X173428571Y-41281009D01*
X173571428Y-41804819D02*
X173095238Y-41804819D01*
X173095238Y-41804819D02*
X173095238Y-40804819D01*
X173095238Y-40804819D02*
X173571428Y-40804819D01*
X174333333Y-41281009D02*
X174000000Y-41281009D01*
X174000000Y-41804819D02*
X174000000Y-40804819D01*
X174000000Y-40804819D02*
X174476190Y-40804819D01*
X175000000Y-40804819D02*
X175000000Y-41042914D01*
X174761905Y-40947676D02*
X175000000Y-41042914D01*
X175000000Y-41042914D02*
X175238095Y-40947676D01*
X174857143Y-41233390D02*
X175000000Y-41042914D01*
X175000000Y-41042914D02*
X175142857Y-41233390D01*
X175761905Y-40804819D02*
X175761905Y-41042914D01*
X175523810Y-40947676D02*
X175761905Y-41042914D01*
X175761905Y-41042914D02*
X176000000Y-40947676D01*
X175619048Y-41233390D02*
X175761905Y-41042914D01*
X175761905Y-41042914D02*
X175904762Y-41233390D01*
%TO.C,SW8*%
D11*
X155750000Y-149000000D02*
X155750000Y-150500000D01*
X157000000Y-153000000D02*
X161500000Y-153000000D01*
X161500000Y-146500000D02*
X157000000Y-146500000D01*
X162750000Y-150500000D02*
X162750000Y-149000000D01*
%TO.C,SW1*%
X124000000Y-131750000D02*
X124000000Y-133250000D01*
X125250000Y-135750000D02*
X129750000Y-135750000D01*
X129750000Y-129250000D02*
X125250000Y-129250000D01*
X131000000Y-133250000D02*
X131000000Y-131750000D01*
%TO.C,SW4*%
X133500000Y-139250000D02*
X133500000Y-140750000D01*
X134750000Y-143250000D02*
X139250000Y-143250000D01*
X139250000Y-136750000D02*
X134750000Y-136750000D01*
X140500000Y-140750000D02*
X140500000Y-139250000D01*
%TO.C,SW9*%
X174700000Y-88700000D02*
X174700000Y-80100000D01*
X179300000Y-82400000D02*
X179300000Y-80100000D01*
X179300000Y-88700000D02*
X179300000Y-86500000D01*
%TO.C,SW3*%
X114500000Y-139250000D02*
X114500000Y-140750000D01*
X115750000Y-143250000D02*
X120250000Y-143250000D01*
X120250000Y-136750000D02*
X115750000Y-136750000D01*
X121500000Y-140750000D02*
X121500000Y-139250000D01*
%TO.C,J3*%
X147510000Y-113170000D02*
X111890000Y-113170000D01*
X147510000Y-113170000D02*
X147510000Y-115830000D01*
X111890000Y-113170000D02*
X111890000Y-115830000D01*
X150110000Y-114500000D02*
X150110000Y-115830000D01*
X150110000Y-115830000D02*
X148780000Y-115830000D01*
X147510000Y-115830000D02*
X111890000Y-115830000D01*
%TO.C,SW6*%
X157250000Y-129500000D02*
X157250000Y-131000000D01*
X158500000Y-133500000D02*
X163000000Y-133500000D01*
X163000000Y-127000000D02*
X158500000Y-127000000D01*
X164250000Y-131000000D02*
X164250000Y-129500000D01*
%TO.C,SW5*%
X166750000Y-122000000D02*
X166750000Y-123500000D01*
X168000000Y-126000000D02*
X172500000Y-126000000D01*
X172500000Y-119500000D02*
X168000000Y-119500000D01*
X173750000Y-123500000D02*
X173750000Y-122000000D01*
%TO.C,J1*%
X129170000Y-71890000D02*
X129170000Y-54050000D01*
X129170000Y-74490000D02*
X129170000Y-73160000D01*
X130500000Y-74490000D02*
X129170000Y-74490000D01*
X131830000Y-54050000D02*
X129170000Y-54050000D01*
X131830000Y-71890000D02*
X129170000Y-71890000D01*
X131830000Y-71890000D02*
X131830000Y-54050000D01*
%TO.C,C1*%
X123130000Y-69380000D02*
X123467000Y-69380000D01*
X123130000Y-74620000D02*
X123130000Y-69380000D01*
X123467000Y-74620000D02*
X123130000Y-74620000D01*
X125533000Y-69380000D02*
X125870000Y-69380000D01*
X125870000Y-69380000D02*
X125870000Y-74620000D01*
X125870000Y-74620000D02*
X125533000Y-74620000D01*
%TO.C,J2*%
X147510000Y-87770000D02*
X111890000Y-87770000D01*
X147510000Y-87770000D02*
X147510000Y-90430000D01*
X111890000Y-87770000D02*
X111890000Y-90430000D01*
X150110000Y-89100000D02*
X150110000Y-90430000D01*
X150110000Y-90430000D02*
X148780000Y-90430000D01*
X147510000Y-90430000D02*
X111890000Y-90430000D01*
%TO.C,SW7*%
X146250000Y-149000000D02*
X146250000Y-150500000D01*
X147500000Y-153000000D02*
X152000000Y-153000000D01*
X152000000Y-146500000D02*
X147500000Y-146500000D01*
X153250000Y-150500000D02*
X153250000Y-149000000D01*
%TO.C,BZ1*%
X169800000Y-102750000D02*
G75*
G02*
X157600000Y-102750000I-6100000J0D01*
G01*
X157600000Y-102750000D02*
G75*
G02*
X169800000Y-102750000I6100000J0D01*
G01*
%TO.C,SW2*%
X124000000Y-146750000D02*
X124000000Y-148250000D01*
X125250000Y-150750000D02*
X129750000Y-150750000D01*
X129750000Y-144250000D02*
X125250000Y-144250000D01*
X131000000Y-148250000D02*
X131000000Y-146750000D01*
%TD*%
M02*
