%TF.GenerationSoftware,KiCad,Pcbnew,10.0.6*%
%TF.CreationDate,2026-10-09T16:06:30+02:00*%
%TF.ProjectId,the_gameboy,7468655f-6761-46d6-9562-6f792e6b6963,rev?*%
%TF.SameCoordinates,Original*%
%TF.FileFunction,Copper,L2,Bot*%
%TF.FilePolarity,Positive*%
%FSLAX46Y46*%
G04 Gerber Fmt 4.6, Leading zero omitted, Abs format (unit mm)*
G04 Created by KiCad (PCBNEW 10.0.6) date 2026-10-09 16:06:30*
%MOMM*%
%LPD*%
G01*
G04 APERTURE LIST*
%TA.AperFunction,ComponentPad*%
%ADD10C,2.000000*%
%TD*%
%TA.AperFunction,ComponentPad*%
%ADD11O,3.500000X2.200000*%
%TD*%
%TA.AperFunction,ComponentPad*%
%ADD12R,2.500000X1.500000*%
%TD*%
%TA.AperFunction,ComponentPad*%
%ADD13O,2.500000X1.500000*%
%TD*%
%TA.AperFunction,ComponentPad*%
%ADD14R,1.700000X1.700000*%
%TD*%
%TA.AperFunction,ComponentPad*%
%ADD15C,1.700000*%
%TD*%
%TA.AperFunction,ComponentPad*%
%ADD16C,1.600000*%
%TD*%
%TA.AperFunction,ComponentPad*%
%ADD17R,2.000000X2.000000*%
%TD*%
%TA.AperFunction,ViaPad*%
%ADD18C,0.600000*%
%TD*%
%TA.AperFunction,Conductor*%
%ADD19C,0.200000*%
%TD*%
G04 APERTURE END LIST*
D10*
%TO.P,SW8,1,1_1*%
%TO.N,Net-(J3-Pin_12)*%
X156000000Y-147500000D03*
X162500000Y-147500000D03*
%TO.P,SW8,2,2_2*%
%TO.N,GND*%
X156000000Y-152000000D03*
X162500000Y-152000000D03*
%TD*%
%TO.P,SW1,1,1_1*%
%TO.N,Net-(J2-Pin_7)*%
X124250000Y-130250000D03*
X130750000Y-130250000D03*
%TO.P,SW1,2,2_2*%
%TO.N,GND*%
X124250000Y-134750000D03*
X130750000Y-134750000D03*
%TD*%
%TO.P,SW4,1,1_1*%
%TO.N,Net-(J2-Pin_10)*%
X133750000Y-137750000D03*
X140250000Y-137750000D03*
%TO.P,SW4,2,2_2*%
%TO.N,GND*%
X133750000Y-142250000D03*
X140250000Y-142250000D03*
%TD*%
D11*
%TO.P,SW9,*%
%TO.N,*%
X177000000Y-88500000D03*
X177000000Y-80300000D03*
D12*
%TO.P,SW9,1,A_1*%
%TO.N,unconnected-(SW9-A-Pad1)*%
X177000000Y-86400000D03*
D13*
%TO.P,SW9,2,B_2*%
%TO.N,Net-(J1-Pin_2)*%
X177000000Y-84400000D03*
%TO.P,SW9,3,C_3*%
%TO.N,Net-(J2-Pin_1)*%
X177000000Y-82400000D03*
%TD*%
D10*
%TO.P,SW3,1,1_1*%
%TO.N,Net-(J2-Pin_9)*%
X114750000Y-137750000D03*
X121250000Y-137750000D03*
%TO.P,SW3,2,2_2*%
%TO.N,GND*%
X114750000Y-142250000D03*
X121250000Y-142250000D03*
%TD*%
D14*
%TO.P,J3,1,Pin_1_1*%
%TO.N,Net-(J1-Pin_4)*%
X148780000Y-114500000D03*
D15*
%TO.P,J3,2,Pin_2_2*%
%TO.N,unconnected-(J3-Pin_2-Pad2)*%
X146240000Y-114500000D03*
%TO.P,J3,3,Pin_3_3*%
%TO.N,unconnected-(J3-Pin_3-Pad3)*%
X143700000Y-114500000D03*
%TO.P,J3,4,Pin_4_4*%
%TO.N,unconnected-(J3-Pin_4-Pad4)*%
X141160000Y-114500000D03*
%TO.P,J3,5,Pin_5_5*%
%TO.N,unconnected-(J3-Pin_5-Pad5)*%
X138620000Y-114500000D03*
%TO.P,J3,6,Pin_6_6*%
%TO.N,unconnected-(J3-Pin_6-Pad6)*%
X136080000Y-114500000D03*
%TO.P,J3,7,Pin_7_7*%
%TO.N,unconnected-(J3-Pin_7-Pad7)*%
X133540000Y-114500000D03*
%TO.P,J3,8,Pin_8_8*%
%TO.N,Net-(J1-Pin_7)*%
X131000000Y-114500000D03*
%TO.P,J3,9,Pin_9_9*%
%TO.N,Net-(J1-Pin_8)*%
X128460000Y-114500000D03*
%TO.P,J3,10,Pin_10_10*%
%TO.N,unconnected-(J3-Pin_10-Pad10)*%
X125920000Y-114500000D03*
%TO.P,J3,11,Pin_11_11*%
%TO.N,Net-(J3-Pin_11)*%
X123380000Y-114500000D03*
%TO.P,J3,12,Pin_12_12*%
%TO.N,Net-(J3-Pin_12)*%
X120840000Y-114500000D03*
%TO.P,J3,13,Pin_13_13*%
%TO.N,Net-(J1-Pin_5)*%
X118300000Y-114500000D03*
%TO.P,J3,14,Pin_14_14*%
%TO.N,Net-(J1-Pin_6)*%
X115760000Y-114500000D03*
%TO.P,J3,15,Pin_15_15*%
%TO.N,Net-(J1-Pin_3)*%
X113220000Y-114500000D03*
%TD*%
D10*
%TO.P,SW6,1,1_1*%
%TO.N,Net-(J2-Pin_12)*%
X157500000Y-128000000D03*
X164000000Y-128000000D03*
%TO.P,SW6,2,2_2*%
%TO.N,GND*%
X157500000Y-132500000D03*
X164000000Y-132500000D03*
%TD*%
%TO.P,SW5,1,1_1*%
%TO.N,Net-(J2-Pin_11)*%
X167000000Y-120500000D03*
X173500000Y-120500000D03*
%TO.P,SW5,2,2_2*%
%TO.N,GND*%
X167000000Y-125000000D03*
X173500000Y-125000000D03*
%TD*%
D14*
%TO.P,J1,1,Pin_1_1*%
%TO.N,GND*%
X130500000Y-73160000D03*
D15*
%TO.P,J1,2,Pin_2_2*%
%TO.N,Net-(J1-Pin_2)*%
X130500000Y-70620000D03*
%TO.P,J1,3,Pin_3_3*%
%TO.N,Net-(J1-Pin_3)*%
X130500000Y-68080000D03*
%TO.P,J1,4,Pin_4_4*%
%TO.N,Net-(J1-Pin_4)*%
X130500000Y-65540000D03*
%TO.P,J1,5,Pin_5_5*%
%TO.N,Net-(J1-Pin_5)*%
X130500000Y-63000000D03*
%TO.P,J1,6,Pin_6_6*%
%TO.N,Net-(J1-Pin_6)*%
X130500000Y-60460000D03*
%TO.P,J1,7,Pin_7_7*%
%TO.N,Net-(J1-Pin_7)*%
X130500000Y-57920000D03*
%TO.P,J1,8,Pin_8_8*%
%TO.N,Net-(J1-Pin_8)*%
X130500000Y-55380000D03*
%TD*%
D16*
%TO.P,C1,1*%
%TO.N,Net-(J1-Pin_2)*%
X124500000Y-69500000D03*
%TO.P,C1,2*%
%TO.N,GND*%
X124500000Y-74500000D03*
%TD*%
D14*
%TO.P,J2,1,Pin_1_1*%
%TO.N,Net-(J2-Pin_1)*%
X148780000Y-89100000D03*
D15*
%TO.P,J2,2,Pin_2_2*%
%TO.N,unconnected-(J2-Pin_2-Pad2)*%
X146240000Y-89100000D03*
%TO.P,J2,3,Pin_3_3*%
%TO.N,unconnected-(J2-Pin_3-Pad3)*%
X143700000Y-89100000D03*
%TO.P,J2,4,Pin_4_4*%
%TO.N,unconnected-(J2-Pin_4-Pad4)*%
X141160000Y-89100000D03*
%TO.P,J2,5,Pin_5_5*%
%TO.N,unconnected-(J2-Pin_5-Pad5)*%
X138620000Y-89100000D03*
%TO.P,J2,6,Pin_6_6*%
%TO.N,unconnected-(J2-Pin_6-Pad6)*%
X136080000Y-89100000D03*
%TO.P,J2,7,Pin_7_7*%
%TO.N,Net-(J2-Pin_7)*%
X133540000Y-89100000D03*
%TO.P,J2,8,Pin_8_8*%
%TO.N,Net-(J2-Pin_8)*%
X131000000Y-89100000D03*
%TO.P,J2,9,Pin_9_9*%
%TO.N,Net-(J2-Pin_9)*%
X128460000Y-89100000D03*
%TO.P,J2,10,Pin_10_10*%
%TO.N,Net-(J2-Pin_10)*%
X125920000Y-89100000D03*
%TO.P,J2,11,Pin_11_11*%
%TO.N,Net-(J2-Pin_11)*%
X123380000Y-89100000D03*
%TO.P,J2,12,Pin_12_12*%
%TO.N,Net-(J2-Pin_12)*%
X120840000Y-89100000D03*
%TO.P,J2,13,Pin_13_13*%
%TO.N,Net-(BZ1-+)*%
X118300000Y-89100000D03*
%TO.P,J2,14,Pin_14_14*%
%TO.N,GND*%
X115760000Y-89100000D03*
%TO.P,J2,15,Pin_15_15*%
%TO.N,unconnected-(J2-Pin_15-Pad15)*%
X113220000Y-89100000D03*
%TD*%
D10*
%TO.P,SW7,1,1_1*%
%TO.N,Net-(J3-Pin_11)*%
X146500000Y-147500000D03*
X153000000Y-147500000D03*
%TO.P,SW7,2,2_2*%
%TO.N,GND*%
X146500000Y-152000000D03*
X153000000Y-152000000D03*
%TD*%
D17*
%TO.P,BZ1,1,+_1*%
%TO.N,Net-(BZ1-+)*%
X159900000Y-102750000D03*
D10*
%TO.P,BZ1,2,-_2*%
%TO.N,GND*%
X167500000Y-102750000D03*
%TD*%
%TO.P,SW2,1,1_1*%
%TO.N,Net-(J2-Pin_8)*%
X124250000Y-145250000D03*
X130750000Y-145250000D03*
%TO.P,SW2,2,2_2*%
%TO.N,GND*%
X124250000Y-149750000D03*
X130750000Y-149750000D03*
%TD*%
D18*
%TO.N,Net-(BZ1-+)*%
X152858578Y-112891422D03*
X155522794Y-110977206D03*
%TO.N,Net-(J3-Pin_11)*%
X153049265Y-143700735D03*
%TO.N,Net-(J2-Pin_1)*%
X148750000Y-83800000D03*
%TO.N,Net-(J2-Pin_7)*%
X156066914Y-112087014D03*
%TO.N,Net-(J2-Pin_8)*%
X156332108Y-112917892D03*
%TO.N,Net-(J2-Pin_9)*%
X156300000Y-113798640D03*
%TO.N,Net-(J2-Pin_10)*%
X155900000Y-114500000D03*
%TD*%
%TO.N,Net-(BZ1-+)*%
D19*
X153608578Y-112891422D02*
X152858578Y-112891422D01*
X155522794Y-110977206D02*
X153608578Y-112891422D01*
%TO.N,Net-(J3-Pin_11)*%
X153000000Y-144000000D02*
X153000000Y-147500000D01*
X153049265Y-143950735D02*
X153000000Y-144000000D01*
X153049265Y-143700735D02*
X153049265Y-143950735D01*
%TO.N,Net-(J1-Pin_8)*%
X131476346Y-115650000D02*
X129610000Y-115650000D01*
X132150000Y-114976346D02*
X131476346Y-115650000D01*
X132150000Y-114023654D02*
X132150000Y-114976346D01*
X131468503Y-113342157D02*
X132150000Y-114023654D01*
X130407843Y-113342157D02*
X131468503Y-113342157D01*
X129032843Y-111967157D02*
X130407843Y-113342157D01*
X119500000Y-111967157D02*
X129032843Y-111967157D01*
X119500000Y-111048430D02*
X119500000Y-111967157D01*
X130048430Y-100500000D02*
X119500000Y-111048430D01*
X149828428Y-100500000D02*
X130048430Y-100500000D01*
X157000000Y-93328430D02*
X155789214Y-94539214D01*
X155789214Y-94539214D02*
X149828428Y-100500000D01*
X129610000Y-115650000D02*
X128460000Y-114500000D01*
X157000000Y-84421575D02*
X157000000Y-93328430D01*
X138658430Y-66080001D02*
X157000000Y-84421575D01*
X134005686Y-66080000D02*
X138658430Y-66080001D01*
X134005686Y-58885686D02*
X134005686Y-66080000D01*
X130500000Y-55380000D02*
X134005686Y-58885686D01*
%TO.N,Net-(J1-Pin_7)*%
X128867157Y-112367157D02*
X131000000Y-114500000D01*
X119132843Y-112367157D02*
X128867157Y-112367157D01*
X119100000Y-112334314D02*
X119132843Y-112367157D01*
X119100000Y-110882744D02*
X119100000Y-112334314D01*
X129882744Y-100100000D02*
X119100000Y-110882744D01*
X156131371Y-84118629D02*
X156600000Y-84587260D01*
X138492744Y-66480001D02*
X156131371Y-84118629D01*
X149662740Y-100100000D02*
X129882744Y-100100000D01*
X133605686Y-66480000D02*
X138492744Y-66480001D01*
X156600000Y-84587260D02*
X156600000Y-93162744D01*
X130500000Y-57920000D02*
X133605686Y-61025686D01*
X133605686Y-61025686D02*
X133605686Y-66480000D01*
X156600000Y-93162744D02*
X149662740Y-100100000D01*
%TO.N,Net-(J1-Pin_6)*%
X116910000Y-115650000D02*
X115760000Y-114500000D01*
X118776346Y-115650000D02*
X116910000Y-115650000D01*
X119450000Y-114976346D02*
X118776346Y-115650000D01*
X119450000Y-113250000D02*
X119450000Y-114976346D01*
X118700000Y-110717058D02*
X118700000Y-112500000D01*
X118700000Y-112500000D02*
X119450000Y-113250000D01*
X129717058Y-99700000D02*
X118700000Y-110717058D01*
X156200000Y-92997058D02*
X149497055Y-99700000D01*
X149497055Y-99700000D02*
X129717058Y-99700000D01*
X138327058Y-66880000D02*
X156200000Y-84752945D01*
X133205686Y-66880000D02*
X138327058Y-66880000D01*
X133205686Y-63165686D02*
X133205686Y-66880000D01*
X130500000Y-60460000D02*
X133205686Y-63165686D01*
X156200000Y-84752945D02*
X156200000Y-92997058D01*
%TO.N,Net-(J1-Pin_5)*%
X118300000Y-110551372D02*
X118300000Y-114500000D01*
X129551372Y-99300000D02*
X118300000Y-110551372D01*
X149331370Y-99300000D02*
X129551372Y-99300000D01*
X155800000Y-92831372D02*
X149331370Y-99300000D01*
X155800000Y-84918630D02*
X155800000Y-92831372D01*
X138161372Y-67280000D02*
X155800000Y-84918630D01*
X132805686Y-67280000D02*
X138161372Y-67280000D01*
X132805686Y-65305686D02*
X132805686Y-67280000D01*
X130500000Y-63000000D02*
X132805686Y-65305686D01*
%TO.N,Net-(J1-Pin_4)*%
X144030000Y-119250000D02*
X148780000Y-114500000D01*
X114500000Y-119250000D02*
X144030000Y-119250000D01*
X155400000Y-85084315D02*
X155400000Y-92665686D01*
X129385686Y-98900000D02*
X114500000Y-113785686D01*
X137995686Y-67680000D02*
X155400000Y-85084315D01*
X132640000Y-67680000D02*
X137995686Y-67680000D01*
X149165685Y-98900000D02*
X129385686Y-98900000D01*
X114500000Y-113785686D02*
X114500000Y-119250000D01*
X130500000Y-65540000D02*
X132640000Y-67680000D01*
X155400000Y-92665686D02*
X149165685Y-98900000D01*
%TO.N,Net-(J1-Pin_3)*%
X155000000Y-92500000D02*
X155000000Y-85250000D01*
X149000000Y-98500000D02*
X155000000Y-92500000D01*
X155000000Y-85250000D02*
X137830000Y-68080000D01*
X137830000Y-68080000D02*
X130500000Y-68080000D01*
X129220000Y-98500000D02*
X149000000Y-98500000D01*
X113220000Y-114500000D02*
X129220000Y-98500000D01*
%TO.N,Net-(J2-Pin_1)*%
X148780000Y-83830000D02*
X148780000Y-89100000D01*
X148750000Y-83800000D02*
X148780000Y-83830000D01*
%TO.N,Net-(J2-Pin_7)*%
X133000000Y-132500000D02*
X130750000Y-130250000D01*
X133000000Y-136050000D02*
X133000000Y-132500000D01*
X140818628Y-136050000D02*
X133000000Y-136050000D01*
X155732108Y-113253677D02*
X154767157Y-114218629D01*
X154767157Y-114218629D02*
X154767157Y-114501471D01*
X154767157Y-114501471D02*
X145600000Y-123668629D01*
X155732108Y-112421820D02*
X155732108Y-113253677D01*
X145600000Y-123668629D02*
X145600000Y-131268628D01*
X156066914Y-112087014D02*
X155732108Y-112421820D01*
X145600000Y-131268628D02*
X140818628Y-136050000D01*
%TO.N,Net-(J2-Pin_8)*%
X134750000Y-145250000D02*
X130750000Y-145250000D01*
X141782843Y-138217157D02*
X134750000Y-145250000D01*
X141782843Y-136782843D02*
X141782843Y-138217157D01*
X146800000Y-131765686D02*
X141782843Y-136782843D01*
X146800000Y-124165686D02*
X146800000Y-131765686D01*
X155865686Y-115100000D02*
X146800000Y-124165686D01*
X156500000Y-114748529D02*
X156148529Y-115100000D01*
X156148529Y-115100000D02*
X155865686Y-115100000D01*
X156900000Y-114047169D02*
X156500000Y-114447169D01*
X156332108Y-112917892D02*
X156900000Y-113485784D01*
X156900000Y-113485784D02*
X156900000Y-114047169D01*
X156500000Y-114447169D02*
X156500000Y-114748529D01*
%TO.N,Net-(J2-Pin_10)*%
X146400000Y-131600000D02*
X140250000Y-137750000D01*
X146400000Y-124000000D02*
X146400000Y-131600000D01*
X155900000Y-114500000D02*
X146400000Y-124000000D01*
%TO.N,Net-(J2-Pin_9)*%
X122550000Y-136450000D02*
X121250000Y-137750000D01*
X140788478Y-136450000D02*
X122550000Y-136450000D01*
X140886396Y-136547918D02*
X140788478Y-136450000D01*
X146000000Y-131434314D02*
X140886396Y-136547918D01*
X155167157Y-114384314D02*
X155167157Y-114667157D01*
X155167157Y-114667157D02*
X146000000Y-123834314D01*
X146000000Y-123834314D02*
X146000000Y-131434314D01*
X155752831Y-113798640D02*
X155167157Y-114384314D01*
X156300000Y-113798640D02*
X155752831Y-113798640D01*
%TD*%
%TA.AperFunction,Conductor*%
%TO.N,GND*%
G36*
X178942539Y-40520185D02*
G01*
X178988294Y-40572989D01*
X178999500Y-40624500D01*
X178999500Y-79086689D01*
X178979815Y-79153728D01*
X178927011Y-79199483D01*
X178857853Y-79209427D01*
X178794297Y-79180402D01*
X178787819Y-79174370D01*
X178692654Y-79079205D01*
X178692649Y-79079201D01*
X178488848Y-78931132D01*
X178488847Y-78931131D01*
X178488845Y-78931130D01*
X178418747Y-78895413D01*
X178264383Y-78816760D01*
X178024785Y-78738910D01*
X177775962Y-78699500D01*
X176224038Y-78699500D01*
X176099626Y-78719205D01*
X175975214Y-78738910D01*
X175735616Y-78816760D01*
X175511151Y-78931132D01*
X175307350Y-79079201D01*
X175307345Y-79079205D01*
X175129205Y-79257345D01*
X175129201Y-79257350D01*
X174981132Y-79461151D01*
X174866760Y-79685616D01*
X174788910Y-79925214D01*
X174749500Y-80174038D01*
X174749500Y-80425961D01*
X174788910Y-80674785D01*
X174866760Y-80914383D01*
X174981132Y-81138848D01*
X175129201Y-81342649D01*
X175129205Y-81342654D01*
X175307349Y-81520798D01*
X175394752Y-81584299D01*
X175437418Y-81639628D01*
X175443397Y-81709242D01*
X175432352Y-81740911D01*
X175341118Y-81919967D01*
X175280290Y-82107173D01*
X175249500Y-82301577D01*
X175249500Y-82498422D01*
X175280290Y-82692826D01*
X175341117Y-82880029D01*
X175417666Y-83030264D01*
X175430476Y-83055405D01*
X175546172Y-83214646D01*
X175546174Y-83214648D01*
X175643845Y-83312319D01*
X175677330Y-83373642D01*
X175672346Y-83443334D01*
X175643845Y-83487681D01*
X175546174Y-83585351D01*
X175546174Y-83585352D01*
X175546172Y-83585354D01*
X175496485Y-83653741D01*
X175430476Y-83744594D01*
X175341117Y-83919970D01*
X175280290Y-84107173D01*
X175249500Y-84301577D01*
X175249500Y-84498422D01*
X175280290Y-84692826D01*
X175341117Y-84880029D01*
X175430472Y-85055397D01*
X175430476Y-85055405D01*
X175456781Y-85091611D01*
X175456783Y-85091613D01*
X175480263Y-85157419D01*
X175464438Y-85225473D01*
X175430777Y-85263765D01*
X175392452Y-85292455D01*
X175306206Y-85407664D01*
X175306202Y-85407671D01*
X175255908Y-85542517D01*
X175249501Y-85602116D01*
X175249501Y-85602123D01*
X175249500Y-85602135D01*
X175249500Y-87197870D01*
X175249501Y-87197876D01*
X175256669Y-87264555D01*
X175244262Y-87333314D01*
X175221061Y-87365488D01*
X175129205Y-87457345D01*
X175129201Y-87457350D01*
X174981132Y-87661151D01*
X174866760Y-87885616D01*
X174788910Y-88125214D01*
X174773987Y-88219433D01*
X174749500Y-88374038D01*
X174749500Y-88625962D01*
X174774493Y-88783760D01*
X174788910Y-88874785D01*
X174866760Y-89114383D01*
X174981132Y-89338848D01*
X175129201Y-89542649D01*
X175129205Y-89542654D01*
X175307345Y-89720794D01*
X175307350Y-89720798D01*
X175485117Y-89849952D01*
X175511155Y-89868870D01*
X175654184Y-89941747D01*
X175735616Y-89983239D01*
X175735618Y-89983239D01*
X175735621Y-89983241D01*
X175975215Y-90061090D01*
X176224038Y-90100500D01*
X176224039Y-90100500D01*
X177775961Y-90100500D01*
X177775962Y-90100500D01*
X178024785Y-90061090D01*
X178264379Y-89983241D01*
X178488845Y-89868870D01*
X178692656Y-89720793D01*
X178787819Y-89625630D01*
X178849142Y-89592145D01*
X178918834Y-89597129D01*
X178974767Y-89639001D01*
X178999184Y-89704465D01*
X178999500Y-89713311D01*
X178999500Y-159375500D01*
X178979815Y-159442539D01*
X178927011Y-159488294D01*
X178875500Y-159499500D01*
X110124500Y-159499500D01*
X110057461Y-159479815D01*
X110011706Y-159427011D01*
X110000500Y-159375500D01*
X110000500Y-154378711D01*
X113149500Y-154378711D01*
X113149500Y-154621288D01*
X113181161Y-154861785D01*
X113243947Y-155096104D01*
X113336773Y-155320205D01*
X113336776Y-155320212D01*
X113458064Y-155530289D01*
X113458066Y-155530292D01*
X113458067Y-155530293D01*
X113605733Y-155722736D01*
X113605739Y-155722743D01*
X113777256Y-155894260D01*
X113777262Y-155894265D01*
X113969711Y-156041936D01*
X114179788Y-156163224D01*
X114403900Y-156256054D01*
X114638211Y-156318838D01*
X114818586Y-156342584D01*
X114878711Y-156350500D01*
X114878712Y-156350500D01*
X115121289Y-156350500D01*
X115169388Y-156344167D01*
X115361789Y-156318838D01*
X115596100Y-156256054D01*
X115820212Y-156163224D01*
X116030289Y-156041936D01*
X116222738Y-155894265D01*
X116394265Y-155722738D01*
X116541936Y-155530289D01*
X116663224Y-155320212D01*
X116756054Y-155096100D01*
X116818838Y-154861789D01*
X116850500Y-154621288D01*
X116850500Y-154378712D01*
X116850500Y-154378711D01*
X172149500Y-154378711D01*
X172149500Y-154621288D01*
X172181161Y-154861785D01*
X172243947Y-155096104D01*
X172336773Y-155320205D01*
X172336776Y-155320212D01*
X172458064Y-155530289D01*
X172458066Y-155530292D01*
X172458067Y-155530293D01*
X172605733Y-155722736D01*
X172605739Y-155722743D01*
X172777256Y-155894260D01*
X172777262Y-155894265D01*
X172969711Y-156041936D01*
X173179788Y-156163224D01*
X173403900Y-156256054D01*
X173638211Y-156318838D01*
X173818586Y-156342584D01*
X173878711Y-156350500D01*
X173878712Y-156350500D01*
X174121289Y-156350500D01*
X174169388Y-156344167D01*
X174361789Y-156318838D01*
X174596100Y-156256054D01*
X174820212Y-156163224D01*
X175030289Y-156041936D01*
X175222738Y-155894265D01*
X175394265Y-155722738D01*
X175541936Y-155530289D01*
X175663224Y-155320212D01*
X175756054Y-155096100D01*
X175818838Y-154861789D01*
X175850500Y-154621288D01*
X175850500Y-154378712D01*
X175818838Y-154138211D01*
X175756054Y-153903900D01*
X175663224Y-153679788D01*
X175541936Y-153469711D01*
X175394265Y-153277262D01*
X175394260Y-153277256D01*
X175222743Y-153105739D01*
X175222736Y-153105733D01*
X175030293Y-152958067D01*
X175030292Y-152958066D01*
X175030289Y-152958064D01*
X174820212Y-152836776D01*
X174820205Y-152836773D01*
X174596104Y-152743947D01*
X174361785Y-152681161D01*
X174121289Y-152649500D01*
X174121288Y-152649500D01*
X173878712Y-152649500D01*
X173878711Y-152649500D01*
X173638214Y-152681161D01*
X173403895Y-152743947D01*
X173179794Y-152836773D01*
X173179785Y-152836777D01*
X172969706Y-152958067D01*
X172777263Y-153105733D01*
X172777256Y-153105739D01*
X172605739Y-153277256D01*
X172605733Y-153277263D01*
X172458067Y-153469706D01*
X172336777Y-153679785D01*
X172336773Y-153679794D01*
X172243947Y-153903895D01*
X172181161Y-154138214D01*
X172149500Y-154378711D01*
X116850500Y-154378711D01*
X116818838Y-154138211D01*
X116756054Y-153903900D01*
X116663224Y-153679788D01*
X116541936Y-153469711D01*
X116394265Y-153277262D01*
X116394260Y-153277256D01*
X116222743Y-153105739D01*
X116222736Y-153105733D01*
X116030293Y-152958067D01*
X116030292Y-152958066D01*
X116030289Y-152958064D01*
X115820212Y-152836776D01*
X115820205Y-152836773D01*
X115596104Y-152743947D01*
X115361785Y-152681161D01*
X115121289Y-152649500D01*
X115121288Y-152649500D01*
X114878712Y-152649500D01*
X114878711Y-152649500D01*
X114638214Y-152681161D01*
X114403895Y-152743947D01*
X114179794Y-152836773D01*
X114179785Y-152836777D01*
X113969706Y-152958067D01*
X113777263Y-153105733D01*
X113777256Y-153105739D01*
X113605739Y-153277256D01*
X113605733Y-153277263D01*
X113458067Y-153469706D01*
X113336777Y-153679785D01*
X113336773Y-153679794D01*
X113243947Y-153903895D01*
X113181161Y-154138214D01*
X113149500Y-154378711D01*
X110000500Y-154378711D01*
X110000500Y-151881947D01*
X145000000Y-151881947D01*
X145000000Y-152118052D01*
X145036934Y-152351247D01*
X145109897Y-152575802D01*
X145217087Y-152786174D01*
X145277338Y-152869104D01*
X145277340Y-152869105D01*
X145976212Y-152170233D01*
X145987482Y-152212292D01*
X146059890Y-152337708D01*
X146162292Y-152440110D01*
X146287708Y-152512518D01*
X146329765Y-152523787D01*
X145630893Y-153222658D01*
X145713828Y-153282914D01*
X145924197Y-153390102D01*
X146148752Y-153463065D01*
X146148751Y-153463065D01*
X146381948Y-153500000D01*
X146618052Y-153500000D01*
X146851247Y-153463065D01*
X147075802Y-153390102D01*
X147286163Y-153282918D01*
X147286169Y-153282914D01*
X147369104Y-153222658D01*
X147369105Y-153222658D01*
X146670233Y-152523787D01*
X146712292Y-152512518D01*
X146837708Y-152440110D01*
X146940110Y-152337708D01*
X147012518Y-152212292D01*
X147023787Y-152170234D01*
X147722658Y-152869105D01*
X147722658Y-152869104D01*
X147782914Y-152786169D01*
X147782918Y-152786163D01*
X147890102Y-152575802D01*
X147963065Y-152351247D01*
X148000000Y-152118052D01*
X148000000Y-151881947D01*
X151500000Y-151881947D01*
X151500000Y-152118052D01*
X151536934Y-152351247D01*
X151609897Y-152575802D01*
X151717087Y-152786174D01*
X151777338Y-152869104D01*
X151777340Y-152869105D01*
X152476212Y-152170233D01*
X152487482Y-152212292D01*
X152559890Y-152337708D01*
X152662292Y-152440110D01*
X152787708Y-152512518D01*
X152829765Y-152523787D01*
X152130893Y-153222658D01*
X152213828Y-153282914D01*
X152424197Y-153390102D01*
X152648752Y-153463065D01*
X152648751Y-153463065D01*
X152881948Y-153500000D01*
X153118052Y-153500000D01*
X153351247Y-153463065D01*
X153575802Y-153390102D01*
X153786163Y-153282918D01*
X153786169Y-153282914D01*
X153869104Y-153222658D01*
X153869105Y-153222658D01*
X153170233Y-152523787D01*
X153212292Y-152512518D01*
X153337708Y-152440110D01*
X153440110Y-152337708D01*
X153512518Y-152212292D01*
X153523787Y-152170234D01*
X154222658Y-152869105D01*
X154222658Y-152869104D01*
X154282914Y-152786169D01*
X154282918Y-152786163D01*
X154389515Y-152576956D01*
X154437489Y-152526160D01*
X154505310Y-152509365D01*
X154571445Y-152531902D01*
X154610485Y-152576956D01*
X154717087Y-152786174D01*
X154777338Y-152869104D01*
X154777340Y-152869105D01*
X155476212Y-152170233D01*
X155487482Y-152212292D01*
X155559890Y-152337708D01*
X155662292Y-152440110D01*
X155787708Y-152512518D01*
X155829765Y-152523787D01*
X155130893Y-153222658D01*
X155213828Y-153282914D01*
X155424197Y-153390102D01*
X155648752Y-153463065D01*
X155648751Y-153463065D01*
X155881948Y-153500000D01*
X156118052Y-153500000D01*
X156351247Y-153463065D01*
X156575802Y-153390102D01*
X156786163Y-153282918D01*
X156786169Y-153282914D01*
X156869104Y-153222658D01*
X156869105Y-153222658D01*
X156170233Y-152523787D01*
X156212292Y-152512518D01*
X156337708Y-152440110D01*
X156440110Y-152337708D01*
X156512518Y-152212292D01*
X156523787Y-152170234D01*
X157222658Y-152869105D01*
X157222658Y-152869104D01*
X157282914Y-152786169D01*
X157282918Y-152786163D01*
X157390102Y-152575802D01*
X157463065Y-152351247D01*
X157500000Y-152118052D01*
X157500000Y-151881947D01*
X161000000Y-151881947D01*
X161000000Y-152118052D01*
X161036934Y-152351247D01*
X161109897Y-152575802D01*
X161217087Y-152786174D01*
X161277338Y-152869104D01*
X161277340Y-152869105D01*
X161976212Y-152170233D01*
X161987482Y-152212292D01*
X162059890Y-152337708D01*
X162162292Y-152440110D01*
X162287708Y-152512518D01*
X162329765Y-152523787D01*
X161630893Y-153222658D01*
X161713828Y-153282914D01*
X161924197Y-153390102D01*
X162148752Y-153463065D01*
X162148751Y-153463065D01*
X162381948Y-153500000D01*
X162618052Y-153500000D01*
X162851247Y-153463065D01*
X163075802Y-153390102D01*
X163286163Y-153282918D01*
X163286169Y-153282914D01*
X163369104Y-153222658D01*
X163369105Y-153222658D01*
X162670233Y-152523787D01*
X162712292Y-152512518D01*
X162837708Y-152440110D01*
X162940110Y-152337708D01*
X163012518Y-152212292D01*
X163023787Y-152170234D01*
X163722658Y-152869105D01*
X163722658Y-152869104D01*
X163782914Y-152786169D01*
X163782918Y-152786163D01*
X163890102Y-152575802D01*
X163963065Y-152351247D01*
X164000000Y-152118052D01*
X164000000Y-151881947D01*
X163963065Y-151648752D01*
X163890102Y-151424197D01*
X163782914Y-151213828D01*
X163722658Y-151130894D01*
X163722658Y-151130893D01*
X163023787Y-151829765D01*
X163012518Y-151787708D01*
X162940110Y-151662292D01*
X162837708Y-151559890D01*
X162712292Y-151487482D01*
X162670234Y-151476212D01*
X163369105Y-150777340D01*
X163369104Y-150777338D01*
X163286174Y-150717087D01*
X163075802Y-150609897D01*
X162851247Y-150536934D01*
X162851248Y-150536934D01*
X162618052Y-150500000D01*
X162381948Y-150500000D01*
X162148752Y-150536934D01*
X161924197Y-150609897D01*
X161713830Y-150717084D01*
X161630894Y-150777340D01*
X162329766Y-151476212D01*
X162287708Y-151487482D01*
X162162292Y-151559890D01*
X162059890Y-151662292D01*
X161987482Y-151787708D01*
X161976212Y-151829765D01*
X161277340Y-151130894D01*
X161217084Y-151213830D01*
X161109897Y-151424197D01*
X161036934Y-151648752D01*
X161000000Y-151881947D01*
X157500000Y-151881947D01*
X157463065Y-151648752D01*
X157390102Y-151424197D01*
X157282914Y-151213828D01*
X157222658Y-151130894D01*
X157222658Y-151130893D01*
X156523787Y-151829765D01*
X156512518Y-151787708D01*
X156440110Y-151662292D01*
X156337708Y-151559890D01*
X156212292Y-151487482D01*
X156170234Y-151476212D01*
X156869105Y-150777340D01*
X156869104Y-150777339D01*
X156786174Y-150717087D01*
X156575802Y-150609897D01*
X156351247Y-150536934D01*
X156351248Y-150536934D01*
X156118052Y-150500000D01*
X155881948Y-150500000D01*
X155648752Y-150536934D01*
X155424197Y-150609897D01*
X155213830Y-150717084D01*
X155130894Y-150777340D01*
X155829766Y-151476212D01*
X155787708Y-151487482D01*
X155662292Y-151559890D01*
X155559890Y-151662292D01*
X155487482Y-151787708D01*
X155476212Y-151829766D01*
X154777340Y-151130894D01*
X154717084Y-151213830D01*
X154610485Y-151423043D01*
X154562510Y-151473839D01*
X154494689Y-151490634D01*
X154428554Y-151468096D01*
X154389515Y-151423043D01*
X154282914Y-151213828D01*
X154222658Y-151130894D01*
X154222658Y-151130893D01*
X153523787Y-151829765D01*
X153512518Y-151787708D01*
X153440110Y-151662292D01*
X153337708Y-151559890D01*
X153212292Y-151487482D01*
X153170234Y-151476212D01*
X153869105Y-150777340D01*
X153869104Y-150777339D01*
X153786174Y-150717087D01*
X153575802Y-150609897D01*
X153351247Y-150536934D01*
X153351248Y-150536934D01*
X153118052Y-150500000D01*
X152881948Y-150500000D01*
X152648752Y-150536934D01*
X152424197Y-150609897D01*
X152213830Y-150717084D01*
X152130894Y-150777340D01*
X152829766Y-151476212D01*
X152787708Y-151487482D01*
X152662292Y-151559890D01*
X152559890Y-151662292D01*
X152487482Y-151787708D01*
X152476212Y-151829765D01*
X151777340Y-151130894D01*
X151717084Y-151213830D01*
X151609897Y-151424197D01*
X151536934Y-151648752D01*
X151500000Y-151881947D01*
X148000000Y-151881947D01*
X147963065Y-151648752D01*
X147890102Y-151424197D01*
X147782914Y-151213828D01*
X147722658Y-151130894D01*
X147722658Y-151130893D01*
X147023787Y-151829765D01*
X147012518Y-151787708D01*
X146940110Y-151662292D01*
X146837708Y-151559890D01*
X146712292Y-151487482D01*
X146670234Y-151476212D01*
X147369105Y-150777340D01*
X147369104Y-150777339D01*
X147286174Y-150717087D01*
X147075802Y-150609897D01*
X146851247Y-150536934D01*
X146851248Y-150536934D01*
X146618052Y-150500000D01*
X146381948Y-150500000D01*
X146148752Y-150536934D01*
X145924197Y-150609897D01*
X145713830Y-150717084D01*
X145630894Y-150777340D01*
X146329766Y-151476212D01*
X146287708Y-151487482D01*
X146162292Y-151559890D01*
X146059890Y-151662292D01*
X145987482Y-151787708D01*
X145976212Y-151829766D01*
X145277340Y-151130894D01*
X145217084Y-151213830D01*
X145109897Y-151424197D01*
X145036934Y-151648752D01*
X145000000Y-151881947D01*
X110000500Y-151881947D01*
X110000500Y-149631947D01*
X122750000Y-149631947D01*
X122750000Y-149868052D01*
X122786934Y-150101247D01*
X122859897Y-150325802D01*
X122967087Y-150536174D01*
X123027338Y-150619104D01*
X123027340Y-150619105D01*
X123726212Y-149920233D01*
X123737482Y-149962292D01*
X123809890Y-150087708D01*
X123912292Y-150190110D01*
X124037708Y-150262518D01*
X124079765Y-150273787D01*
X123380893Y-150972658D01*
X123463828Y-151032914D01*
X123674197Y-151140102D01*
X123898752Y-151213065D01*
X123898751Y-151213065D01*
X124131948Y-151250000D01*
X124368052Y-151250000D01*
X124601247Y-151213065D01*
X124825802Y-151140102D01*
X125036163Y-151032918D01*
X125036169Y-151032914D01*
X125119104Y-150972658D01*
X125119105Y-150972658D01*
X124420233Y-150273787D01*
X124462292Y-150262518D01*
X124587708Y-150190110D01*
X124690110Y-150087708D01*
X124762518Y-149962292D01*
X124773787Y-149920233D01*
X125472658Y-150619105D01*
X125472658Y-150619104D01*
X125532914Y-150536169D01*
X125532918Y-150536163D01*
X125640102Y-150325802D01*
X125713065Y-150101247D01*
X125750000Y-149868052D01*
X125750000Y-149631947D01*
X129250000Y-149631947D01*
X129250000Y-149868052D01*
X129286934Y-150101247D01*
X129359897Y-150325802D01*
X129467087Y-150536174D01*
X129527338Y-150619104D01*
X129527340Y-150619105D01*
X130226212Y-149920233D01*
X130237482Y-149962292D01*
X130309890Y-150087708D01*
X130412292Y-150190110D01*
X130537708Y-150262518D01*
X130579765Y-150273787D01*
X129880893Y-150972658D01*
X129963828Y-151032914D01*
X130174197Y-151140102D01*
X130398752Y-151213065D01*
X130398751Y-151213065D01*
X130631948Y-151250000D01*
X130868052Y-151250000D01*
X131101247Y-151213065D01*
X131325802Y-151140102D01*
X131536163Y-151032918D01*
X131536169Y-151032914D01*
X131619104Y-150972658D01*
X131619105Y-150972658D01*
X131558727Y-150912280D01*
X130920233Y-150273787D01*
X130962292Y-150262518D01*
X131087708Y-150190110D01*
X131190110Y-150087708D01*
X131262518Y-149962292D01*
X131273787Y-149920234D01*
X131972658Y-150619105D01*
X131972658Y-150619104D01*
X132032914Y-150536169D01*
X132032918Y-150536163D01*
X132140102Y-150325802D01*
X132213065Y-150101247D01*
X132250000Y-149868052D01*
X132250000Y-149631947D01*
X132213065Y-149398752D01*
X132140102Y-149174197D01*
X132032914Y-148963828D01*
X131972658Y-148880894D01*
X131972658Y-148880893D01*
X131273787Y-149579765D01*
X131262518Y-149537708D01*
X131190110Y-149412292D01*
X131087708Y-149309890D01*
X130962292Y-149237482D01*
X130920234Y-149226212D01*
X131619105Y-148527340D01*
X131619104Y-148527338D01*
X131536174Y-148467087D01*
X131325802Y-148359897D01*
X131101247Y-148286934D01*
X131101248Y-148286934D01*
X130868052Y-148250000D01*
X130631948Y-148250000D01*
X130398752Y-148286934D01*
X130174197Y-148359897D01*
X129963830Y-148467084D01*
X129880894Y-148527340D01*
X130579766Y-149226212D01*
X130537708Y-149237482D01*
X130412292Y-149309890D01*
X130309890Y-149412292D01*
X130237482Y-149537708D01*
X130226212Y-149579766D01*
X129527340Y-148880894D01*
X129467084Y-148963830D01*
X129359897Y-149174197D01*
X129286934Y-149398752D01*
X129250000Y-149631947D01*
X125750000Y-149631947D01*
X125713065Y-149398752D01*
X125640102Y-149174197D01*
X125532914Y-148963828D01*
X125472658Y-148880894D01*
X125472658Y-148880893D01*
X124773787Y-149579765D01*
X124762518Y-149537708D01*
X124690110Y-149412292D01*
X124587708Y-149309890D01*
X124462292Y-149237482D01*
X124420234Y-149226212D01*
X125119105Y-148527340D01*
X125119104Y-148527339D01*
X125036174Y-148467087D01*
X124825802Y-148359897D01*
X124601247Y-148286934D01*
X124601248Y-148286934D01*
X124368052Y-148250000D01*
X124131948Y-148250000D01*
X123898752Y-148286934D01*
X123674197Y-148359897D01*
X123463830Y-148467084D01*
X123380894Y-148527340D01*
X124079766Y-149226212D01*
X124037708Y-149237482D01*
X123912292Y-149309890D01*
X123809890Y-149412292D01*
X123737482Y-149537708D01*
X123726212Y-149579766D01*
X123027340Y-148880894D01*
X122967084Y-148963830D01*
X122859897Y-149174197D01*
X122786934Y-149398752D01*
X122750000Y-149631947D01*
X110000500Y-149631947D01*
X110000500Y-147381902D01*
X144999500Y-147381902D01*
X144999500Y-147618097D01*
X145036446Y-147851368D01*
X145109433Y-148075996D01*
X145198093Y-148250000D01*
X145216657Y-148286433D01*
X145355483Y-148477510D01*
X145522490Y-148644517D01*
X145713567Y-148783343D01*
X145812991Y-148834002D01*
X145924003Y-148890566D01*
X145924005Y-148890566D01*
X145924008Y-148890568D01*
X146044412Y-148929689D01*
X146148631Y-148963553D01*
X146381903Y-149000500D01*
X146381908Y-149000500D01*
X146618097Y-149000500D01*
X146851368Y-148963553D01*
X147075992Y-148890568D01*
X147286433Y-148783343D01*
X147477510Y-148644517D01*
X147644517Y-148477510D01*
X147783343Y-148286433D01*
X147890568Y-148075992D01*
X147963553Y-147851368D01*
X148000500Y-147618097D01*
X148000500Y-147381902D01*
X151499500Y-147381902D01*
X151499500Y-147618097D01*
X151536446Y-147851368D01*
X151609433Y-148075996D01*
X151698093Y-148250000D01*
X151716657Y-148286433D01*
X151855483Y-148477510D01*
X152022490Y-148644517D01*
X152213567Y-148783343D01*
X152312991Y-148834002D01*
X152424003Y-148890566D01*
X152424005Y-148890566D01*
X152424008Y-148890568D01*
X152544412Y-148929689D01*
X152648631Y-148963553D01*
X152881903Y-149000500D01*
X152881908Y-149000500D01*
X153118097Y-149000500D01*
X153351368Y-148963553D01*
X153575992Y-148890568D01*
X153786433Y-148783343D01*
X153977510Y-148644517D01*
X154144517Y-148477510D01*
X154283343Y-148286433D01*
X154389515Y-148078057D01*
X154437489Y-148027262D01*
X154505310Y-148010467D01*
X154571445Y-148033004D01*
X154610484Y-148078057D01*
X154716657Y-148286433D01*
X154855483Y-148477510D01*
X155022490Y-148644517D01*
X155213567Y-148783343D01*
X155312991Y-148834002D01*
X155424003Y-148890566D01*
X155424005Y-148890566D01*
X155424008Y-148890568D01*
X155544412Y-148929689D01*
X155648631Y-148963553D01*
X155881903Y-149000500D01*
X155881908Y-149000500D01*
X156118097Y-149000500D01*
X156351368Y-148963553D01*
X156575992Y-148890568D01*
X156786433Y-148783343D01*
X156977510Y-148644517D01*
X157144517Y-148477510D01*
X157283343Y-148286433D01*
X157390568Y-148075992D01*
X157463553Y-147851368D01*
X157500500Y-147618097D01*
X157500500Y-147381902D01*
X160999500Y-147381902D01*
X160999500Y-147618097D01*
X161036446Y-147851368D01*
X161109433Y-148075996D01*
X161198093Y-148250000D01*
X161216657Y-148286433D01*
X161355483Y-148477510D01*
X161522490Y-148644517D01*
X161713567Y-148783343D01*
X161812991Y-148834002D01*
X161924003Y-148890566D01*
X161924005Y-148890566D01*
X161924008Y-148890568D01*
X162044412Y-148929689D01*
X162148631Y-148963553D01*
X162381903Y-149000500D01*
X162381908Y-149000500D01*
X162618097Y-149000500D01*
X162851368Y-148963553D01*
X163075992Y-148890568D01*
X163286433Y-148783343D01*
X163477510Y-148644517D01*
X163644517Y-148477510D01*
X163783343Y-148286433D01*
X163890568Y-148075992D01*
X163963553Y-147851368D01*
X164000500Y-147618097D01*
X164000500Y-147381902D01*
X163963553Y-147148631D01*
X163890566Y-146924003D01*
X163783342Y-146713566D01*
X163783333Y-146713553D01*
X163644517Y-146522490D01*
X163477510Y-146355483D01*
X163286433Y-146216657D01*
X163286429Y-146216655D01*
X163075996Y-146109433D01*
X162851368Y-146036446D01*
X162618097Y-145999500D01*
X162618092Y-145999500D01*
X162381908Y-145999500D01*
X162381903Y-145999500D01*
X162148631Y-146036446D01*
X161924003Y-146109433D01*
X161713566Y-146216657D01*
X161698626Y-146227512D01*
X161522490Y-146355483D01*
X161522488Y-146355485D01*
X161522487Y-146355485D01*
X161355485Y-146522487D01*
X161355485Y-146522488D01*
X161355483Y-146522490D01*
X161347599Y-146533342D01*
X161216657Y-146713566D01*
X161109433Y-146924003D01*
X161036446Y-147148631D01*
X160999500Y-147381902D01*
X157500500Y-147381902D01*
X157463553Y-147148631D01*
X157390566Y-146924003D01*
X157283342Y-146713566D01*
X157283333Y-146713553D01*
X157144517Y-146522490D01*
X156977510Y-146355483D01*
X156786433Y-146216657D01*
X156786429Y-146216655D01*
X156575996Y-146109433D01*
X156351368Y-146036446D01*
X156118097Y-145999500D01*
X156118092Y-145999500D01*
X155881908Y-145999500D01*
X155881903Y-145999500D01*
X155648631Y-146036446D01*
X155424003Y-146109433D01*
X155213566Y-146216657D01*
X155198626Y-146227512D01*
X155022490Y-146355483D01*
X155022488Y-146355485D01*
X155022487Y-146355485D01*
X154855485Y-146522487D01*
X154855485Y-146522488D01*
X154855483Y-146522490D01*
X154847599Y-146533342D01*
X154716657Y-146713566D01*
X154610485Y-146921941D01*
X154562510Y-146972737D01*
X154494689Y-146989532D01*
X154428554Y-146966995D01*
X154389515Y-146921941D01*
X154283342Y-146713566D01*
X154283333Y-146713553D01*
X154144517Y-146522490D01*
X153977510Y-146355483D01*
X153801374Y-146227512D01*
X153786431Y-146216655D01*
X153668204Y-146156415D01*
X153617409Y-146108441D01*
X153600500Y-146045931D01*
X153600500Y-144332940D01*
X153620185Y-144265901D01*
X153636820Y-144245258D01*
X153671051Y-144211027D01*
X153671054Y-144211024D01*
X153758659Y-144079914D01*
X153819002Y-143934232D01*
X153849765Y-143779577D01*
X153849765Y-143621893D01*
X153849765Y-143621890D01*
X153849764Y-143621888D01*
X153819002Y-143467238D01*
X153819000Y-143467233D01*
X153758662Y-143321562D01*
X153758655Y-143321549D01*
X153671054Y-143190446D01*
X153671051Y-143190442D01*
X153559557Y-143078948D01*
X153559553Y-143078945D01*
X153428450Y-142991344D01*
X153428437Y-142991337D01*
X153282766Y-142930999D01*
X153282754Y-142930996D01*
X153128110Y-142900235D01*
X153128107Y-142900235D01*
X152970423Y-142900235D01*
X152970420Y-142900235D01*
X152815775Y-142930996D01*
X152815763Y-142930999D01*
X152670092Y-142991337D01*
X152670079Y-142991344D01*
X152538976Y-143078945D01*
X152538972Y-143078948D01*
X152427478Y-143190442D01*
X152427475Y-143190446D01*
X152339874Y-143321549D01*
X152339867Y-143321562D01*
X152279529Y-143467233D01*
X152279526Y-143467245D01*
X152248765Y-143621888D01*
X152248765Y-143779581D01*
X152279526Y-143934224D01*
X152279529Y-143934236D01*
X152339867Y-144079907D01*
X152339871Y-144079914D01*
X152378602Y-144137879D01*
X152399480Y-144204556D01*
X152399500Y-144206770D01*
X152399500Y-146045931D01*
X152379815Y-146112970D01*
X152331796Y-146156415D01*
X152213568Y-146216655D01*
X152079896Y-146313774D01*
X152022490Y-146355483D01*
X152022488Y-146355485D01*
X152022487Y-146355485D01*
X151855485Y-146522487D01*
X151855485Y-146522488D01*
X151855483Y-146522490D01*
X151847599Y-146533342D01*
X151716657Y-146713566D01*
X151609433Y-146924003D01*
X151536446Y-147148631D01*
X151499500Y-147381902D01*
X148000500Y-147381902D01*
X147963553Y-147148631D01*
X147890566Y-146924003D01*
X147783342Y-146713566D01*
X147783333Y-146713553D01*
X147644517Y-146522490D01*
X147477510Y-146355483D01*
X147286433Y-146216657D01*
X147286429Y-146216655D01*
X147075996Y-146109433D01*
X146851368Y-146036446D01*
X146618097Y-145999500D01*
X146618092Y-145999500D01*
X146381908Y-145999500D01*
X146381903Y-145999500D01*
X146148631Y-146036446D01*
X145924003Y-146109433D01*
X145713566Y-146216657D01*
X145698626Y-146227512D01*
X145522490Y-146355483D01*
X145522488Y-146355485D01*
X145522487Y-146355485D01*
X145355485Y-146522487D01*
X145355485Y-146522488D01*
X145355483Y-146522490D01*
X145347599Y-146533342D01*
X145216657Y-146713566D01*
X145109433Y-146924003D01*
X145036446Y-147148631D01*
X144999500Y-147381902D01*
X110000500Y-147381902D01*
X110000500Y-145131902D01*
X122749500Y-145131902D01*
X122749500Y-145368097D01*
X122786446Y-145601368D01*
X122859433Y-145825996D01*
X122947839Y-145999500D01*
X122966657Y-146036433D01*
X123105483Y-146227510D01*
X123272490Y-146394517D01*
X123463567Y-146533343D01*
X123562991Y-146584002D01*
X123674003Y-146640566D01*
X123674005Y-146640566D01*
X123674008Y-146640568D01*
X123794412Y-146679689D01*
X123898631Y-146713553D01*
X124131903Y-146750500D01*
X124131908Y-146750500D01*
X124368097Y-146750500D01*
X124601368Y-146713553D01*
X124825992Y-146640568D01*
X125036433Y-146533343D01*
X125227510Y-146394517D01*
X125394517Y-146227510D01*
X125533343Y-146036433D01*
X125640568Y-145825992D01*
X125713553Y-145601368D01*
X125750500Y-145368097D01*
X125750500Y-145131902D01*
X125713553Y-144898631D01*
X125640566Y-144674003D01*
X125533342Y-144463566D01*
X125394517Y-144272490D01*
X125227510Y-144105483D01*
X125036433Y-143966657D01*
X124825996Y-143859433D01*
X124601368Y-143786446D01*
X124368097Y-143749500D01*
X124368092Y-143749500D01*
X124131908Y-143749500D01*
X124131903Y-143749500D01*
X123898631Y-143786446D01*
X123674003Y-143859433D01*
X123463566Y-143966657D01*
X123354550Y-144045862D01*
X123272490Y-144105483D01*
X123272488Y-144105485D01*
X123272487Y-144105485D01*
X123105485Y-144272487D01*
X123105485Y-144272488D01*
X123105483Y-144272490D01*
X123045862Y-144354550D01*
X122966657Y-144463566D01*
X122859433Y-144674003D01*
X122786446Y-144898631D01*
X122749500Y-145131902D01*
X110000500Y-145131902D01*
X110000500Y-142131947D01*
X113250000Y-142131947D01*
X113250000Y-142368052D01*
X113286934Y-142601247D01*
X113359897Y-142825802D01*
X113467087Y-143036174D01*
X113527338Y-143119104D01*
X113527340Y-143119105D01*
X114226212Y-142420233D01*
X114237482Y-142462292D01*
X114309890Y-142587708D01*
X114412292Y-142690110D01*
X114537708Y-142762518D01*
X114579765Y-142773787D01*
X113880893Y-143472658D01*
X113963828Y-143532914D01*
X114174197Y-143640102D01*
X114398752Y-143713065D01*
X114398751Y-143713065D01*
X114631948Y-143750000D01*
X114868052Y-143750000D01*
X115101247Y-143713065D01*
X115325802Y-143640102D01*
X115536163Y-143532918D01*
X115536169Y-143532914D01*
X115619104Y-143472658D01*
X115619105Y-143472658D01*
X114920233Y-142773787D01*
X114962292Y-142762518D01*
X115087708Y-142690110D01*
X115190110Y-142587708D01*
X115262518Y-142462292D01*
X115273787Y-142420234D01*
X115972658Y-143119105D01*
X115972658Y-143119104D01*
X116032914Y-143036169D01*
X116032918Y-143036163D01*
X116140102Y-142825802D01*
X116213065Y-142601247D01*
X116250000Y-142368052D01*
X116250000Y-142131947D01*
X119750000Y-142131947D01*
X119750000Y-142368052D01*
X119786934Y-142601247D01*
X119859897Y-142825802D01*
X119967087Y-143036174D01*
X120027338Y-143119104D01*
X120027340Y-143119105D01*
X120726212Y-142420233D01*
X120737482Y-142462292D01*
X120809890Y-142587708D01*
X120912292Y-142690110D01*
X121037708Y-142762518D01*
X121079765Y-142773787D01*
X120380893Y-143472658D01*
X120463828Y-143532914D01*
X120674197Y-143640102D01*
X120898752Y-143713065D01*
X120898751Y-143713065D01*
X121131948Y-143750000D01*
X121368052Y-143750000D01*
X121601247Y-143713065D01*
X121825802Y-143640102D01*
X122036163Y-143532918D01*
X122036169Y-143532914D01*
X122119104Y-143472658D01*
X122119105Y-143472658D01*
X121420233Y-142773787D01*
X121462292Y-142762518D01*
X121587708Y-142690110D01*
X121690110Y-142587708D01*
X121762518Y-142462292D01*
X121773787Y-142420234D01*
X122472658Y-143119105D01*
X122472658Y-143119104D01*
X122532914Y-143036169D01*
X122532918Y-143036163D01*
X122640102Y-142825802D01*
X122713065Y-142601247D01*
X122750000Y-142368052D01*
X122750000Y-142131947D01*
X132250000Y-142131947D01*
X132250000Y-142368052D01*
X132286934Y-142601247D01*
X132359897Y-142825802D01*
X132467087Y-143036174D01*
X132527338Y-143119104D01*
X132527340Y-143119105D01*
X133226212Y-142420233D01*
X133237482Y-142462292D01*
X133309890Y-142587708D01*
X133412292Y-142690110D01*
X133537708Y-142762518D01*
X133579765Y-142773787D01*
X132880893Y-143472658D01*
X132963828Y-143532914D01*
X133174197Y-143640102D01*
X133398752Y-143713065D01*
X133398751Y-143713065D01*
X133631948Y-143750000D01*
X133868052Y-143750000D01*
X134101247Y-143713065D01*
X134325802Y-143640102D01*
X134536163Y-143532918D01*
X134536169Y-143532914D01*
X134619104Y-143472658D01*
X134619105Y-143472658D01*
X133920233Y-142773787D01*
X133962292Y-142762518D01*
X134087708Y-142690110D01*
X134190110Y-142587708D01*
X134262518Y-142462292D01*
X134273787Y-142420234D01*
X134972658Y-143119105D01*
X134972658Y-143119104D01*
X135032914Y-143036169D01*
X135032918Y-143036163D01*
X135140102Y-142825802D01*
X135213065Y-142601247D01*
X135250000Y-142368052D01*
X135250000Y-142131947D01*
X135213065Y-141898752D01*
X135140102Y-141674197D01*
X135032914Y-141463828D01*
X134972658Y-141380894D01*
X134972658Y-141380893D01*
X134273787Y-142079765D01*
X134262518Y-142037708D01*
X134190110Y-141912292D01*
X134087708Y-141809890D01*
X133962292Y-141737482D01*
X133920234Y-141726212D01*
X134619105Y-141027340D01*
X134619104Y-141027338D01*
X134536174Y-140967087D01*
X134325802Y-140859897D01*
X134101247Y-140786934D01*
X134101248Y-140786934D01*
X133868052Y-140750000D01*
X133631948Y-140750000D01*
X133398752Y-140786934D01*
X133174197Y-140859897D01*
X132963830Y-140967084D01*
X132880894Y-141027340D01*
X133579766Y-141726212D01*
X133537708Y-141737482D01*
X133412292Y-141809890D01*
X133309890Y-141912292D01*
X133237482Y-142037708D01*
X133226212Y-142079766D01*
X132527340Y-141380894D01*
X132467084Y-141463830D01*
X132359897Y-141674197D01*
X132286934Y-141898752D01*
X132250000Y-142131947D01*
X122750000Y-142131947D01*
X122713065Y-141898752D01*
X122640102Y-141674197D01*
X122532914Y-141463828D01*
X122472658Y-141380894D01*
X122472658Y-141380893D01*
X121773787Y-142079765D01*
X121762518Y-142037708D01*
X121690110Y-141912292D01*
X121587708Y-141809890D01*
X121462292Y-141737482D01*
X121420234Y-141726212D01*
X122119105Y-141027340D01*
X122119104Y-141027339D01*
X122036174Y-140967087D01*
X121825802Y-140859897D01*
X121601247Y-140786934D01*
X121601248Y-140786934D01*
X121368052Y-140750000D01*
X121131948Y-140750000D01*
X120898752Y-140786934D01*
X120674197Y-140859897D01*
X120463830Y-140967084D01*
X120380894Y-141027340D01*
X121079766Y-141726212D01*
X121037708Y-141737482D01*
X120912292Y-141809890D01*
X120809890Y-141912292D01*
X120737482Y-142037708D01*
X120726212Y-142079766D01*
X120027340Y-141380894D01*
X119967084Y-141463830D01*
X119859897Y-141674197D01*
X119786934Y-141898752D01*
X119750000Y-142131947D01*
X116250000Y-142131947D01*
X116213065Y-141898752D01*
X116140102Y-141674197D01*
X116032914Y-141463828D01*
X115972658Y-141380894D01*
X115972658Y-141380893D01*
X115273787Y-142079765D01*
X115262518Y-142037708D01*
X115190110Y-141912292D01*
X115087708Y-141809890D01*
X114962292Y-141737482D01*
X114920234Y-141726212D01*
X115619105Y-141027340D01*
X115619104Y-141027339D01*
X115536174Y-140967087D01*
X115325802Y-140859897D01*
X115101247Y-140786934D01*
X115101248Y-140786934D01*
X114868052Y-140750000D01*
X114631948Y-140750000D01*
X114398752Y-140786934D01*
X114174197Y-140859897D01*
X113963830Y-140967084D01*
X113880894Y-141027340D01*
X114579766Y-141726212D01*
X114537708Y-141737482D01*
X114412292Y-141809890D01*
X114309890Y-141912292D01*
X114237482Y-142037708D01*
X114226212Y-142079766D01*
X113527340Y-141380894D01*
X113467084Y-141463830D01*
X113359897Y-141674197D01*
X113286934Y-141898752D01*
X113250000Y-142131947D01*
X110000500Y-142131947D01*
X110000500Y-137631902D01*
X113249500Y-137631902D01*
X113249500Y-137868097D01*
X113286446Y-138101368D01*
X113359433Y-138325996D01*
X113466657Y-138536433D01*
X113605483Y-138727510D01*
X113772490Y-138894517D01*
X113963567Y-139033343D01*
X114062991Y-139084002D01*
X114174003Y-139140566D01*
X114174005Y-139140566D01*
X114174008Y-139140568D01*
X114294412Y-139179689D01*
X114398631Y-139213553D01*
X114631903Y-139250500D01*
X114631908Y-139250500D01*
X114868097Y-139250500D01*
X115101368Y-139213553D01*
X115325992Y-139140568D01*
X115536433Y-139033343D01*
X115727510Y-138894517D01*
X115894517Y-138727510D01*
X116033343Y-138536433D01*
X116140568Y-138325992D01*
X116213553Y-138101368D01*
X116250500Y-137868097D01*
X116250500Y-137631902D01*
X119749500Y-137631902D01*
X119749500Y-137868097D01*
X119786446Y-138101368D01*
X119859433Y-138325996D01*
X119966657Y-138536433D01*
X120105483Y-138727510D01*
X120272490Y-138894517D01*
X120463567Y-139033343D01*
X120562991Y-139084002D01*
X120674003Y-139140566D01*
X120674005Y-139140566D01*
X120674008Y-139140568D01*
X120794412Y-139179689D01*
X120898631Y-139213553D01*
X121131903Y-139250500D01*
X121131908Y-139250500D01*
X121368097Y-139250500D01*
X121601368Y-139213553D01*
X121825992Y-139140568D01*
X122036433Y-139033343D01*
X122227510Y-138894517D01*
X122394517Y-138727510D01*
X122533343Y-138536433D01*
X122640568Y-138325992D01*
X122713553Y-138101368D01*
X122750500Y-137868097D01*
X122750500Y-137631902D01*
X122730347Y-137504666D01*
X122713553Y-137398632D01*
X122672547Y-137272432D01*
X122670553Y-137202595D01*
X122702799Y-137146435D01*
X122726246Y-137122989D01*
X122762420Y-137086817D01*
X122823744Y-137053333D01*
X122850099Y-137050500D01*
X132228891Y-137050500D01*
X132295930Y-137070185D01*
X132341685Y-137122989D01*
X132351629Y-137192147D01*
X132346822Y-137212819D01*
X132286446Y-137398631D01*
X132249500Y-137631902D01*
X132249500Y-137868097D01*
X132286446Y-138101368D01*
X132359433Y-138325996D01*
X132466657Y-138536433D01*
X132605483Y-138727510D01*
X132772490Y-138894517D01*
X132963567Y-139033343D01*
X133062991Y-139084002D01*
X133174003Y-139140566D01*
X133174005Y-139140566D01*
X133174008Y-139140568D01*
X133294412Y-139179689D01*
X133398631Y-139213553D01*
X133631903Y-139250500D01*
X133631908Y-139250500D01*
X133868097Y-139250500D01*
X134101368Y-139213553D01*
X134325992Y-139140568D01*
X134536433Y-139033343D01*
X134727510Y-138894517D01*
X134894517Y-138727510D01*
X135033343Y-138536433D01*
X135140568Y-138325992D01*
X135213553Y-138101368D01*
X135250500Y-137868097D01*
X135250500Y-137631902D01*
X135213553Y-137398631D01*
X135153178Y-137212819D01*
X135151183Y-137142978D01*
X135187263Y-137083145D01*
X135249964Y-137052316D01*
X135271109Y-137050500D01*
X138728891Y-137050500D01*
X138795930Y-137070185D01*
X138841685Y-137122989D01*
X138851629Y-137192147D01*
X138846822Y-137212819D01*
X138786446Y-137398631D01*
X138749500Y-137631902D01*
X138749500Y-137868097D01*
X138786446Y-138101368D01*
X138859433Y-138325996D01*
X138966657Y-138536433D01*
X139105483Y-138727510D01*
X139272490Y-138894517D01*
X139463567Y-139033343D01*
X139674008Y-139140568D01*
X139735304Y-139160484D01*
X139792980Y-139199922D01*
X139820178Y-139264280D01*
X139808263Y-139333126D01*
X139784667Y-139366096D01*
X134537584Y-144613181D01*
X134476261Y-144646666D01*
X134449903Y-144649500D01*
X132204068Y-144649500D01*
X132137029Y-144629815D01*
X132093583Y-144581795D01*
X132033342Y-144463566D01*
X131894517Y-144272490D01*
X131727510Y-144105483D01*
X131536433Y-143966657D01*
X131325996Y-143859433D01*
X131101368Y-143786446D01*
X130868097Y-143749500D01*
X130868092Y-143749500D01*
X130631908Y-143749500D01*
X130631903Y-143749500D01*
X130398631Y-143786446D01*
X130174003Y-143859433D01*
X129963566Y-143966657D01*
X129854550Y-144045862D01*
X129772490Y-144105483D01*
X129772488Y-144105485D01*
X129772487Y-144105485D01*
X129605485Y-144272487D01*
X129605485Y-144272488D01*
X129605483Y-144272490D01*
X129545862Y-144354550D01*
X129466657Y-144463566D01*
X129359433Y-144674003D01*
X129286446Y-144898631D01*
X129249500Y-145131902D01*
X129249500Y-145368097D01*
X129286446Y-145601368D01*
X129359433Y-145825996D01*
X129447839Y-145999500D01*
X129466657Y-146036433D01*
X129605483Y-146227510D01*
X129772490Y-146394517D01*
X129963567Y-146533343D01*
X130062991Y-146584002D01*
X130174003Y-146640566D01*
X130174005Y-146640566D01*
X130174008Y-146640568D01*
X130294412Y-146679689D01*
X130398631Y-146713553D01*
X130631903Y-146750500D01*
X130631908Y-146750500D01*
X130868097Y-146750500D01*
X131101368Y-146713553D01*
X131325992Y-146640568D01*
X131536433Y-146533343D01*
X131727510Y-146394517D01*
X131894517Y-146227510D01*
X132033343Y-146036433D01*
X132093583Y-145918204D01*
X132141558Y-145867409D01*
X132204068Y-145850500D01*
X134663331Y-145850500D01*
X134663347Y-145850501D01*
X134670943Y-145850501D01*
X134829054Y-145850501D01*
X134829057Y-145850501D01*
X134981785Y-145809577D01*
X135031904Y-145780639D01*
X135118716Y-145730520D01*
X135230520Y-145618716D01*
X135230520Y-145618714D01*
X135240728Y-145608507D01*
X135240730Y-145608504D01*
X138541163Y-142308070D01*
X138602484Y-142274587D01*
X138672176Y-142279571D01*
X138728109Y-142321443D01*
X138751315Y-142376355D01*
X138786934Y-142601247D01*
X138859897Y-142825802D01*
X138967087Y-143036174D01*
X139027338Y-143119104D01*
X139027340Y-143119105D01*
X139726212Y-142420233D01*
X139737482Y-142462292D01*
X139809890Y-142587708D01*
X139912292Y-142690110D01*
X140037708Y-142762518D01*
X140079765Y-142773787D01*
X139380893Y-143472658D01*
X139463828Y-143532914D01*
X139674197Y-143640102D01*
X139898752Y-143713065D01*
X139898751Y-143713065D01*
X140131948Y-143750000D01*
X140368052Y-143750000D01*
X140601247Y-143713065D01*
X140825802Y-143640102D01*
X141036163Y-143532918D01*
X141036169Y-143532914D01*
X141119104Y-143472658D01*
X141119105Y-143472658D01*
X140420233Y-142773787D01*
X140462292Y-142762518D01*
X140587708Y-142690110D01*
X140690110Y-142587708D01*
X140762518Y-142462292D01*
X140773787Y-142420234D01*
X141472658Y-143119105D01*
X141472658Y-143119104D01*
X141532914Y-143036169D01*
X141532918Y-143036163D01*
X141640102Y-142825802D01*
X141713065Y-142601247D01*
X141750000Y-142368052D01*
X141750000Y-142131947D01*
X141713065Y-141898752D01*
X141640102Y-141674197D01*
X141532914Y-141463828D01*
X141472658Y-141380894D01*
X141472658Y-141380893D01*
X140773787Y-142079765D01*
X140762518Y-142037708D01*
X140690110Y-141912292D01*
X140587708Y-141809890D01*
X140462292Y-141737482D01*
X140420233Y-141726212D01*
X141119105Y-141027340D01*
X141119104Y-141027338D01*
X141036174Y-140967087D01*
X140825802Y-140859897D01*
X140601247Y-140786934D01*
X140601248Y-140786934D01*
X140376355Y-140751315D01*
X140313220Y-140721386D01*
X140276289Y-140662074D01*
X140277287Y-140592212D01*
X140308070Y-140541163D01*
X142151556Y-138697678D01*
X142151559Y-138697677D01*
X142263363Y-138585873D01*
X142313482Y-138499061D01*
X142342420Y-138448942D01*
X142383344Y-138296214D01*
X142383344Y-138138100D01*
X142383344Y-138130505D01*
X142383343Y-138130487D01*
X142383343Y-137082939D01*
X142403028Y-137015900D01*
X142419657Y-136995263D01*
X147032972Y-132381947D01*
X156000000Y-132381947D01*
X156000000Y-132618052D01*
X156036934Y-132851247D01*
X156109897Y-133075802D01*
X156217087Y-133286174D01*
X156277338Y-133369104D01*
X156277340Y-133369105D01*
X156976212Y-132670233D01*
X156987482Y-132712292D01*
X157059890Y-132837708D01*
X157162292Y-132940110D01*
X157287708Y-133012518D01*
X157329765Y-133023787D01*
X156630893Y-133722658D01*
X156713828Y-133782914D01*
X156924197Y-133890102D01*
X157148752Y-133963065D01*
X157148751Y-133963065D01*
X157381948Y-134000000D01*
X157618052Y-134000000D01*
X157851247Y-133963065D01*
X158075802Y-133890102D01*
X158286163Y-133782918D01*
X158286169Y-133782914D01*
X158369104Y-133722658D01*
X158369105Y-133722658D01*
X157670233Y-133023787D01*
X157712292Y-133012518D01*
X157837708Y-132940110D01*
X157940110Y-132837708D01*
X158012518Y-132712292D01*
X158023787Y-132670234D01*
X158722658Y-133369105D01*
X158722658Y-133369104D01*
X158782914Y-133286169D01*
X158782918Y-133286163D01*
X158890102Y-133075802D01*
X158963065Y-132851247D01*
X159000000Y-132618052D01*
X159000000Y-132381947D01*
X162500000Y-132381947D01*
X162500000Y-132618052D01*
X162536934Y-132851247D01*
X162609897Y-133075802D01*
X162717087Y-133286174D01*
X162777338Y-133369104D01*
X162777340Y-133369105D01*
X163476212Y-132670233D01*
X163487482Y-132712292D01*
X163559890Y-132837708D01*
X163662292Y-132940110D01*
X163787708Y-133012518D01*
X163829765Y-133023787D01*
X163130893Y-133722658D01*
X163213828Y-133782914D01*
X163424197Y-133890102D01*
X163648752Y-133963065D01*
X163648751Y-133963065D01*
X163881948Y-134000000D01*
X164118052Y-134000000D01*
X164351247Y-133963065D01*
X164575802Y-133890102D01*
X164786163Y-133782918D01*
X164786169Y-133782914D01*
X164869104Y-133722658D01*
X164869105Y-133722658D01*
X164170233Y-133023787D01*
X164212292Y-133012518D01*
X164337708Y-132940110D01*
X164440110Y-132837708D01*
X164512518Y-132712292D01*
X164523787Y-132670234D01*
X165222658Y-133369105D01*
X165222658Y-133369104D01*
X165282914Y-133286169D01*
X165282918Y-133286163D01*
X165390102Y-133075802D01*
X165463065Y-132851247D01*
X165500000Y-132618052D01*
X165500000Y-132381947D01*
X165463065Y-132148752D01*
X165390102Y-131924197D01*
X165282914Y-131713828D01*
X165222658Y-131630894D01*
X165222658Y-131630893D01*
X164523787Y-132329765D01*
X164512518Y-132287708D01*
X164440110Y-132162292D01*
X164337708Y-132059890D01*
X164212292Y-131987482D01*
X164170234Y-131976212D01*
X164869105Y-131277340D01*
X164869104Y-131277338D01*
X164786174Y-131217087D01*
X164575802Y-131109897D01*
X164351247Y-131036934D01*
X164351248Y-131036934D01*
X164118052Y-131000000D01*
X163881948Y-131000000D01*
X163648752Y-131036934D01*
X163424197Y-131109897D01*
X163213830Y-131217084D01*
X163130894Y-131277340D01*
X163829766Y-131976212D01*
X163787708Y-131987482D01*
X163662292Y-132059890D01*
X163559890Y-132162292D01*
X163487482Y-132287708D01*
X163476212Y-132329765D01*
X162777340Y-131630894D01*
X162717084Y-131713830D01*
X162609897Y-131924197D01*
X162536934Y-132148752D01*
X162500000Y-132381947D01*
X159000000Y-132381947D01*
X158963065Y-132148752D01*
X158890102Y-131924197D01*
X158782914Y-131713828D01*
X158722658Y-131630894D01*
X158722658Y-131630893D01*
X158023787Y-132329765D01*
X158012518Y-132287708D01*
X157940110Y-132162292D01*
X157837708Y-132059890D01*
X157712292Y-131987482D01*
X157670234Y-131976212D01*
X158369105Y-131277340D01*
X158369104Y-131277339D01*
X158286174Y-131217087D01*
X158075802Y-131109897D01*
X157851247Y-131036934D01*
X157851248Y-131036934D01*
X157618052Y-131000000D01*
X157381948Y-131000000D01*
X157148752Y-131036934D01*
X156924197Y-131109897D01*
X156713830Y-131217084D01*
X156630894Y-131277340D01*
X157329766Y-131976212D01*
X157287708Y-131987482D01*
X157162292Y-132059890D01*
X157059890Y-132162292D01*
X156987482Y-132287708D01*
X156976212Y-132329766D01*
X156277340Y-131630894D01*
X156217084Y-131713830D01*
X156109897Y-131924197D01*
X156036934Y-132148752D01*
X156000000Y-132381947D01*
X147032972Y-132381947D01*
X147158506Y-132256413D01*
X147158511Y-132256410D01*
X147168714Y-132246206D01*
X147168716Y-132246206D01*
X147280520Y-132134402D01*
X147359577Y-131997470D01*
X147400500Y-131844743D01*
X147400500Y-127881902D01*
X155999500Y-127881902D01*
X155999500Y-128118097D01*
X156036446Y-128351368D01*
X156109433Y-128575996D01*
X156197839Y-128749500D01*
X156216657Y-128786433D01*
X156355483Y-128977510D01*
X156522490Y-129144517D01*
X156713567Y-129283343D01*
X156812991Y-129334002D01*
X156924003Y-129390566D01*
X156924005Y-129390566D01*
X156924008Y-129390568D01*
X157044412Y-129429689D01*
X157148631Y-129463553D01*
X157381903Y-129500500D01*
X157381908Y-129500500D01*
X157618097Y-129500500D01*
X157851368Y-129463553D01*
X158075992Y-129390568D01*
X158286433Y-129283343D01*
X158477510Y-129144517D01*
X158644517Y-128977510D01*
X158783343Y-128786433D01*
X158890568Y-128575992D01*
X158963553Y-128351368D01*
X159000500Y-128118097D01*
X159000500Y-127881902D01*
X162499500Y-127881902D01*
X162499500Y-128118097D01*
X162536446Y-128351368D01*
X162609433Y-128575996D01*
X162697839Y-128749500D01*
X162716657Y-128786433D01*
X162855483Y-128977510D01*
X163022490Y-129144517D01*
X163213567Y-129283343D01*
X163312991Y-129334002D01*
X163424003Y-129390566D01*
X163424005Y-129390566D01*
X163424008Y-129390568D01*
X163544412Y-129429689D01*
X163648631Y-129463553D01*
X163881903Y-129500500D01*
X163881908Y-129500500D01*
X164118097Y-129500500D01*
X164351368Y-129463553D01*
X164575992Y-129390568D01*
X164786433Y-129283343D01*
X164977510Y-129144517D01*
X165144517Y-128977510D01*
X165283343Y-128786433D01*
X165390568Y-128575992D01*
X165463553Y-128351368D01*
X165500500Y-128118097D01*
X165500500Y-127881902D01*
X165463553Y-127648631D01*
X165390566Y-127424003D01*
X165283342Y-127213566D01*
X165144517Y-127022490D01*
X164977510Y-126855483D01*
X164786433Y-126716657D01*
X164575996Y-126609433D01*
X164351368Y-126536446D01*
X164118097Y-126499500D01*
X164118092Y-126499500D01*
X163881908Y-126499500D01*
X163881903Y-126499500D01*
X163648631Y-126536446D01*
X163424003Y-126609433D01*
X163213566Y-126716657D01*
X163104550Y-126795862D01*
X163022490Y-126855483D01*
X163022488Y-126855485D01*
X163022487Y-126855485D01*
X162855485Y-127022487D01*
X162855485Y-127022488D01*
X162855483Y-127022490D01*
X162795862Y-127104550D01*
X162716657Y-127213566D01*
X162609433Y-127424003D01*
X162536446Y-127648631D01*
X162499500Y-127881902D01*
X159000500Y-127881902D01*
X158963553Y-127648631D01*
X158890566Y-127424003D01*
X158783342Y-127213566D01*
X158644517Y-127022490D01*
X158477510Y-126855483D01*
X158286433Y-126716657D01*
X158075996Y-126609433D01*
X157851368Y-126536446D01*
X157618097Y-126499500D01*
X157618092Y-126499500D01*
X157381908Y-126499500D01*
X157381903Y-126499500D01*
X157148631Y-126536446D01*
X156924003Y-126609433D01*
X156713566Y-126716657D01*
X156604550Y-126795862D01*
X156522490Y-126855483D01*
X156522488Y-126855485D01*
X156522487Y-126855485D01*
X156355485Y-127022487D01*
X156355485Y-127022488D01*
X156355483Y-127022490D01*
X156295862Y-127104550D01*
X156216657Y-127213566D01*
X156109433Y-127424003D01*
X156036446Y-127648631D01*
X155999500Y-127881902D01*
X147400500Y-127881902D01*
X147400500Y-124881947D01*
X165500000Y-124881947D01*
X165500000Y-125118052D01*
X165536934Y-125351247D01*
X165609897Y-125575802D01*
X165717087Y-125786174D01*
X165777338Y-125869104D01*
X165777340Y-125869105D01*
X166476212Y-125170233D01*
X166487482Y-125212292D01*
X166559890Y-125337708D01*
X166662292Y-125440110D01*
X166787708Y-125512518D01*
X166829765Y-125523787D01*
X166130893Y-126222658D01*
X166213828Y-126282914D01*
X166424197Y-126390102D01*
X166648752Y-126463065D01*
X166648751Y-126463065D01*
X166881948Y-126500000D01*
X167118052Y-126500000D01*
X167351247Y-126463065D01*
X167575802Y-126390102D01*
X167786163Y-126282918D01*
X167786169Y-126282914D01*
X167869104Y-126222658D01*
X167869105Y-126222658D01*
X167170233Y-125523787D01*
X167212292Y-125512518D01*
X167337708Y-125440110D01*
X167440110Y-125337708D01*
X167512518Y-125212292D01*
X167523787Y-125170233D01*
X168222658Y-125869105D01*
X168222658Y-125869104D01*
X168282914Y-125786169D01*
X168282918Y-125786163D01*
X168390102Y-125575802D01*
X168463065Y-125351247D01*
X168500000Y-125118052D01*
X168500000Y-124881947D01*
X172000000Y-124881947D01*
X172000000Y-125118052D01*
X172036934Y-125351247D01*
X172109897Y-125575802D01*
X172217087Y-125786174D01*
X172277338Y-125869104D01*
X172277340Y-125869105D01*
X172976212Y-125170233D01*
X172987482Y-125212292D01*
X173059890Y-125337708D01*
X173162292Y-125440110D01*
X173287708Y-125512518D01*
X173329765Y-125523787D01*
X172630893Y-126222658D01*
X172713828Y-126282914D01*
X172924197Y-126390102D01*
X173148752Y-126463065D01*
X173148751Y-126463065D01*
X173381948Y-126500000D01*
X173618052Y-126500000D01*
X173851247Y-126463065D01*
X174075802Y-126390102D01*
X174286163Y-126282918D01*
X174286169Y-126282914D01*
X174369104Y-126222658D01*
X174369105Y-126222658D01*
X173670233Y-125523787D01*
X173712292Y-125512518D01*
X173837708Y-125440110D01*
X173940110Y-125337708D01*
X174012518Y-125212292D01*
X174023787Y-125170233D01*
X174722658Y-125869105D01*
X174722658Y-125869104D01*
X174782914Y-125786169D01*
X174782918Y-125786163D01*
X174890102Y-125575802D01*
X174963065Y-125351247D01*
X175000000Y-125118052D01*
X175000000Y-124881947D01*
X174963065Y-124648752D01*
X174890102Y-124424197D01*
X174782914Y-124213828D01*
X174722658Y-124130894D01*
X174722658Y-124130893D01*
X174023787Y-124829765D01*
X174012518Y-124787708D01*
X173940110Y-124662292D01*
X173837708Y-124559890D01*
X173712292Y-124487482D01*
X173670234Y-124476212D01*
X174369105Y-123777340D01*
X174369104Y-123777338D01*
X174286174Y-123717087D01*
X174075802Y-123609897D01*
X173851247Y-123536934D01*
X173851248Y-123536934D01*
X173618052Y-123500000D01*
X173381948Y-123500000D01*
X173148752Y-123536934D01*
X172924197Y-123609897D01*
X172713830Y-123717084D01*
X172630894Y-123777340D01*
X173329766Y-124476212D01*
X173287708Y-124487482D01*
X173162292Y-124559890D01*
X173059890Y-124662292D01*
X172987482Y-124787708D01*
X172976212Y-124829766D01*
X172277340Y-124130894D01*
X172217084Y-124213830D01*
X172109897Y-124424197D01*
X172036934Y-124648752D01*
X172000000Y-124881947D01*
X168500000Y-124881947D01*
X168463065Y-124648752D01*
X168390102Y-124424197D01*
X168282914Y-124213828D01*
X168222658Y-124130894D01*
X168222658Y-124130893D01*
X167523787Y-124829765D01*
X167512518Y-124787708D01*
X167440110Y-124662292D01*
X167337708Y-124559890D01*
X167212292Y-124487482D01*
X167170234Y-124476212D01*
X167869105Y-123777340D01*
X167869104Y-123777339D01*
X167786174Y-123717087D01*
X167575802Y-123609897D01*
X167351247Y-123536934D01*
X167351248Y-123536934D01*
X167118052Y-123500000D01*
X166881948Y-123500000D01*
X166648752Y-123536934D01*
X166424197Y-123609897D01*
X166213830Y-123717084D01*
X166130894Y-123777340D01*
X166829766Y-124476212D01*
X166787708Y-124487482D01*
X166662292Y-124559890D01*
X166559890Y-124662292D01*
X166487482Y-124787708D01*
X166476212Y-124829766D01*
X165777340Y-124130894D01*
X165717084Y-124213830D01*
X165609897Y-124424197D01*
X165536934Y-124648752D01*
X165500000Y-124881947D01*
X147400500Y-124881947D01*
X147400500Y-124465783D01*
X147420185Y-124398744D01*
X147436819Y-124378102D01*
X151433019Y-120381902D01*
X165499500Y-120381902D01*
X165499500Y-120618097D01*
X165536446Y-120851368D01*
X165609433Y-121075996D01*
X165716657Y-121286433D01*
X165855483Y-121477510D01*
X166022490Y-121644517D01*
X166213567Y-121783343D01*
X166312991Y-121834002D01*
X166424003Y-121890566D01*
X166424005Y-121890566D01*
X166424008Y-121890568D01*
X166544412Y-121929689D01*
X166648631Y-121963553D01*
X166881903Y-122000500D01*
X166881908Y-122000500D01*
X167118097Y-122000500D01*
X167351368Y-121963553D01*
X167575992Y-121890568D01*
X167786433Y-121783343D01*
X167977510Y-121644517D01*
X168144517Y-121477510D01*
X168283343Y-121286433D01*
X168390568Y-121075992D01*
X168463553Y-120851368D01*
X168500500Y-120618097D01*
X168500500Y-120381902D01*
X171999500Y-120381902D01*
X171999500Y-120618097D01*
X172036446Y-120851368D01*
X172109433Y-121075996D01*
X172216657Y-121286433D01*
X172355483Y-121477510D01*
X172522490Y-121644517D01*
X172713567Y-121783343D01*
X172812991Y-121834002D01*
X172924003Y-121890566D01*
X172924005Y-121890566D01*
X172924008Y-121890568D01*
X173044412Y-121929689D01*
X173148631Y-121963553D01*
X173381903Y-122000500D01*
X173381908Y-122000500D01*
X173618097Y-122000500D01*
X173851368Y-121963553D01*
X174075992Y-121890568D01*
X174286433Y-121783343D01*
X174477510Y-121644517D01*
X174644517Y-121477510D01*
X174783343Y-121286433D01*
X174890568Y-121075992D01*
X174963553Y-120851368D01*
X175000500Y-120618097D01*
X175000500Y-120381902D01*
X174963553Y-120148631D01*
X174890566Y-119924003D01*
X174783342Y-119713566D01*
X174644517Y-119522490D01*
X174477510Y-119355483D01*
X174286433Y-119216657D01*
X174075996Y-119109433D01*
X173851368Y-119036446D01*
X173618097Y-118999500D01*
X173618092Y-118999500D01*
X173381908Y-118999500D01*
X173381903Y-118999500D01*
X173148631Y-119036446D01*
X172924003Y-119109433D01*
X172713566Y-119216657D01*
X172604550Y-119295862D01*
X172522490Y-119355483D01*
X172522488Y-119355485D01*
X172522487Y-119355485D01*
X172355485Y-119522487D01*
X172355485Y-119522488D01*
X172355483Y-119522490D01*
X172295862Y-119604550D01*
X172216657Y-119713566D01*
X172109433Y-119924003D01*
X172036446Y-120148631D01*
X171999500Y-120381902D01*
X168500500Y-120381902D01*
X168463553Y-120148631D01*
X168390566Y-119924003D01*
X168283342Y-119713566D01*
X168144517Y-119522490D01*
X167977510Y-119355483D01*
X167786433Y-119216657D01*
X167575996Y-119109433D01*
X167351368Y-119036446D01*
X167118097Y-118999500D01*
X167118092Y-118999500D01*
X166881908Y-118999500D01*
X166881903Y-118999500D01*
X166648631Y-119036446D01*
X166424003Y-119109433D01*
X166213566Y-119216657D01*
X166104550Y-119295862D01*
X166022490Y-119355483D01*
X166022488Y-119355485D01*
X166022487Y-119355485D01*
X165855485Y-119522487D01*
X165855485Y-119522488D01*
X165855483Y-119522490D01*
X165795862Y-119604550D01*
X165716657Y-119713566D01*
X165609433Y-119924003D01*
X165536446Y-120148631D01*
X165499500Y-120381902D01*
X151433019Y-120381902D01*
X156078101Y-115736820D01*
X156139424Y-115703335D01*
X156165782Y-115700501D01*
X156227583Y-115700501D01*
X156227586Y-115700501D01*
X156380314Y-115659577D01*
X156430433Y-115630639D01*
X156517245Y-115580520D01*
X156629049Y-115468716D01*
X156629049Y-115468714D01*
X156639257Y-115458507D01*
X156639259Y-115458504D01*
X156868713Y-115229050D01*
X156868716Y-115229049D01*
X156980520Y-115117245D01*
X157030639Y-115030433D01*
X157059577Y-114980314D01*
X157100500Y-114827586D01*
X157100500Y-114747266D01*
X157120185Y-114680227D01*
X157136814Y-114659589D01*
X157258506Y-114537896D01*
X157258510Y-114537894D01*
X157268714Y-114527689D01*
X157268716Y-114527689D01*
X157380520Y-114415885D01*
X157459577Y-114278953D01*
X157500500Y-114126226D01*
X157500500Y-113574844D01*
X157500501Y-113574831D01*
X157500501Y-113406727D01*
X157469295Y-113290268D01*
X157459577Y-113254000D01*
X157436977Y-113214855D01*
X157380524Y-113117074D01*
X157380518Y-113117066D01*
X157166681Y-112903229D01*
X157133196Y-112841906D01*
X157132745Y-112839739D01*
X157113235Y-112741656D01*
X157101845Y-112684395D01*
X157090879Y-112657920D01*
X157041505Y-112538719D01*
X157041498Y-112538706D01*
X156953897Y-112407603D01*
X156953894Y-112407599D01*
X156888520Y-112342225D01*
X156855035Y-112280902D01*
X156854584Y-112230354D01*
X156867414Y-112165856D01*
X156867414Y-112008172D01*
X156867414Y-112008169D01*
X156867413Y-112008167D01*
X156836652Y-111853524D01*
X156836651Y-111853517D01*
X156783806Y-111725936D01*
X156776311Y-111707841D01*
X156776304Y-111707828D01*
X156688703Y-111576725D01*
X156688700Y-111576721D01*
X156577206Y-111465227D01*
X156577202Y-111465224D01*
X156446099Y-111377623D01*
X156446086Y-111377616D01*
X156367564Y-111345092D01*
X156313160Y-111301251D01*
X156291095Y-111234957D01*
X156293399Y-111206339D01*
X156323294Y-111056050D01*
X156323294Y-110898361D01*
X156323293Y-110898359D01*
X156292532Y-110743716D01*
X156292532Y-110743714D01*
X156292531Y-110743709D01*
X156292529Y-110743704D01*
X156232191Y-110598033D01*
X156232184Y-110598020D01*
X156144583Y-110466917D01*
X156144580Y-110466913D01*
X156033086Y-110355419D01*
X156033082Y-110355416D01*
X155901979Y-110267815D01*
X155901966Y-110267808D01*
X155756295Y-110207470D01*
X155756283Y-110207467D01*
X155601639Y-110176706D01*
X155601636Y-110176706D01*
X155443952Y-110176706D01*
X155443949Y-110176706D01*
X155289304Y-110207467D01*
X155289292Y-110207470D01*
X155143621Y-110267808D01*
X155143608Y-110267815D01*
X155012505Y-110355416D01*
X155012501Y-110355419D01*
X154901007Y-110466913D01*
X154901004Y-110466917D01*
X154813403Y-110598020D01*
X154813396Y-110598033D01*
X154753058Y-110743704D01*
X154753055Y-110743714D01*
X154722155Y-110899056D01*
X154689770Y-110960967D01*
X154688219Y-110962545D01*
X153448177Y-112202586D01*
X153386854Y-112236071D01*
X153317162Y-112231087D01*
X153291606Y-112218008D01*
X153237761Y-112182030D01*
X153237750Y-112182024D01*
X153092079Y-112121686D01*
X153092067Y-112121683D01*
X152937423Y-112090922D01*
X152937420Y-112090922D01*
X152779736Y-112090922D01*
X152779733Y-112090922D01*
X152625088Y-112121683D01*
X152625076Y-112121686D01*
X152479405Y-112182024D01*
X152479392Y-112182031D01*
X152348289Y-112269632D01*
X152348285Y-112269635D01*
X152236791Y-112381129D01*
X152236788Y-112381133D01*
X152149187Y-112512236D01*
X152149180Y-112512249D01*
X152088842Y-112657920D01*
X152088839Y-112657932D01*
X152058078Y-112812575D01*
X152058078Y-112970268D01*
X152088839Y-113124911D01*
X152088842Y-113124923D01*
X152149180Y-113270594D01*
X152149187Y-113270607D01*
X152236788Y-113401710D01*
X152236791Y-113401714D01*
X152348285Y-113513208D01*
X152348289Y-113513211D01*
X152479392Y-113600812D01*
X152479405Y-113600819D01*
X152625076Y-113661157D01*
X152625081Y-113661159D01*
X152779731Y-113691921D01*
X152779734Y-113691922D01*
X152779736Y-113691922D01*
X152937422Y-113691922D01*
X152937423Y-113691921D01*
X153092075Y-113661159D01*
X153204744Y-113614489D01*
X153237750Y-113600819D01*
X153237750Y-113600818D01*
X153237757Y-113600816D01*
X153276627Y-113574844D01*
X153369453Y-113512820D01*
X153436131Y-113491942D01*
X153438344Y-113491922D01*
X153521909Y-113491922D01*
X153521925Y-113491923D01*
X153529521Y-113491923D01*
X153687632Y-113491923D01*
X153687635Y-113491923D01*
X153840363Y-113450999D01*
X153917044Y-113406727D01*
X153977294Y-113371942D01*
X154089098Y-113260138D01*
X154089098Y-113260136D01*
X154099302Y-113249933D01*
X154099306Y-113249928D01*
X154919927Y-112429307D01*
X154981250Y-112395822D01*
X155050942Y-112400806D01*
X155106875Y-112442678D01*
X155131292Y-112508142D01*
X155131608Y-112516988D01*
X155131608Y-112953580D01*
X155111923Y-113020619D01*
X155095289Y-113041261D01*
X154286638Y-113849911D01*
X154286632Y-113849919D01*
X154207583Y-113986838D01*
X154207580Y-113986843D01*
X154193779Y-114038349D01*
X154170233Y-114126225D01*
X154166656Y-114139573D01*
X154166656Y-114201374D01*
X154146971Y-114268413D01*
X154130337Y-114289055D01*
X145231286Y-123188107D01*
X145119481Y-123299911D01*
X145119480Y-123299913D01*
X145088372Y-123353794D01*
X145040423Y-123436844D01*
X144999499Y-123589572D01*
X144999499Y-123589574D01*
X144999499Y-123757675D01*
X144999500Y-123757688D01*
X144999500Y-130968531D01*
X144979815Y-131035570D01*
X144963181Y-131056212D01*
X140606212Y-135413181D01*
X140544889Y-135446666D01*
X140518531Y-135449500D01*
X133724500Y-135449500D01*
X133657461Y-135429815D01*
X133611706Y-135377011D01*
X133600500Y-135325500D01*
X133600500Y-132589060D01*
X133600501Y-132589047D01*
X133600501Y-132420944D01*
X133600501Y-132420943D01*
X133559577Y-132268216D01*
X133559573Y-132268209D01*
X133480524Y-132131290D01*
X133480518Y-132131282D01*
X132202798Y-130853563D01*
X132169313Y-130792240D01*
X132172547Y-130727566D01*
X132213553Y-130601368D01*
X132233705Y-130474126D01*
X132250500Y-130368097D01*
X132250500Y-130131902D01*
X132213553Y-129898631D01*
X132140566Y-129674003D01*
X132033342Y-129463566D01*
X132033333Y-129463553D01*
X131894517Y-129272490D01*
X131727510Y-129105483D01*
X131536433Y-128966657D01*
X131325996Y-128859433D01*
X131101368Y-128786446D01*
X130868097Y-128749500D01*
X130868092Y-128749500D01*
X130631908Y-128749500D01*
X130631903Y-128749500D01*
X130398631Y-128786446D01*
X130174003Y-128859433D01*
X129963566Y-128966657D01*
X129948626Y-128977512D01*
X129772490Y-129105483D01*
X129772488Y-129105485D01*
X129772487Y-129105485D01*
X129605485Y-129272487D01*
X129605485Y-129272488D01*
X129605483Y-129272490D01*
X129597599Y-129283342D01*
X129466657Y-129463566D01*
X129359433Y-129674003D01*
X129286446Y-129898631D01*
X129249500Y-130131902D01*
X129249500Y-130368097D01*
X129286446Y-130601368D01*
X129359433Y-130825996D01*
X129432059Y-130968531D01*
X129466657Y-131036433D01*
X129605483Y-131227510D01*
X129772490Y-131394517D01*
X129963567Y-131533343D01*
X130062991Y-131584002D01*
X130174003Y-131640566D01*
X130174005Y-131640566D01*
X130174008Y-131640568D01*
X130266292Y-131670553D01*
X130398631Y-131713553D01*
X130631903Y-131750500D01*
X130631908Y-131750500D01*
X130868097Y-131750500D01*
X130974126Y-131733705D01*
X131101368Y-131713553D01*
X131227566Y-131672547D01*
X131297404Y-131670553D01*
X131353563Y-131702798D01*
X132363181Y-132712416D01*
X132396666Y-132773739D01*
X132399500Y-132800097D01*
X132399500Y-134189634D01*
X132379815Y-134256673D01*
X132327011Y-134302428D01*
X132257853Y-134312372D01*
X132194297Y-134283347D01*
X132157569Y-134227953D01*
X132140101Y-134174195D01*
X132032914Y-133963828D01*
X131972658Y-133880894D01*
X131972658Y-133880893D01*
X131273787Y-134579764D01*
X131262518Y-134537708D01*
X131190110Y-134412292D01*
X131087708Y-134309890D01*
X130962292Y-134237482D01*
X130920234Y-134226212D01*
X131619105Y-133527340D01*
X131619104Y-133527338D01*
X131536174Y-133467087D01*
X131325802Y-133359897D01*
X131101247Y-133286934D01*
X131101248Y-133286934D01*
X130868052Y-133250000D01*
X130631948Y-133250000D01*
X130398752Y-133286934D01*
X130174197Y-133359897D01*
X129963830Y-133467084D01*
X129880894Y-133527340D01*
X130579766Y-134226212D01*
X130537708Y-134237482D01*
X130412292Y-134309890D01*
X130309890Y-134412292D01*
X130237482Y-134537708D01*
X130226212Y-134579766D01*
X129527340Y-133880894D01*
X129467084Y-133963830D01*
X129359897Y-134174197D01*
X129286934Y-134398752D01*
X129250000Y-134631947D01*
X129250000Y-134868052D01*
X129286934Y-135101247D01*
X129359897Y-135325802D01*
X129467087Y-135536174D01*
X129551686Y-135652615D01*
X129575166Y-135718421D01*
X129559341Y-135786475D01*
X129509235Y-135835170D01*
X129451368Y-135849500D01*
X125548632Y-135849500D01*
X125481593Y-135829815D01*
X125435838Y-135777011D01*
X125425894Y-135707853D01*
X125448314Y-135652615D01*
X125532912Y-135536174D01*
X125640102Y-135325802D01*
X125713065Y-135101247D01*
X125750000Y-134868052D01*
X125750000Y-134631947D01*
X125713065Y-134398752D01*
X125640102Y-134174197D01*
X125532914Y-133963828D01*
X125472658Y-133880894D01*
X125472658Y-133880893D01*
X124773787Y-134579764D01*
X124762518Y-134537708D01*
X124690110Y-134412292D01*
X124587708Y-134309890D01*
X124462292Y-134237482D01*
X124420234Y-134226212D01*
X125119105Y-133527340D01*
X125119104Y-133527339D01*
X125036174Y-133467087D01*
X124825802Y-133359897D01*
X124601247Y-133286934D01*
X124601248Y-133286934D01*
X124368052Y-133250000D01*
X124131948Y-133250000D01*
X123898752Y-133286934D01*
X123674197Y-133359897D01*
X123463830Y-133467084D01*
X123380894Y-133527340D01*
X124079766Y-134226212D01*
X124037708Y-134237482D01*
X123912292Y-134309890D01*
X123809890Y-134412292D01*
X123737482Y-134537708D01*
X123726212Y-134579766D01*
X123027340Y-133880894D01*
X122967084Y-133963830D01*
X122859897Y-134174197D01*
X122786934Y-134398752D01*
X122750000Y-134631947D01*
X122750000Y-134868052D01*
X122786934Y-135101247D01*
X122859897Y-135325802D01*
X122967087Y-135536174D01*
X123051686Y-135652615D01*
X123075166Y-135718421D01*
X123059341Y-135786475D01*
X123009235Y-135835170D01*
X122951368Y-135849500D01*
X122636670Y-135849500D01*
X122636654Y-135849499D01*
X122629058Y-135849499D01*
X122470943Y-135849499D01*
X122394579Y-135869961D01*
X122318214Y-135890423D01*
X122318209Y-135890426D01*
X122181290Y-135969475D01*
X122181282Y-135969481D01*
X121853563Y-136297200D01*
X121792240Y-136330685D01*
X121727564Y-136327450D01*
X121601370Y-136286447D01*
X121368097Y-136249500D01*
X121368092Y-136249500D01*
X121131908Y-136249500D01*
X121131903Y-136249500D01*
X120898631Y-136286446D01*
X120674003Y-136359433D01*
X120463566Y-136466657D01*
X120354550Y-136545862D01*
X120272490Y-136605483D01*
X120272488Y-136605485D01*
X120272487Y-136605485D01*
X120105485Y-136772487D01*
X120105485Y-136772488D01*
X120105483Y-136772490D01*
X120045862Y-136854550D01*
X119966657Y-136963566D01*
X119859433Y-137174003D01*
X119786446Y-137398631D01*
X119749500Y-137631902D01*
X116250500Y-137631902D01*
X116213553Y-137398631D01*
X116153178Y-137212819D01*
X116140568Y-137174008D01*
X116140566Y-137174005D01*
X116140566Y-137174003D01*
X116078563Y-137052316D01*
X116033343Y-136963567D01*
X115894517Y-136772490D01*
X115727510Y-136605483D01*
X115536433Y-136466657D01*
X115325996Y-136359433D01*
X115101368Y-136286446D01*
X114868097Y-136249500D01*
X114868092Y-136249500D01*
X114631908Y-136249500D01*
X114631903Y-136249500D01*
X114398631Y-136286446D01*
X114174003Y-136359433D01*
X113963566Y-136466657D01*
X113854550Y-136545862D01*
X113772490Y-136605483D01*
X113772488Y-136605485D01*
X113772487Y-136605485D01*
X113605485Y-136772487D01*
X113605485Y-136772488D01*
X113605483Y-136772490D01*
X113545862Y-136854550D01*
X113466657Y-136963566D01*
X113359433Y-137174003D01*
X113286446Y-137398631D01*
X113249500Y-137631902D01*
X110000500Y-137631902D01*
X110000500Y-130131902D01*
X122749500Y-130131902D01*
X122749500Y-130368097D01*
X122786446Y-130601368D01*
X122859433Y-130825996D01*
X122932059Y-130968531D01*
X122966657Y-131036433D01*
X123105483Y-131227510D01*
X123272490Y-131394517D01*
X123463567Y-131533343D01*
X123562991Y-131584002D01*
X123674003Y-131640566D01*
X123674005Y-131640566D01*
X123674008Y-131640568D01*
X123766292Y-131670553D01*
X123898631Y-131713553D01*
X124131903Y-131750500D01*
X124131908Y-131750500D01*
X124368097Y-131750500D01*
X124601368Y-131713553D01*
X124634468Y-131702798D01*
X124825992Y-131640568D01*
X125036433Y-131533343D01*
X125227510Y-131394517D01*
X125394517Y-131227510D01*
X125533343Y-131036433D01*
X125640568Y-130825992D01*
X125713553Y-130601368D01*
X125713554Y-130601362D01*
X125750500Y-130368097D01*
X125750500Y-130131902D01*
X125713553Y-129898631D01*
X125640566Y-129674003D01*
X125533342Y-129463566D01*
X125533333Y-129463553D01*
X125394517Y-129272490D01*
X125227510Y-129105483D01*
X125036433Y-128966657D01*
X124825996Y-128859433D01*
X124601368Y-128786446D01*
X124368097Y-128749500D01*
X124368092Y-128749500D01*
X124131908Y-128749500D01*
X124131903Y-128749500D01*
X123898631Y-128786446D01*
X123674003Y-128859433D01*
X123463566Y-128966657D01*
X123448626Y-128977512D01*
X123272490Y-129105483D01*
X123272488Y-129105485D01*
X123272487Y-129105485D01*
X123105485Y-129272487D01*
X123105485Y-129272488D01*
X123105483Y-129272490D01*
X123097599Y-129283342D01*
X122966657Y-129463566D01*
X122859433Y-129674003D01*
X122786446Y-129898631D01*
X122749500Y-130131902D01*
X110000500Y-130131902D01*
X110000500Y-114393713D01*
X111869500Y-114393713D01*
X111869500Y-114606287D01*
X111902754Y-114816243D01*
X111906439Y-114827585D01*
X111968444Y-115018414D01*
X112064951Y-115207820D01*
X112189890Y-115379786D01*
X112340213Y-115530109D01*
X112512179Y-115655048D01*
X112512181Y-115655049D01*
X112512184Y-115655051D01*
X112701588Y-115751557D01*
X112903757Y-115817246D01*
X113113713Y-115850500D01*
X113113714Y-115850500D01*
X113326286Y-115850500D01*
X113326287Y-115850500D01*
X113536243Y-115817246D01*
X113737184Y-115751955D01*
X113807023Y-115749961D01*
X113866856Y-115786041D01*
X113897684Y-115848742D01*
X113899500Y-115869887D01*
X113899500Y-119329057D01*
X113906582Y-119355485D01*
X113940423Y-119481783D01*
X113940426Y-119481790D01*
X114019475Y-119618709D01*
X114019478Y-119618713D01*
X114019480Y-119618716D01*
X114131284Y-119730520D01*
X114131286Y-119730521D01*
X114131290Y-119730524D01*
X114268209Y-119809573D01*
X114268216Y-119809577D01*
X114420943Y-119850500D01*
X114579057Y-119850500D01*
X143943331Y-119850500D01*
X143943347Y-119850501D01*
X143950943Y-119850501D01*
X144109054Y-119850501D01*
X144109057Y-119850501D01*
X144261785Y-119809577D01*
X144311904Y-119780639D01*
X144398716Y-119730520D01*
X144510520Y-119618716D01*
X144510520Y-119618714D01*
X144520728Y-119608507D01*
X144520730Y-119608504D01*
X148242416Y-115886818D01*
X148303739Y-115853333D01*
X148330097Y-115850499D01*
X149677871Y-115850499D01*
X149677872Y-115850499D01*
X149737483Y-115844091D01*
X149872331Y-115793796D01*
X149987546Y-115707546D01*
X150073796Y-115592331D01*
X150124091Y-115457483D01*
X150130500Y-115397873D01*
X150130499Y-113602128D01*
X150124091Y-113542517D01*
X150122810Y-113539083D01*
X150073797Y-113407671D01*
X150073793Y-113407664D01*
X149987547Y-113292455D01*
X149987544Y-113292452D01*
X149872335Y-113206206D01*
X149872328Y-113206202D01*
X149737482Y-113155908D01*
X149737483Y-113155908D01*
X149677883Y-113149501D01*
X149677881Y-113149500D01*
X149677873Y-113149500D01*
X149677864Y-113149500D01*
X147882129Y-113149500D01*
X147882123Y-113149501D01*
X147822516Y-113155908D01*
X147687671Y-113206202D01*
X147687664Y-113206206D01*
X147572455Y-113292452D01*
X147572452Y-113292455D01*
X147486206Y-113407664D01*
X147486203Y-113407669D01*
X147437189Y-113539083D01*
X147395317Y-113595016D01*
X147329853Y-113619433D01*
X147261580Y-113604581D01*
X147233326Y-113583430D01*
X147119786Y-113469890D01*
X146947820Y-113344951D01*
X146758414Y-113248444D01*
X146758413Y-113248443D01*
X146758412Y-113248443D01*
X146556243Y-113182754D01*
X146556241Y-113182753D01*
X146556240Y-113182753D01*
X146394957Y-113157208D01*
X146346287Y-113149500D01*
X146133713Y-113149500D01*
X146085042Y-113157208D01*
X145923760Y-113182753D01*
X145721585Y-113248444D01*
X145532179Y-113344951D01*
X145360213Y-113469890D01*
X145209890Y-113620213D01*
X145084949Y-113792182D01*
X145080484Y-113800946D01*
X145032509Y-113851742D01*
X144964688Y-113868536D01*
X144898553Y-113845998D01*
X144859516Y-113800946D01*
X144855050Y-113792182D01*
X144730109Y-113620213D01*
X144579786Y-113469890D01*
X144407820Y-113344951D01*
X144218414Y-113248444D01*
X144218413Y-113248443D01*
X144218412Y-113248443D01*
X144016243Y-113182754D01*
X144016241Y-113182753D01*
X144016240Y-113182753D01*
X143854957Y-113157208D01*
X143806287Y-113149500D01*
X143593713Y-113149500D01*
X143545042Y-113157208D01*
X143383760Y-113182753D01*
X143181585Y-113248444D01*
X142992179Y-113344951D01*
X142820213Y-113469890D01*
X142669890Y-113620213D01*
X142544949Y-113792182D01*
X142540484Y-113800946D01*
X142492509Y-113851742D01*
X142424688Y-113868536D01*
X142358553Y-113845998D01*
X142319516Y-113800946D01*
X142315050Y-113792182D01*
X142190109Y-113620213D01*
X142039786Y-113469890D01*
X141867820Y-113344951D01*
X141678414Y-113248444D01*
X141678413Y-113248443D01*
X141678412Y-113248443D01*
X141476243Y-113182754D01*
X141476241Y-113182753D01*
X141476240Y-113182753D01*
X141314957Y-113157208D01*
X141266287Y-113149500D01*
X141053713Y-113149500D01*
X141005042Y-113157208D01*
X140843760Y-113182753D01*
X140641585Y-113248444D01*
X140452179Y-113344951D01*
X140280213Y-113469890D01*
X140129890Y-113620213D01*
X140004949Y-113792182D01*
X140000484Y-113800946D01*
X139952509Y-113851742D01*
X139884688Y-113868536D01*
X139818553Y-113845998D01*
X139779516Y-113800946D01*
X139775050Y-113792182D01*
X139650109Y-113620213D01*
X139499786Y-113469890D01*
X139327820Y-113344951D01*
X139138414Y-113248444D01*
X139138413Y-113248443D01*
X139138412Y-113248443D01*
X138936243Y-113182754D01*
X138936241Y-113182753D01*
X138936240Y-113182753D01*
X138774957Y-113157208D01*
X138726287Y-113149500D01*
X138513713Y-113149500D01*
X138465042Y-113157208D01*
X138303760Y-113182753D01*
X138101585Y-113248444D01*
X137912179Y-113344951D01*
X137740213Y-113469890D01*
X137589890Y-113620213D01*
X137464949Y-113792182D01*
X137460484Y-113800946D01*
X137412509Y-113851742D01*
X137344688Y-113868536D01*
X137278553Y-113845998D01*
X137239516Y-113800946D01*
X137235050Y-113792182D01*
X137110109Y-113620213D01*
X136959786Y-113469890D01*
X136787820Y-113344951D01*
X136598414Y-113248444D01*
X136598413Y-113248443D01*
X136598412Y-113248443D01*
X136396243Y-113182754D01*
X136396241Y-113182753D01*
X136396240Y-113182753D01*
X136234957Y-113157208D01*
X136186287Y-113149500D01*
X135973713Y-113149500D01*
X135925042Y-113157208D01*
X135763760Y-113182753D01*
X135561585Y-113248444D01*
X135372179Y-113344951D01*
X135200213Y-113469890D01*
X135049890Y-113620213D01*
X134924949Y-113792182D01*
X134920484Y-113800946D01*
X134872509Y-113851742D01*
X134804688Y-113868536D01*
X134738553Y-113845998D01*
X134699516Y-113800946D01*
X134695050Y-113792182D01*
X134570109Y-113620213D01*
X134419786Y-113469890D01*
X134247820Y-113344951D01*
X134058414Y-113248444D01*
X134058413Y-113248443D01*
X134058412Y-113248443D01*
X133856243Y-113182754D01*
X133856241Y-113182753D01*
X133856240Y-113182753D01*
X133694957Y-113157208D01*
X133646287Y-113149500D01*
X133433713Y-113149500D01*
X133385042Y-113157208D01*
X133223760Y-113182753D01*
X133021585Y-113248444D01*
X132832179Y-113344951D01*
X132660213Y-113469890D01*
X132640521Y-113489582D01*
X132579197Y-113523066D01*
X132509506Y-113518080D01*
X132465161Y-113489580D01*
X131956093Y-112980512D01*
X131956091Y-112980509D01*
X131837220Y-112861638D01*
X131837219Y-112861637D01*
X131750407Y-112811517D01*
X131750407Y-112811516D01*
X131750403Y-112811515D01*
X131700288Y-112782580D01*
X131547560Y-112741656D01*
X131389446Y-112741656D01*
X131381850Y-112741656D01*
X131381834Y-112741657D01*
X130707941Y-112741657D01*
X130640902Y-112721972D01*
X130620260Y-112705338D01*
X129520433Y-111605512D01*
X129520431Y-111605509D01*
X129401560Y-111486638D01*
X129401552Y-111486632D01*
X129314744Y-111436514D01*
X129314743Y-111436514D01*
X129264628Y-111407580D01*
X129111900Y-111366656D01*
X128953786Y-111366656D01*
X128946190Y-111366656D01*
X128946174Y-111366657D01*
X120330370Y-111366657D01*
X120263331Y-111346972D01*
X120217576Y-111294168D01*
X120207632Y-111225010D01*
X120236657Y-111161454D01*
X120242689Y-111154976D01*
X129695531Y-101702135D01*
X158399500Y-101702135D01*
X158399500Y-103797870D01*
X158399501Y-103797876D01*
X158405908Y-103857483D01*
X158456202Y-103992328D01*
X158456206Y-103992335D01*
X158542452Y-104107544D01*
X158542455Y-104107547D01*
X158657664Y-104193793D01*
X158657671Y-104193797D01*
X158792517Y-104244091D01*
X158792516Y-104244091D01*
X158799444Y-104244835D01*
X158852127Y-104250500D01*
X160947872Y-104250499D01*
X161007483Y-104244091D01*
X161142331Y-104193796D01*
X161257546Y-104107546D01*
X161343796Y-103992331D01*
X161394091Y-103857483D01*
X161400500Y-103797873D01*
X161400499Y-102631947D01*
X166000000Y-102631947D01*
X166000000Y-102868052D01*
X166036934Y-103101247D01*
X166109897Y-103325802D01*
X166217087Y-103536174D01*
X166277338Y-103619104D01*
X166277340Y-103619105D01*
X167017037Y-102879408D01*
X167034075Y-102942993D01*
X167099901Y-103057007D01*
X167192993Y-103150099D01*
X167307007Y-103215925D01*
X167370590Y-103232962D01*
X166630893Y-103972658D01*
X166713828Y-104032914D01*
X166924197Y-104140102D01*
X167148752Y-104213065D01*
X167148751Y-104213065D01*
X167381948Y-104250000D01*
X167618052Y-104250000D01*
X167851247Y-104213065D01*
X168075802Y-104140102D01*
X168286163Y-104032918D01*
X168286169Y-104032914D01*
X168369104Y-103972658D01*
X168369105Y-103972658D01*
X167629408Y-103232962D01*
X167692993Y-103215925D01*
X167807007Y-103150099D01*
X167900099Y-103057007D01*
X167965925Y-102942993D01*
X167982962Y-102879409D01*
X168722658Y-103619105D01*
X168722658Y-103619104D01*
X168782914Y-103536169D01*
X168782918Y-103536163D01*
X168890102Y-103325802D01*
X168963065Y-103101247D01*
X169000000Y-102868052D01*
X169000000Y-102631947D01*
X168963065Y-102398752D01*
X168890102Y-102174197D01*
X168782914Y-101963828D01*
X168722658Y-101880894D01*
X168722658Y-101880893D01*
X167982962Y-102620590D01*
X167965925Y-102557007D01*
X167900099Y-102442993D01*
X167807007Y-102349901D01*
X167692993Y-102284075D01*
X167629409Y-102267037D01*
X168369105Y-101527340D01*
X168369104Y-101527338D01*
X168286174Y-101467087D01*
X168075802Y-101359897D01*
X167851247Y-101286934D01*
X167851248Y-101286934D01*
X167618052Y-101250000D01*
X167381948Y-101250000D01*
X167148752Y-101286934D01*
X166924197Y-101359897D01*
X166713830Y-101467084D01*
X166630894Y-101527340D01*
X167370591Y-102267037D01*
X167307007Y-102284075D01*
X167192993Y-102349901D01*
X167099901Y-102442993D01*
X167034075Y-102557007D01*
X167017037Y-102620591D01*
X166277340Y-101880894D01*
X166217084Y-101963830D01*
X166109897Y-102174197D01*
X166036934Y-102398752D01*
X166000000Y-102631947D01*
X161400499Y-102631947D01*
X161400499Y-101702128D01*
X161394091Y-101642517D01*
X161394090Y-101642514D01*
X161384922Y-101617931D01*
X161343797Y-101507671D01*
X161343793Y-101507664D01*
X161257547Y-101392455D01*
X161257544Y-101392452D01*
X161142335Y-101306206D01*
X161142328Y-101306202D01*
X161007482Y-101255908D01*
X161007483Y-101255908D01*
X160947883Y-101249501D01*
X160947881Y-101249500D01*
X160947873Y-101249500D01*
X160947864Y-101249500D01*
X158852129Y-101249500D01*
X158852123Y-101249501D01*
X158792516Y-101255908D01*
X158657671Y-101306202D01*
X158657664Y-101306206D01*
X158542455Y-101392452D01*
X158542452Y-101392455D01*
X158456206Y-101507664D01*
X158456202Y-101507671D01*
X158405908Y-101642517D01*
X158399501Y-101702116D01*
X158399501Y-101702123D01*
X158399500Y-101702135D01*
X129695531Y-101702135D01*
X129786541Y-101611125D01*
X130260847Y-101136819D01*
X130322170Y-101103334D01*
X130348528Y-101100500D01*
X149741759Y-101100500D01*
X149741775Y-101100501D01*
X149749371Y-101100501D01*
X149907482Y-101100501D01*
X149907485Y-101100501D01*
X150060213Y-101059577D01*
X150110332Y-101030639D01*
X150197144Y-100980520D01*
X150308948Y-100868716D01*
X150308948Y-100868714D01*
X150319156Y-100858507D01*
X150319157Y-100858504D01*
X156269733Y-94907930D01*
X156269734Y-94907929D01*
X157358505Y-93819158D01*
X157358511Y-93819154D01*
X157368714Y-93808950D01*
X157368716Y-93808950D01*
X157480520Y-93697146D01*
X157538017Y-93597558D01*
X157559577Y-93560215D01*
X157600501Y-93407488D01*
X157600501Y-93249373D01*
X157600501Y-93241778D01*
X157600500Y-93241760D01*
X157600500Y-84510635D01*
X157600501Y-84510622D01*
X157600501Y-84342520D01*
X157600501Y-84342518D01*
X157559577Y-84189790D01*
X157530639Y-84139670D01*
X157480520Y-84052859D01*
X157368716Y-83941055D01*
X157368715Y-83941054D01*
X157364385Y-83936724D01*
X157364374Y-83936714D01*
X139146020Y-65718356D01*
X139146018Y-65718353D01*
X139027147Y-65599482D01*
X139027139Y-65599476D01*
X138919741Y-65537470D01*
X138919741Y-65537471D01*
X138890213Y-65520423D01*
X138834311Y-65505444D01*
X138737487Y-65479500D01*
X138737484Y-65479500D01*
X134730186Y-65479500D01*
X134663147Y-65459815D01*
X134617392Y-65407011D01*
X134606186Y-65355500D01*
X134606186Y-58974746D01*
X134606187Y-58974733D01*
X134606187Y-58806630D01*
X134565262Y-58653900D01*
X134565259Y-58653895D01*
X134486210Y-58516976D01*
X134486204Y-58516968D01*
X131833757Y-55864522D01*
X131800272Y-55803199D01*
X131803507Y-55738523D01*
X131817246Y-55696243D01*
X131850500Y-55486287D01*
X131850500Y-55273713D01*
X131817246Y-55063757D01*
X131751557Y-54861588D01*
X131655051Y-54672184D01*
X131655049Y-54672181D01*
X131655048Y-54672179D01*
X131530109Y-54500213D01*
X131379786Y-54349890D01*
X131207820Y-54224951D01*
X131018414Y-54128444D01*
X131018413Y-54128443D01*
X131018412Y-54128443D01*
X130816243Y-54062754D01*
X130816241Y-54062753D01*
X130816240Y-54062753D01*
X130654957Y-54037208D01*
X130606287Y-54029500D01*
X130393713Y-54029500D01*
X130345042Y-54037208D01*
X130183760Y-54062753D01*
X129981585Y-54128444D01*
X129792179Y-54224951D01*
X129620213Y-54349890D01*
X129469890Y-54500213D01*
X129344951Y-54672179D01*
X129248444Y-54861585D01*
X129182753Y-55063760D01*
X129149500Y-55273713D01*
X129149500Y-55486286D01*
X129182753Y-55696239D01*
X129182753Y-55696241D01*
X129182754Y-55696243D01*
X129237431Y-55864522D01*
X129248444Y-55898414D01*
X129344951Y-56087820D01*
X129469890Y-56259786D01*
X129620213Y-56410109D01*
X129792182Y-56535050D01*
X129800946Y-56539516D01*
X129851742Y-56587491D01*
X129868536Y-56655312D01*
X129845998Y-56721447D01*
X129800946Y-56760484D01*
X129792182Y-56764949D01*
X129620213Y-56889890D01*
X129469890Y-57040213D01*
X129344951Y-57212179D01*
X129248444Y-57401585D01*
X129182753Y-57603760D01*
X129149500Y-57813713D01*
X129149500Y-58026286D01*
X129182753Y-58236239D01*
X129182753Y-58236241D01*
X129182754Y-58236243D01*
X129237431Y-58404522D01*
X129248444Y-58438414D01*
X129344951Y-58627820D01*
X129469890Y-58799786D01*
X129620213Y-58950109D01*
X129792182Y-59075050D01*
X129800946Y-59079516D01*
X129851742Y-59127491D01*
X129868536Y-59195312D01*
X129845998Y-59261447D01*
X129800946Y-59300484D01*
X129792182Y-59304949D01*
X129620213Y-59429890D01*
X129469890Y-59580213D01*
X129344951Y-59752179D01*
X129248444Y-59941585D01*
X129182753Y-60143760D01*
X129149500Y-60353713D01*
X129149500Y-60566286D01*
X129182753Y-60776239D01*
X129182753Y-60776241D01*
X129182754Y-60776243D01*
X129237431Y-60944522D01*
X129248444Y-60978414D01*
X129344951Y-61167820D01*
X129469890Y-61339786D01*
X129620213Y-61490109D01*
X129792182Y-61615050D01*
X129800946Y-61619516D01*
X129851742Y-61667491D01*
X129868536Y-61735312D01*
X129845998Y-61801447D01*
X129800946Y-61840484D01*
X129792182Y-61844949D01*
X129620213Y-61969890D01*
X129469890Y-62120213D01*
X129344951Y-62292179D01*
X129248444Y-62481585D01*
X129182753Y-62683760D01*
X129149500Y-62893713D01*
X129149500Y-63106286D01*
X129182753Y-63316239D01*
X129182753Y-63316241D01*
X129182754Y-63316243D01*
X129237431Y-63484522D01*
X129248444Y-63518414D01*
X129344951Y-63707820D01*
X129469890Y-63879786D01*
X129620213Y-64030109D01*
X129792182Y-64155050D01*
X129800946Y-64159516D01*
X129851742Y-64207491D01*
X129868536Y-64275312D01*
X129845998Y-64341447D01*
X129800946Y-64380484D01*
X129792182Y-64384949D01*
X129620213Y-64509890D01*
X129469890Y-64660213D01*
X129344951Y-64832179D01*
X129248444Y-65021585D01*
X129182753Y-65223760D01*
X129149500Y-65433713D01*
X129149500Y-65646286D01*
X129182753Y-65856239D01*
X129182753Y-65856241D01*
X129182754Y-65856243D01*
X129237431Y-66024522D01*
X129248444Y-66058414D01*
X129344951Y-66247820D01*
X129469890Y-66419786D01*
X129620213Y-66570109D01*
X129792182Y-66695050D01*
X129800946Y-66699516D01*
X129851742Y-66747491D01*
X129868536Y-66815312D01*
X129845998Y-66881447D01*
X129800946Y-66920484D01*
X129792182Y-66924949D01*
X129620213Y-67049890D01*
X129469890Y-67200213D01*
X129344951Y-67372179D01*
X129248444Y-67561585D01*
X129182753Y-67763760D01*
X129149500Y-67973713D01*
X129149500Y-68186287D01*
X129182754Y-68396243D01*
X129219077Y-68508034D01*
X129248444Y-68598414D01*
X129344951Y-68787820D01*
X129469890Y-68959786D01*
X129620213Y-69110109D01*
X129792182Y-69235050D01*
X129800946Y-69239516D01*
X129851742Y-69287491D01*
X129868536Y-69355312D01*
X129845998Y-69421447D01*
X129800946Y-69460484D01*
X129792182Y-69464949D01*
X129620213Y-69589890D01*
X129469890Y-69740213D01*
X129344951Y-69912179D01*
X129248444Y-70101585D01*
X129182753Y-70303760D01*
X129149500Y-70513713D01*
X129149500Y-70726286D01*
X129182753Y-70936239D01*
X129248444Y-71138414D01*
X129344951Y-71327820D01*
X129469890Y-71499786D01*
X129583818Y-71613714D01*
X129617303Y-71675037D01*
X129612319Y-71744729D01*
X129570447Y-71800662D01*
X129539471Y-71817577D01*
X129407912Y-71866646D01*
X129407906Y-71866649D01*
X129292812Y-71952809D01*
X129292809Y-71952812D01*
X129206649Y-72067906D01*
X129206645Y-72067913D01*
X129156403Y-72202620D01*
X129156401Y-72202627D01*
X129150000Y-72262155D01*
X129150000Y-72910000D01*
X130066988Y-72910000D01*
X130034075Y-72967007D01*
X130000000Y-73094174D01*
X130000000Y-73225826D01*
X130034075Y-73352993D01*
X130066988Y-73410000D01*
X129150000Y-73410000D01*
X129150000Y-74057844D01*
X129156401Y-74117372D01*
X129156403Y-74117379D01*
X129206645Y-74252086D01*
X129206649Y-74252093D01*
X129292809Y-74367187D01*
X129292812Y-74367190D01*
X129407906Y-74453350D01*
X129407913Y-74453354D01*
X129542620Y-74503596D01*
X129542627Y-74503598D01*
X129602155Y-74509999D01*
X129602172Y-74510000D01*
X130250000Y-74510000D01*
X130250000Y-73593012D01*
X130307007Y-73625925D01*
X130434174Y-73660000D01*
X130565826Y-73660000D01*
X130692993Y-73625925D01*
X130750000Y-73593012D01*
X130750000Y-74510000D01*
X131397828Y-74510000D01*
X131397844Y-74509999D01*
X131457372Y-74503598D01*
X131457379Y-74503596D01*
X131592086Y-74453354D01*
X131592093Y-74453350D01*
X131707187Y-74367190D01*
X131707190Y-74367187D01*
X131793350Y-74252093D01*
X131793354Y-74252086D01*
X131843596Y-74117379D01*
X131843598Y-74117372D01*
X131849999Y-74057844D01*
X131850000Y-74057827D01*
X131850000Y-73410000D01*
X130933012Y-73410000D01*
X130965925Y-73352993D01*
X131000000Y-73225826D01*
X131000000Y-73094174D01*
X130965925Y-72967007D01*
X130933012Y-72910000D01*
X131850000Y-72910000D01*
X131850000Y-72262172D01*
X131849999Y-72262155D01*
X131843598Y-72202627D01*
X131843596Y-72202620D01*
X131793354Y-72067913D01*
X131793350Y-72067906D01*
X131707190Y-71952812D01*
X131707187Y-71952809D01*
X131592093Y-71866649D01*
X131592088Y-71866646D01*
X131460528Y-71817577D01*
X131404595Y-71775705D01*
X131380178Y-71710241D01*
X131395030Y-71641968D01*
X131416175Y-71613720D01*
X131530104Y-71499792D01*
X131655051Y-71327816D01*
X131751557Y-71138412D01*
X131817246Y-70936243D01*
X131850500Y-70726287D01*
X131850500Y-70513713D01*
X131817246Y-70303757D01*
X131751557Y-70101588D01*
X131655051Y-69912184D01*
X131655049Y-69912181D01*
X131655048Y-69912179D01*
X131530109Y-69740213D01*
X131379786Y-69589890D01*
X131207820Y-69464951D01*
X131207115Y-69464591D01*
X131199054Y-69460485D01*
X131148259Y-69412512D01*
X131131463Y-69344692D01*
X131153999Y-69278556D01*
X131199054Y-69239515D01*
X131207816Y-69235051D01*
X131229789Y-69219086D01*
X131379786Y-69110109D01*
X131379788Y-69110106D01*
X131379792Y-69110104D01*
X131530104Y-68959792D01*
X131530106Y-68959788D01*
X131530109Y-68959786D01*
X131588661Y-68879193D01*
X131655051Y-68787816D01*
X131655349Y-68787230D01*
X131675235Y-68748205D01*
X131723209Y-68697409D01*
X131785719Y-68680500D01*
X137529903Y-68680500D01*
X137596942Y-68700185D01*
X137617584Y-68716819D01*
X154363181Y-85462416D01*
X154396666Y-85523739D01*
X154399500Y-85550097D01*
X154399500Y-92199903D01*
X154379815Y-92266942D01*
X154363181Y-92287584D01*
X148787584Y-97863181D01*
X148726261Y-97896666D01*
X148699903Y-97899500D01*
X129306669Y-97899500D01*
X129306653Y-97899499D01*
X129299057Y-97899499D01*
X129140943Y-97899499D01*
X129033587Y-97928265D01*
X128988210Y-97940424D01*
X128988209Y-97940425D01*
X128938096Y-97969359D01*
X128938095Y-97969360D01*
X128894689Y-97994420D01*
X128851285Y-98019479D01*
X128851282Y-98019481D01*
X128739478Y-98131286D01*
X113704522Y-113166241D01*
X113643199Y-113199726D01*
X113578523Y-113196491D01*
X113536245Y-113182754D01*
X113396272Y-113160584D01*
X113326287Y-113149500D01*
X113113713Y-113149500D01*
X113065042Y-113157208D01*
X112903760Y-113182753D01*
X112701585Y-113248444D01*
X112512179Y-113344951D01*
X112340213Y-113469890D01*
X112189890Y-113620213D01*
X112064951Y-113792179D01*
X111968444Y-113981585D01*
X111902753Y-114183760D01*
X111887676Y-114278952D01*
X111869500Y-114393713D01*
X110000500Y-114393713D01*
X110000500Y-88993713D01*
X111869500Y-88993713D01*
X111869500Y-89206287D01*
X111902754Y-89416243D01*
X111959908Y-89592145D01*
X111968444Y-89618414D01*
X112064951Y-89807820D01*
X112189890Y-89979786D01*
X112340213Y-90130109D01*
X112512179Y-90255048D01*
X112512181Y-90255049D01*
X112512184Y-90255051D01*
X112701588Y-90351557D01*
X112903757Y-90417246D01*
X113113713Y-90450500D01*
X113113714Y-90450500D01*
X113326286Y-90450500D01*
X113326287Y-90450500D01*
X113536243Y-90417246D01*
X113738412Y-90351557D01*
X113927816Y-90255051D01*
X114014138Y-90192335D01*
X114099786Y-90130109D01*
X114099788Y-90130106D01*
X114099792Y-90130104D01*
X114250104Y-89979792D01*
X114250106Y-89979788D01*
X114250109Y-89979786D01*
X114335890Y-89861717D01*
X114375051Y-89807816D01*
X114379793Y-89798508D01*
X114427763Y-89747711D01*
X114495583Y-89730911D01*
X114561719Y-89753445D01*
X114600763Y-89798500D01*
X114605373Y-89807547D01*
X114644728Y-89861716D01*
X115277037Y-89229408D01*
X115294075Y-89292993D01*
X115359901Y-89407007D01*
X115452993Y-89500099D01*
X115567007Y-89565925D01*
X115630590Y-89582962D01*
X114998282Y-90215269D01*
X114998282Y-90215270D01*
X115052449Y-90254624D01*
X115241782Y-90351095D01*
X115443870Y-90416757D01*
X115653754Y-90450000D01*
X115866246Y-90450000D01*
X116076127Y-90416757D01*
X116076130Y-90416757D01*
X116278217Y-90351095D01*
X116467554Y-90254622D01*
X116521716Y-90215270D01*
X116521717Y-90215270D01*
X115889408Y-89582962D01*
X115952993Y-89565925D01*
X116067007Y-89500099D01*
X116160099Y-89407007D01*
X116225925Y-89292993D01*
X116242962Y-89229409D01*
X116875270Y-89861717D01*
X116875270Y-89861716D01*
X116914622Y-89807555D01*
X116919232Y-89798507D01*
X116967205Y-89747709D01*
X117035025Y-89730912D01*
X117101161Y-89753447D01*
X117140204Y-89798504D01*
X117144949Y-89807817D01*
X117269890Y-89979786D01*
X117420213Y-90130109D01*
X117592179Y-90255048D01*
X117592181Y-90255049D01*
X117592184Y-90255051D01*
X117781588Y-90351557D01*
X117983757Y-90417246D01*
X118193713Y-90450500D01*
X118193714Y-90450500D01*
X118406286Y-90450500D01*
X118406287Y-90450500D01*
X118616243Y-90417246D01*
X118818412Y-90351557D01*
X119007816Y-90255051D01*
X119094138Y-90192335D01*
X119179786Y-90130109D01*
X119179788Y-90130106D01*
X119179792Y-90130104D01*
X119330104Y-89979792D01*
X119330106Y-89979788D01*
X119330109Y-89979786D01*
X119455048Y-89807820D01*
X119455047Y-89807820D01*
X119455051Y-89807816D01*
X119459514Y-89799054D01*
X119507488Y-89748259D01*
X119575308Y-89731463D01*
X119641444Y-89753999D01*
X119680486Y-89799056D01*
X119684951Y-89807820D01*
X119809890Y-89979786D01*
X119960213Y-90130109D01*
X120132179Y-90255048D01*
X120132181Y-90255049D01*
X120132184Y-90255051D01*
X120321588Y-90351557D01*
X120523757Y-90417246D01*
X120733713Y-90450500D01*
X120733714Y-90450500D01*
X120946286Y-90450500D01*
X120946287Y-90450500D01*
X121156243Y-90417246D01*
X121358412Y-90351557D01*
X121547816Y-90255051D01*
X121634138Y-90192335D01*
X121719786Y-90130109D01*
X121719788Y-90130106D01*
X121719792Y-90130104D01*
X121870104Y-89979792D01*
X121870106Y-89979788D01*
X121870109Y-89979786D01*
X121995048Y-89807820D01*
X121995047Y-89807820D01*
X121995051Y-89807816D01*
X121999514Y-89799054D01*
X122047488Y-89748259D01*
X122115308Y-89731463D01*
X122181444Y-89753999D01*
X122220486Y-89799056D01*
X122224951Y-89807820D01*
X122349890Y-89979786D01*
X122500213Y-90130109D01*
X122672179Y-90255048D01*
X122672181Y-90255049D01*
X122672184Y-90255051D01*
X122861588Y-90351557D01*
X123063757Y-90417246D01*
X123273713Y-90450500D01*
X123273714Y-90450500D01*
X123486286Y-90450500D01*
X123486287Y-90450500D01*
X123696243Y-90417246D01*
X123898412Y-90351557D01*
X124087816Y-90255051D01*
X124174138Y-90192335D01*
X124259786Y-90130109D01*
X124259788Y-90130106D01*
X124259792Y-90130104D01*
X124410104Y-89979792D01*
X124410106Y-89979788D01*
X124410109Y-89979786D01*
X124535048Y-89807820D01*
X124535047Y-89807820D01*
X124535051Y-89807816D01*
X124539514Y-89799054D01*
X124587488Y-89748259D01*
X124655308Y-89731463D01*
X124721444Y-89753999D01*
X124760486Y-89799056D01*
X124764951Y-89807820D01*
X124889890Y-89979786D01*
X125040213Y-90130109D01*
X125212179Y-90255048D01*
X125212181Y-90255049D01*
X125212184Y-90255051D01*
X125401588Y-90351557D01*
X125603757Y-90417246D01*
X125813713Y-90450500D01*
X125813714Y-90450500D01*
X126026286Y-90450500D01*
X126026287Y-90450500D01*
X126236243Y-90417246D01*
X126438412Y-90351557D01*
X126627816Y-90255051D01*
X126714138Y-90192335D01*
X126799786Y-90130109D01*
X126799788Y-90130106D01*
X126799792Y-90130104D01*
X126950104Y-89979792D01*
X126950106Y-89979788D01*
X126950109Y-89979786D01*
X127075048Y-89807820D01*
X127075047Y-89807820D01*
X127075051Y-89807816D01*
X127079514Y-89799054D01*
X127127488Y-89748259D01*
X127195308Y-89731463D01*
X127261444Y-89753999D01*
X127300486Y-89799056D01*
X127304951Y-89807820D01*
X127429890Y-89979786D01*
X127580213Y-90130109D01*
X127752179Y-90255048D01*
X127752181Y-90255049D01*
X127752184Y-90255051D01*
X127941588Y-90351557D01*
X128143757Y-90417246D01*
X128353713Y-90450500D01*
X128353714Y-90450500D01*
X128566286Y-90450500D01*
X128566287Y-90450500D01*
X128776243Y-90417246D01*
X128978412Y-90351557D01*
X129167816Y-90255051D01*
X129254138Y-90192335D01*
X129339786Y-90130109D01*
X129339788Y-90130106D01*
X129339792Y-90130104D01*
X129490104Y-89979792D01*
X129490106Y-89979788D01*
X129490109Y-89979786D01*
X129615048Y-89807820D01*
X129615047Y-89807820D01*
X129615051Y-89807816D01*
X129619514Y-89799054D01*
X129667488Y-89748259D01*
X129735308Y-89731463D01*
X129801444Y-89753999D01*
X129840486Y-89799056D01*
X129844951Y-89807820D01*
X129969890Y-89979786D01*
X130120213Y-90130109D01*
X130292179Y-90255048D01*
X130292181Y-90255049D01*
X130292184Y-90255051D01*
X130481588Y-90351557D01*
X130683757Y-90417246D01*
X130893713Y-90450500D01*
X130893714Y-90450500D01*
X131106286Y-90450500D01*
X131106287Y-90450500D01*
X131316243Y-90417246D01*
X131518412Y-90351557D01*
X131707816Y-90255051D01*
X131794138Y-90192335D01*
X131879786Y-90130109D01*
X131879788Y-90130106D01*
X131879792Y-90130104D01*
X132030104Y-89979792D01*
X132030106Y-89979788D01*
X132030109Y-89979786D01*
X132155048Y-89807820D01*
X132155047Y-89807820D01*
X132155051Y-89807816D01*
X132159514Y-89799054D01*
X132207488Y-89748259D01*
X132275308Y-89731463D01*
X132341444Y-89753999D01*
X132380486Y-89799056D01*
X132384951Y-89807820D01*
X132509890Y-89979786D01*
X132660213Y-90130109D01*
X132832179Y-90255048D01*
X132832181Y-90255049D01*
X132832184Y-90255051D01*
X133021588Y-90351557D01*
X133223757Y-90417246D01*
X133433713Y-90450500D01*
X133433714Y-90450500D01*
X133646286Y-90450500D01*
X133646287Y-90450500D01*
X133856243Y-90417246D01*
X134058412Y-90351557D01*
X134247816Y-90255051D01*
X134334138Y-90192335D01*
X134419786Y-90130109D01*
X134419788Y-90130106D01*
X134419792Y-90130104D01*
X134570104Y-89979792D01*
X134570106Y-89979788D01*
X134570109Y-89979786D01*
X134695048Y-89807820D01*
X134695047Y-89807820D01*
X134695051Y-89807816D01*
X134699514Y-89799054D01*
X134747488Y-89748259D01*
X134815308Y-89731463D01*
X134881444Y-89753999D01*
X134920486Y-89799056D01*
X134924951Y-89807820D01*
X135049890Y-89979786D01*
X135200213Y-90130109D01*
X135372179Y-90255048D01*
X135372181Y-90255049D01*
X135372184Y-90255051D01*
X135561588Y-90351557D01*
X135763757Y-90417246D01*
X135973713Y-90450500D01*
X135973714Y-90450500D01*
X136186286Y-90450500D01*
X136186287Y-90450500D01*
X136396243Y-90417246D01*
X136598412Y-90351557D01*
X136787816Y-90255051D01*
X136874138Y-90192335D01*
X136959786Y-90130109D01*
X136959788Y-90130106D01*
X136959792Y-90130104D01*
X137110104Y-89979792D01*
X137110106Y-89979788D01*
X137110109Y-89979786D01*
X137235048Y-89807820D01*
X137235047Y-89807820D01*
X137235051Y-89807816D01*
X137239514Y-89799054D01*
X137287488Y-89748259D01*
X137355308Y-89731463D01*
X137421444Y-89753999D01*
X137460486Y-89799056D01*
X137464951Y-89807820D01*
X137589890Y-89979786D01*
X137740213Y-90130109D01*
X137912179Y-90255048D01*
X137912181Y-90255049D01*
X137912184Y-90255051D01*
X138101588Y-90351557D01*
X138303757Y-90417246D01*
X138513713Y-90450500D01*
X138513714Y-90450500D01*
X138726286Y-90450500D01*
X138726287Y-90450500D01*
X138936243Y-90417246D01*
X139138412Y-90351557D01*
X139327816Y-90255051D01*
X139414138Y-90192335D01*
X139499786Y-90130109D01*
X139499788Y-90130106D01*
X139499792Y-90130104D01*
X139650104Y-89979792D01*
X139650106Y-89979788D01*
X139650109Y-89979786D01*
X139775048Y-89807820D01*
X139775047Y-89807820D01*
X139775051Y-89807816D01*
X139779514Y-89799054D01*
X139827488Y-89748259D01*
X139895308Y-89731463D01*
X139961444Y-89753999D01*
X140000486Y-89799056D01*
X140004951Y-89807820D01*
X140129890Y-89979786D01*
X140280213Y-90130109D01*
X140452179Y-90255048D01*
X140452181Y-90255049D01*
X140452184Y-90255051D01*
X140641588Y-90351557D01*
X140843757Y-90417246D01*
X141053713Y-90450500D01*
X141053714Y-90450500D01*
X141266286Y-90450500D01*
X141266287Y-90450500D01*
X141476243Y-90417246D01*
X141678412Y-90351557D01*
X141867816Y-90255051D01*
X141954138Y-90192335D01*
X142039786Y-90130109D01*
X142039788Y-90130106D01*
X142039792Y-90130104D01*
X142190104Y-89979792D01*
X142190106Y-89979788D01*
X142190109Y-89979786D01*
X142315048Y-89807820D01*
X142315047Y-89807820D01*
X142315051Y-89807816D01*
X142319514Y-89799054D01*
X142367488Y-89748259D01*
X142435308Y-89731463D01*
X142501444Y-89753999D01*
X142540486Y-89799056D01*
X142544951Y-89807820D01*
X142669890Y-89979786D01*
X142820213Y-90130109D01*
X142992179Y-90255048D01*
X142992181Y-90255049D01*
X142992184Y-90255051D01*
X143181588Y-90351557D01*
X143383757Y-90417246D01*
X143593713Y-90450500D01*
X143593714Y-90450500D01*
X143806286Y-90450500D01*
X143806287Y-90450500D01*
X144016243Y-90417246D01*
X144218412Y-90351557D01*
X144407816Y-90255051D01*
X144494138Y-90192335D01*
X144579786Y-90130109D01*
X144579788Y-90130106D01*
X144579792Y-90130104D01*
X144730104Y-89979792D01*
X144730106Y-89979788D01*
X144730109Y-89979786D01*
X144855048Y-89807820D01*
X144855047Y-89807820D01*
X144855051Y-89807816D01*
X144859514Y-89799054D01*
X144907488Y-89748259D01*
X144975308Y-89731463D01*
X145041444Y-89753999D01*
X145080486Y-89799056D01*
X145084951Y-89807820D01*
X145209890Y-89979786D01*
X145360213Y-90130109D01*
X145532179Y-90255048D01*
X145532181Y-90255049D01*
X145532184Y-90255051D01*
X145721588Y-90351557D01*
X145923757Y-90417246D01*
X146133713Y-90450500D01*
X146133714Y-90450500D01*
X146346286Y-90450500D01*
X146346287Y-90450500D01*
X146556243Y-90417246D01*
X146758412Y-90351557D01*
X146947816Y-90255051D01*
X147119792Y-90130104D01*
X147233329Y-90016566D01*
X147294648Y-89983084D01*
X147364340Y-89988068D01*
X147420274Y-90029939D01*
X147437189Y-90060917D01*
X147486202Y-90192328D01*
X147486206Y-90192335D01*
X147572452Y-90307544D01*
X147572455Y-90307547D01*
X147687664Y-90393793D01*
X147687671Y-90393797D01*
X147822517Y-90444091D01*
X147822516Y-90444091D01*
X147829444Y-90444835D01*
X147882127Y-90450500D01*
X149677872Y-90450499D01*
X149737483Y-90444091D01*
X149872331Y-90393796D01*
X149987546Y-90307546D01*
X150073796Y-90192331D01*
X150124091Y-90057483D01*
X150130500Y-89997873D01*
X150130499Y-88202128D01*
X150124091Y-88142517D01*
X150122810Y-88139083D01*
X150073797Y-88007671D01*
X150073793Y-88007664D01*
X149987547Y-87892455D01*
X149987544Y-87892452D01*
X149872335Y-87806206D01*
X149872328Y-87806202D01*
X149737482Y-87755908D01*
X149737483Y-87755908D01*
X149677883Y-87749501D01*
X149677881Y-87749500D01*
X149677873Y-87749500D01*
X149677865Y-87749500D01*
X149504500Y-87749500D01*
X149437461Y-87729815D01*
X149391706Y-87677011D01*
X149380500Y-87625500D01*
X149380500Y-84334867D01*
X149400185Y-84267828D01*
X149401398Y-84265976D01*
X149401995Y-84265081D01*
X149459394Y-84179179D01*
X149519737Y-84033497D01*
X149550500Y-83878842D01*
X149550500Y-83721158D01*
X149550500Y-83721155D01*
X149550499Y-83721153D01*
X149519737Y-83566503D01*
X149469895Y-83446172D01*
X149459397Y-83420827D01*
X149459390Y-83420814D01*
X149371789Y-83289711D01*
X149371786Y-83289707D01*
X149260292Y-83178213D01*
X149260288Y-83178210D01*
X149129185Y-83090609D01*
X149129172Y-83090602D01*
X148983501Y-83030264D01*
X148983489Y-83030261D01*
X148828845Y-82999500D01*
X148828842Y-82999500D01*
X148671158Y-82999500D01*
X148671155Y-82999500D01*
X148516510Y-83030261D01*
X148516498Y-83030264D01*
X148370827Y-83090602D01*
X148370814Y-83090609D01*
X148239711Y-83178210D01*
X148239707Y-83178213D01*
X148128213Y-83289707D01*
X148128210Y-83289711D01*
X148040609Y-83420814D01*
X148040602Y-83420827D01*
X147980264Y-83566498D01*
X147980261Y-83566510D01*
X147949500Y-83721153D01*
X147949500Y-83878846D01*
X147980261Y-84033489D01*
X147980264Y-84033501D01*
X148040602Y-84179172D01*
X148040609Y-84179185D01*
X148128209Y-84310287D01*
X148128210Y-84310288D01*
X148128211Y-84310289D01*
X148143180Y-84325258D01*
X148176666Y-84386579D01*
X148179500Y-84412940D01*
X148179500Y-87625500D01*
X148159815Y-87692539D01*
X148107011Y-87738294D01*
X148055501Y-87749500D01*
X147882130Y-87749500D01*
X147882123Y-87749501D01*
X147822516Y-87755908D01*
X147687671Y-87806202D01*
X147687664Y-87806206D01*
X147572455Y-87892452D01*
X147572452Y-87892455D01*
X147486206Y-88007664D01*
X147486203Y-88007669D01*
X147437189Y-88139083D01*
X147395317Y-88195016D01*
X147329853Y-88219433D01*
X147261580Y-88204581D01*
X147233326Y-88183430D01*
X147119786Y-88069890D01*
X146947820Y-87944951D01*
X146758414Y-87848444D01*
X146758413Y-87848443D01*
X146758412Y-87848443D01*
X146556243Y-87782754D01*
X146556241Y-87782753D01*
X146556240Y-87782753D01*
X146394957Y-87757208D01*
X146346287Y-87749500D01*
X146133713Y-87749500D01*
X146085042Y-87757208D01*
X145923760Y-87782753D01*
X145721585Y-87848444D01*
X145532179Y-87944951D01*
X145360213Y-88069890D01*
X145209890Y-88220213D01*
X145084949Y-88392182D01*
X145080484Y-88400946D01*
X145032509Y-88451742D01*
X144964688Y-88468536D01*
X144898553Y-88445998D01*
X144859516Y-88400946D01*
X144855050Y-88392182D01*
X144730109Y-88220213D01*
X144579786Y-88069890D01*
X144407820Y-87944951D01*
X144218414Y-87848444D01*
X144218413Y-87848443D01*
X144218412Y-87848443D01*
X144016243Y-87782754D01*
X144016241Y-87782753D01*
X144016240Y-87782753D01*
X143854957Y-87757208D01*
X143806287Y-87749500D01*
X143593713Y-87749500D01*
X143545042Y-87757208D01*
X143383760Y-87782753D01*
X143181585Y-87848444D01*
X142992179Y-87944951D01*
X142820213Y-88069890D01*
X142669890Y-88220213D01*
X142544949Y-88392182D01*
X142540484Y-88400946D01*
X142492509Y-88451742D01*
X142424688Y-88468536D01*
X142358553Y-88445998D01*
X142319516Y-88400946D01*
X142315050Y-88392182D01*
X142190109Y-88220213D01*
X142039786Y-88069890D01*
X141867820Y-87944951D01*
X141678414Y-87848444D01*
X141678413Y-87848443D01*
X141678412Y-87848443D01*
X141476243Y-87782754D01*
X141476241Y-87782753D01*
X141476240Y-87782753D01*
X141314957Y-87757208D01*
X141266287Y-87749500D01*
X141053713Y-87749500D01*
X141005042Y-87757208D01*
X140843760Y-87782753D01*
X140641585Y-87848444D01*
X140452179Y-87944951D01*
X140280213Y-88069890D01*
X140129890Y-88220213D01*
X140004949Y-88392182D01*
X140000484Y-88400946D01*
X139952509Y-88451742D01*
X139884688Y-88468536D01*
X139818553Y-88445998D01*
X139779516Y-88400946D01*
X139775050Y-88392182D01*
X139650109Y-88220213D01*
X139499786Y-88069890D01*
X139327820Y-87944951D01*
X139138414Y-87848444D01*
X139138413Y-87848443D01*
X139138412Y-87848443D01*
X138936243Y-87782754D01*
X138936241Y-87782753D01*
X138936240Y-87782753D01*
X138774957Y-87757208D01*
X138726287Y-87749500D01*
X138513713Y-87749500D01*
X138465042Y-87757208D01*
X138303760Y-87782753D01*
X138101585Y-87848444D01*
X137912179Y-87944951D01*
X137740213Y-88069890D01*
X137589890Y-88220213D01*
X137464949Y-88392182D01*
X137460484Y-88400946D01*
X137412509Y-88451742D01*
X137344688Y-88468536D01*
X137278553Y-88445998D01*
X137239516Y-88400946D01*
X137235050Y-88392182D01*
X137110109Y-88220213D01*
X136959786Y-88069890D01*
X136787820Y-87944951D01*
X136598414Y-87848444D01*
X136598413Y-87848443D01*
X136598412Y-87848443D01*
X136396243Y-87782754D01*
X136396241Y-87782753D01*
X136396240Y-87782753D01*
X136234957Y-87757208D01*
X136186287Y-87749500D01*
X135973713Y-87749500D01*
X135925042Y-87757208D01*
X135763760Y-87782753D01*
X135561585Y-87848444D01*
X135372179Y-87944951D01*
X135200213Y-88069890D01*
X135049890Y-88220213D01*
X134924949Y-88392182D01*
X134920484Y-88400946D01*
X134872509Y-88451742D01*
X134804688Y-88468536D01*
X134738553Y-88445998D01*
X134699516Y-88400946D01*
X134695050Y-88392182D01*
X134570109Y-88220213D01*
X134419786Y-88069890D01*
X134247820Y-87944951D01*
X134058414Y-87848444D01*
X134058413Y-87848443D01*
X134058412Y-87848443D01*
X133856243Y-87782754D01*
X133856241Y-87782753D01*
X133856240Y-87782753D01*
X133694957Y-87757208D01*
X133646287Y-87749500D01*
X133433713Y-87749500D01*
X133385042Y-87757208D01*
X133223760Y-87782753D01*
X133021585Y-87848444D01*
X132832179Y-87944951D01*
X132660213Y-88069890D01*
X132509890Y-88220213D01*
X132384949Y-88392182D01*
X132380484Y-88400946D01*
X132332509Y-88451742D01*
X132264688Y-88468536D01*
X132198553Y-88445998D01*
X132159516Y-88400946D01*
X132155050Y-88392182D01*
X132030109Y-88220213D01*
X131879786Y-88069890D01*
X131707820Y-87944951D01*
X131518414Y-87848444D01*
X131518413Y-87848443D01*
X131518412Y-87848443D01*
X131316243Y-87782754D01*
X131316241Y-87782753D01*
X131316240Y-87782753D01*
X131154957Y-87757208D01*
X131106287Y-87749500D01*
X130893713Y-87749500D01*
X130845042Y-87757208D01*
X130683760Y-87782753D01*
X130481585Y-87848444D01*
X130292179Y-87944951D01*
X130120213Y-88069890D01*
X129969890Y-88220213D01*
X129844949Y-88392182D01*
X129840484Y-88400946D01*
X129792509Y-88451742D01*
X129724688Y-88468536D01*
X129658553Y-88445998D01*
X129619516Y-88400946D01*
X129615050Y-88392182D01*
X129490109Y-88220213D01*
X129339786Y-88069890D01*
X129167820Y-87944951D01*
X128978414Y-87848444D01*
X128978413Y-87848443D01*
X128978412Y-87848443D01*
X128776243Y-87782754D01*
X128776241Y-87782753D01*
X128776240Y-87782753D01*
X128614957Y-87757208D01*
X128566287Y-87749500D01*
X128353713Y-87749500D01*
X128305042Y-87757208D01*
X128143760Y-87782753D01*
X127941585Y-87848444D01*
X127752179Y-87944951D01*
X127580213Y-88069890D01*
X127429890Y-88220213D01*
X127304949Y-88392182D01*
X127300484Y-88400946D01*
X127252509Y-88451742D01*
X127184688Y-88468536D01*
X127118553Y-88445998D01*
X127079516Y-88400946D01*
X127075050Y-88392182D01*
X126950109Y-88220213D01*
X126799786Y-88069890D01*
X126627820Y-87944951D01*
X126438414Y-87848444D01*
X126438413Y-87848443D01*
X126438412Y-87848443D01*
X126236243Y-87782754D01*
X126236241Y-87782753D01*
X126236240Y-87782753D01*
X126074957Y-87757208D01*
X126026287Y-87749500D01*
X125813713Y-87749500D01*
X125765042Y-87757208D01*
X125603760Y-87782753D01*
X125401585Y-87848444D01*
X125212179Y-87944951D01*
X125040213Y-88069890D01*
X124889890Y-88220213D01*
X124764949Y-88392182D01*
X124760484Y-88400946D01*
X124712509Y-88451742D01*
X124644688Y-88468536D01*
X124578553Y-88445998D01*
X124539516Y-88400946D01*
X124535050Y-88392182D01*
X124410109Y-88220213D01*
X124259786Y-88069890D01*
X124087820Y-87944951D01*
X123898414Y-87848444D01*
X123898413Y-87848443D01*
X123898412Y-87848443D01*
X123696243Y-87782754D01*
X123696241Y-87782753D01*
X123696240Y-87782753D01*
X123534957Y-87757208D01*
X123486287Y-87749500D01*
X123273713Y-87749500D01*
X123225042Y-87757208D01*
X123063760Y-87782753D01*
X122861585Y-87848444D01*
X122672179Y-87944951D01*
X122500213Y-88069890D01*
X122349890Y-88220213D01*
X122224949Y-88392182D01*
X122220484Y-88400946D01*
X122172509Y-88451742D01*
X122104688Y-88468536D01*
X122038553Y-88445998D01*
X121999516Y-88400946D01*
X121995050Y-88392182D01*
X121870109Y-88220213D01*
X121719786Y-88069890D01*
X121547820Y-87944951D01*
X121358414Y-87848444D01*
X121358413Y-87848443D01*
X121358412Y-87848443D01*
X121156243Y-87782754D01*
X121156241Y-87782753D01*
X121156240Y-87782753D01*
X120994957Y-87757208D01*
X120946287Y-87749500D01*
X120733713Y-87749500D01*
X120685042Y-87757208D01*
X120523760Y-87782753D01*
X120321585Y-87848444D01*
X120132179Y-87944951D01*
X119960213Y-88069890D01*
X119809890Y-88220213D01*
X119684949Y-88392182D01*
X119680484Y-88400946D01*
X119632509Y-88451742D01*
X119564688Y-88468536D01*
X119498553Y-88445998D01*
X119459516Y-88400946D01*
X119455050Y-88392182D01*
X119330109Y-88220213D01*
X119179786Y-88069890D01*
X119007820Y-87944951D01*
X118818414Y-87848444D01*
X118818413Y-87848443D01*
X118818412Y-87848443D01*
X118616243Y-87782754D01*
X118616241Y-87782753D01*
X118616240Y-87782753D01*
X118454957Y-87757208D01*
X118406287Y-87749500D01*
X118193713Y-87749500D01*
X118145042Y-87757208D01*
X117983760Y-87782753D01*
X117781585Y-87848444D01*
X117592179Y-87944951D01*
X117420213Y-88069890D01*
X117269890Y-88220213D01*
X117144949Y-88392182D01*
X117140202Y-88401499D01*
X117092227Y-88452293D01*
X117024405Y-88469087D01*
X116958271Y-88446548D01*
X116919234Y-88401495D01*
X116914626Y-88392452D01*
X116875270Y-88338282D01*
X116875269Y-88338282D01*
X116242962Y-88970590D01*
X116225925Y-88907007D01*
X116160099Y-88792993D01*
X116067007Y-88699901D01*
X115952993Y-88634075D01*
X115889409Y-88617037D01*
X116521716Y-87984728D01*
X116467550Y-87945375D01*
X116278217Y-87848904D01*
X116076129Y-87783242D01*
X115866246Y-87750000D01*
X115653754Y-87750000D01*
X115443872Y-87783242D01*
X115443869Y-87783242D01*
X115241782Y-87848904D01*
X115052439Y-87945380D01*
X114998282Y-87984727D01*
X114998282Y-87984728D01*
X115630591Y-88617037D01*
X115567007Y-88634075D01*
X115452993Y-88699901D01*
X115359901Y-88792993D01*
X115294075Y-88907007D01*
X115277037Y-88970591D01*
X114644728Y-88338282D01*
X114644727Y-88338282D01*
X114605380Y-88392440D01*
X114605376Y-88392446D01*
X114600760Y-88401505D01*
X114552781Y-88452297D01*
X114484959Y-88469087D01*
X114418826Y-88446543D01*
X114379794Y-88401493D01*
X114375051Y-88392184D01*
X114375049Y-88392181D01*
X114375048Y-88392179D01*
X114250109Y-88220213D01*
X114099786Y-88069890D01*
X113927820Y-87944951D01*
X113738414Y-87848444D01*
X113738413Y-87848443D01*
X113738412Y-87848443D01*
X113536243Y-87782754D01*
X113536241Y-87782753D01*
X113536240Y-87782753D01*
X113374957Y-87757208D01*
X113326287Y-87749500D01*
X113113713Y-87749500D01*
X113065042Y-87757208D01*
X112903760Y-87782753D01*
X112701585Y-87848444D01*
X112512179Y-87944951D01*
X112340213Y-88069890D01*
X112189890Y-88220213D01*
X112064951Y-88392179D01*
X111968444Y-88581585D01*
X111902753Y-88783760D01*
X111901291Y-88792993D01*
X111869500Y-88993713D01*
X110000500Y-88993713D01*
X110000500Y-74397682D01*
X123200000Y-74397682D01*
X123200000Y-74602317D01*
X123232009Y-74804417D01*
X123295244Y-74999031D01*
X123388141Y-75181350D01*
X123388147Y-75181359D01*
X123420523Y-75225921D01*
X123420524Y-75225922D01*
X124100000Y-74546446D01*
X124100000Y-74552661D01*
X124127259Y-74654394D01*
X124179920Y-74745606D01*
X124254394Y-74820080D01*
X124345606Y-74872741D01*
X124447339Y-74900000D01*
X124453553Y-74900000D01*
X123774076Y-75579474D01*
X123818650Y-75611859D01*
X124000968Y-75704755D01*
X124195582Y-75767990D01*
X124397683Y-75800000D01*
X124602317Y-75800000D01*
X124804417Y-75767990D01*
X124999031Y-75704755D01*
X125181349Y-75611859D01*
X125225921Y-75579474D01*
X124546447Y-74900000D01*
X124552661Y-74900000D01*
X124654394Y-74872741D01*
X124745606Y-74820080D01*
X124820080Y-74745606D01*
X124872741Y-74654394D01*
X124900000Y-74552661D01*
X124900000Y-74546448D01*
X125579474Y-75225922D01*
X125579474Y-75225921D01*
X125611859Y-75181349D01*
X125704755Y-74999031D01*
X125767990Y-74804417D01*
X125800000Y-74602317D01*
X125800000Y-74397682D01*
X125767990Y-74195582D01*
X125704755Y-74000968D01*
X125611859Y-73818650D01*
X125579474Y-73774077D01*
X125579474Y-73774076D01*
X124900000Y-74453551D01*
X124900000Y-74447339D01*
X124872741Y-74345606D01*
X124820080Y-74254394D01*
X124745606Y-74179920D01*
X124654394Y-74127259D01*
X124552661Y-74100000D01*
X124546446Y-74100000D01*
X125225921Y-73420525D01*
X125225921Y-73420523D01*
X125181359Y-73388147D01*
X125181350Y-73388141D01*
X124999031Y-73295244D01*
X124804417Y-73232009D01*
X124602317Y-73200000D01*
X124397683Y-73200000D01*
X124195582Y-73232009D01*
X124000968Y-73295244D01*
X123818644Y-73388143D01*
X123774077Y-73420523D01*
X123774077Y-73420524D01*
X124453554Y-74100000D01*
X124447339Y-74100000D01*
X124345606Y-74127259D01*
X124254394Y-74179920D01*
X124179920Y-74254394D01*
X124127259Y-74345606D01*
X124100000Y-74447339D01*
X124100000Y-74453553D01*
X123420524Y-73774077D01*
X123420523Y-73774077D01*
X123388143Y-73818644D01*
X123295244Y-74000968D01*
X123232009Y-74195582D01*
X123200000Y-74397682D01*
X110000500Y-74397682D01*
X110000500Y-69397648D01*
X123199500Y-69397648D01*
X123199500Y-69602351D01*
X123231522Y-69804534D01*
X123294781Y-69999223D01*
X123387715Y-70181613D01*
X123508028Y-70347213D01*
X123652786Y-70491971D01*
X123807749Y-70604556D01*
X123818390Y-70612287D01*
X123934607Y-70671503D01*
X124000776Y-70705218D01*
X124000778Y-70705218D01*
X124000781Y-70705220D01*
X124065619Y-70726287D01*
X124195465Y-70768477D01*
X124296557Y-70784488D01*
X124397648Y-70800500D01*
X124397649Y-70800500D01*
X124602351Y-70800500D01*
X124602352Y-70800500D01*
X124804534Y-70768477D01*
X124999219Y-70705220D01*
X125181610Y-70612287D01*
X125317287Y-70513713D01*
X125347213Y-70491971D01*
X125347215Y-70491968D01*
X125347219Y-70491966D01*
X125491966Y-70347219D01*
X125491968Y-70347215D01*
X125491971Y-70347213D01*
X125544732Y-70274590D01*
X125612287Y-70181610D01*
X125705220Y-69999219D01*
X125768477Y-69804534D01*
X125800500Y-69602352D01*
X125800500Y-69397648D01*
X125768477Y-69195466D01*
X125705220Y-69000781D01*
X125705218Y-69000778D01*
X125705218Y-69000776D01*
X125671503Y-68934607D01*
X125612287Y-68818390D01*
X125590073Y-68787815D01*
X125491971Y-68652786D01*
X125347213Y-68508028D01*
X125181613Y-68387715D01*
X125181612Y-68387714D01*
X125181610Y-68387713D01*
X125124653Y-68358691D01*
X124999223Y-68294781D01*
X124804534Y-68231522D01*
X124629995Y-68203878D01*
X124602352Y-68199500D01*
X124397648Y-68199500D01*
X124373329Y-68203351D01*
X124195465Y-68231522D01*
X124000776Y-68294781D01*
X123818386Y-68387715D01*
X123652786Y-68508028D01*
X123508028Y-68652786D01*
X123387715Y-68818386D01*
X123294781Y-69000776D01*
X123231522Y-69195465D01*
X123199500Y-69397648D01*
X110000500Y-69397648D01*
X110000500Y-45378711D01*
X113149500Y-45378711D01*
X113149500Y-45621288D01*
X113181161Y-45861785D01*
X113243947Y-46096104D01*
X113336773Y-46320205D01*
X113336776Y-46320212D01*
X113458064Y-46530289D01*
X113458066Y-46530292D01*
X113458067Y-46530293D01*
X113605733Y-46722736D01*
X113605739Y-46722743D01*
X113777256Y-46894260D01*
X113777262Y-46894265D01*
X113969711Y-47041936D01*
X114179788Y-47163224D01*
X114403900Y-47256054D01*
X114638211Y-47318838D01*
X114818586Y-47342584D01*
X114878711Y-47350500D01*
X114878712Y-47350500D01*
X115121289Y-47350500D01*
X115169388Y-47344167D01*
X115361789Y-47318838D01*
X115596100Y-47256054D01*
X115820212Y-47163224D01*
X116030289Y-47041936D01*
X116222738Y-46894265D01*
X116394265Y-46722738D01*
X116541936Y-46530289D01*
X116663224Y-46320212D01*
X116756054Y-46096100D01*
X116818838Y-45861789D01*
X116850500Y-45621288D01*
X116850500Y-45378712D01*
X116850500Y-45378711D01*
X172149500Y-45378711D01*
X172149500Y-45621288D01*
X172181161Y-45861785D01*
X172243947Y-46096104D01*
X172336773Y-46320205D01*
X172336776Y-46320212D01*
X172458064Y-46530289D01*
X172458066Y-46530292D01*
X172458067Y-46530293D01*
X172605733Y-46722736D01*
X172605739Y-46722743D01*
X172777256Y-46894260D01*
X172777262Y-46894265D01*
X172969711Y-47041936D01*
X173179788Y-47163224D01*
X173403900Y-47256054D01*
X173638211Y-47318838D01*
X173818586Y-47342584D01*
X173878711Y-47350500D01*
X173878712Y-47350500D01*
X174121289Y-47350500D01*
X174169388Y-47344167D01*
X174361789Y-47318838D01*
X174596100Y-47256054D01*
X174820212Y-47163224D01*
X175030289Y-47041936D01*
X175222738Y-46894265D01*
X175394265Y-46722738D01*
X175541936Y-46530289D01*
X175663224Y-46320212D01*
X175756054Y-46096100D01*
X175818838Y-45861789D01*
X175850500Y-45621288D01*
X175850500Y-45378712D01*
X175818838Y-45138211D01*
X175756054Y-44903900D01*
X175663224Y-44679788D01*
X175541936Y-44469711D01*
X175394265Y-44277262D01*
X175394260Y-44277256D01*
X175222743Y-44105739D01*
X175222736Y-44105733D01*
X175030293Y-43958067D01*
X175030292Y-43958066D01*
X175030289Y-43958064D01*
X174820212Y-43836776D01*
X174820205Y-43836773D01*
X174596104Y-43743947D01*
X174361785Y-43681161D01*
X174121289Y-43649500D01*
X174121288Y-43649500D01*
X173878712Y-43649500D01*
X173878711Y-43649500D01*
X173638214Y-43681161D01*
X173403895Y-43743947D01*
X173179794Y-43836773D01*
X173179785Y-43836777D01*
X172969706Y-43958067D01*
X172777263Y-44105733D01*
X172777256Y-44105739D01*
X172605739Y-44277256D01*
X172605733Y-44277263D01*
X172458067Y-44469706D01*
X172336777Y-44679785D01*
X172336773Y-44679794D01*
X172243947Y-44903895D01*
X172181161Y-45138214D01*
X172149500Y-45378711D01*
X116850500Y-45378711D01*
X116818838Y-45138211D01*
X116756054Y-44903900D01*
X116663224Y-44679788D01*
X116541936Y-44469711D01*
X116394265Y-44277262D01*
X116394260Y-44277256D01*
X116222743Y-44105739D01*
X116222736Y-44105733D01*
X116030293Y-43958067D01*
X116030292Y-43958066D01*
X116030289Y-43958064D01*
X115820212Y-43836776D01*
X115820205Y-43836773D01*
X115596104Y-43743947D01*
X115361785Y-43681161D01*
X115121289Y-43649500D01*
X115121288Y-43649500D01*
X114878712Y-43649500D01*
X114878711Y-43649500D01*
X114638214Y-43681161D01*
X114403895Y-43743947D01*
X114179794Y-43836773D01*
X114179785Y-43836777D01*
X113969706Y-43958067D01*
X113777263Y-44105733D01*
X113777256Y-44105739D01*
X113605739Y-44277256D01*
X113605733Y-44277263D01*
X113458067Y-44469706D01*
X113336777Y-44679785D01*
X113336773Y-44679794D01*
X113243947Y-44903895D01*
X113181161Y-45138214D01*
X113149500Y-45378711D01*
X110000500Y-45378711D01*
X110000500Y-40624500D01*
X110020185Y-40557461D01*
X110072989Y-40511706D01*
X110124500Y-40500500D01*
X178875500Y-40500500D01*
X178942539Y-40520185D01*
G37*
%TD.AperFunction*%
%TD*%
M02*
