M48
; DRILL file KiCad 10.0.6 date 2026-10-09T16:06:51
; FORMAT={-:-/ absolute / metric / decimal}
; #@! TF.CreationDate,2026-10-09T16:06:51+02:00
; #@! TF.GenerationSoftware,Kicad,Pcbnew,10.0.6
; #@! TF.FileFunction,Plated,1,2,PTH
FMAT,2
METRIC
; #@! TA.AperFunction,Plated,PTH,ViaDrill
T1C0.300
; #@! TA.AperFunction,Plated,PTH,ComponentDrill
T2C0.800
; #@! TA.AperFunction,Plated,PTH,ComponentDrill
T3C0.900
; #@! TA.AperFunction,Plated,PTH,ComponentDrill
T4C1.000
; #@! TA.AperFunction,Plated,PTH,ComponentDrill
T5C1.100
; #@! TA.AperFunction,Plated,PTH,ComponentDrill
T6C1.500
%
G90
G05
T1
X148.75Y-83.8
X152.859Y-112.891
X153.049Y-143.701
X155.523Y-110.977
X155.9Y-114.5
X156.067Y-112.087
X156.3Y-113.799
X156.332Y-112.918
T2
X124.5Y-69.5
X124.5Y-74.5
T3
X177.0Y-82.4
X177.0Y-84.4
X177.0Y-86.4
T4
X113.22Y-89.1
X113.22Y-114.5
X115.76Y-89.1
X115.76Y-114.5
X118.3Y-89.1
X118.3Y-114.5
X120.84Y-89.1
X120.84Y-114.5
X123.38Y-89.1
X123.38Y-114.5
X125.92Y-89.1
X125.92Y-114.5
X128.46Y-89.1
X128.46Y-114.5
X130.5Y-55.38
X130.5Y-57.92
X130.5Y-60.46
X130.5Y-63.0
X130.5Y-65.54
X130.5Y-68.08
X130.5Y-70.62
X130.5Y-73.16
X131.0Y-89.1
X131.0Y-114.5
X133.54Y-89.1
X133.54Y-114.5
X136.08Y-89.1
X136.08Y-114.5
X138.62Y-89.1
X138.62Y-114.5
X141.16Y-89.1
X141.16Y-114.5
X143.7Y-89.1
X143.7Y-114.5
X146.24Y-89.1
X146.24Y-114.5
X148.78Y-89.1
X148.78Y-114.5
X159.9Y-102.75
X167.5Y-102.75
T5
X114.75Y-137.75
X114.75Y-142.25
X121.25Y-137.75
X121.25Y-142.25
X124.25Y-130.25
X124.25Y-134.75
X124.25Y-145.25
X124.25Y-149.75
X130.75Y-130.25
X130.75Y-134.75
X130.75Y-145.25
X130.75Y-149.75
X133.75Y-137.75
X133.75Y-142.25
X140.25Y-137.75
X140.25Y-142.25
X146.5Y-147.5
X146.5Y-152.0
X153.0Y-147.5
X153.0Y-152.0
X156.0Y-147.5
X156.0Y-152.0
X157.5Y-128.0
X157.5Y-132.5
X162.5Y-147.5
X162.5Y-152.0
X164.0Y-128.0
X164.0Y-132.5
X167.0Y-120.5
X167.0Y-125.0
X173.5Y-120.5
X173.5Y-125.0
T6
X177.0Y-80.3
X177.0Y-88.5
M30
