%TF.GenerationSoftware,KiCad,Pcbnew,10.0.6*%
%TF.CreationDate,2026-10-05T23:51:51+02:00*%
%TF.ProjectId,the_gameboy,7468655f-6761-46d6-9562-6f792e6b6963,rev?*%
%TF.SameCoordinates,Original*%
%TF.FileFunction,Copper,L1,Top*%
%TF.FilePolarity,Positive*%
%FSLAX46Y46*%
G04 Gerber Fmt 4.6, Leading zero omitted, Abs format (unit mm)*
G04 Created by KiCad (PCBNEW 10.0.6) date 2026-10-05 23:51:51*
%MOMM*%
%LPD*%
G01*
G04 APERTURE LIST*
%TA.AperFunction,ComponentPad*%
%ADD10O,2.500000X1.500000*%
%TD*%
%TA.AperFunction,ComponentPad*%
%ADD11R,2.500000X1.500000*%
%TD*%
%TA.AperFunction,ComponentPad*%
%ADD12O,3.500000X2.200000*%
%TD*%
%TA.AperFunction,ComponentPad*%
%ADD13C,2.000000*%
%TD*%
%TA.AperFunction,ComponentPad*%
%ADD14R,1.700000X1.700000*%
%TD*%
%TA.AperFunction,ComponentPad*%
%ADD15C,1.700000*%
%TD*%
%TA.AperFunction,ComponentPad*%
%ADD16C,1.600000*%
%TD*%
%TA.AperFunction,ComponentPad*%
%ADD17R,2.000000X2.000000*%
%TD*%
%TA.AperFunction,ViaPad*%
%ADD18C,0.600000*%
%TD*%
%TA.AperFunction,Conductor*%
%ADD19C,0.300000*%
%TD*%
G04 APERTURE END LIST*
D10*
%TO.P,SW9,3,C_3*%
%TO.N,VCC*%
X177000000Y-82400000D03*
%TO.P,SW9,2,B_2*%
%TO.N,Net-(J2-Pin_15)*%
X177000000Y-84400000D03*
D11*
%TO.P,SW9,1,A_1*%
%TO.N,unconnected-(SW9-A-Pad1)*%
X177000000Y-86400000D03*
D12*
%TO.P,SW9,*%
%TO.N,*%
X177000000Y-80300000D03*
X177000000Y-88500000D03*
%TD*%
D13*
%TO.P,SW8,2,2_2*%
%TO.N,GND*%
X162500000Y-152000000D03*
X156000000Y-152000000D03*
%TO.P,SW8,1,1_1*%
%TO.N,Net-(J3-Pin_12)*%
X162500000Y-147500000D03*
X156000000Y-147500000D03*
%TD*%
%TO.P,SW7,2,2_2*%
%TO.N,GND*%
X153000000Y-152000000D03*
X146500000Y-152000000D03*
%TO.P,SW7,1,1_1*%
%TO.N,Net-(J3-Pin_11)*%
X153000000Y-147500000D03*
X146500000Y-147500000D03*
%TD*%
%TO.P,SW6,1,1_1*%
%TO.N,Net-(J2-Pin_12)*%
X157500000Y-128000000D03*
X164000000Y-128000000D03*
%TO.P,SW6,2,2_2*%
%TO.N,GND*%
X157500000Y-132500000D03*
X164000000Y-132500000D03*
%TD*%
%TO.P,SW5,1,1_1*%
%TO.N,Net-(J2-Pin_11)*%
X167000000Y-120500000D03*
X173500000Y-120500000D03*
%TO.P,SW5,2,2_2*%
%TO.N,GND*%
X167000000Y-125000000D03*
X173500000Y-125000000D03*
%TD*%
%TO.P,SW4,1,1_1*%
%TO.N,Net-(J2-Pin_10)*%
X133750000Y-137750000D03*
X140250000Y-137750000D03*
%TO.P,SW4,2,2_2*%
%TO.N,GND*%
X133750000Y-142250000D03*
X140250000Y-142250000D03*
%TD*%
%TO.P,SW3,1,1_1*%
%TO.N,Net-(J2-Pin_9)*%
X114750000Y-137750000D03*
X121250000Y-137750000D03*
%TO.P,SW3,2,2_2*%
%TO.N,GND*%
X114750000Y-142250000D03*
X121250000Y-142250000D03*
%TD*%
%TO.P,SW2,1,1_1*%
%TO.N,Net-(J2-Pin_8)*%
X124250000Y-145250000D03*
X130750000Y-145250000D03*
%TO.P,SW2,2,2_2*%
%TO.N,GND*%
X124250000Y-149750000D03*
X130750000Y-149750000D03*
%TD*%
%TO.P,SW1,1,1_1*%
%TO.N,Net-(J2-Pin_7)*%
X124250000Y-130250000D03*
X130750000Y-130250000D03*
%TO.P,SW1,2,2_2*%
%TO.N,GND*%
X124250000Y-134750000D03*
X130750000Y-134750000D03*
%TD*%
D14*
%TO.P,J2,1,Pin_1_1*%
%TO.N,Net-(J1-Pin_2)*%
X131500000Y-82100000D03*
D15*
%TO.P,J2,2,Pin_2_2*%
%TO.N,unconnected-(J2-Pin_2-Pad2)*%
X131500000Y-84640000D03*
%TO.P,J2,3,Pin_3_3*%
%TO.N,unconnected-(J2-Pin_3-Pad3)*%
X131500000Y-87180000D03*
%TO.P,J2,4,Pin_4_4*%
%TO.N,unconnected-(J2-Pin_4-Pad4)*%
X131500000Y-89720000D03*
%TO.P,J2,5,Pin_5_5*%
%TO.N,unconnected-(J2-Pin_5-Pad5)*%
X131500000Y-92260000D03*
%TO.P,J2,6,Pin_6_6*%
%TO.N,unconnected-(J2-Pin_6-Pad6)*%
X131500000Y-94800000D03*
%TO.P,J2,7,Pin_7_7*%
%TO.N,Net-(J2-Pin_7)*%
X131500000Y-97340000D03*
%TO.P,J2,8,Pin_8_8*%
%TO.N,Net-(J2-Pin_8)*%
X131500000Y-99880000D03*
%TO.P,J2,9,Pin_9_9*%
%TO.N,Net-(J2-Pin_9)*%
X131500000Y-102420000D03*
%TO.P,J2,10,Pin_10_10*%
%TO.N,Net-(J2-Pin_10)*%
X131500000Y-104960000D03*
%TO.P,J2,11,Pin_11_11*%
%TO.N,Net-(J2-Pin_11)*%
X131500000Y-107500000D03*
%TO.P,J2,12,Pin_12_12*%
%TO.N,Net-(J2-Pin_12)*%
X131500000Y-110040000D03*
%TO.P,J2,13,Pin_13_13*%
%TO.N,Net-(BZ1-+)*%
X131500000Y-112580000D03*
%TO.P,J2,14,Pin_14_14*%
%TO.N,GND*%
X131500000Y-115120000D03*
%TO.P,J2,15,Pin_15_15*%
%TO.N,Net-(J2-Pin_15)*%
X131500000Y-117660000D03*
%TD*%
D14*
%TO.P,J1,1,Pin_1_1*%
%TO.N,GND*%
X130500000Y-73160000D03*
D15*
%TO.P,J1,2,Pin_2_2*%
%TO.N,Net-(J1-Pin_2)*%
X130500000Y-70620000D03*
%TO.P,J1,3,Pin_3_3*%
%TO.N,Net-(J1-Pin_3)*%
X130500000Y-68080000D03*
%TO.P,J1,4,Pin_4_4*%
%TO.N,Net-(J1-Pin_4)*%
X130500000Y-65540000D03*
%TO.P,J1,5,Pin_5_5*%
%TO.N,Net-(J1-Pin_5)*%
X130500000Y-63000000D03*
%TO.P,J1,6,Pin_6_6*%
%TO.N,Net-(J1-Pin_6)*%
X130500000Y-60460000D03*
%TO.P,J1,7,Pin_7_7*%
%TO.N,Net-(J1-Pin_7)*%
X130500000Y-57920000D03*
%TO.P,J1,8,Pin_8_8*%
%TO.N,Net-(J1-Pin_8)*%
X130500000Y-55380000D03*
%TD*%
D16*
%TO.P,C1,1*%
%TO.N,Net-(J1-Pin_2)*%
X124500000Y-69500000D03*
%TO.P,C1,2*%
%TO.N,GND*%
X124500000Y-74500000D03*
%TD*%
D13*
%TO.P,BZ1,2,-_2*%
%TO.N,GND*%
X148300000Y-129500000D03*
D17*
%TO.P,BZ1,1,+_1*%
%TO.N,Net-(BZ1-+)*%
X140700000Y-129500000D03*
%TD*%
D14*
%TO.P,J3,1,Pin_1_1*%
%TO.N,Net-(J1-Pin_4)*%
X156900000Y-82100000D03*
D15*
%TO.P,J3,2,Pin_2_2*%
%TO.N,unconnected-(J3-Pin_2-Pad2)*%
X156900000Y-84640000D03*
%TO.P,J3,3,Pin_3_3*%
%TO.N,unconnected-(J3-Pin_3-Pad3)*%
X156900000Y-87180000D03*
%TO.P,J3,4,Pin_4_4*%
%TO.N,unconnected-(J3-Pin_4-Pad4)*%
X156900000Y-89720000D03*
%TO.P,J3,5,Pin_5_5*%
%TO.N,unconnected-(J3-Pin_5-Pad5)*%
X156900000Y-92260000D03*
%TO.P,J3,6,Pin_6_6*%
%TO.N,unconnected-(J3-Pin_6-Pad6)*%
X156900000Y-94800000D03*
%TO.P,J3,7,Pin_7_7*%
%TO.N,unconnected-(J3-Pin_7-Pad7)*%
X156900000Y-97340000D03*
%TO.P,J3,8,Pin_8_8*%
%TO.N,Net-(J1-Pin_7)*%
X156900000Y-99880000D03*
%TO.P,J3,9,Pin_9_9*%
%TO.N,Net-(J1-Pin_8)*%
X156900000Y-102420000D03*
%TO.P,J3,10,Pin_10_10*%
%TO.N,unconnected-(J3-Pin_10-Pad10)*%
X156900000Y-104960000D03*
%TO.P,J3,11,Pin_11_11*%
%TO.N,Net-(J3-Pin_11)*%
X156900000Y-107500000D03*
%TO.P,J3,12,Pin_12_12*%
%TO.N,Net-(J3-Pin_12)*%
X156900000Y-110040000D03*
%TO.P,J3,13,Pin_13_13*%
%TO.N,Net-(J1-Pin_5)*%
X156900000Y-112580000D03*
%TO.P,J3,14,Pin_14_14*%
%TO.N,Net-(J1-Pin_6)*%
X156900000Y-115120000D03*
%TO.P,J3,15,Pin_15_15*%
%TO.N,Net-(J1-Pin_3)*%
X156900000Y-117660000D03*
%TD*%
D18*
%TO.N,Net-(J2-Pin_15)*%
X151500000Y-121500000D03*
X155000000Y-121500000D03*
X161150000Y-99500000D03*
%TO.N,Net-(J1-Pin_8)*%
X161150000Y-98034620D03*
%TO.N,Net-(J1-Pin_7)*%
X161150000Y-96500000D03*
%TO.N,Net-(J2-Pin_7)*%
X125350000Y-130000000D03*
X125000000Y-110500000D03*
X125000000Y-104500000D03*
%TO.N,Net-(J2-Pin_8)*%
X126500000Y-104500000D03*
X126500000Y-110500000D03*
%TD*%
%TO.N,Net-(J1-Pin_2)*%
D19*
X127500000Y-75500000D02*
X127500000Y-70740000D01*
X131500000Y-79500000D02*
X127500000Y-75500000D01*
X131500000Y-82100000D02*
X131500000Y-79500000D01*
X127500000Y-70740000D02*
X127620000Y-70620000D01*
X126500000Y-69500000D02*
X124500000Y-69500000D01*
X127620000Y-70620000D02*
X126500000Y-69500000D01*
X130500000Y-70620000D02*
X127620000Y-70620000D01*
%TO.N,Net-(J2-Pin_10)*%
X139000000Y-133750000D02*
X140250000Y-135000000D01*
X140250000Y-135000000D02*
X140250000Y-137750000D01*
X139000000Y-129707107D02*
X139000000Y-133750000D01*
X137500000Y-128207107D02*
X139000000Y-129707107D01*
X137500000Y-127000000D02*
X137500000Y-128207107D01*
X135500000Y-125000000D02*
X137500000Y-127000000D01*
X129500000Y-119500000D02*
X133000000Y-119500000D01*
X128500000Y-118500000D02*
X129500000Y-119500000D01*
X133000000Y-119500000D02*
X133000000Y-125000000D01*
X128500000Y-107960000D02*
X128500000Y-118500000D01*
X133000000Y-125000000D02*
X135500000Y-125000000D01*
X131500000Y-104960000D02*
X128500000Y-107960000D01*
%TO.N,Net-(J2-Pin_15)*%
X155000000Y-121500000D02*
X151500000Y-121500000D01*
X161000000Y-99103859D02*
X161000000Y-99500000D01*
X161000000Y-99500000D02*
X161150000Y-99500000D01*
X162300000Y-97803859D02*
X161000000Y-99103859D01*
X162000000Y-95723655D02*
X162300000Y-96023655D01*
X162300000Y-96023655D02*
X162300000Y-97803859D01*
X162000000Y-87000000D02*
X162000000Y-95723655D01*
X164600000Y-84400000D02*
X162000000Y-87000000D01*
X177000000Y-84400000D02*
X164600000Y-84400000D01*
%TO.N,Net-(J3-Pin_11)*%
X146500000Y-147500000D02*
X153000000Y-147500000D01*
%TO.N,Net-(J2-Pin_9)*%
X121250000Y-112670000D02*
X121250000Y-137750000D01*
X131500000Y-102420000D02*
X121250000Y-112670000D01*
%TO.N,Net-(J2-Pin_8)*%
X126000000Y-111000000D02*
X126500000Y-110500000D01*
X124250000Y-145250000D02*
X126000000Y-143500000D01*
X126000000Y-143500000D02*
X126000000Y-111000000D01*
%TO.N,Net-(J2-Pin_7)*%
X125500000Y-111000000D02*
X125000000Y-110500000D01*
X125500000Y-129850000D02*
X125500000Y-111000000D01*
X125350000Y-130000000D02*
X125500000Y-129850000D01*
X125250000Y-130250000D02*
X124250000Y-130250000D01*
X125350000Y-130150000D02*
X125250000Y-130250000D01*
X125350000Y-130000000D02*
X125350000Y-130150000D01*
%TO.N,Net-(J1-Pin_8)*%
X161800000Y-97384620D02*
X161150000Y-98034620D01*
X161500000Y-95930761D02*
X161800000Y-96230761D01*
X161500000Y-79878682D02*
X161500000Y-95930761D01*
X137001318Y-55380000D02*
X161500000Y-79878682D01*
X130500000Y-55380000D02*
X137001318Y-55380000D01*
X161800000Y-96230761D02*
X161800000Y-97384620D01*
%TO.N,Net-(J2-Pin_11)*%
X166000000Y-120500000D02*
X167000000Y-120500000D01*
X165500000Y-121000000D02*
X166000000Y-120500000D01*
X156090811Y-127500000D02*
X156940811Y-126650000D01*
X139000000Y-127500000D02*
X156090811Y-127500000D01*
X139000000Y-126378682D02*
X139000000Y-127500000D01*
X165500000Y-123500000D02*
X165500000Y-121000000D01*
X156940811Y-126650000D02*
X162350000Y-126650000D01*
X134500000Y-123500000D02*
X136121319Y-123500000D01*
X134500000Y-110500000D02*
X134500000Y-123500000D01*
X136121319Y-123500000D02*
X139000000Y-126378682D01*
X162350000Y-126650000D02*
X165500000Y-123500000D01*
X131500000Y-107500000D02*
X134500000Y-110500000D01*
%TO.N,Net-(J2-Pin_12)*%
X138500000Y-126585788D02*
X138500000Y-127792894D01*
X135914213Y-124000000D02*
X138500000Y-126585788D01*
X138707106Y-128000000D02*
X157500000Y-128000000D01*
X134000000Y-124000000D02*
X135914213Y-124000000D01*
X138500000Y-127792894D02*
X138707106Y-128000000D01*
X134000000Y-112540000D02*
X134000000Y-124000000D01*
X131500000Y-110040000D02*
X134000000Y-112540000D01*
%TO.N,Net-(BZ1-+)*%
X139500000Y-129500000D02*
X140700000Y-129500000D01*
X138000000Y-128000000D02*
X139500000Y-129500000D01*
X135707106Y-124500000D02*
X138000000Y-126792894D01*
X133500000Y-124500000D02*
X135707106Y-124500000D01*
X138000000Y-126792894D02*
X138000000Y-128000000D01*
X133500000Y-114580000D02*
X133500000Y-124500000D01*
X131500000Y-112580000D02*
X133500000Y-114580000D01*
%TO.N,Net-(J2-Pin_7)*%
X125000000Y-103920000D02*
X125000000Y-104500000D01*
X131500000Y-97420000D02*
X125000000Y-103920000D01*
X131500000Y-97340000D02*
X131500000Y-97420000D01*
%TO.N,Net-(J1-Pin_3)*%
X131420000Y-69000000D02*
X130500000Y-68080000D01*
X147085788Y-69000000D02*
X131420000Y-69000000D01*
X155000000Y-115760000D02*
X155000000Y-76914212D01*
X156900000Y-117660000D02*
X155000000Y-115760000D01*
X155000000Y-76914212D02*
X147085788Y-69000000D01*
%TO.N,Net-(J1-Pin_4)*%
X144332894Y-65540000D02*
X130500000Y-65540000D01*
X156900000Y-78107106D02*
X144332894Y-65540000D01*
X156900000Y-82100000D02*
X156900000Y-78107106D01*
%TO.N,Net-(J1-Pin_7)*%
X138834212Y-57920000D02*
X161000000Y-80085788D01*
X161000000Y-80085788D02*
X161000000Y-96500000D01*
X130500000Y-57920000D02*
X138834212Y-57920000D01*
%TO.N,Net-(J1-Pin_6)*%
X160500000Y-111520000D02*
X156900000Y-115120000D01*
X160500000Y-80292894D02*
X160500000Y-111520000D01*
X130500000Y-60460000D02*
X140667106Y-60460000D01*
X140667106Y-60460000D02*
X160500000Y-80292894D01*
%TO.N,Net-(J1-Pin_5)*%
X160000000Y-80500000D02*
X160000000Y-109480000D01*
X142500000Y-63000000D02*
X160000000Y-80500000D01*
X130500000Y-63000000D02*
X142500000Y-63000000D01*
X160000000Y-109480000D02*
X156900000Y-112580000D01*
%TO.N,Net-(J2-Pin_8)*%
X124250000Y-145250000D02*
X130750000Y-145250000D01*
X131120000Y-99880000D02*
X126500000Y-104500000D01*
X131500000Y-99880000D02*
X131120000Y-99880000D01*
%TO.N,Net-(J2-Pin_10)*%
X133750000Y-137750000D02*
X140250000Y-137750000D01*
%TO.N,Net-(J2-Pin_11)*%
X167000000Y-120500000D02*
X173500000Y-120500000D01*
%TO.N,Net-(J2-Pin_12)*%
X164000000Y-128000000D02*
X157500000Y-128000000D01*
%TO.N,Net-(J2-Pin_9)*%
X114750000Y-137750000D02*
X121250000Y-137750000D01*
%TD*%
%TA.AperFunction,Conductor*%
%TO.N,GND*%
G36*
X178942539Y-40520185D02*
G01*
X178988294Y-40572989D01*
X178999500Y-40624500D01*
X178999500Y-79086689D01*
X178979815Y-79153728D01*
X178927011Y-79199483D01*
X178857853Y-79209427D01*
X178794297Y-79180402D01*
X178787819Y-79174370D01*
X178692654Y-79079205D01*
X178692649Y-79079201D01*
X178488848Y-78931132D01*
X178488847Y-78931131D01*
X178488845Y-78931130D01*
X178418747Y-78895413D01*
X178264383Y-78816760D01*
X178024785Y-78738910D01*
X177775962Y-78699500D01*
X176224038Y-78699500D01*
X176099626Y-78719205D01*
X175975214Y-78738910D01*
X175735616Y-78816760D01*
X175511151Y-78931132D01*
X175307350Y-79079201D01*
X175307345Y-79079205D01*
X175129205Y-79257345D01*
X175129201Y-79257350D01*
X174981132Y-79461151D01*
X174866760Y-79685616D01*
X174788910Y-79925214D01*
X174749500Y-80174038D01*
X174749500Y-80425961D01*
X174788910Y-80674785D01*
X174866760Y-80914383D01*
X174981132Y-81138848D01*
X175129201Y-81342649D01*
X175129205Y-81342654D01*
X175307349Y-81520798D01*
X175394752Y-81584299D01*
X175437418Y-81639628D01*
X175443397Y-81709242D01*
X175432352Y-81740911D01*
X175341118Y-81919967D01*
X175280290Y-82107173D01*
X175249500Y-82301577D01*
X175249500Y-82498422D01*
X175280290Y-82692826D01*
X175341117Y-82880029D01*
X175401167Y-82997883D01*
X175430476Y-83055405D01*
X175546172Y-83214646D01*
X175546174Y-83214648D01*
X175643845Y-83312319D01*
X175677330Y-83373642D01*
X175672346Y-83443334D01*
X175643845Y-83487681D01*
X175546169Y-83585357D01*
X175464050Y-83698385D01*
X175408720Y-83741051D01*
X175363732Y-83749500D01*
X164535929Y-83749500D01*
X164410261Y-83774497D01*
X164410255Y-83774499D01*
X164291870Y-83823535D01*
X164185331Y-83894722D01*
X164185324Y-83894728D01*
X162362181Y-85717872D01*
X162300858Y-85751357D01*
X162231166Y-85746373D01*
X162175233Y-85704501D01*
X162150816Y-85639037D01*
X162150500Y-85630191D01*
X162150500Y-79814610D01*
X162125502Y-79688943D01*
X162125501Y-79688942D01*
X162125501Y-79688938D01*
X162076465Y-79570555D01*
X162076462Y-79570550D01*
X162072131Y-79564068D01*
X162072130Y-79564067D01*
X162005274Y-79464009D01*
X137415991Y-54874726D01*
X137415987Y-54874723D01*
X137309445Y-54803535D01*
X137191062Y-54754499D01*
X137191056Y-54754497D01*
X137065389Y-54729500D01*
X137065387Y-54729500D01*
X131759618Y-54729500D01*
X131692579Y-54709815D01*
X131658900Y-54675408D01*
X131657915Y-54676125D01*
X131530109Y-54500213D01*
X131379786Y-54349890D01*
X131207820Y-54224951D01*
X131018414Y-54128444D01*
X131018413Y-54128443D01*
X131018412Y-54128443D01*
X130816243Y-54062754D01*
X130816241Y-54062753D01*
X130816240Y-54062753D01*
X130654957Y-54037208D01*
X130606287Y-54029500D01*
X130393713Y-54029500D01*
X130345042Y-54037208D01*
X130183760Y-54062753D01*
X129981585Y-54128444D01*
X129792179Y-54224951D01*
X129620213Y-54349890D01*
X129469890Y-54500213D01*
X129344951Y-54672179D01*
X129248444Y-54861585D01*
X129182753Y-55063760D01*
X129149500Y-55273713D01*
X129149500Y-55486286D01*
X129182753Y-55696239D01*
X129248444Y-55898414D01*
X129344951Y-56087820D01*
X129469890Y-56259786D01*
X129620213Y-56410109D01*
X129792182Y-56535050D01*
X129800946Y-56539516D01*
X129851742Y-56587491D01*
X129868536Y-56655312D01*
X129845998Y-56721447D01*
X129800946Y-56760484D01*
X129792182Y-56764949D01*
X129620213Y-56889890D01*
X129469890Y-57040213D01*
X129344951Y-57212179D01*
X129248444Y-57401585D01*
X129182753Y-57603760D01*
X129149500Y-57813713D01*
X129149500Y-58026286D01*
X129182753Y-58236239D01*
X129248444Y-58438414D01*
X129344951Y-58627820D01*
X129469890Y-58799786D01*
X129620213Y-58950109D01*
X129792182Y-59075050D01*
X129800946Y-59079516D01*
X129851742Y-59127491D01*
X129868536Y-59195312D01*
X129845998Y-59261447D01*
X129800946Y-59300484D01*
X129792182Y-59304949D01*
X129620213Y-59429890D01*
X129469890Y-59580213D01*
X129344951Y-59752179D01*
X129248444Y-59941585D01*
X129182753Y-60143760D01*
X129149500Y-60353713D01*
X129149500Y-60566286D01*
X129182753Y-60776239D01*
X129248444Y-60978414D01*
X129344951Y-61167820D01*
X129469890Y-61339786D01*
X129620213Y-61490109D01*
X129792182Y-61615050D01*
X129800946Y-61619516D01*
X129851742Y-61667491D01*
X129868536Y-61735312D01*
X129845998Y-61801447D01*
X129800946Y-61840484D01*
X129792182Y-61844949D01*
X129620213Y-61969890D01*
X129469890Y-62120213D01*
X129344951Y-62292179D01*
X129248444Y-62481585D01*
X129182753Y-62683760D01*
X129149500Y-62893713D01*
X129149500Y-63106286D01*
X129182753Y-63316239D01*
X129248444Y-63518414D01*
X129344951Y-63707820D01*
X129469890Y-63879786D01*
X129620213Y-64030109D01*
X129792182Y-64155050D01*
X129800946Y-64159516D01*
X129851742Y-64207491D01*
X129868536Y-64275312D01*
X129845998Y-64341447D01*
X129800946Y-64380484D01*
X129792182Y-64384949D01*
X129620213Y-64509890D01*
X129469890Y-64660213D01*
X129344951Y-64832179D01*
X129248444Y-65021585D01*
X129182753Y-65223760D01*
X129149500Y-65433713D01*
X129149500Y-65646286D01*
X129182753Y-65856239D01*
X129248444Y-66058414D01*
X129344951Y-66247820D01*
X129469890Y-66419786D01*
X129620213Y-66570109D01*
X129792182Y-66695050D01*
X129800946Y-66699516D01*
X129851742Y-66747491D01*
X129868536Y-66815312D01*
X129845998Y-66881447D01*
X129800946Y-66920484D01*
X129792182Y-66924949D01*
X129620213Y-67049890D01*
X129469890Y-67200213D01*
X129344951Y-67372179D01*
X129248444Y-67561585D01*
X129182753Y-67763760D01*
X129149500Y-67973713D01*
X129149500Y-68186286D01*
X129175350Y-68349500D01*
X129182754Y-68396243D01*
X129219077Y-68508034D01*
X129248444Y-68598414D01*
X129344951Y-68787820D01*
X129469890Y-68959786D01*
X129620213Y-69110109D01*
X129792182Y-69235050D01*
X129800946Y-69239516D01*
X129851742Y-69287491D01*
X129868536Y-69355312D01*
X129845998Y-69421447D01*
X129800946Y-69460484D01*
X129792182Y-69464949D01*
X129620213Y-69589890D01*
X129469890Y-69740213D01*
X129342085Y-69916125D01*
X129340740Y-69915148D01*
X129294295Y-69957166D01*
X129240382Y-69969500D01*
X127940807Y-69969500D01*
X127873768Y-69949815D01*
X127853126Y-69933181D01*
X126914674Y-68994727D01*
X126914673Y-68994726D01*
X126862381Y-68959786D01*
X126808127Y-68923535D01*
X126689744Y-68874499D01*
X126689738Y-68874497D01*
X126564071Y-68849500D01*
X126564069Y-68849500D01*
X125698071Y-68849500D01*
X125631032Y-68829815D01*
X125597754Y-68798386D01*
X125491966Y-68652781D01*
X125347219Y-68508034D01*
X125347213Y-68508028D01*
X125181613Y-68387715D01*
X125181612Y-68387714D01*
X125181610Y-68387713D01*
X125105993Y-68349184D01*
X124999223Y-68294781D01*
X124804534Y-68231522D01*
X124629995Y-68203878D01*
X124602352Y-68199500D01*
X124397648Y-68199500D01*
X124373329Y-68203351D01*
X124195465Y-68231522D01*
X124000776Y-68294781D01*
X123818386Y-68387715D01*
X123652786Y-68508028D01*
X123508028Y-68652786D01*
X123387715Y-68818386D01*
X123294781Y-69000776D01*
X123231522Y-69195465D01*
X123199500Y-69397648D01*
X123199500Y-69602351D01*
X123231522Y-69804534D01*
X123294781Y-69999223D01*
X123387715Y-70181613D01*
X123508028Y-70347213D01*
X123652786Y-70491971D01*
X123807749Y-70604556D01*
X123818390Y-70612287D01*
X123934607Y-70671503D01*
X124000776Y-70705218D01*
X124000778Y-70705218D01*
X124000781Y-70705220D01*
X124065619Y-70726287D01*
X124195465Y-70768477D01*
X124296557Y-70784488D01*
X124397648Y-70800500D01*
X124397649Y-70800500D01*
X124602351Y-70800500D01*
X124602352Y-70800500D01*
X124804534Y-70768477D01*
X124999219Y-70705220D01*
X125181610Y-70612287D01*
X125317287Y-70513713D01*
X125347213Y-70491971D01*
X125347215Y-70491968D01*
X125347219Y-70491966D01*
X125491966Y-70347219D01*
X125597753Y-70201613D01*
X125653082Y-70158949D01*
X125698071Y-70150500D01*
X126179192Y-70150500D01*
X126246231Y-70170185D01*
X126266873Y-70186819D01*
X126813181Y-70733126D01*
X126846666Y-70794449D01*
X126849500Y-70820807D01*
X126849500Y-75564069D01*
X126849500Y-75564071D01*
X126849499Y-75564071D01*
X126874497Y-75689738D01*
X126874499Y-75689744D01*
X126923534Y-75808125D01*
X126994726Y-75914673D01*
X126994727Y-75914674D01*
X130813181Y-79733127D01*
X130846666Y-79794450D01*
X130849500Y-79820808D01*
X130849500Y-80625500D01*
X130829815Y-80692539D01*
X130777011Y-80738294D01*
X130725501Y-80749500D01*
X130602130Y-80749500D01*
X130602123Y-80749501D01*
X130542516Y-80755908D01*
X130407671Y-80806202D01*
X130407664Y-80806206D01*
X130292455Y-80892452D01*
X130292452Y-80892455D01*
X130206206Y-81007664D01*
X130206202Y-81007671D01*
X130155908Y-81142517D01*
X130153437Y-81165505D01*
X130149501Y-81202123D01*
X130149500Y-81202135D01*
X130149500Y-82997870D01*
X130149501Y-82997876D01*
X130155908Y-83057483D01*
X130206202Y-83192328D01*
X130206206Y-83192335D01*
X130292452Y-83307544D01*
X130292455Y-83307547D01*
X130407664Y-83393793D01*
X130407671Y-83393797D01*
X130539082Y-83442810D01*
X130595016Y-83484681D01*
X130619433Y-83550145D01*
X130604582Y-83618418D01*
X130583431Y-83646673D01*
X130469889Y-83760215D01*
X130344951Y-83932179D01*
X130248444Y-84121585D01*
X130182753Y-84323760D01*
X130149500Y-84533713D01*
X130149500Y-84746287D01*
X130182754Y-84956243D01*
X130241855Y-85138137D01*
X130248444Y-85158414D01*
X130344951Y-85347820D01*
X130469890Y-85519786D01*
X130620213Y-85670109D01*
X130792182Y-85795050D01*
X130800946Y-85799516D01*
X130851742Y-85847491D01*
X130868536Y-85915312D01*
X130845998Y-85981447D01*
X130800946Y-86020484D01*
X130792182Y-86024949D01*
X130620213Y-86149890D01*
X130469890Y-86300213D01*
X130344951Y-86472179D01*
X130248444Y-86661585D01*
X130182753Y-86863760D01*
X130149500Y-87073713D01*
X130149500Y-87286287D01*
X130154968Y-87320808D01*
X130169003Y-87409427D01*
X130182754Y-87496243D01*
X130236337Y-87661155D01*
X130248444Y-87698414D01*
X130344951Y-87887820D01*
X130469890Y-88059786D01*
X130620213Y-88210109D01*
X130792182Y-88335050D01*
X130800946Y-88339516D01*
X130851742Y-88387491D01*
X130868536Y-88455312D01*
X130845998Y-88521447D01*
X130800946Y-88560484D01*
X130792182Y-88564949D01*
X130620213Y-88689890D01*
X130469890Y-88840213D01*
X130344951Y-89012179D01*
X130248444Y-89201585D01*
X130182753Y-89403760D01*
X130160755Y-89542654D01*
X130149500Y-89613713D01*
X130149500Y-89826287D01*
X130182754Y-90036243D01*
X130203632Y-90100500D01*
X130248444Y-90238414D01*
X130344951Y-90427820D01*
X130469890Y-90599786D01*
X130620213Y-90750109D01*
X130792182Y-90875050D01*
X130800946Y-90879516D01*
X130851742Y-90927491D01*
X130868536Y-90995312D01*
X130845998Y-91061447D01*
X130800946Y-91100484D01*
X130792182Y-91104949D01*
X130620213Y-91229890D01*
X130469890Y-91380213D01*
X130344951Y-91552179D01*
X130248444Y-91741585D01*
X130182753Y-91943760D01*
X130149500Y-92153713D01*
X130149500Y-92366286D01*
X130182753Y-92576239D01*
X130248444Y-92778414D01*
X130344951Y-92967820D01*
X130469890Y-93139786D01*
X130620213Y-93290109D01*
X130792182Y-93415050D01*
X130800946Y-93419516D01*
X130851742Y-93467491D01*
X130868536Y-93535312D01*
X130845998Y-93601447D01*
X130800946Y-93640484D01*
X130792182Y-93644949D01*
X130620213Y-93769890D01*
X130469890Y-93920213D01*
X130344951Y-94092179D01*
X130248444Y-94281585D01*
X130182753Y-94483760D01*
X130149500Y-94693713D01*
X130149500Y-94906286D01*
X130182753Y-95116239D01*
X130248444Y-95318414D01*
X130344951Y-95507820D01*
X130469890Y-95679786D01*
X130620213Y-95830109D01*
X130792182Y-95955050D01*
X130800946Y-95959516D01*
X130851742Y-96007491D01*
X130868536Y-96075312D01*
X130845998Y-96141447D01*
X130800946Y-96180484D01*
X130792182Y-96184949D01*
X130620213Y-96309890D01*
X130469890Y-96460213D01*
X130344951Y-96632179D01*
X130248444Y-96821585D01*
X130182753Y-97023760D01*
X130149500Y-97233713D01*
X130149500Y-97446286D01*
X130182754Y-97656246D01*
X130198769Y-97705536D01*
X130200764Y-97775377D01*
X130168519Y-97831534D01*
X124494727Y-103505325D01*
X124494726Y-103505326D01*
X124425130Y-103609487D01*
X124425122Y-103609498D01*
X124423536Y-103611869D01*
X124374499Y-103730255D01*
X124374497Y-103730261D01*
X124349500Y-103855928D01*
X124349500Y-103995064D01*
X124329815Y-104062103D01*
X124328603Y-104063954D01*
X124290608Y-104120817D01*
X124290602Y-104120828D01*
X124230264Y-104266498D01*
X124230261Y-104266510D01*
X124199500Y-104421153D01*
X124199500Y-104578846D01*
X124230261Y-104733489D01*
X124230264Y-104733501D01*
X124290602Y-104879172D01*
X124290609Y-104879185D01*
X124378210Y-105010288D01*
X124378213Y-105010292D01*
X124489707Y-105121786D01*
X124489711Y-105121789D01*
X124620814Y-105209390D01*
X124620827Y-105209397D01*
X124766498Y-105269735D01*
X124766503Y-105269737D01*
X124921153Y-105300499D01*
X124921156Y-105300500D01*
X124921158Y-105300500D01*
X125078844Y-105300500D01*
X125078845Y-105300499D01*
X125233497Y-105269737D01*
X125379179Y-105209394D01*
X125510289Y-105121789D01*
X125621789Y-105010289D01*
X125635475Y-104989807D01*
X125646898Y-104972712D01*
X125700510Y-104927906D01*
X125769835Y-104919199D01*
X125832862Y-104949353D01*
X125853102Y-104972712D01*
X125878207Y-105010284D01*
X125878213Y-105010292D01*
X125989707Y-105121786D01*
X125989711Y-105121789D01*
X126120814Y-105209390D01*
X126120827Y-105209397D01*
X126266498Y-105269735D01*
X126266503Y-105269737D01*
X126421153Y-105300499D01*
X126421156Y-105300500D01*
X126421158Y-105300500D01*
X126578844Y-105300500D01*
X126578845Y-105300499D01*
X126733497Y-105269737D01*
X126879179Y-105209394D01*
X127010289Y-105121789D01*
X127121789Y-105010289D01*
X127209394Y-104879179D01*
X127269737Y-104733497D01*
X127283079Y-104666416D01*
X127315463Y-104604509D01*
X127316959Y-104602985D01*
X129993968Y-101925976D01*
X130055289Y-101892493D01*
X130124981Y-101897477D01*
X130180914Y-101939349D01*
X130205331Y-102004813D01*
X130199578Y-102051976D01*
X130182754Y-102103755D01*
X130182753Y-102103759D01*
X130149500Y-102313713D01*
X130149500Y-102526286D01*
X130183516Y-102741055D01*
X130181877Y-102741314D01*
X130178738Y-102803883D01*
X130149342Y-102850710D01*
X120744724Y-112255328D01*
X120681296Y-112350257D01*
X120673539Y-112361866D01*
X120673533Y-112361877D01*
X120624499Y-112480255D01*
X120624497Y-112480261D01*
X120599500Y-112605928D01*
X120599500Y-136321407D01*
X120579815Y-136388446D01*
X120531796Y-136431891D01*
X120463569Y-136466655D01*
X120368028Y-136536070D01*
X120272490Y-136605483D01*
X120272488Y-136605485D01*
X120272487Y-136605485D01*
X120105485Y-136772487D01*
X120105485Y-136772488D01*
X120105483Y-136772490D01*
X120045862Y-136854550D01*
X119966657Y-136963566D01*
X119931893Y-137031795D01*
X119883918Y-137082591D01*
X119821408Y-137099500D01*
X116178592Y-137099500D01*
X116111553Y-137079815D01*
X116068107Y-137031795D01*
X116033342Y-136963566D01*
X115894517Y-136772490D01*
X115727510Y-136605483D01*
X115536433Y-136466657D01*
X115536429Y-136466655D01*
X115325996Y-136359433D01*
X115101368Y-136286446D01*
X114868097Y-136249500D01*
X114868092Y-136249500D01*
X114631908Y-136249500D01*
X114631903Y-136249500D01*
X114398631Y-136286446D01*
X114174003Y-136359433D01*
X113963566Y-136466657D01*
X113854550Y-136545862D01*
X113772490Y-136605483D01*
X113772488Y-136605485D01*
X113772487Y-136605485D01*
X113605485Y-136772487D01*
X113605485Y-136772488D01*
X113605483Y-136772490D01*
X113545862Y-136854550D01*
X113466657Y-136963566D01*
X113359433Y-137174003D01*
X113286446Y-137398631D01*
X113249500Y-137631902D01*
X113249500Y-137868097D01*
X113286446Y-138101368D01*
X113359433Y-138325996D01*
X113431893Y-138468205D01*
X113466657Y-138536433D01*
X113605483Y-138727510D01*
X113772490Y-138894517D01*
X113963567Y-139033343D01*
X114062991Y-139084002D01*
X114174003Y-139140566D01*
X114174005Y-139140566D01*
X114174008Y-139140568D01*
X114294412Y-139179689D01*
X114398631Y-139213553D01*
X114631903Y-139250500D01*
X114631908Y-139250500D01*
X114868097Y-139250500D01*
X115101368Y-139213553D01*
X115325992Y-139140568D01*
X115536433Y-139033343D01*
X115727510Y-138894517D01*
X115894517Y-138727510D01*
X116033343Y-138536433D01*
X116068107Y-138468205D01*
X116116082Y-138417409D01*
X116178592Y-138400500D01*
X119821408Y-138400500D01*
X119888447Y-138420185D01*
X119931893Y-138468205D01*
X119966657Y-138536433D01*
X120105483Y-138727510D01*
X120272490Y-138894517D01*
X120463567Y-139033343D01*
X120562991Y-139084002D01*
X120674003Y-139140566D01*
X120674005Y-139140566D01*
X120674008Y-139140568D01*
X120794412Y-139179689D01*
X120898631Y-139213553D01*
X121131903Y-139250500D01*
X121131908Y-139250500D01*
X121368097Y-139250500D01*
X121601368Y-139213553D01*
X121825992Y-139140568D01*
X122036433Y-139033343D01*
X122227510Y-138894517D01*
X122394517Y-138727510D01*
X122533343Y-138536433D01*
X122640568Y-138325992D01*
X122713553Y-138101368D01*
X122750500Y-137868097D01*
X122750500Y-137631902D01*
X122713553Y-137398631D01*
X122640566Y-137174003D01*
X122533342Y-136963566D01*
X122394517Y-136772490D01*
X122227510Y-136605483D01*
X122036433Y-136466657D01*
X122036432Y-136466656D01*
X122036430Y-136466655D01*
X121968204Y-136431891D01*
X121917408Y-136383916D01*
X121900500Y-136321407D01*
X121900500Y-112990807D01*
X121920185Y-112923768D01*
X121936814Y-112903131D01*
X124062774Y-110777170D01*
X124124097Y-110743686D01*
X124193789Y-110748670D01*
X124249722Y-110790542D01*
X124265016Y-110817400D01*
X124290602Y-110879172D01*
X124290609Y-110879185D01*
X124378210Y-111010288D01*
X124378213Y-111010292D01*
X124489707Y-111121786D01*
X124489711Y-111121789D01*
X124620814Y-111209390D01*
X124620827Y-111209397D01*
X124712796Y-111247491D01*
X124758036Y-111266230D01*
X124772131Y-111272068D01*
X124771114Y-111274522D01*
X124819930Y-111306510D01*
X124848390Y-111370321D01*
X124849500Y-111386878D01*
X124849500Y-128696398D01*
X124829815Y-128763437D01*
X124777011Y-128809192D01*
X124707853Y-128819136D01*
X124687182Y-128814329D01*
X124601370Y-128786447D01*
X124368097Y-128749500D01*
X124368092Y-128749500D01*
X124131908Y-128749500D01*
X124131903Y-128749500D01*
X123898631Y-128786446D01*
X123674003Y-128859433D01*
X123463566Y-128966657D01*
X123448626Y-128977512D01*
X123272490Y-129105483D01*
X123272488Y-129105485D01*
X123272487Y-129105485D01*
X123105485Y-129272487D01*
X123105485Y-129272488D01*
X123105483Y-129272490D01*
X123097599Y-129283342D01*
X122966657Y-129463566D01*
X122859433Y-129674003D01*
X122786446Y-129898631D01*
X122749500Y-130131902D01*
X122749500Y-130368097D01*
X122786446Y-130601368D01*
X122859433Y-130825996D01*
X122948093Y-131000000D01*
X122966657Y-131036433D01*
X123105483Y-131227510D01*
X123272490Y-131394517D01*
X123463567Y-131533343D01*
X123562991Y-131584002D01*
X123674003Y-131640566D01*
X123674005Y-131640566D01*
X123674008Y-131640568D01*
X123794412Y-131679689D01*
X123898631Y-131713553D01*
X124131903Y-131750500D01*
X124131908Y-131750500D01*
X124368097Y-131750500D01*
X124601368Y-131713553D01*
X124825992Y-131640568D01*
X125036433Y-131533343D01*
X125152614Y-131448931D01*
X125218420Y-131425451D01*
X125286474Y-131441276D01*
X125335169Y-131491381D01*
X125349500Y-131549249D01*
X125349500Y-133451368D01*
X125329815Y-133518407D01*
X125277011Y-133564162D01*
X125207853Y-133574106D01*
X125152615Y-133551686D01*
X125036174Y-133467087D01*
X124825802Y-133359897D01*
X124601247Y-133286934D01*
X124601248Y-133286934D01*
X124368052Y-133250000D01*
X124131948Y-133250000D01*
X123898752Y-133286934D01*
X123674197Y-133359897D01*
X123463830Y-133467084D01*
X123380894Y-133527340D01*
X124079766Y-134226212D01*
X124037708Y-134237482D01*
X123912292Y-134309890D01*
X123809890Y-134412292D01*
X123737482Y-134537708D01*
X123726212Y-134579766D01*
X123027340Y-133880894D01*
X122967084Y-133963830D01*
X122859897Y-134174197D01*
X122786934Y-134398752D01*
X122750000Y-134631947D01*
X122750000Y-134868052D01*
X122786934Y-135101247D01*
X122859897Y-135325802D01*
X122967087Y-135536174D01*
X123027338Y-135619104D01*
X123027340Y-135619105D01*
X123726212Y-134920233D01*
X123737482Y-134962292D01*
X123809890Y-135087708D01*
X123912292Y-135190110D01*
X124037708Y-135262518D01*
X124079764Y-135273787D01*
X123380893Y-135972658D01*
X123463828Y-136032914D01*
X123674197Y-136140102D01*
X123898752Y-136213065D01*
X123898751Y-136213065D01*
X124131948Y-136250000D01*
X124368052Y-136250000D01*
X124601247Y-136213065D01*
X124825802Y-136140102D01*
X125036171Y-136032914D01*
X125152614Y-135948313D01*
X125218420Y-135924833D01*
X125286474Y-135940658D01*
X125335169Y-135990764D01*
X125349500Y-136048631D01*
X125349500Y-143179191D01*
X125329815Y-143246230D01*
X125313181Y-143266872D01*
X124800193Y-143779859D01*
X124738870Y-143813344D01*
X124674194Y-143810109D01*
X124601370Y-143786447D01*
X124368097Y-143749500D01*
X124368092Y-143749500D01*
X124131908Y-143749500D01*
X124131903Y-143749500D01*
X123898631Y-143786446D01*
X123674003Y-143859433D01*
X123463566Y-143966657D01*
X123354550Y-144045862D01*
X123272490Y-144105483D01*
X123272488Y-144105485D01*
X123272487Y-144105485D01*
X123105485Y-144272487D01*
X123105485Y-144272488D01*
X123105483Y-144272490D01*
X123045862Y-144354550D01*
X122966657Y-144463566D01*
X122859433Y-144674003D01*
X122786446Y-144898631D01*
X122749500Y-145131902D01*
X122749500Y-145368097D01*
X122786446Y-145601368D01*
X122859433Y-145825996D01*
X122931893Y-145968205D01*
X122966657Y-146036433D01*
X123105483Y-146227510D01*
X123272490Y-146394517D01*
X123463567Y-146533343D01*
X123562991Y-146584002D01*
X123674003Y-146640566D01*
X123674005Y-146640566D01*
X123674008Y-146640568D01*
X123794412Y-146679689D01*
X123898631Y-146713553D01*
X124131903Y-146750500D01*
X124131908Y-146750500D01*
X124368097Y-146750500D01*
X124601368Y-146713553D01*
X124825992Y-146640568D01*
X125036433Y-146533343D01*
X125227510Y-146394517D01*
X125394517Y-146227510D01*
X125533343Y-146036433D01*
X125568107Y-145968205D01*
X125616082Y-145917409D01*
X125678592Y-145900500D01*
X129321408Y-145900500D01*
X129388447Y-145920185D01*
X129431893Y-145968205D01*
X129466657Y-146036433D01*
X129605483Y-146227510D01*
X129772490Y-146394517D01*
X129963567Y-146533343D01*
X130062991Y-146584002D01*
X130174003Y-146640566D01*
X130174005Y-146640566D01*
X130174008Y-146640568D01*
X130294412Y-146679689D01*
X130398631Y-146713553D01*
X130631903Y-146750500D01*
X130631908Y-146750500D01*
X130868097Y-146750500D01*
X131101368Y-146713553D01*
X131325992Y-146640568D01*
X131536433Y-146533343D01*
X131727510Y-146394517D01*
X131894517Y-146227510D01*
X132033343Y-146036433D01*
X132140568Y-145825992D01*
X132213553Y-145601368D01*
X132250500Y-145368097D01*
X132250500Y-145131902D01*
X132213553Y-144898631D01*
X132140566Y-144674003D01*
X132033342Y-144463566D01*
X131894517Y-144272490D01*
X131727510Y-144105483D01*
X131536433Y-143966657D01*
X131325996Y-143859433D01*
X131101368Y-143786446D01*
X130868097Y-143749500D01*
X130868092Y-143749500D01*
X130631908Y-143749500D01*
X130631903Y-143749500D01*
X130398631Y-143786446D01*
X130174003Y-143859433D01*
X129963566Y-143966657D01*
X129854550Y-144045862D01*
X129772490Y-144105483D01*
X129772488Y-144105485D01*
X129772487Y-144105485D01*
X129605485Y-144272487D01*
X129605485Y-144272488D01*
X129605483Y-144272490D01*
X129545862Y-144354550D01*
X129466657Y-144463566D01*
X129431893Y-144531795D01*
X129383918Y-144582591D01*
X129321408Y-144599500D01*
X126119808Y-144599500D01*
X126052769Y-144579815D01*
X126007014Y-144527011D01*
X125997070Y-144457853D01*
X126026095Y-144394297D01*
X126032127Y-144387819D01*
X126505273Y-143914673D01*
X126505277Y-143914669D01*
X126576465Y-143808127D01*
X126625501Y-143689743D01*
X126650500Y-143564069D01*
X126650500Y-143435931D01*
X126650500Y-142131947D01*
X132250000Y-142131947D01*
X132250000Y-142368052D01*
X132286934Y-142601247D01*
X132359897Y-142825802D01*
X132467087Y-143036174D01*
X132527338Y-143119104D01*
X132527340Y-143119105D01*
X133226212Y-142420233D01*
X133237482Y-142462292D01*
X133309890Y-142587708D01*
X133412292Y-142690110D01*
X133537708Y-142762518D01*
X133579765Y-142773787D01*
X132880893Y-143472658D01*
X132963828Y-143532914D01*
X133174197Y-143640102D01*
X133398752Y-143713065D01*
X133398751Y-143713065D01*
X133631948Y-143750000D01*
X133868052Y-143750000D01*
X134101247Y-143713065D01*
X134325802Y-143640102D01*
X134536163Y-143532918D01*
X134536169Y-143532914D01*
X134619104Y-143472658D01*
X134619105Y-143472658D01*
X133920233Y-142773787D01*
X133962292Y-142762518D01*
X134087708Y-142690110D01*
X134190110Y-142587708D01*
X134262518Y-142462292D01*
X134273787Y-142420234D01*
X134972658Y-143119105D01*
X134972658Y-143119104D01*
X135032914Y-143036169D01*
X135032918Y-143036163D01*
X135140102Y-142825802D01*
X135213065Y-142601247D01*
X135250000Y-142368052D01*
X135250000Y-142131947D01*
X138750000Y-142131947D01*
X138750000Y-142368052D01*
X138786934Y-142601247D01*
X138859897Y-142825802D01*
X138967087Y-143036174D01*
X139027338Y-143119104D01*
X139027340Y-143119105D01*
X139726212Y-142420233D01*
X139737482Y-142462292D01*
X139809890Y-142587708D01*
X139912292Y-142690110D01*
X140037708Y-142762518D01*
X140079765Y-142773787D01*
X139380893Y-143472658D01*
X139463828Y-143532914D01*
X139674197Y-143640102D01*
X139898752Y-143713065D01*
X139898751Y-143713065D01*
X140131948Y-143750000D01*
X140368052Y-143750000D01*
X140601247Y-143713065D01*
X140825802Y-143640102D01*
X141036163Y-143532918D01*
X141036169Y-143532914D01*
X141119104Y-143472658D01*
X141119105Y-143472658D01*
X140420233Y-142773787D01*
X140462292Y-142762518D01*
X140587708Y-142690110D01*
X140690110Y-142587708D01*
X140762518Y-142462292D01*
X140773787Y-142420234D01*
X141472658Y-143119105D01*
X141472658Y-143119104D01*
X141532914Y-143036169D01*
X141532918Y-143036163D01*
X141640102Y-142825802D01*
X141713065Y-142601247D01*
X141750000Y-142368052D01*
X141750000Y-142131947D01*
X141713065Y-141898752D01*
X141640102Y-141674197D01*
X141532914Y-141463828D01*
X141472658Y-141380894D01*
X141472658Y-141380893D01*
X140773787Y-142079765D01*
X140762518Y-142037708D01*
X140690110Y-141912292D01*
X140587708Y-141809890D01*
X140462292Y-141737482D01*
X140420234Y-141726212D01*
X141119105Y-141027340D01*
X141119104Y-141027338D01*
X141036174Y-140967087D01*
X140825802Y-140859897D01*
X140601247Y-140786934D01*
X140601248Y-140786934D01*
X140368052Y-140750000D01*
X140131948Y-140750000D01*
X139898752Y-140786934D01*
X139674197Y-140859897D01*
X139463830Y-140967084D01*
X139380894Y-141027340D01*
X140079766Y-141726212D01*
X140037708Y-141737482D01*
X139912292Y-141809890D01*
X139809890Y-141912292D01*
X139737482Y-142037708D01*
X139726212Y-142079766D01*
X139027340Y-141380894D01*
X138967084Y-141463830D01*
X138859897Y-141674197D01*
X138786934Y-141898752D01*
X138750000Y-142131947D01*
X135250000Y-142131947D01*
X135213065Y-141898752D01*
X135140102Y-141674197D01*
X135032914Y-141463828D01*
X134972658Y-141380894D01*
X134972658Y-141380893D01*
X134273787Y-142079765D01*
X134262518Y-142037708D01*
X134190110Y-141912292D01*
X134087708Y-141809890D01*
X133962292Y-141737482D01*
X133920234Y-141726212D01*
X134619105Y-141027340D01*
X134619104Y-141027339D01*
X134536174Y-140967087D01*
X134325802Y-140859897D01*
X134101247Y-140786934D01*
X134101248Y-140786934D01*
X133868052Y-140750000D01*
X133631948Y-140750000D01*
X133398752Y-140786934D01*
X133174197Y-140859897D01*
X132963830Y-140967084D01*
X132880894Y-141027340D01*
X133579766Y-141726212D01*
X133537708Y-141737482D01*
X133412292Y-141809890D01*
X133309890Y-141912292D01*
X133237482Y-142037708D01*
X133226212Y-142079766D01*
X132527340Y-141380894D01*
X132467084Y-141463830D01*
X132359897Y-141674197D01*
X132286934Y-141898752D01*
X132250000Y-142131947D01*
X126650500Y-142131947D01*
X126650500Y-134631947D01*
X129250000Y-134631947D01*
X129250000Y-134868052D01*
X129286934Y-135101247D01*
X129359897Y-135325802D01*
X129467087Y-135536174D01*
X129527338Y-135619104D01*
X129527340Y-135619105D01*
X130226212Y-134920233D01*
X130237482Y-134962292D01*
X130309890Y-135087708D01*
X130412292Y-135190110D01*
X130537708Y-135262518D01*
X130579765Y-135273787D01*
X129880893Y-135972658D01*
X129963828Y-136032914D01*
X130174197Y-136140102D01*
X130398752Y-136213065D01*
X130398751Y-136213065D01*
X130631948Y-136250000D01*
X130868052Y-136250000D01*
X131101247Y-136213065D01*
X131325802Y-136140102D01*
X131536163Y-136032918D01*
X131536169Y-136032914D01*
X131619104Y-135972658D01*
X131619105Y-135972658D01*
X130920233Y-135273787D01*
X130962292Y-135262518D01*
X131087708Y-135190110D01*
X131190110Y-135087708D01*
X131262518Y-134962292D01*
X131273787Y-134920234D01*
X131972658Y-135619105D01*
X131972658Y-135619104D01*
X132032914Y-135536169D01*
X132032918Y-135536163D01*
X132140102Y-135325802D01*
X132213065Y-135101247D01*
X132250000Y-134868052D01*
X132250000Y-134631947D01*
X132213065Y-134398752D01*
X132140102Y-134174197D01*
X132032914Y-133963828D01*
X131972658Y-133880894D01*
X131972658Y-133880893D01*
X131273787Y-134579765D01*
X131262518Y-134537708D01*
X131190110Y-134412292D01*
X131087708Y-134309890D01*
X130962292Y-134237482D01*
X130920234Y-134226212D01*
X131619105Y-133527340D01*
X131619104Y-133527338D01*
X131536174Y-133467087D01*
X131325802Y-133359897D01*
X131101247Y-133286934D01*
X131101248Y-133286934D01*
X130868052Y-133250000D01*
X130631948Y-133250000D01*
X130398752Y-133286934D01*
X130174197Y-133359897D01*
X129963830Y-133467084D01*
X129880894Y-133527340D01*
X130579766Y-134226212D01*
X130537708Y-134237482D01*
X130412292Y-134309890D01*
X130309890Y-134412292D01*
X130237482Y-134537708D01*
X130226212Y-134579766D01*
X129527340Y-133880894D01*
X129467084Y-133963830D01*
X129359897Y-134174197D01*
X129286934Y-134398752D01*
X129250000Y-134631947D01*
X126650500Y-134631947D01*
X126650500Y-130131902D01*
X129249500Y-130131902D01*
X129249500Y-130368097D01*
X129286446Y-130601368D01*
X129359433Y-130825996D01*
X129448093Y-131000000D01*
X129466657Y-131036433D01*
X129605483Y-131227510D01*
X129772490Y-131394517D01*
X129963567Y-131533343D01*
X130062991Y-131584002D01*
X130174003Y-131640566D01*
X130174005Y-131640566D01*
X130174008Y-131640568D01*
X130294412Y-131679689D01*
X130398631Y-131713553D01*
X130631903Y-131750500D01*
X130631908Y-131750500D01*
X130868097Y-131750500D01*
X131101368Y-131713553D01*
X131325992Y-131640568D01*
X131536433Y-131533343D01*
X131727510Y-131394517D01*
X131894517Y-131227510D01*
X132033343Y-131036433D01*
X132140568Y-130825992D01*
X132213553Y-130601368D01*
X132250340Y-130369105D01*
X132250500Y-130368097D01*
X132250500Y-130131902D01*
X132213553Y-129898631D01*
X132179689Y-129794412D01*
X132140568Y-129674008D01*
X132140566Y-129674005D01*
X132140566Y-129674003D01*
X132033342Y-129463566D01*
X132033333Y-129463553D01*
X131894517Y-129272490D01*
X131727510Y-129105483D01*
X131536433Y-128966657D01*
X131453101Y-128924197D01*
X131325996Y-128859433D01*
X131101368Y-128786446D01*
X130868097Y-128749500D01*
X130868092Y-128749500D01*
X130631908Y-128749500D01*
X130631903Y-128749500D01*
X130398631Y-128786446D01*
X130174003Y-128859433D01*
X129963566Y-128966657D01*
X129948626Y-128977512D01*
X129772490Y-129105483D01*
X129772488Y-129105485D01*
X129772487Y-129105485D01*
X129605485Y-129272487D01*
X129605485Y-129272488D01*
X129605483Y-129272490D01*
X129597599Y-129283342D01*
X129466657Y-129463566D01*
X129359433Y-129674003D01*
X129286446Y-129898631D01*
X129249500Y-130131902D01*
X126650500Y-130131902D01*
X126650500Y-111386878D01*
X126670185Y-111319839D01*
X126722989Y-111274084D01*
X126727930Y-111272215D01*
X126727869Y-111272068D01*
X126741964Y-111266230D01*
X126879179Y-111209394D01*
X127010289Y-111121789D01*
X127121789Y-111010289D01*
X127209394Y-110879179D01*
X127269737Y-110733497D01*
X127300500Y-110578842D01*
X127300500Y-110421158D01*
X127300500Y-110421155D01*
X127300499Y-110421153D01*
X127288545Y-110361055D01*
X127269737Y-110266503D01*
X127238825Y-110191874D01*
X127209397Y-110120827D01*
X127209390Y-110120814D01*
X127121789Y-109989711D01*
X127121786Y-109989707D01*
X127010292Y-109878213D01*
X127010288Y-109878210D01*
X126879185Y-109790609D01*
X126879172Y-109790602D01*
X126733501Y-109730264D01*
X126733489Y-109730261D01*
X126578845Y-109699500D01*
X126578842Y-109699500D01*
X126421158Y-109699500D01*
X126421155Y-109699500D01*
X126266510Y-109730261D01*
X126266498Y-109730264D01*
X126120827Y-109790602D01*
X126120814Y-109790609D01*
X125989711Y-109878210D01*
X125989707Y-109878213D01*
X125878213Y-109989707D01*
X125853102Y-110027289D01*
X125799489Y-110072093D01*
X125730164Y-110080800D01*
X125667137Y-110050645D01*
X125646898Y-110027289D01*
X125621786Y-109989707D01*
X125510292Y-109878213D01*
X125510288Y-109878210D01*
X125379185Y-109790609D01*
X125379173Y-109790603D01*
X125317399Y-109765016D01*
X125262995Y-109721176D01*
X125240930Y-109654882D01*
X125258209Y-109587182D01*
X125277166Y-109562778D01*
X129937819Y-104902126D01*
X129999142Y-104868641D01*
X130068834Y-104873625D01*
X130124767Y-104915497D01*
X130149184Y-104980961D01*
X130149500Y-104989807D01*
X130149500Y-105066286D01*
X130183516Y-105281055D01*
X130181877Y-105281314D01*
X130178738Y-105343883D01*
X130149342Y-105390710D01*
X127994726Y-107545326D01*
X127923534Y-107651874D01*
X127874499Y-107770255D01*
X127874497Y-107770261D01*
X127849500Y-107895928D01*
X127849500Y-107895931D01*
X127849500Y-118564069D01*
X127861034Y-118622051D01*
X127874499Y-118689744D01*
X127923535Y-118808127D01*
X127992644Y-118911557D01*
X127994726Y-118914673D01*
X129085325Y-120005272D01*
X129085331Y-120005277D01*
X129191874Y-120076466D01*
X129261221Y-120105189D01*
X129310256Y-120125501D01*
X129310259Y-120125501D01*
X129310260Y-120125502D01*
X129435928Y-120150500D01*
X129435931Y-120150500D01*
X129564069Y-120150500D01*
X132225500Y-120150500D01*
X132292539Y-120170185D01*
X132338294Y-120222989D01*
X132349500Y-120274500D01*
X132349500Y-124935931D01*
X132349500Y-125064069D01*
X132349500Y-125064071D01*
X132349499Y-125064071D01*
X132374497Y-125189738D01*
X132374499Y-125189744D01*
X132423533Y-125308124D01*
X132423538Y-125308133D01*
X132494723Y-125414668D01*
X132494726Y-125414672D01*
X132585327Y-125505273D01*
X132585331Y-125505276D01*
X132691866Y-125576461D01*
X132691872Y-125576464D01*
X132691873Y-125576465D01*
X132810256Y-125625501D01*
X132810260Y-125625501D01*
X132810261Y-125625502D01*
X132935928Y-125650500D01*
X132935931Y-125650500D01*
X135179192Y-125650500D01*
X135246231Y-125670185D01*
X135266873Y-125686819D01*
X136813181Y-127233126D01*
X136846666Y-127294449D01*
X136849500Y-127320807D01*
X136849500Y-128271176D01*
X136849500Y-128271178D01*
X136849499Y-128271178D01*
X136873635Y-128392510D01*
X136874496Y-128396839D01*
X136874497Y-128396845D01*
X136874499Y-128396851D01*
X136874500Y-128396855D01*
X136874501Y-128396856D01*
X136923532Y-128515230D01*
X136994726Y-128621780D01*
X136994727Y-128621781D01*
X138313181Y-129940234D01*
X138346666Y-130001557D01*
X138349500Y-130027915D01*
X138349500Y-133814069D01*
X138349500Y-133814071D01*
X138349499Y-133814071D01*
X138374497Y-133939738D01*
X138374499Y-133939744D01*
X138423534Y-134058125D01*
X138494726Y-134164673D01*
X138494727Y-134164674D01*
X139563181Y-135233127D01*
X139596666Y-135294450D01*
X139599500Y-135320808D01*
X139599500Y-136321407D01*
X139579815Y-136388446D01*
X139531796Y-136431891D01*
X139463569Y-136466655D01*
X139368028Y-136536070D01*
X139272490Y-136605483D01*
X139272488Y-136605485D01*
X139272487Y-136605485D01*
X139105485Y-136772487D01*
X139105485Y-136772488D01*
X139105483Y-136772490D01*
X139045862Y-136854550D01*
X138966657Y-136963566D01*
X138931893Y-137031795D01*
X138883918Y-137082591D01*
X138821408Y-137099500D01*
X135178592Y-137099500D01*
X135111553Y-137079815D01*
X135068107Y-137031795D01*
X135033342Y-136963566D01*
X134894517Y-136772490D01*
X134727510Y-136605483D01*
X134536433Y-136466657D01*
X134536429Y-136466655D01*
X134325996Y-136359433D01*
X134101368Y-136286446D01*
X133868097Y-136249500D01*
X133868092Y-136249500D01*
X133631908Y-136249500D01*
X133631903Y-136249500D01*
X133398631Y-136286446D01*
X133174003Y-136359433D01*
X132963566Y-136466657D01*
X132854550Y-136545862D01*
X132772490Y-136605483D01*
X132772488Y-136605485D01*
X132772487Y-136605485D01*
X132605485Y-136772487D01*
X132605485Y-136772488D01*
X132605483Y-136772490D01*
X132545862Y-136854550D01*
X132466657Y-136963566D01*
X132359433Y-137174003D01*
X132286446Y-137398631D01*
X132249500Y-137631902D01*
X132249500Y-137868097D01*
X132286446Y-138101368D01*
X132359433Y-138325996D01*
X132431893Y-138468205D01*
X132466657Y-138536433D01*
X132605483Y-138727510D01*
X132772490Y-138894517D01*
X132963567Y-139033343D01*
X133062991Y-139084002D01*
X133174003Y-139140566D01*
X133174005Y-139140566D01*
X133174008Y-139140568D01*
X133294412Y-139179689D01*
X133398631Y-139213553D01*
X133631903Y-139250500D01*
X133631908Y-139250500D01*
X133868097Y-139250500D01*
X134101368Y-139213553D01*
X134325992Y-139140568D01*
X134536433Y-139033343D01*
X134727510Y-138894517D01*
X134894517Y-138727510D01*
X135033343Y-138536433D01*
X135068107Y-138468205D01*
X135116082Y-138417409D01*
X135178592Y-138400500D01*
X138821408Y-138400500D01*
X138888447Y-138420185D01*
X138931893Y-138468205D01*
X138966657Y-138536433D01*
X139105483Y-138727510D01*
X139272490Y-138894517D01*
X139463567Y-139033343D01*
X139562991Y-139084002D01*
X139674003Y-139140566D01*
X139674005Y-139140566D01*
X139674008Y-139140568D01*
X139794412Y-139179689D01*
X139898631Y-139213553D01*
X140131903Y-139250500D01*
X140131908Y-139250500D01*
X140368097Y-139250500D01*
X140601368Y-139213553D01*
X140825992Y-139140568D01*
X141036433Y-139033343D01*
X141227510Y-138894517D01*
X141394517Y-138727510D01*
X141533343Y-138536433D01*
X141640568Y-138325992D01*
X141713553Y-138101368D01*
X141750500Y-137868097D01*
X141750500Y-137631902D01*
X141713553Y-137398631D01*
X141640566Y-137174003D01*
X141533342Y-136963566D01*
X141394517Y-136772490D01*
X141227510Y-136605483D01*
X141036433Y-136466657D01*
X141036432Y-136466656D01*
X141036430Y-136466655D01*
X140968204Y-136431891D01*
X140917408Y-136383916D01*
X140900500Y-136321407D01*
X140900500Y-134935928D01*
X140875502Y-134810261D01*
X140875501Y-134810260D01*
X140875501Y-134810256D01*
X140826465Y-134691873D01*
X140755277Y-134585331D01*
X140755275Y-134585329D01*
X140755273Y-134585326D01*
X139686819Y-133516872D01*
X139653334Y-133455549D01*
X139650500Y-133429191D01*
X139650500Y-132381947D01*
X156000000Y-132381947D01*
X156000000Y-132618052D01*
X156036934Y-132851247D01*
X156109897Y-133075802D01*
X156217087Y-133286174D01*
X156277338Y-133369104D01*
X156277340Y-133369105D01*
X156976212Y-132670233D01*
X156987482Y-132712292D01*
X157059890Y-132837708D01*
X157162292Y-132940110D01*
X157287708Y-133012518D01*
X157329765Y-133023787D01*
X156630893Y-133722658D01*
X156713828Y-133782914D01*
X156924197Y-133890102D01*
X157148752Y-133963065D01*
X157148751Y-133963065D01*
X157381948Y-134000000D01*
X157618052Y-134000000D01*
X157851247Y-133963065D01*
X158075802Y-133890102D01*
X158286163Y-133782918D01*
X158286169Y-133782914D01*
X158369104Y-133722658D01*
X158369105Y-133722658D01*
X157670233Y-133023787D01*
X157712292Y-133012518D01*
X157837708Y-132940110D01*
X157940110Y-132837708D01*
X158012518Y-132712292D01*
X158023787Y-132670234D01*
X158722658Y-133369105D01*
X158722658Y-133369104D01*
X158782914Y-133286169D01*
X158782918Y-133286163D01*
X158890102Y-133075802D01*
X158963065Y-132851247D01*
X159000000Y-132618052D01*
X159000000Y-132381947D01*
X162500000Y-132381947D01*
X162500000Y-132618052D01*
X162536934Y-132851247D01*
X162609897Y-133075802D01*
X162717087Y-133286174D01*
X162777338Y-133369104D01*
X162777340Y-133369105D01*
X163476212Y-132670233D01*
X163487482Y-132712292D01*
X163559890Y-132837708D01*
X163662292Y-132940110D01*
X163787708Y-133012518D01*
X163829765Y-133023787D01*
X163130893Y-133722658D01*
X163213828Y-133782914D01*
X163424197Y-133890102D01*
X163648752Y-133963065D01*
X163648751Y-133963065D01*
X163881948Y-134000000D01*
X164118052Y-134000000D01*
X164351247Y-133963065D01*
X164575802Y-133890102D01*
X164786163Y-133782918D01*
X164786169Y-133782914D01*
X164869104Y-133722658D01*
X164869105Y-133722658D01*
X164170233Y-133023787D01*
X164212292Y-133012518D01*
X164337708Y-132940110D01*
X164440110Y-132837708D01*
X164512518Y-132712292D01*
X164523787Y-132670234D01*
X165222658Y-133369105D01*
X165222658Y-133369104D01*
X165282914Y-133286169D01*
X165282918Y-133286163D01*
X165390102Y-133075802D01*
X165463065Y-132851247D01*
X165500000Y-132618052D01*
X165500000Y-132381947D01*
X165463065Y-132148752D01*
X165390102Y-131924197D01*
X165282914Y-131713828D01*
X165222658Y-131630894D01*
X165222658Y-131630893D01*
X164523787Y-132329765D01*
X164512518Y-132287708D01*
X164440110Y-132162292D01*
X164337708Y-132059890D01*
X164212292Y-131987482D01*
X164170234Y-131976212D01*
X164869105Y-131277340D01*
X164869104Y-131277338D01*
X164786174Y-131217087D01*
X164575802Y-131109897D01*
X164351247Y-131036934D01*
X164351248Y-131036934D01*
X164118052Y-131000000D01*
X163881948Y-131000000D01*
X163648752Y-131036934D01*
X163424197Y-131109897D01*
X163213830Y-131217084D01*
X163130894Y-131277340D01*
X163829766Y-131976212D01*
X163787708Y-131987482D01*
X163662292Y-132059890D01*
X163559890Y-132162292D01*
X163487482Y-132287708D01*
X163476212Y-132329765D01*
X162777340Y-131630894D01*
X162717084Y-131713830D01*
X162609897Y-131924197D01*
X162536934Y-132148752D01*
X162500000Y-132381947D01*
X159000000Y-132381947D01*
X158963065Y-132148752D01*
X158890102Y-131924197D01*
X158782914Y-131713828D01*
X158722658Y-131630894D01*
X158722658Y-131630893D01*
X158023787Y-132329765D01*
X158012518Y-132287708D01*
X157940110Y-132162292D01*
X157837708Y-132059890D01*
X157712292Y-131987482D01*
X157670234Y-131976212D01*
X158369105Y-131277340D01*
X158369104Y-131277339D01*
X158286174Y-131217087D01*
X158075802Y-131109897D01*
X157851247Y-131036934D01*
X157851248Y-131036934D01*
X157618052Y-131000000D01*
X157381948Y-131000000D01*
X157148752Y-131036934D01*
X156924197Y-131109897D01*
X156713830Y-131217084D01*
X156630894Y-131277340D01*
X157329766Y-131976212D01*
X157287708Y-131987482D01*
X157162292Y-132059890D01*
X157059890Y-132162292D01*
X156987482Y-132287708D01*
X156976212Y-132329766D01*
X156277340Y-131630894D01*
X156217084Y-131713830D01*
X156109897Y-131924197D01*
X156036934Y-132148752D01*
X156000000Y-132381947D01*
X139650500Y-132381947D01*
X139650500Y-131124499D01*
X139670185Y-131057460D01*
X139722989Y-131011705D01*
X139774495Y-131000499D01*
X141747872Y-131000499D01*
X141807483Y-130994091D01*
X141942331Y-130943796D01*
X142057546Y-130857546D01*
X142143796Y-130742331D01*
X142194091Y-130607483D01*
X142200500Y-130547873D01*
X142200499Y-128774499D01*
X142220184Y-128707461D01*
X142272987Y-128661706D01*
X142324499Y-128650500D01*
X146847003Y-128650500D01*
X146914042Y-128670185D01*
X146959797Y-128722989D01*
X146969741Y-128792147D01*
X146957488Y-128830795D01*
X146909897Y-128924197D01*
X146836934Y-129148752D01*
X146800000Y-129381947D01*
X146800000Y-129618052D01*
X146836934Y-129851247D01*
X146909897Y-130075802D01*
X147017087Y-130286174D01*
X147077338Y-130369104D01*
X147077340Y-130369105D01*
X147817037Y-129629408D01*
X147834075Y-129692993D01*
X147899901Y-129807007D01*
X147992993Y-129900099D01*
X148107007Y-129965925D01*
X148170590Y-129982962D01*
X147430893Y-130722658D01*
X147513828Y-130782914D01*
X147724197Y-130890102D01*
X147948752Y-130963065D01*
X147948751Y-130963065D01*
X148181948Y-131000000D01*
X148418052Y-131000000D01*
X148651247Y-130963065D01*
X148875802Y-130890102D01*
X149086163Y-130782918D01*
X149086169Y-130782914D01*
X149169104Y-130722658D01*
X149169105Y-130722658D01*
X148429408Y-129982962D01*
X148492993Y-129965925D01*
X148607007Y-129900099D01*
X148700099Y-129807007D01*
X148765925Y-129692993D01*
X148782962Y-129629409D01*
X149522658Y-130369105D01*
X149522658Y-130369104D01*
X149582914Y-130286169D01*
X149582918Y-130286163D01*
X149690102Y-130075802D01*
X149763065Y-129851247D01*
X149800000Y-129618052D01*
X149800000Y-129381947D01*
X149763065Y-129148752D01*
X149690102Y-128924197D01*
X149642512Y-128830795D01*
X149629616Y-128762126D01*
X149655892Y-128697385D01*
X149712999Y-128657128D01*
X149752997Y-128650500D01*
X156071408Y-128650500D01*
X156138447Y-128670185D01*
X156181893Y-128718205D01*
X156216657Y-128786433D01*
X156355483Y-128977510D01*
X156522490Y-129144517D01*
X156713567Y-129283343D01*
X156812991Y-129334002D01*
X156924003Y-129390566D01*
X156924005Y-129390566D01*
X156924008Y-129390568D01*
X156986596Y-129410904D01*
X157148631Y-129463553D01*
X157381903Y-129500500D01*
X157381908Y-129500500D01*
X157618097Y-129500500D01*
X157851368Y-129463553D01*
X158075992Y-129390568D01*
X158286433Y-129283343D01*
X158477510Y-129144517D01*
X158644517Y-128977510D01*
X158783343Y-128786433D01*
X158818107Y-128718205D01*
X158866082Y-128667409D01*
X158928592Y-128650500D01*
X162571408Y-128650500D01*
X162638447Y-128670185D01*
X162681893Y-128718205D01*
X162716657Y-128786433D01*
X162855483Y-128977510D01*
X163022490Y-129144517D01*
X163213567Y-129283343D01*
X163312991Y-129334002D01*
X163424003Y-129390566D01*
X163424005Y-129390566D01*
X163424008Y-129390568D01*
X163486596Y-129410904D01*
X163648631Y-129463553D01*
X163881903Y-129500500D01*
X163881908Y-129500500D01*
X164118097Y-129500500D01*
X164351368Y-129463553D01*
X164575992Y-129390568D01*
X164786433Y-129283343D01*
X164977510Y-129144517D01*
X165144517Y-128977510D01*
X165283343Y-128786433D01*
X165390568Y-128575992D01*
X165463553Y-128351368D01*
X165476254Y-128271176D01*
X165500500Y-128118097D01*
X165500500Y-127881902D01*
X165463553Y-127648631D01*
X165390566Y-127424003D01*
X165334002Y-127312991D01*
X165283343Y-127213567D01*
X165144517Y-127022490D01*
X164977510Y-126855483D01*
X164786433Y-126716657D01*
X164575996Y-126609433D01*
X164351368Y-126536446D01*
X164118097Y-126499500D01*
X164118092Y-126499500D01*
X163881908Y-126499500D01*
X163881903Y-126499500D01*
X163710535Y-126526642D01*
X163641241Y-126517687D01*
X163587790Y-126472691D01*
X163567150Y-126405940D01*
X163585875Y-126338626D01*
X163603451Y-126316493D01*
X165317093Y-124602851D01*
X165378413Y-124569369D01*
X165448105Y-124574353D01*
X165504038Y-124616225D01*
X165528455Y-124681689D01*
X165527244Y-124709933D01*
X165500000Y-124881947D01*
X165500000Y-125118052D01*
X165536934Y-125351247D01*
X165609897Y-125575802D01*
X165717087Y-125786174D01*
X165777338Y-125869104D01*
X165777340Y-125869105D01*
X166476212Y-125170233D01*
X166487482Y-125212292D01*
X166559890Y-125337708D01*
X166662292Y-125440110D01*
X166787708Y-125512518D01*
X166829765Y-125523787D01*
X166130893Y-126222658D01*
X166213828Y-126282914D01*
X166424197Y-126390102D01*
X166648752Y-126463065D01*
X166648751Y-126463065D01*
X166881948Y-126500000D01*
X167118052Y-126500000D01*
X167351247Y-126463065D01*
X167575802Y-126390102D01*
X167786163Y-126282918D01*
X167786169Y-126282914D01*
X167869104Y-126222658D01*
X167869105Y-126222658D01*
X167170233Y-125523787D01*
X167212292Y-125512518D01*
X167337708Y-125440110D01*
X167440110Y-125337708D01*
X167512518Y-125212292D01*
X167523787Y-125170233D01*
X168222658Y-125869105D01*
X168222658Y-125869104D01*
X168282914Y-125786169D01*
X168282918Y-125786163D01*
X168390102Y-125575802D01*
X168463065Y-125351247D01*
X168500000Y-125118052D01*
X168500000Y-124881947D01*
X172000000Y-124881947D01*
X172000000Y-125118052D01*
X172036934Y-125351247D01*
X172109897Y-125575802D01*
X172217087Y-125786174D01*
X172277338Y-125869104D01*
X172277340Y-125869105D01*
X172976212Y-125170233D01*
X172987482Y-125212292D01*
X173059890Y-125337708D01*
X173162292Y-125440110D01*
X173287708Y-125512518D01*
X173329765Y-125523787D01*
X172630893Y-126222658D01*
X172713828Y-126282914D01*
X172924197Y-126390102D01*
X173148752Y-126463065D01*
X173148751Y-126463065D01*
X173381948Y-126500000D01*
X173618052Y-126500000D01*
X173851247Y-126463065D01*
X174075802Y-126390102D01*
X174286163Y-126282918D01*
X174286169Y-126282914D01*
X174369104Y-126222658D01*
X174369105Y-126222658D01*
X173670233Y-125523787D01*
X173712292Y-125512518D01*
X173837708Y-125440110D01*
X173940110Y-125337708D01*
X174012518Y-125212292D01*
X174023787Y-125170233D01*
X174722658Y-125869105D01*
X174722658Y-125869104D01*
X174782914Y-125786169D01*
X174782918Y-125786163D01*
X174890102Y-125575802D01*
X174963065Y-125351247D01*
X175000000Y-125118052D01*
X175000000Y-124881947D01*
X174963065Y-124648752D01*
X174890102Y-124424197D01*
X174782914Y-124213828D01*
X174722658Y-124130894D01*
X174722658Y-124130893D01*
X174023787Y-124829765D01*
X174012518Y-124787708D01*
X173940110Y-124662292D01*
X173837708Y-124559890D01*
X173712292Y-124487482D01*
X173670234Y-124476212D01*
X174369105Y-123777340D01*
X174369104Y-123777338D01*
X174286174Y-123717087D01*
X174075802Y-123609897D01*
X173851247Y-123536934D01*
X173851248Y-123536934D01*
X173618052Y-123500000D01*
X173381948Y-123500000D01*
X173148752Y-123536934D01*
X172924197Y-123609897D01*
X172713830Y-123717084D01*
X172630894Y-123777340D01*
X173329766Y-124476212D01*
X173287708Y-124487482D01*
X173162292Y-124559890D01*
X173059890Y-124662292D01*
X172987482Y-124787708D01*
X172976212Y-124829766D01*
X172277340Y-124130894D01*
X172217084Y-124213830D01*
X172109897Y-124424197D01*
X172036934Y-124648752D01*
X172000000Y-124881947D01*
X168500000Y-124881947D01*
X168463065Y-124648752D01*
X168390102Y-124424197D01*
X168282914Y-124213828D01*
X168222658Y-124130894D01*
X168222658Y-124130893D01*
X167523787Y-124829765D01*
X167512518Y-124787708D01*
X167440110Y-124662292D01*
X167337708Y-124559890D01*
X167212292Y-124487482D01*
X167170233Y-124476212D01*
X167869105Y-123777340D01*
X167869104Y-123777339D01*
X167786174Y-123717087D01*
X167575802Y-123609897D01*
X167351247Y-123536934D01*
X167351248Y-123536934D01*
X167118052Y-123500000D01*
X166881948Y-123500000D01*
X166648752Y-123536934D01*
X166424197Y-123609897D01*
X166330795Y-123657488D01*
X166262126Y-123670384D01*
X166197385Y-123644108D01*
X166157128Y-123587001D01*
X166150500Y-123547003D01*
X166150500Y-121953558D01*
X166170185Y-121886519D01*
X166222989Y-121840764D01*
X166292147Y-121830820D01*
X166330796Y-121843074D01*
X166424001Y-121890565D01*
X166424004Y-121890565D01*
X166424008Y-121890568D01*
X166579151Y-121940977D01*
X166648631Y-121963553D01*
X166881903Y-122000500D01*
X166881908Y-122000500D01*
X167118097Y-122000500D01*
X167351368Y-121963553D01*
X167382129Y-121953558D01*
X167575992Y-121890568D01*
X167786433Y-121783343D01*
X167977510Y-121644517D01*
X168144517Y-121477510D01*
X168283343Y-121286433D01*
X168318107Y-121218205D01*
X168366082Y-121167409D01*
X168428592Y-121150500D01*
X172071408Y-121150500D01*
X172138447Y-121170185D01*
X172181893Y-121218205D01*
X172216657Y-121286433D01*
X172355483Y-121477510D01*
X172522490Y-121644517D01*
X172713567Y-121783343D01*
X172806746Y-121830820D01*
X172924003Y-121890566D01*
X172924005Y-121890566D01*
X172924008Y-121890568D01*
X173044412Y-121929689D01*
X173148631Y-121963553D01*
X173381903Y-122000500D01*
X173381908Y-122000500D01*
X173618097Y-122000500D01*
X173851368Y-121963553D01*
X173882129Y-121953558D01*
X174075992Y-121890568D01*
X174286433Y-121783343D01*
X174477510Y-121644517D01*
X174644517Y-121477510D01*
X174783343Y-121286433D01*
X174890568Y-121075992D01*
X174963553Y-120851368D01*
X174970064Y-120810261D01*
X175000500Y-120618097D01*
X175000500Y-120381902D01*
X174963553Y-120148631D01*
X174913233Y-119993763D01*
X174890568Y-119924008D01*
X174890566Y-119924005D01*
X174890566Y-119924003D01*
X174783342Y-119713566D01*
X174644517Y-119522490D01*
X174477510Y-119355483D01*
X174286433Y-119216657D01*
X174075996Y-119109433D01*
X173851368Y-119036446D01*
X173618097Y-118999500D01*
X173618092Y-118999500D01*
X173381908Y-118999500D01*
X173381903Y-118999500D01*
X173148631Y-119036446D01*
X172924003Y-119109433D01*
X172713566Y-119216657D01*
X172604550Y-119295862D01*
X172522490Y-119355483D01*
X172522488Y-119355485D01*
X172522487Y-119355485D01*
X172355485Y-119522487D01*
X172355485Y-119522488D01*
X172355483Y-119522490D01*
X172295862Y-119604550D01*
X172216657Y-119713566D01*
X172181893Y-119781795D01*
X172133918Y-119832591D01*
X172071408Y-119849500D01*
X168428592Y-119849500D01*
X168361553Y-119829815D01*
X168318107Y-119781795D01*
X168283342Y-119713566D01*
X168144517Y-119522490D01*
X167977510Y-119355483D01*
X167786433Y-119216657D01*
X167575996Y-119109433D01*
X167351368Y-119036446D01*
X167118097Y-118999500D01*
X167118092Y-118999500D01*
X166881908Y-118999500D01*
X166881903Y-118999500D01*
X166648631Y-119036446D01*
X166424003Y-119109433D01*
X166213566Y-119216657D01*
X166104550Y-119295862D01*
X166022490Y-119355483D01*
X166022488Y-119355485D01*
X166022487Y-119355485D01*
X165855485Y-119522487D01*
X165855485Y-119522488D01*
X165855483Y-119522490D01*
X165795862Y-119604550D01*
X165716657Y-119713566D01*
X165681893Y-119781795D01*
X165609432Y-119924008D01*
X165609431Y-119924010D01*
X165609430Y-119924013D01*
X165596193Y-119964749D01*
X165565944Y-120014109D01*
X164994727Y-120585325D01*
X164994724Y-120585328D01*
X164924955Y-120689747D01*
X164923535Y-120691871D01*
X164923532Y-120691877D01*
X164874500Y-120810251D01*
X164874497Y-120810261D01*
X164849500Y-120935928D01*
X164849500Y-123179192D01*
X164829815Y-123246231D01*
X164813181Y-123266873D01*
X162116873Y-125963181D01*
X162055550Y-125996666D01*
X162029192Y-125999500D01*
X156876740Y-125999500D01*
X156751072Y-126024497D01*
X156751062Y-126024500D01*
X156702031Y-126044810D01*
X156632692Y-126073530D01*
X156632674Y-126073540D01*
X156526143Y-126144721D01*
X156526136Y-126144727D01*
X155857684Y-126813181D01*
X155796361Y-126846666D01*
X155770003Y-126849500D01*
X139774500Y-126849500D01*
X139707461Y-126829815D01*
X139661706Y-126777011D01*
X139650500Y-126725500D01*
X139650500Y-126314610D01*
X139625502Y-126188943D01*
X139625501Y-126188942D01*
X139625501Y-126188938D01*
X139590826Y-126105226D01*
X139576464Y-126070552D01*
X139505277Y-125964013D01*
X139505271Y-125964006D01*
X136535993Y-122994727D01*
X136535992Y-122994726D01*
X136535988Y-122994723D01*
X136429446Y-122923535D01*
X136311063Y-122874499D01*
X136311057Y-122874497D01*
X136185390Y-122849500D01*
X136185388Y-122849500D01*
X135274500Y-122849500D01*
X135207461Y-122829815D01*
X135161706Y-122777011D01*
X135150500Y-122725500D01*
X135150500Y-121421153D01*
X150699500Y-121421153D01*
X150699500Y-121578846D01*
X150730261Y-121733489D01*
X150730264Y-121733501D01*
X150790602Y-121879172D01*
X150790609Y-121879185D01*
X150878210Y-122010288D01*
X150878213Y-122010292D01*
X150989707Y-122121786D01*
X150989711Y-122121789D01*
X151120814Y-122209390D01*
X151120827Y-122209397D01*
X151266498Y-122269735D01*
X151266503Y-122269737D01*
X151421153Y-122300499D01*
X151421156Y-122300500D01*
X151421158Y-122300500D01*
X151578844Y-122300500D01*
X151578845Y-122300499D01*
X151733497Y-122269737D01*
X151879179Y-122209394D01*
X151936044Y-122171397D01*
X152002721Y-122150520D01*
X152004935Y-122150500D01*
X154495065Y-122150500D01*
X154562104Y-122170185D01*
X154563909Y-122171366D01*
X154620821Y-122209394D01*
X154620823Y-122209395D01*
X154620827Y-122209397D01*
X154766498Y-122269735D01*
X154766503Y-122269737D01*
X154921153Y-122300499D01*
X154921156Y-122300500D01*
X154921158Y-122300500D01*
X155078844Y-122300500D01*
X155078845Y-122300499D01*
X155233497Y-122269737D01*
X155379179Y-122209394D01*
X155510289Y-122121789D01*
X155621789Y-122010289D01*
X155709394Y-121879179D01*
X155769737Y-121733497D01*
X155800500Y-121578842D01*
X155800500Y-121421158D01*
X155800500Y-121421155D01*
X155800499Y-121421153D01*
X155769738Y-121266510D01*
X155769737Y-121266503D01*
X155769735Y-121266498D01*
X155709397Y-121120827D01*
X155709390Y-121120814D01*
X155621789Y-120989711D01*
X155621786Y-120989707D01*
X155510292Y-120878213D01*
X155510288Y-120878210D01*
X155379185Y-120790609D01*
X155379172Y-120790602D01*
X155233501Y-120730264D01*
X155233489Y-120730261D01*
X155078845Y-120699500D01*
X155078842Y-120699500D01*
X154921158Y-120699500D01*
X154921155Y-120699500D01*
X154766510Y-120730261D01*
X154766498Y-120730264D01*
X154620827Y-120790602D01*
X154620820Y-120790606D01*
X154591928Y-120809911D01*
X154563955Y-120828602D01*
X154497279Y-120849480D01*
X154495065Y-120849500D01*
X152004935Y-120849500D01*
X151937896Y-120829815D01*
X151936090Y-120828633D01*
X151879179Y-120790606D01*
X151879172Y-120790602D01*
X151733501Y-120730264D01*
X151733489Y-120730261D01*
X151578845Y-120699500D01*
X151578842Y-120699500D01*
X151421158Y-120699500D01*
X151421155Y-120699500D01*
X151266510Y-120730261D01*
X151266498Y-120730264D01*
X151120827Y-120790602D01*
X151120814Y-120790609D01*
X150989711Y-120878210D01*
X150989707Y-120878213D01*
X150878213Y-120989707D01*
X150878210Y-120989711D01*
X150790609Y-121120814D01*
X150790602Y-121120827D01*
X150730264Y-121266498D01*
X150730261Y-121266510D01*
X150699500Y-121421153D01*
X135150500Y-121421153D01*
X135150500Y-110435928D01*
X135125502Y-110310261D01*
X135125501Y-110310260D01*
X135125501Y-110310256D01*
X135076465Y-110191873D01*
X135005277Y-110085331D01*
X135005275Y-110085329D01*
X135005273Y-110085326D01*
X135005272Y-110085325D01*
X132850657Y-107930711D01*
X132817172Y-107869388D01*
X132817689Y-107821245D01*
X132816484Y-107821055D01*
X132850500Y-107606286D01*
X132850500Y-107393713D01*
X132817246Y-107183760D01*
X132817246Y-107183757D01*
X132751557Y-106981588D01*
X132655051Y-106792184D01*
X132655049Y-106792181D01*
X132655048Y-106792179D01*
X132530109Y-106620213D01*
X132379786Y-106469890D01*
X132207820Y-106344951D01*
X132207115Y-106344591D01*
X132199054Y-106340485D01*
X132148259Y-106292512D01*
X132131463Y-106224692D01*
X132153999Y-106158556D01*
X132199054Y-106119515D01*
X132207816Y-106115051D01*
X132229789Y-106099086D01*
X132379786Y-105990109D01*
X132379788Y-105990106D01*
X132379792Y-105990104D01*
X132530104Y-105839792D01*
X132530106Y-105839788D01*
X132530109Y-105839786D01*
X132655048Y-105667820D01*
X132655047Y-105667820D01*
X132655051Y-105667816D01*
X132751557Y-105478412D01*
X132817246Y-105276243D01*
X132850500Y-105066287D01*
X132850500Y-104853713D01*
X132817246Y-104643757D01*
X132751557Y-104441588D01*
X132655051Y-104252184D01*
X132655049Y-104252181D01*
X132655048Y-104252179D01*
X132530109Y-104080213D01*
X132379786Y-103929890D01*
X132207820Y-103804951D01*
X132207115Y-103804591D01*
X132199054Y-103800485D01*
X132148259Y-103752512D01*
X132131463Y-103684692D01*
X132153999Y-103618556D01*
X132199054Y-103579515D01*
X132207816Y-103575051D01*
X132303785Y-103505326D01*
X132379786Y-103450109D01*
X132379788Y-103450106D01*
X132379792Y-103450104D01*
X132530104Y-103299792D01*
X132530106Y-103299788D01*
X132530109Y-103299786D01*
X132655048Y-103127820D01*
X132655047Y-103127820D01*
X132655051Y-103127816D01*
X132751557Y-102938412D01*
X132817246Y-102736243D01*
X132850500Y-102526287D01*
X132850500Y-102313713D01*
X132817246Y-102103757D01*
X132751557Y-101901588D01*
X132655051Y-101712184D01*
X132655049Y-101712181D01*
X132655048Y-101712179D01*
X132530109Y-101540213D01*
X132379786Y-101389890D01*
X132207820Y-101264951D01*
X132207115Y-101264591D01*
X132199054Y-101260485D01*
X132148259Y-101212512D01*
X132131463Y-101144692D01*
X132153999Y-101078556D01*
X132199054Y-101039515D01*
X132207816Y-101035051D01*
X132229789Y-101019086D01*
X132379786Y-100910109D01*
X132379788Y-100910106D01*
X132379792Y-100910104D01*
X132530104Y-100759792D01*
X132530106Y-100759788D01*
X132530109Y-100759786D01*
X132655048Y-100587820D01*
X132655047Y-100587820D01*
X132655051Y-100587816D01*
X132751557Y-100398412D01*
X132817246Y-100196243D01*
X132850500Y-99986287D01*
X132850500Y-99773713D01*
X132817246Y-99563757D01*
X132751557Y-99361588D01*
X132655051Y-99172184D01*
X132655049Y-99172181D01*
X132655048Y-99172179D01*
X132530109Y-99000213D01*
X132379786Y-98849890D01*
X132207820Y-98724951D01*
X132207115Y-98724591D01*
X132199054Y-98720485D01*
X132148259Y-98672512D01*
X132131463Y-98604692D01*
X132153999Y-98538556D01*
X132199054Y-98499515D01*
X132207816Y-98495051D01*
X132229789Y-98479086D01*
X132379786Y-98370109D01*
X132379788Y-98370106D01*
X132379792Y-98370104D01*
X132530104Y-98219792D01*
X132530106Y-98219788D01*
X132530109Y-98219786D01*
X132655048Y-98047820D01*
X132655047Y-98047820D01*
X132655051Y-98047816D01*
X132751557Y-97858412D01*
X132817246Y-97656243D01*
X132850500Y-97446287D01*
X132850500Y-97233713D01*
X132817246Y-97023757D01*
X132751557Y-96821588D01*
X132655051Y-96632184D01*
X132655049Y-96632181D01*
X132655048Y-96632179D01*
X132530109Y-96460213D01*
X132379786Y-96309890D01*
X132207820Y-96184951D01*
X132207115Y-96184591D01*
X132199054Y-96180485D01*
X132148259Y-96132512D01*
X132131463Y-96064692D01*
X132153999Y-95998556D01*
X132199054Y-95959515D01*
X132207816Y-95955051D01*
X132229789Y-95939086D01*
X132379786Y-95830109D01*
X132379788Y-95830106D01*
X132379792Y-95830104D01*
X132530104Y-95679792D01*
X132530106Y-95679788D01*
X132530109Y-95679786D01*
X132655048Y-95507820D01*
X132655047Y-95507820D01*
X132655051Y-95507816D01*
X132751557Y-95318412D01*
X132817246Y-95116243D01*
X132850500Y-94906287D01*
X132850500Y-94693713D01*
X132817246Y-94483757D01*
X132751557Y-94281588D01*
X132655051Y-94092184D01*
X132655049Y-94092181D01*
X132655048Y-94092179D01*
X132530109Y-93920213D01*
X132379786Y-93769890D01*
X132207820Y-93644951D01*
X132207115Y-93644591D01*
X132199054Y-93640485D01*
X132148259Y-93592512D01*
X132131463Y-93524692D01*
X132153999Y-93458556D01*
X132199054Y-93419515D01*
X132207816Y-93415051D01*
X132229789Y-93399086D01*
X132379786Y-93290109D01*
X132379788Y-93290106D01*
X132379792Y-93290104D01*
X132530104Y-93139792D01*
X132530106Y-93139788D01*
X132530109Y-93139786D01*
X132655048Y-92967820D01*
X132655047Y-92967820D01*
X132655051Y-92967816D01*
X132751557Y-92778412D01*
X132817246Y-92576243D01*
X132850500Y-92366287D01*
X132850500Y-92153713D01*
X132817246Y-91943757D01*
X132751557Y-91741588D01*
X132655051Y-91552184D01*
X132655049Y-91552181D01*
X132655048Y-91552179D01*
X132530109Y-91380213D01*
X132379786Y-91229890D01*
X132207820Y-91104951D01*
X132207115Y-91104591D01*
X132199054Y-91100485D01*
X132148259Y-91052512D01*
X132131463Y-90984692D01*
X132153999Y-90918556D01*
X132199054Y-90879515D01*
X132207816Y-90875051D01*
X132229789Y-90859086D01*
X132379786Y-90750109D01*
X132379788Y-90750106D01*
X132379792Y-90750104D01*
X132530104Y-90599792D01*
X132530106Y-90599788D01*
X132530109Y-90599786D01*
X132655048Y-90427820D01*
X132655047Y-90427820D01*
X132655051Y-90427816D01*
X132751557Y-90238412D01*
X132817246Y-90036243D01*
X132850500Y-89826287D01*
X132850500Y-89613713D01*
X132817246Y-89403757D01*
X132751557Y-89201588D01*
X132655051Y-89012184D01*
X132655049Y-89012181D01*
X132655048Y-89012179D01*
X132530109Y-88840213D01*
X132379786Y-88689890D01*
X132207820Y-88564951D01*
X132207115Y-88564591D01*
X132199054Y-88560485D01*
X132148259Y-88512512D01*
X132131463Y-88444692D01*
X132153999Y-88378556D01*
X132199054Y-88339515D01*
X132207816Y-88335051D01*
X132229789Y-88319086D01*
X132379786Y-88210109D01*
X132379788Y-88210106D01*
X132379792Y-88210104D01*
X132530104Y-88059792D01*
X132530106Y-88059788D01*
X132530109Y-88059786D01*
X132655048Y-87887820D01*
X132655047Y-87887820D01*
X132655051Y-87887816D01*
X132751557Y-87698412D01*
X132817246Y-87496243D01*
X132850500Y-87286287D01*
X132850500Y-87073713D01*
X132817246Y-86863757D01*
X132751557Y-86661588D01*
X132655051Y-86472184D01*
X132655049Y-86472181D01*
X132655048Y-86472179D01*
X132530109Y-86300213D01*
X132379786Y-86149890D01*
X132207820Y-86024951D01*
X132207115Y-86024591D01*
X132199054Y-86020485D01*
X132148259Y-85972512D01*
X132131463Y-85904692D01*
X132153999Y-85838556D01*
X132199054Y-85799515D01*
X132207816Y-85795051D01*
X132314045Y-85717872D01*
X132379786Y-85670109D01*
X132379788Y-85670106D01*
X132379792Y-85670104D01*
X132530104Y-85519792D01*
X132530106Y-85519788D01*
X132530109Y-85519786D01*
X132655048Y-85347820D01*
X132655047Y-85347820D01*
X132655051Y-85347816D01*
X132751557Y-85158412D01*
X132817246Y-84956243D01*
X132850500Y-84746287D01*
X132850500Y-84533713D01*
X132817246Y-84323757D01*
X132751557Y-84121588D01*
X132655051Y-83932184D01*
X132655049Y-83932181D01*
X132655048Y-83932179D01*
X132530109Y-83760213D01*
X132416569Y-83646673D01*
X132383084Y-83585350D01*
X132388068Y-83515658D01*
X132429940Y-83459725D01*
X132460915Y-83442810D01*
X132592331Y-83393796D01*
X132707546Y-83307546D01*
X132793796Y-83192331D01*
X132844091Y-83057483D01*
X132850500Y-82997873D01*
X132850499Y-81202128D01*
X132844091Y-81142517D01*
X132842721Y-81138845D01*
X132793797Y-81007671D01*
X132793793Y-81007664D01*
X132707547Y-80892455D01*
X132707544Y-80892452D01*
X132592335Y-80806206D01*
X132592328Y-80806202D01*
X132457482Y-80755908D01*
X132457483Y-80755908D01*
X132397883Y-80749501D01*
X132397881Y-80749500D01*
X132397873Y-80749500D01*
X132397865Y-80749500D01*
X132274500Y-80749500D01*
X132207461Y-80729815D01*
X132161706Y-80677011D01*
X132150500Y-80625500D01*
X132150500Y-79435928D01*
X132125502Y-79310261D01*
X132125501Y-79310260D01*
X132125501Y-79310256D01*
X132076465Y-79191873D01*
X132076464Y-79191870D01*
X132005277Y-79085331D01*
X132005271Y-79085324D01*
X128186819Y-75266872D01*
X128153334Y-75205549D01*
X128150500Y-75179191D01*
X128150500Y-71394500D01*
X128170185Y-71327461D01*
X128222989Y-71281706D01*
X128274500Y-71270500D01*
X129240382Y-71270500D01*
X129307421Y-71290185D01*
X129341099Y-71324591D01*
X129342085Y-71323875D01*
X129469890Y-71499786D01*
X129583818Y-71613714D01*
X129617303Y-71675037D01*
X129612319Y-71744729D01*
X129570447Y-71800662D01*
X129539471Y-71817577D01*
X129407912Y-71866646D01*
X129407906Y-71866649D01*
X129292812Y-71952809D01*
X129292809Y-71952812D01*
X129206649Y-72067906D01*
X129206645Y-72067913D01*
X129156403Y-72202620D01*
X129156401Y-72202627D01*
X129150000Y-72262155D01*
X129150000Y-72910000D01*
X130066988Y-72910000D01*
X130034075Y-72967007D01*
X130000000Y-73094174D01*
X130000000Y-73225826D01*
X130034075Y-73352993D01*
X130066988Y-73410000D01*
X129150000Y-73410000D01*
X129150000Y-74057844D01*
X129156401Y-74117372D01*
X129156403Y-74117379D01*
X129206645Y-74252086D01*
X129206649Y-74252093D01*
X129292809Y-74367187D01*
X129292812Y-74367190D01*
X129407906Y-74453350D01*
X129407913Y-74453354D01*
X129542620Y-74503596D01*
X129542627Y-74503598D01*
X129602155Y-74509999D01*
X129602172Y-74510000D01*
X130250000Y-74510000D01*
X130250000Y-73593012D01*
X130307007Y-73625925D01*
X130434174Y-73660000D01*
X130565826Y-73660000D01*
X130692993Y-73625925D01*
X130750000Y-73593012D01*
X130750000Y-74510000D01*
X131397828Y-74510000D01*
X131397844Y-74509999D01*
X131457372Y-74503598D01*
X131457379Y-74503596D01*
X131592086Y-74453354D01*
X131592093Y-74453350D01*
X131707187Y-74367190D01*
X131707190Y-74367187D01*
X131793350Y-74252093D01*
X131793354Y-74252086D01*
X131843596Y-74117379D01*
X131843598Y-74117372D01*
X131849999Y-74057844D01*
X131850000Y-74057827D01*
X131850000Y-73410000D01*
X130933012Y-73410000D01*
X130965925Y-73352993D01*
X131000000Y-73225826D01*
X131000000Y-73094174D01*
X130965925Y-72967007D01*
X130933012Y-72910000D01*
X131850000Y-72910000D01*
X131850000Y-72262172D01*
X131849999Y-72262155D01*
X131843598Y-72202627D01*
X131843596Y-72202620D01*
X131793354Y-72067913D01*
X131793350Y-72067906D01*
X131707190Y-71952812D01*
X131707187Y-71952809D01*
X131592093Y-71866649D01*
X131592088Y-71866646D01*
X131460528Y-71817577D01*
X131404595Y-71775705D01*
X131380178Y-71710241D01*
X131395030Y-71641968D01*
X131416175Y-71613720D01*
X131530104Y-71499792D01*
X131655051Y-71327816D01*
X131751557Y-71138412D01*
X131817246Y-70936243D01*
X131850500Y-70726287D01*
X131850500Y-70513713D01*
X131817246Y-70303757D01*
X131751557Y-70101588D01*
X131655051Y-69912184D01*
X131655049Y-69912181D01*
X131655048Y-69912179D01*
X131607973Y-69847385D01*
X131584493Y-69781578D01*
X131600319Y-69713525D01*
X131650425Y-69664830D01*
X131708291Y-69650500D01*
X146764980Y-69650500D01*
X146832019Y-69670185D01*
X146852661Y-69686819D01*
X154313181Y-77147339D01*
X154346666Y-77208662D01*
X154349500Y-77235020D01*
X154349500Y-115824069D01*
X154364035Y-115897139D01*
X154374499Y-115949744D01*
X154423535Y-116068127D01*
X154478313Y-116150109D01*
X154494726Y-116174673D01*
X154494727Y-116174674D01*
X155549342Y-117229288D01*
X155582827Y-117290611D01*
X155582319Y-117338755D01*
X155583516Y-117338945D01*
X155549500Y-117553713D01*
X155549500Y-117766286D01*
X155582753Y-117976239D01*
X155648444Y-118178414D01*
X155744951Y-118367820D01*
X155869890Y-118539786D01*
X156020213Y-118690109D01*
X156192179Y-118815048D01*
X156192181Y-118815049D01*
X156192184Y-118815051D01*
X156381588Y-118911557D01*
X156583757Y-118977246D01*
X156793713Y-119010500D01*
X156793714Y-119010500D01*
X157006286Y-119010500D01*
X157006287Y-119010500D01*
X157216243Y-118977246D01*
X157418412Y-118911557D01*
X157607816Y-118815051D01*
X157671429Y-118768834D01*
X157779786Y-118690109D01*
X157779788Y-118690106D01*
X157779792Y-118690104D01*
X157930104Y-118539792D01*
X157930106Y-118539788D01*
X157930109Y-118539786D01*
X158055048Y-118367820D01*
X158055047Y-118367820D01*
X158055051Y-118367816D01*
X158151557Y-118178412D01*
X158217246Y-117976243D01*
X158250500Y-117766287D01*
X158250500Y-117553713D01*
X158217246Y-117343757D01*
X158151557Y-117141588D01*
X158055051Y-116952184D01*
X158055049Y-116952181D01*
X158055048Y-116952179D01*
X157930109Y-116780213D01*
X157779786Y-116629890D01*
X157607820Y-116504951D01*
X157607115Y-116504591D01*
X157599054Y-116500485D01*
X157548259Y-116452512D01*
X157531463Y-116384692D01*
X157553999Y-116318556D01*
X157599054Y-116279515D01*
X157607816Y-116275051D01*
X157662572Y-116235269D01*
X157779786Y-116150109D01*
X157779788Y-116150106D01*
X157779792Y-116150104D01*
X157930104Y-115999792D01*
X157930106Y-115999788D01*
X157930109Y-115999786D01*
X158055048Y-115827820D01*
X158055047Y-115827820D01*
X158055051Y-115827816D01*
X158151557Y-115638412D01*
X158217246Y-115436243D01*
X158250500Y-115226287D01*
X158250500Y-115013713D01*
X158217246Y-114803757D01*
X158216484Y-114798945D01*
X158218123Y-114798685D01*
X158221257Y-114736126D01*
X158250655Y-114689289D01*
X161005277Y-111934669D01*
X161076465Y-111828127D01*
X161125501Y-111709744D01*
X161150500Y-111584069D01*
X161150500Y-100417847D01*
X161170185Y-100350808D01*
X161222989Y-100305053D01*
X161250309Y-100296230D01*
X161266291Y-100293050D01*
X161383497Y-100269737D01*
X161529179Y-100209394D01*
X161660289Y-100121789D01*
X161771789Y-100010289D01*
X161859394Y-99879179D01*
X161919737Y-99733497D01*
X161950500Y-99578842D01*
X161950500Y-99421158D01*
X161950500Y-99421155D01*
X161950499Y-99421153D01*
X161919739Y-99266511D01*
X161919736Y-99266501D01*
X161903867Y-99228189D01*
X161896398Y-99158720D01*
X161927674Y-99096241D01*
X161930717Y-99093086D01*
X162805277Y-98218528D01*
X162876466Y-98111985D01*
X162918659Y-98010121D01*
X162925501Y-97993603D01*
X162950500Y-97867928D01*
X162950500Y-95959586D01*
X162950500Y-95959583D01*
X162925502Y-95833916D01*
X162925501Y-95833915D01*
X162925501Y-95833911D01*
X162876465Y-95715528D01*
X162805277Y-95608986D01*
X162805275Y-95608984D01*
X162805273Y-95608981D01*
X162686819Y-95490527D01*
X162653334Y-95429204D01*
X162650500Y-95402846D01*
X162650500Y-87320808D01*
X162670185Y-87253769D01*
X162686819Y-87233127D01*
X164833127Y-85086819D01*
X164894450Y-85053334D01*
X164920808Y-85050500D01*
X175343106Y-85050500D01*
X175410145Y-85070185D01*
X175455900Y-85122989D01*
X175465844Y-85192147D01*
X175436819Y-85255703D01*
X175417418Y-85273766D01*
X175392452Y-85292455D01*
X175306206Y-85407664D01*
X175306202Y-85407671D01*
X175255908Y-85542517D01*
X175249833Y-85599029D01*
X175249501Y-85602123D01*
X175249500Y-85602135D01*
X175249500Y-87197870D01*
X175249501Y-87197876D01*
X175256669Y-87264555D01*
X175244262Y-87333314D01*
X175221061Y-87365488D01*
X175129205Y-87457345D01*
X175129201Y-87457350D01*
X174981132Y-87661151D01*
X174866760Y-87885616D01*
X174810589Y-88058493D01*
X174788910Y-88125215D01*
X174749500Y-88374038D01*
X174749500Y-88625962D01*
X174783434Y-88840211D01*
X174788910Y-88874785D01*
X174866760Y-89114383D01*
X174981132Y-89338848D01*
X175129201Y-89542649D01*
X175129205Y-89542654D01*
X175307345Y-89720794D01*
X175307350Y-89720798D01*
X175452543Y-89826286D01*
X175511155Y-89868870D01*
X175654184Y-89941747D01*
X175735616Y-89983239D01*
X175735618Y-89983239D01*
X175735621Y-89983241D01*
X175975215Y-90061090D01*
X176224038Y-90100500D01*
X176224039Y-90100500D01*
X177775961Y-90100500D01*
X177775962Y-90100500D01*
X178024785Y-90061090D01*
X178264379Y-89983241D01*
X178488845Y-89868870D01*
X178692656Y-89720793D01*
X178787819Y-89625630D01*
X178849142Y-89592145D01*
X178918834Y-89597129D01*
X178974767Y-89639001D01*
X178999184Y-89704465D01*
X178999500Y-89713311D01*
X178999500Y-159375500D01*
X178979815Y-159442539D01*
X178927011Y-159488294D01*
X178875500Y-159499500D01*
X110124500Y-159499500D01*
X110057461Y-159479815D01*
X110011706Y-159427011D01*
X110000500Y-159375500D01*
X110000500Y-154378711D01*
X113149500Y-154378711D01*
X113149500Y-154621288D01*
X113181161Y-154861785D01*
X113243947Y-155096104D01*
X113336773Y-155320205D01*
X113336776Y-155320212D01*
X113458064Y-155530289D01*
X113458066Y-155530292D01*
X113458067Y-155530293D01*
X113605733Y-155722736D01*
X113605739Y-155722743D01*
X113777256Y-155894260D01*
X113777262Y-155894265D01*
X113969711Y-156041936D01*
X114179788Y-156163224D01*
X114403900Y-156256054D01*
X114638211Y-156318838D01*
X114818586Y-156342584D01*
X114878711Y-156350500D01*
X114878712Y-156350500D01*
X115121289Y-156350500D01*
X115169388Y-156344167D01*
X115361789Y-156318838D01*
X115596100Y-156256054D01*
X115820212Y-156163224D01*
X116030289Y-156041936D01*
X116222738Y-155894265D01*
X116394265Y-155722738D01*
X116541936Y-155530289D01*
X116663224Y-155320212D01*
X116756054Y-155096100D01*
X116818838Y-154861789D01*
X116850500Y-154621288D01*
X116850500Y-154378712D01*
X116850500Y-154378711D01*
X172149500Y-154378711D01*
X172149500Y-154621288D01*
X172181161Y-154861785D01*
X172243947Y-155096104D01*
X172336773Y-155320205D01*
X172336776Y-155320212D01*
X172458064Y-155530289D01*
X172458066Y-155530292D01*
X172458067Y-155530293D01*
X172605733Y-155722736D01*
X172605739Y-155722743D01*
X172777256Y-155894260D01*
X172777262Y-155894265D01*
X172969711Y-156041936D01*
X173179788Y-156163224D01*
X173403900Y-156256054D01*
X173638211Y-156318838D01*
X173818586Y-156342584D01*
X173878711Y-156350500D01*
X173878712Y-156350500D01*
X174121289Y-156350500D01*
X174169388Y-156344167D01*
X174361789Y-156318838D01*
X174596100Y-156256054D01*
X174820212Y-156163224D01*
X175030289Y-156041936D01*
X175222738Y-155894265D01*
X175394265Y-155722738D01*
X175541936Y-155530289D01*
X175663224Y-155320212D01*
X175756054Y-155096100D01*
X175818838Y-154861789D01*
X175850500Y-154621288D01*
X175850500Y-154378712D01*
X175818838Y-154138211D01*
X175756054Y-153903900D01*
X175663224Y-153679788D01*
X175541936Y-153469711D01*
X175394265Y-153277262D01*
X175394260Y-153277256D01*
X175222743Y-153105739D01*
X175222736Y-153105733D01*
X175030293Y-152958067D01*
X175030292Y-152958066D01*
X175030289Y-152958064D01*
X174820212Y-152836776D01*
X174820205Y-152836773D01*
X174596104Y-152743947D01*
X174361785Y-152681161D01*
X174121289Y-152649500D01*
X174121288Y-152649500D01*
X173878712Y-152649500D01*
X173878711Y-152649500D01*
X173638214Y-152681161D01*
X173403895Y-152743947D01*
X173179794Y-152836773D01*
X173179785Y-152836777D01*
X172969706Y-152958067D01*
X172777263Y-153105733D01*
X172777256Y-153105739D01*
X172605739Y-153277256D01*
X172605733Y-153277263D01*
X172458067Y-153469706D01*
X172336777Y-153679785D01*
X172336773Y-153679794D01*
X172243947Y-153903895D01*
X172181161Y-154138214D01*
X172149500Y-154378711D01*
X116850500Y-154378711D01*
X116818838Y-154138211D01*
X116756054Y-153903900D01*
X116663224Y-153679788D01*
X116541936Y-153469711D01*
X116394265Y-153277262D01*
X116394260Y-153277256D01*
X116222743Y-153105739D01*
X116222736Y-153105733D01*
X116030293Y-152958067D01*
X116030292Y-152958066D01*
X116030289Y-152958064D01*
X115820212Y-152836776D01*
X115820205Y-152836773D01*
X115596104Y-152743947D01*
X115361785Y-152681161D01*
X115121289Y-152649500D01*
X115121288Y-152649500D01*
X114878712Y-152649500D01*
X114878711Y-152649500D01*
X114638214Y-152681161D01*
X114403895Y-152743947D01*
X114179794Y-152836773D01*
X114179785Y-152836777D01*
X113969706Y-152958067D01*
X113777263Y-153105733D01*
X113777256Y-153105739D01*
X113605739Y-153277256D01*
X113605733Y-153277263D01*
X113458067Y-153469706D01*
X113336777Y-153679785D01*
X113336773Y-153679794D01*
X113243947Y-153903895D01*
X113181161Y-154138214D01*
X113149500Y-154378711D01*
X110000500Y-154378711D01*
X110000500Y-151881947D01*
X145000000Y-151881947D01*
X145000000Y-152118052D01*
X145036934Y-152351247D01*
X145109897Y-152575802D01*
X145217087Y-152786174D01*
X145277338Y-152869104D01*
X145277340Y-152869105D01*
X145976212Y-152170233D01*
X145987482Y-152212292D01*
X146059890Y-152337708D01*
X146162292Y-152440110D01*
X146287708Y-152512518D01*
X146329765Y-152523787D01*
X145630893Y-153222658D01*
X145713828Y-153282914D01*
X145924197Y-153390102D01*
X146148752Y-153463065D01*
X146148751Y-153463065D01*
X146381948Y-153500000D01*
X146618052Y-153500000D01*
X146851247Y-153463065D01*
X147075802Y-153390102D01*
X147286163Y-153282918D01*
X147286169Y-153282914D01*
X147369104Y-153222658D01*
X147369105Y-153222658D01*
X146670233Y-152523787D01*
X146712292Y-152512518D01*
X146837708Y-152440110D01*
X146940110Y-152337708D01*
X147012518Y-152212292D01*
X147023787Y-152170234D01*
X147722658Y-152869105D01*
X147722658Y-152869104D01*
X147782914Y-152786169D01*
X147782918Y-152786163D01*
X147890102Y-152575802D01*
X147963065Y-152351247D01*
X148000000Y-152118052D01*
X148000000Y-151881947D01*
X151500000Y-151881947D01*
X151500000Y-152118052D01*
X151536934Y-152351247D01*
X151609897Y-152575802D01*
X151717087Y-152786174D01*
X151777338Y-152869104D01*
X151777340Y-152869105D01*
X152476212Y-152170233D01*
X152487482Y-152212292D01*
X152559890Y-152337708D01*
X152662292Y-152440110D01*
X152787708Y-152512518D01*
X152829765Y-152523787D01*
X152130893Y-153222658D01*
X152213828Y-153282914D01*
X152424197Y-153390102D01*
X152648752Y-153463065D01*
X152648751Y-153463065D01*
X152881948Y-153500000D01*
X153118052Y-153500000D01*
X153351247Y-153463065D01*
X153575802Y-153390102D01*
X153786163Y-153282918D01*
X153786169Y-153282914D01*
X153869104Y-153222658D01*
X153869105Y-153222658D01*
X153170233Y-152523787D01*
X153212292Y-152512518D01*
X153337708Y-152440110D01*
X153440110Y-152337708D01*
X153512518Y-152212292D01*
X153523787Y-152170234D01*
X154222658Y-152869105D01*
X154222658Y-152869104D01*
X154282914Y-152786169D01*
X154282918Y-152786163D01*
X154389515Y-152576956D01*
X154437489Y-152526160D01*
X154505310Y-152509365D01*
X154571445Y-152531902D01*
X154610485Y-152576956D01*
X154717087Y-152786174D01*
X154777338Y-152869104D01*
X154777340Y-152869105D01*
X155476212Y-152170233D01*
X155487482Y-152212292D01*
X155559890Y-152337708D01*
X155662292Y-152440110D01*
X155787708Y-152512518D01*
X155829765Y-152523787D01*
X155130893Y-153222658D01*
X155213828Y-153282914D01*
X155424197Y-153390102D01*
X155648752Y-153463065D01*
X155648751Y-153463065D01*
X155881948Y-153500000D01*
X156118052Y-153500000D01*
X156351247Y-153463065D01*
X156575802Y-153390102D01*
X156786163Y-153282918D01*
X156786169Y-153282914D01*
X156869104Y-153222658D01*
X156869105Y-153222658D01*
X156170233Y-152523787D01*
X156212292Y-152512518D01*
X156337708Y-152440110D01*
X156440110Y-152337708D01*
X156512518Y-152212292D01*
X156523787Y-152170234D01*
X157222658Y-152869105D01*
X157222658Y-152869104D01*
X157282914Y-152786169D01*
X157282918Y-152786163D01*
X157390102Y-152575802D01*
X157463065Y-152351247D01*
X157500000Y-152118052D01*
X157500000Y-151881947D01*
X161000000Y-151881947D01*
X161000000Y-152118052D01*
X161036934Y-152351247D01*
X161109897Y-152575802D01*
X161217087Y-152786174D01*
X161277338Y-152869104D01*
X161277340Y-152869105D01*
X161976212Y-152170233D01*
X161987482Y-152212292D01*
X162059890Y-152337708D01*
X162162292Y-152440110D01*
X162287708Y-152512518D01*
X162329765Y-152523787D01*
X161630893Y-153222658D01*
X161713828Y-153282914D01*
X161924197Y-153390102D01*
X162148752Y-153463065D01*
X162148751Y-153463065D01*
X162381948Y-153500000D01*
X162618052Y-153500000D01*
X162851247Y-153463065D01*
X163075802Y-153390102D01*
X163286163Y-153282918D01*
X163286169Y-153282914D01*
X163369104Y-153222658D01*
X163369105Y-153222658D01*
X162670233Y-152523787D01*
X162712292Y-152512518D01*
X162837708Y-152440110D01*
X162940110Y-152337708D01*
X163012518Y-152212292D01*
X163023787Y-152170234D01*
X163722658Y-152869105D01*
X163722658Y-152869104D01*
X163782914Y-152786169D01*
X163782918Y-152786163D01*
X163890102Y-152575802D01*
X163963065Y-152351247D01*
X164000000Y-152118052D01*
X164000000Y-151881947D01*
X163963065Y-151648752D01*
X163890102Y-151424197D01*
X163782914Y-151213828D01*
X163722658Y-151130894D01*
X163722658Y-151130893D01*
X163023787Y-151829765D01*
X163012518Y-151787708D01*
X162940110Y-151662292D01*
X162837708Y-151559890D01*
X162712292Y-151487482D01*
X162670234Y-151476212D01*
X163369105Y-150777340D01*
X163369104Y-150777338D01*
X163286174Y-150717087D01*
X163075802Y-150609897D01*
X162851247Y-150536934D01*
X162851248Y-150536934D01*
X162618052Y-150500000D01*
X162381948Y-150500000D01*
X162148752Y-150536934D01*
X161924197Y-150609897D01*
X161713830Y-150717084D01*
X161630894Y-150777340D01*
X162329766Y-151476212D01*
X162287708Y-151487482D01*
X162162292Y-151559890D01*
X162059890Y-151662292D01*
X161987482Y-151787708D01*
X161976212Y-151829765D01*
X161277340Y-151130894D01*
X161217084Y-151213830D01*
X161109897Y-151424197D01*
X161036934Y-151648752D01*
X161000000Y-151881947D01*
X157500000Y-151881947D01*
X157463065Y-151648752D01*
X157390102Y-151424197D01*
X157282914Y-151213828D01*
X157222658Y-151130894D01*
X157222658Y-151130893D01*
X156523787Y-151829765D01*
X156512518Y-151787708D01*
X156440110Y-151662292D01*
X156337708Y-151559890D01*
X156212292Y-151487482D01*
X156170234Y-151476212D01*
X156869105Y-150777340D01*
X156869104Y-150777339D01*
X156786174Y-150717087D01*
X156575802Y-150609897D01*
X156351247Y-150536934D01*
X156351248Y-150536934D01*
X156118052Y-150500000D01*
X155881948Y-150500000D01*
X155648752Y-150536934D01*
X155424197Y-150609897D01*
X155213830Y-150717084D01*
X155130894Y-150777340D01*
X155829766Y-151476212D01*
X155787708Y-151487482D01*
X155662292Y-151559890D01*
X155559890Y-151662292D01*
X155487482Y-151787708D01*
X155476212Y-151829766D01*
X154777340Y-151130894D01*
X154717084Y-151213830D01*
X154610485Y-151423043D01*
X154562510Y-151473839D01*
X154494689Y-151490634D01*
X154428554Y-151468096D01*
X154389515Y-151423043D01*
X154282914Y-151213828D01*
X154222658Y-151130894D01*
X154222658Y-151130893D01*
X153523787Y-151829765D01*
X153512518Y-151787708D01*
X153440110Y-151662292D01*
X153337708Y-151559890D01*
X153212292Y-151487482D01*
X153170234Y-151476212D01*
X153869105Y-150777340D01*
X153869104Y-150777339D01*
X153786174Y-150717087D01*
X153575802Y-150609897D01*
X153351247Y-150536934D01*
X153351248Y-150536934D01*
X153118052Y-150500000D01*
X152881948Y-150500000D01*
X152648752Y-150536934D01*
X152424197Y-150609897D01*
X152213830Y-150717084D01*
X152130894Y-150777340D01*
X152829766Y-151476212D01*
X152787708Y-151487482D01*
X152662292Y-151559890D01*
X152559890Y-151662292D01*
X152487482Y-151787708D01*
X152476212Y-151829765D01*
X151777340Y-151130894D01*
X151717084Y-151213830D01*
X151609897Y-151424197D01*
X151536934Y-151648752D01*
X151500000Y-151881947D01*
X148000000Y-151881947D01*
X147963065Y-151648752D01*
X147890102Y-151424197D01*
X147782914Y-151213828D01*
X147722658Y-151130894D01*
X147722658Y-151130893D01*
X147023787Y-151829765D01*
X147012518Y-151787708D01*
X146940110Y-151662292D01*
X146837708Y-151559890D01*
X146712292Y-151487482D01*
X146670234Y-151476212D01*
X147369105Y-150777340D01*
X147369104Y-150777339D01*
X147286174Y-150717087D01*
X147075802Y-150609897D01*
X146851247Y-150536934D01*
X146851248Y-150536934D01*
X146618052Y-150500000D01*
X146381948Y-150500000D01*
X146148752Y-150536934D01*
X145924197Y-150609897D01*
X145713830Y-150717084D01*
X145630894Y-150777340D01*
X146329766Y-151476212D01*
X146287708Y-151487482D01*
X146162292Y-151559890D01*
X146059890Y-151662292D01*
X145987482Y-151787708D01*
X145976212Y-151829766D01*
X145277340Y-151130894D01*
X145217084Y-151213830D01*
X145109897Y-151424197D01*
X145036934Y-151648752D01*
X145000000Y-151881947D01*
X110000500Y-151881947D01*
X110000500Y-149631947D01*
X122750000Y-149631947D01*
X122750000Y-149868052D01*
X122786934Y-150101247D01*
X122859897Y-150325802D01*
X122967087Y-150536174D01*
X123027338Y-150619104D01*
X123027340Y-150619105D01*
X123726212Y-149920233D01*
X123737482Y-149962292D01*
X123809890Y-150087708D01*
X123912292Y-150190110D01*
X124037708Y-150262518D01*
X124079765Y-150273787D01*
X123380893Y-150972658D01*
X123463828Y-151032914D01*
X123674197Y-151140102D01*
X123898752Y-151213065D01*
X123898751Y-151213065D01*
X124131948Y-151250000D01*
X124368052Y-151250000D01*
X124601247Y-151213065D01*
X124825802Y-151140102D01*
X125036163Y-151032918D01*
X125036169Y-151032914D01*
X125119104Y-150972658D01*
X125119105Y-150972658D01*
X124420233Y-150273787D01*
X124462292Y-150262518D01*
X124587708Y-150190110D01*
X124690110Y-150087708D01*
X124762518Y-149962292D01*
X124773787Y-149920233D01*
X125472658Y-150619105D01*
X125472658Y-150619104D01*
X125532914Y-150536169D01*
X125532918Y-150536163D01*
X125640102Y-150325802D01*
X125713065Y-150101247D01*
X125750000Y-149868052D01*
X125750000Y-149631947D01*
X129250000Y-149631947D01*
X129250000Y-149868052D01*
X129286934Y-150101247D01*
X129359897Y-150325802D01*
X129467087Y-150536174D01*
X129527338Y-150619104D01*
X129527340Y-150619105D01*
X130226212Y-149920233D01*
X130237482Y-149962292D01*
X130309890Y-150087708D01*
X130412292Y-150190110D01*
X130537708Y-150262518D01*
X130579765Y-150273787D01*
X129880893Y-150972658D01*
X129963828Y-151032914D01*
X130174197Y-151140102D01*
X130398752Y-151213065D01*
X130398751Y-151213065D01*
X130631948Y-151250000D01*
X130868052Y-151250000D01*
X131101247Y-151213065D01*
X131325802Y-151140102D01*
X131536163Y-151032918D01*
X131536169Y-151032914D01*
X131619104Y-150972658D01*
X131619105Y-150972658D01*
X131558727Y-150912280D01*
X130920233Y-150273787D01*
X130962292Y-150262518D01*
X131087708Y-150190110D01*
X131190110Y-150087708D01*
X131262518Y-149962292D01*
X131273787Y-149920234D01*
X131972658Y-150619105D01*
X131972658Y-150619104D01*
X132032914Y-150536169D01*
X132032918Y-150536163D01*
X132140102Y-150325802D01*
X132213065Y-150101247D01*
X132250000Y-149868052D01*
X132250000Y-149631947D01*
X132213065Y-149398752D01*
X132140102Y-149174197D01*
X132032914Y-148963828D01*
X131972658Y-148880894D01*
X131972658Y-148880893D01*
X131273787Y-149579765D01*
X131262518Y-149537708D01*
X131190110Y-149412292D01*
X131087708Y-149309890D01*
X130962292Y-149237482D01*
X130920234Y-149226212D01*
X131619105Y-148527340D01*
X131619104Y-148527338D01*
X131536174Y-148467087D01*
X131325802Y-148359897D01*
X131101247Y-148286934D01*
X131101248Y-148286934D01*
X130868052Y-148250000D01*
X130631948Y-148250000D01*
X130398752Y-148286934D01*
X130174197Y-148359897D01*
X129963830Y-148467084D01*
X129880894Y-148527340D01*
X130579766Y-149226212D01*
X130537708Y-149237482D01*
X130412292Y-149309890D01*
X130309890Y-149412292D01*
X130237482Y-149537708D01*
X130226212Y-149579766D01*
X129527340Y-148880894D01*
X129467084Y-148963830D01*
X129359897Y-149174197D01*
X129286934Y-149398752D01*
X129250000Y-149631947D01*
X125750000Y-149631947D01*
X125713065Y-149398752D01*
X125640102Y-149174197D01*
X125532914Y-148963828D01*
X125472658Y-148880894D01*
X125472658Y-148880893D01*
X124773787Y-149579765D01*
X124762518Y-149537708D01*
X124690110Y-149412292D01*
X124587708Y-149309890D01*
X124462292Y-149237482D01*
X124420234Y-149226212D01*
X125119105Y-148527340D01*
X125119104Y-148527339D01*
X125036174Y-148467087D01*
X124825802Y-148359897D01*
X124601247Y-148286934D01*
X124601248Y-148286934D01*
X124368052Y-148250000D01*
X124131948Y-148250000D01*
X123898752Y-148286934D01*
X123674197Y-148359897D01*
X123463830Y-148467084D01*
X123380894Y-148527340D01*
X124079766Y-149226212D01*
X124037708Y-149237482D01*
X123912292Y-149309890D01*
X123809890Y-149412292D01*
X123737482Y-149537708D01*
X123726212Y-149579766D01*
X123027340Y-148880894D01*
X122967084Y-148963830D01*
X122859897Y-149174197D01*
X122786934Y-149398752D01*
X122750000Y-149631947D01*
X110000500Y-149631947D01*
X110000500Y-147381902D01*
X144999500Y-147381902D01*
X144999500Y-147618097D01*
X145036446Y-147851368D01*
X145109433Y-148075996D01*
X145181893Y-148218205D01*
X145216657Y-148286433D01*
X145355483Y-148477510D01*
X145522490Y-148644517D01*
X145713567Y-148783343D01*
X145812991Y-148834002D01*
X145924003Y-148890566D01*
X145924005Y-148890566D01*
X145924008Y-148890568D01*
X146044412Y-148929689D01*
X146148631Y-148963553D01*
X146381903Y-149000500D01*
X146381908Y-149000500D01*
X146618097Y-149000500D01*
X146851368Y-148963553D01*
X147075992Y-148890568D01*
X147286433Y-148783343D01*
X147477510Y-148644517D01*
X147644517Y-148477510D01*
X147783343Y-148286433D01*
X147818107Y-148218205D01*
X147866082Y-148167409D01*
X147928592Y-148150500D01*
X151571408Y-148150500D01*
X151638447Y-148170185D01*
X151681893Y-148218205D01*
X151716657Y-148286433D01*
X151855483Y-148477510D01*
X152022490Y-148644517D01*
X152213567Y-148783343D01*
X152312991Y-148834002D01*
X152424003Y-148890566D01*
X152424005Y-148890566D01*
X152424008Y-148890568D01*
X152544412Y-148929689D01*
X152648631Y-148963553D01*
X152881903Y-149000500D01*
X152881908Y-149000500D01*
X153118097Y-149000500D01*
X153351368Y-148963553D01*
X153575992Y-148890568D01*
X153786433Y-148783343D01*
X153977510Y-148644517D01*
X154144517Y-148477510D01*
X154283343Y-148286433D01*
X154389515Y-148078057D01*
X154437489Y-148027262D01*
X154505310Y-148010467D01*
X154571445Y-148033004D01*
X154610484Y-148078057D01*
X154716657Y-148286433D01*
X154855483Y-148477510D01*
X155022490Y-148644517D01*
X155213567Y-148783343D01*
X155312991Y-148834002D01*
X155424003Y-148890566D01*
X155424005Y-148890566D01*
X155424008Y-148890568D01*
X155544412Y-148929689D01*
X155648631Y-148963553D01*
X155881903Y-149000500D01*
X155881908Y-149000500D01*
X156118097Y-149000500D01*
X156351368Y-148963553D01*
X156575992Y-148890568D01*
X156786433Y-148783343D01*
X156977510Y-148644517D01*
X157144517Y-148477510D01*
X157283343Y-148286433D01*
X157390568Y-148075992D01*
X157463553Y-147851368D01*
X157500500Y-147618097D01*
X157500500Y-147381902D01*
X160999500Y-147381902D01*
X160999500Y-147618097D01*
X161036446Y-147851368D01*
X161109433Y-148075996D01*
X161181893Y-148218205D01*
X161216657Y-148286433D01*
X161355483Y-148477510D01*
X161522490Y-148644517D01*
X161713567Y-148783343D01*
X161812991Y-148834002D01*
X161924003Y-148890566D01*
X161924005Y-148890566D01*
X161924008Y-148890568D01*
X162044412Y-148929689D01*
X162148631Y-148963553D01*
X162381903Y-149000500D01*
X162381908Y-149000500D01*
X162618097Y-149000500D01*
X162851368Y-148963553D01*
X163075992Y-148890568D01*
X163286433Y-148783343D01*
X163477510Y-148644517D01*
X163644517Y-148477510D01*
X163783343Y-148286433D01*
X163890568Y-148075992D01*
X163963553Y-147851368D01*
X164000500Y-147618097D01*
X164000500Y-147381902D01*
X163963553Y-147148631D01*
X163890566Y-146924003D01*
X163783342Y-146713566D01*
X163783333Y-146713553D01*
X163644517Y-146522490D01*
X163477510Y-146355483D01*
X163286433Y-146216657D01*
X163075996Y-146109433D01*
X162851368Y-146036446D01*
X162618097Y-145999500D01*
X162618092Y-145999500D01*
X162381908Y-145999500D01*
X162381903Y-145999500D01*
X162148631Y-146036446D01*
X161924003Y-146109433D01*
X161713566Y-146216657D01*
X161698626Y-146227512D01*
X161522490Y-146355483D01*
X161522488Y-146355485D01*
X161522487Y-146355485D01*
X161355485Y-146522487D01*
X161355485Y-146522488D01*
X161355483Y-146522490D01*
X161347599Y-146533342D01*
X161216657Y-146713566D01*
X161109433Y-146924003D01*
X161036446Y-147148631D01*
X160999500Y-147381902D01*
X157500500Y-147381902D01*
X157463553Y-147148631D01*
X157390566Y-146924003D01*
X157283342Y-146713566D01*
X157283333Y-146713553D01*
X157144517Y-146522490D01*
X156977510Y-146355483D01*
X156786433Y-146216657D01*
X156575996Y-146109433D01*
X156351368Y-146036446D01*
X156118097Y-145999500D01*
X156118092Y-145999500D01*
X155881908Y-145999500D01*
X155881903Y-145999500D01*
X155648631Y-146036446D01*
X155424003Y-146109433D01*
X155213566Y-146216657D01*
X155198626Y-146227512D01*
X155022490Y-146355483D01*
X155022488Y-146355485D01*
X155022487Y-146355485D01*
X154855485Y-146522487D01*
X154855485Y-146522488D01*
X154855483Y-146522490D01*
X154847599Y-146533342D01*
X154716657Y-146713566D01*
X154610485Y-146921941D01*
X154562510Y-146972737D01*
X154494689Y-146989532D01*
X154428554Y-146966995D01*
X154389515Y-146921941D01*
X154283342Y-146713566D01*
X154283333Y-146713553D01*
X154144517Y-146522490D01*
X153977510Y-146355483D01*
X153786433Y-146216657D01*
X153575996Y-146109433D01*
X153351368Y-146036446D01*
X153118097Y-145999500D01*
X153118092Y-145999500D01*
X152881908Y-145999500D01*
X152881903Y-145999500D01*
X152648631Y-146036446D01*
X152424003Y-146109433D01*
X152213566Y-146216657D01*
X152198626Y-146227512D01*
X152022490Y-146355483D01*
X152022488Y-146355485D01*
X152022487Y-146355485D01*
X151855485Y-146522487D01*
X151855485Y-146522488D01*
X151855483Y-146522490D01*
X151847599Y-146533342D01*
X151716657Y-146713566D01*
X151681893Y-146781795D01*
X151633918Y-146832591D01*
X151571408Y-146849500D01*
X147928592Y-146849500D01*
X147861553Y-146829815D01*
X147818107Y-146781795D01*
X147783342Y-146713566D01*
X147783333Y-146713553D01*
X147644517Y-146522490D01*
X147477510Y-146355483D01*
X147286433Y-146216657D01*
X147075996Y-146109433D01*
X146851368Y-146036446D01*
X146618097Y-145999500D01*
X146618092Y-145999500D01*
X146381908Y-145999500D01*
X146381903Y-145999500D01*
X146148631Y-146036446D01*
X145924003Y-146109433D01*
X145713566Y-146216657D01*
X145698626Y-146227512D01*
X145522490Y-146355483D01*
X145522488Y-146355485D01*
X145522487Y-146355485D01*
X145355485Y-146522487D01*
X145355485Y-146522488D01*
X145355483Y-146522490D01*
X145347599Y-146533342D01*
X145216657Y-146713566D01*
X145109433Y-146924003D01*
X145036446Y-147148631D01*
X144999500Y-147381902D01*
X110000500Y-147381902D01*
X110000500Y-142131947D01*
X113250000Y-142131947D01*
X113250000Y-142368052D01*
X113286934Y-142601247D01*
X113359897Y-142825802D01*
X113467087Y-143036174D01*
X113527338Y-143119104D01*
X113527340Y-143119105D01*
X114226212Y-142420233D01*
X114237482Y-142462292D01*
X114309890Y-142587708D01*
X114412292Y-142690110D01*
X114537708Y-142762518D01*
X114579765Y-142773787D01*
X113880893Y-143472658D01*
X113963828Y-143532914D01*
X114174197Y-143640102D01*
X114398752Y-143713065D01*
X114398751Y-143713065D01*
X114631948Y-143750000D01*
X114868052Y-143750000D01*
X115101247Y-143713065D01*
X115325802Y-143640102D01*
X115536163Y-143532918D01*
X115536169Y-143532914D01*
X115619104Y-143472658D01*
X115619105Y-143472658D01*
X114920233Y-142773787D01*
X114962292Y-142762518D01*
X115087708Y-142690110D01*
X115190110Y-142587708D01*
X115262518Y-142462292D01*
X115273787Y-142420234D01*
X115972658Y-143119105D01*
X115972658Y-143119104D01*
X116032914Y-143036169D01*
X116032918Y-143036163D01*
X116140102Y-142825802D01*
X116213065Y-142601247D01*
X116250000Y-142368052D01*
X116250000Y-142131947D01*
X119750000Y-142131947D01*
X119750000Y-142368052D01*
X119786934Y-142601247D01*
X119859897Y-142825802D01*
X119967087Y-143036174D01*
X120027338Y-143119104D01*
X120027340Y-143119105D01*
X120726212Y-142420233D01*
X120737482Y-142462292D01*
X120809890Y-142587708D01*
X120912292Y-142690110D01*
X121037708Y-142762518D01*
X121079765Y-142773787D01*
X120380893Y-143472658D01*
X120463828Y-143532914D01*
X120674197Y-143640102D01*
X120898752Y-143713065D01*
X120898751Y-143713065D01*
X121131948Y-143750000D01*
X121368052Y-143750000D01*
X121601247Y-143713065D01*
X121825802Y-143640102D01*
X122036163Y-143532918D01*
X122036169Y-143532914D01*
X122119104Y-143472658D01*
X122119105Y-143472658D01*
X121420233Y-142773787D01*
X121462292Y-142762518D01*
X121587708Y-142690110D01*
X121690110Y-142587708D01*
X121762518Y-142462292D01*
X121773787Y-142420234D01*
X122472658Y-143119105D01*
X122472658Y-143119104D01*
X122532914Y-143036169D01*
X122532918Y-143036163D01*
X122640102Y-142825802D01*
X122713065Y-142601247D01*
X122750000Y-142368052D01*
X122750000Y-142131947D01*
X122713065Y-141898752D01*
X122640102Y-141674197D01*
X122532914Y-141463828D01*
X122472658Y-141380894D01*
X122472658Y-141380893D01*
X121773787Y-142079765D01*
X121762518Y-142037708D01*
X121690110Y-141912292D01*
X121587708Y-141809890D01*
X121462292Y-141737482D01*
X121420234Y-141726212D01*
X122119105Y-141027340D01*
X122119104Y-141027338D01*
X122036174Y-140967087D01*
X121825802Y-140859897D01*
X121601247Y-140786934D01*
X121601248Y-140786934D01*
X121368052Y-140750000D01*
X121131948Y-140750000D01*
X120898752Y-140786934D01*
X120674197Y-140859897D01*
X120463830Y-140967084D01*
X120380894Y-141027340D01*
X121079766Y-141726212D01*
X121037708Y-141737482D01*
X120912292Y-141809890D01*
X120809890Y-141912292D01*
X120737482Y-142037708D01*
X120726212Y-142079766D01*
X120027340Y-141380894D01*
X119967084Y-141463830D01*
X119859897Y-141674197D01*
X119786934Y-141898752D01*
X119750000Y-142131947D01*
X116250000Y-142131947D01*
X116213065Y-141898752D01*
X116140102Y-141674197D01*
X116032914Y-141463828D01*
X115972658Y-141380894D01*
X115972658Y-141380893D01*
X115273787Y-142079765D01*
X115262518Y-142037708D01*
X115190110Y-141912292D01*
X115087708Y-141809890D01*
X114962292Y-141737482D01*
X114920234Y-141726212D01*
X115619105Y-141027340D01*
X115619104Y-141027339D01*
X115536174Y-140967087D01*
X115325802Y-140859897D01*
X115101247Y-140786934D01*
X115101248Y-140786934D01*
X114868052Y-140750000D01*
X114631948Y-140750000D01*
X114398752Y-140786934D01*
X114174197Y-140859897D01*
X113963830Y-140967084D01*
X113880894Y-141027340D01*
X114579766Y-141726212D01*
X114537708Y-141737482D01*
X114412292Y-141809890D01*
X114309890Y-141912292D01*
X114237482Y-142037708D01*
X114226212Y-142079766D01*
X113527340Y-141380894D01*
X113467084Y-141463830D01*
X113359897Y-141674197D01*
X113286934Y-141898752D01*
X113250000Y-142131947D01*
X110000500Y-142131947D01*
X110000500Y-74397682D01*
X123200000Y-74397682D01*
X123200000Y-74602317D01*
X123232009Y-74804417D01*
X123295244Y-74999031D01*
X123388141Y-75181350D01*
X123388147Y-75181359D01*
X123420523Y-75225921D01*
X123420524Y-75225922D01*
X124100000Y-74546446D01*
X124100000Y-74552661D01*
X124127259Y-74654394D01*
X124179920Y-74745606D01*
X124254394Y-74820080D01*
X124345606Y-74872741D01*
X124447339Y-74900000D01*
X124453553Y-74900000D01*
X123774076Y-75579474D01*
X123818650Y-75611859D01*
X124000968Y-75704755D01*
X124195582Y-75767990D01*
X124397683Y-75800000D01*
X124602317Y-75800000D01*
X124804417Y-75767990D01*
X124999031Y-75704755D01*
X125181349Y-75611859D01*
X125225921Y-75579474D01*
X124546447Y-74900000D01*
X124552661Y-74900000D01*
X124654394Y-74872741D01*
X124745606Y-74820080D01*
X124820080Y-74745606D01*
X124872741Y-74654394D01*
X124900000Y-74552661D01*
X124900000Y-74546448D01*
X125579474Y-75225922D01*
X125579474Y-75225921D01*
X125611859Y-75181349D01*
X125704755Y-74999031D01*
X125767990Y-74804417D01*
X125800000Y-74602317D01*
X125800000Y-74397682D01*
X125767990Y-74195582D01*
X125704755Y-74000968D01*
X125611859Y-73818650D01*
X125579474Y-73774077D01*
X125579474Y-73774076D01*
X124900000Y-74453551D01*
X124900000Y-74447339D01*
X124872741Y-74345606D01*
X124820080Y-74254394D01*
X124745606Y-74179920D01*
X124654394Y-74127259D01*
X124552661Y-74100000D01*
X124546446Y-74100000D01*
X125225922Y-73420524D01*
X125225921Y-73420523D01*
X125181359Y-73388147D01*
X125181350Y-73388141D01*
X124999031Y-73295244D01*
X124804417Y-73232009D01*
X124602317Y-73200000D01*
X124397683Y-73200000D01*
X124195582Y-73232009D01*
X124000968Y-73295244D01*
X123818644Y-73388143D01*
X123774077Y-73420523D01*
X123774077Y-73420524D01*
X124453554Y-74100000D01*
X124447339Y-74100000D01*
X124345606Y-74127259D01*
X124254394Y-74179920D01*
X124179920Y-74254394D01*
X124127259Y-74345606D01*
X124100000Y-74447339D01*
X124100000Y-74453553D01*
X123420524Y-73774077D01*
X123420523Y-73774077D01*
X123388143Y-73818644D01*
X123295244Y-74000968D01*
X123232009Y-74195582D01*
X123200000Y-74397682D01*
X110000500Y-74397682D01*
X110000500Y-45378711D01*
X113149500Y-45378711D01*
X113149500Y-45621288D01*
X113181161Y-45861785D01*
X113243947Y-46096104D01*
X113336773Y-46320205D01*
X113336776Y-46320212D01*
X113458064Y-46530289D01*
X113458066Y-46530292D01*
X113458067Y-46530293D01*
X113605733Y-46722736D01*
X113605739Y-46722743D01*
X113777256Y-46894260D01*
X113777262Y-46894265D01*
X113969711Y-47041936D01*
X114179788Y-47163224D01*
X114403900Y-47256054D01*
X114638211Y-47318838D01*
X114818586Y-47342584D01*
X114878711Y-47350500D01*
X114878712Y-47350500D01*
X115121289Y-47350500D01*
X115169388Y-47344167D01*
X115361789Y-47318838D01*
X115596100Y-47256054D01*
X115820212Y-47163224D01*
X116030289Y-47041936D01*
X116222738Y-46894265D01*
X116394265Y-46722738D01*
X116541936Y-46530289D01*
X116663224Y-46320212D01*
X116756054Y-46096100D01*
X116818838Y-45861789D01*
X116850500Y-45621288D01*
X116850500Y-45378712D01*
X116850500Y-45378711D01*
X172149500Y-45378711D01*
X172149500Y-45621288D01*
X172181161Y-45861785D01*
X172243947Y-46096104D01*
X172336773Y-46320205D01*
X172336776Y-46320212D01*
X172458064Y-46530289D01*
X172458066Y-46530292D01*
X172458067Y-46530293D01*
X172605733Y-46722736D01*
X172605739Y-46722743D01*
X172777256Y-46894260D01*
X172777262Y-46894265D01*
X172969711Y-47041936D01*
X173179788Y-47163224D01*
X173403900Y-47256054D01*
X173638211Y-47318838D01*
X173818586Y-47342584D01*
X173878711Y-47350500D01*
X173878712Y-47350500D01*
X174121289Y-47350500D01*
X174169388Y-47344167D01*
X174361789Y-47318838D01*
X174596100Y-47256054D01*
X174820212Y-47163224D01*
X175030289Y-47041936D01*
X175222738Y-46894265D01*
X175394265Y-46722738D01*
X175541936Y-46530289D01*
X175663224Y-46320212D01*
X175756054Y-46096100D01*
X175818838Y-45861789D01*
X175850500Y-45621288D01*
X175850500Y-45378712D01*
X175818838Y-45138211D01*
X175756054Y-44903900D01*
X175663224Y-44679788D01*
X175541936Y-44469711D01*
X175394265Y-44277262D01*
X175394260Y-44277256D01*
X175222743Y-44105739D01*
X175222736Y-44105733D01*
X175030293Y-43958067D01*
X175030292Y-43958066D01*
X175030289Y-43958064D01*
X174820212Y-43836776D01*
X174820205Y-43836773D01*
X174596104Y-43743947D01*
X174361785Y-43681161D01*
X174121289Y-43649500D01*
X174121288Y-43649500D01*
X173878712Y-43649500D01*
X173878711Y-43649500D01*
X173638214Y-43681161D01*
X173403895Y-43743947D01*
X173179794Y-43836773D01*
X173179785Y-43836777D01*
X172969706Y-43958067D01*
X172777263Y-44105733D01*
X172777256Y-44105739D01*
X172605739Y-44277256D01*
X172605733Y-44277263D01*
X172458067Y-44469706D01*
X172336777Y-44679785D01*
X172336773Y-44679794D01*
X172243947Y-44903895D01*
X172181161Y-45138214D01*
X172149500Y-45378711D01*
X116850500Y-45378711D01*
X116818838Y-45138211D01*
X116756054Y-44903900D01*
X116663224Y-44679788D01*
X116541936Y-44469711D01*
X116394265Y-44277262D01*
X116394260Y-44277256D01*
X116222743Y-44105739D01*
X116222736Y-44105733D01*
X116030293Y-43958067D01*
X116030292Y-43958066D01*
X116030289Y-43958064D01*
X115820212Y-43836776D01*
X115820205Y-43836773D01*
X115596104Y-43743947D01*
X115361785Y-43681161D01*
X115121289Y-43649500D01*
X115121288Y-43649500D01*
X114878712Y-43649500D01*
X114878711Y-43649500D01*
X114638214Y-43681161D01*
X114403895Y-43743947D01*
X114179794Y-43836773D01*
X114179785Y-43836777D01*
X113969706Y-43958067D01*
X113777263Y-44105733D01*
X113777256Y-44105739D01*
X113605739Y-44277256D01*
X113605733Y-44277263D01*
X113458067Y-44469706D01*
X113336777Y-44679785D01*
X113336773Y-44679794D01*
X113243947Y-44903895D01*
X113181161Y-45138214D01*
X113149500Y-45378711D01*
X110000500Y-45378711D01*
X110000500Y-40624500D01*
X110020185Y-40557461D01*
X110072989Y-40511706D01*
X110124500Y-40500500D01*
X178875500Y-40500500D01*
X178942539Y-40520185D01*
G37*
%TD.AperFunction*%
%TA.AperFunction,Conductor*%
G36*
X130068834Y-107413625D02*
G01*
X130124767Y-107455497D01*
X130149184Y-107520961D01*
X130149500Y-107529807D01*
X130149500Y-107606287D01*
X130182754Y-107816243D01*
X130208646Y-107895931D01*
X130248444Y-108018414D01*
X130344951Y-108207820D01*
X130469890Y-108379786D01*
X130620213Y-108530109D01*
X130792182Y-108655050D01*
X130800946Y-108659516D01*
X130851742Y-108707491D01*
X130868536Y-108775312D01*
X130845998Y-108841447D01*
X130800946Y-108880484D01*
X130792182Y-108884949D01*
X130620213Y-109009890D01*
X130469890Y-109160213D01*
X130344951Y-109332179D01*
X130248444Y-109521585D01*
X130182753Y-109723760D01*
X130149500Y-109933713D01*
X130149500Y-110146286D01*
X130180225Y-110340279D01*
X130182754Y-110356243D01*
X130208646Y-110435931D01*
X130248444Y-110558414D01*
X130344951Y-110747820D01*
X130469890Y-110919786D01*
X130620213Y-111070109D01*
X130792182Y-111195050D01*
X130800946Y-111199516D01*
X130851742Y-111247491D01*
X130868536Y-111315312D01*
X130845998Y-111381447D01*
X130800946Y-111420484D01*
X130792182Y-111424949D01*
X130620213Y-111549890D01*
X130469890Y-111700213D01*
X130344951Y-111872179D01*
X130248444Y-112061585D01*
X130182753Y-112263760D01*
X130149500Y-112473713D01*
X130149500Y-112686286D01*
X130180225Y-112880279D01*
X130182754Y-112896243D01*
X130202632Y-112957422D01*
X130248444Y-113098414D01*
X130344951Y-113287820D01*
X130469890Y-113459786D01*
X130620213Y-113610109D01*
X130792179Y-113735048D01*
X130792181Y-113735049D01*
X130792184Y-113735051D01*
X130801493Y-113739794D01*
X130852290Y-113787766D01*
X130869087Y-113855587D01*
X130846552Y-113921722D01*
X130801505Y-113960760D01*
X130792446Y-113965376D01*
X130792440Y-113965380D01*
X130738282Y-114004727D01*
X130738282Y-114004728D01*
X131370591Y-114637037D01*
X131307007Y-114654075D01*
X131192993Y-114719901D01*
X131099901Y-114812993D01*
X131034075Y-114927007D01*
X131017037Y-114990591D01*
X130384728Y-114358282D01*
X130384727Y-114358282D01*
X130345380Y-114412439D01*
X130248904Y-114601782D01*
X130183242Y-114803869D01*
X130183242Y-114803872D01*
X130150000Y-115013753D01*
X130150000Y-115226246D01*
X130183242Y-115436127D01*
X130183242Y-115436130D01*
X130248904Y-115638217D01*
X130345375Y-115827550D01*
X130384728Y-115881716D01*
X131017037Y-115249408D01*
X131034075Y-115312993D01*
X131099901Y-115427007D01*
X131192993Y-115520099D01*
X131307007Y-115585925D01*
X131370590Y-115602962D01*
X130738282Y-116235269D01*
X130738282Y-116235270D01*
X130792452Y-116274626D01*
X130792451Y-116274626D01*
X130801495Y-116279234D01*
X130852292Y-116327208D01*
X130869087Y-116395029D01*
X130846550Y-116461164D01*
X130801499Y-116500202D01*
X130792182Y-116504949D01*
X130620213Y-116629890D01*
X130469890Y-116780213D01*
X130344951Y-116952179D01*
X130248444Y-117141585D01*
X130182753Y-117343760D01*
X130149500Y-117553713D01*
X130149500Y-117766286D01*
X130182753Y-117976239D01*
X130248444Y-118178414D01*
X130344951Y-118367820D01*
X130469890Y-118539786D01*
X130567923Y-118637819D01*
X130601408Y-118699142D01*
X130596424Y-118768834D01*
X130554552Y-118824767D01*
X130489088Y-118849184D01*
X130480242Y-118849500D01*
X129820808Y-118849500D01*
X129753769Y-118829815D01*
X129733127Y-118813181D01*
X129186819Y-118266873D01*
X129153334Y-118205550D01*
X129150500Y-118179192D01*
X129150500Y-108280807D01*
X129170185Y-108213768D01*
X129186814Y-108193130D01*
X129937819Y-107442125D01*
X129999142Y-107408641D01*
X130068834Y-107413625D01*
G37*
%TD.AperFunction*%
%TA.AperFunction,Conductor*%
G36*
X132615270Y-115881717D02*
G01*
X132615271Y-115881716D01*
X132625182Y-115868076D01*
X132680512Y-115825410D01*
X132750125Y-115819431D01*
X132811920Y-115852037D01*
X132846278Y-115912876D01*
X132849500Y-115940961D01*
X132849500Y-116838186D01*
X132829815Y-116905225D01*
X132777011Y-116950980D01*
X132707853Y-116960924D01*
X132644297Y-116931899D01*
X132625182Y-116911071D01*
X132530109Y-116780214D01*
X132530105Y-116780209D01*
X132379786Y-116629890D01*
X132207817Y-116504949D01*
X132198504Y-116500204D01*
X132147707Y-116452230D01*
X132130912Y-116384409D01*
X132153449Y-116318274D01*
X132198507Y-116279232D01*
X132207555Y-116274622D01*
X132261716Y-116235270D01*
X132261717Y-116235270D01*
X131629408Y-115602962D01*
X131692993Y-115585925D01*
X131807007Y-115520099D01*
X131900099Y-115427007D01*
X131965925Y-115312993D01*
X131982962Y-115249408D01*
X132615270Y-115881717D01*
G37*
%TD.AperFunction*%
%TD*%
M02*
