%TF.GenerationSoftware,KiCad,Pcbnew,10.0.6*%
%TF.CreationDate,2026-10-05T23:51:51+02:00*%
%TF.ProjectId,the_gameboy,7468655f-6761-46d6-9562-6f792e6b6963,rev?*%
%TF.SameCoordinates,Original*%
%TF.FileFunction,Soldermask,Bot*%
%TF.FilePolarity,Negative*%
%FSLAX46Y46*%
G04 Gerber Fmt 4.6, Leading zero omitted, Abs format (unit mm)*
G04 Created by KiCad (PCBNEW 10.0.6) date 2026-10-05 23:51:51*
%MOMM*%
%LPD*%
G01*
G04 APERTURE LIST*
%ADD10C,3.200000*%
%ADD11O,2.500000X1.500000*%
%ADD12R,2.500000X1.500000*%
%ADD13O,3.500000X2.200000*%
%ADD14C,2.000000*%
%ADD15R,1.700000X1.700000*%
%ADD16C,1.700000*%
%ADD17C,1.600000*%
%ADD18R,2.000000X2.000000*%
G04 APERTURE END LIST*
D10*
%TO.C,REF\u002A\u002A*%
X174000000Y-154500000D03*
%TD*%
%TO.C,REF\u002A\u002A*%
X115000000Y-154500000D03*
%TD*%
%TO.C,REF\u002A\u002A*%
X174000000Y-45500000D03*
%TD*%
%TO.C,REF\u002A\u002A*%
X115000000Y-45500000D03*
%TD*%
D11*
%TO.C,SW9*%
X177000000Y-82400000D03*
X177000000Y-84400000D03*
D12*
X177000000Y-86400000D03*
D13*
X177000000Y-80300000D03*
X177000000Y-88500000D03*
%TD*%
D14*
%TO.C,SW8*%
X162500000Y-152000000D03*
X156000000Y-152000000D03*
X162500000Y-147500000D03*
X156000000Y-147500000D03*
%TD*%
%TO.C,SW7*%
X153000000Y-152000000D03*
X146500000Y-152000000D03*
X153000000Y-147500000D03*
X146500000Y-147500000D03*
%TD*%
%TO.C,SW6*%
X157500000Y-128000000D03*
X164000000Y-128000000D03*
X157500000Y-132500000D03*
X164000000Y-132500000D03*
%TD*%
%TO.C,SW5*%
X167000000Y-120500000D03*
X173500000Y-120500000D03*
X167000000Y-125000000D03*
X173500000Y-125000000D03*
%TD*%
%TO.C,SW4*%
X133750000Y-137750000D03*
X140250000Y-137750000D03*
X133750000Y-142250000D03*
X140250000Y-142250000D03*
%TD*%
%TO.C,SW3*%
X114750000Y-137750000D03*
X121250000Y-137750000D03*
X114750000Y-142250000D03*
X121250000Y-142250000D03*
%TD*%
%TO.C,SW2*%
X124250000Y-145250000D03*
X130750000Y-145250000D03*
X124250000Y-149750000D03*
X130750000Y-149750000D03*
%TD*%
%TO.C,SW1*%
X124250000Y-130250000D03*
X130750000Y-130250000D03*
X124250000Y-134750000D03*
X130750000Y-134750000D03*
%TD*%
D15*
%TO.C,J2*%
X131500000Y-82100000D03*
D16*
X131500000Y-84640000D03*
X131500000Y-87180000D03*
X131500000Y-89720000D03*
X131500000Y-92260000D03*
X131500000Y-94800000D03*
X131500000Y-97340000D03*
X131500000Y-99880000D03*
X131500000Y-102420000D03*
X131500000Y-104960000D03*
X131500000Y-107500000D03*
X131500000Y-110040000D03*
X131500000Y-112580000D03*
X131500000Y-115120000D03*
X131500000Y-117660000D03*
%TD*%
D15*
%TO.C,J1*%
X130500000Y-73160000D03*
D16*
X130500000Y-70620000D03*
X130500000Y-68080000D03*
X130500000Y-65540000D03*
X130500000Y-63000000D03*
X130500000Y-60460000D03*
X130500000Y-57920000D03*
X130500000Y-55380000D03*
%TD*%
D17*
%TO.C,C1*%
X124500000Y-69500000D03*
X124500000Y-74500000D03*
%TD*%
D14*
%TO.C,BZ1*%
X148300000Y-129500000D03*
D18*
X140700000Y-129500000D03*
%TD*%
D15*
%TO.C,J3*%
X156900000Y-82100000D03*
D16*
X156900000Y-84640000D03*
X156900000Y-87180000D03*
X156900000Y-89720000D03*
X156900000Y-92260000D03*
X156900000Y-94800000D03*
X156900000Y-97340000D03*
X156900000Y-99880000D03*
X156900000Y-102420000D03*
X156900000Y-104960000D03*
X156900000Y-107500000D03*
X156900000Y-110040000D03*
X156900000Y-112580000D03*
X156900000Y-115120000D03*
X156900000Y-117660000D03*
%TD*%
M02*
