M48
; DRILL file KiCad 10.0.6 date 2026-10-05T23:50:33
; FORMAT={-:-/ absolute / metric / decimal}
; #@! TF.CreationDate,2026-10-05T23:50:33+02:00
; #@! TF.GenerationSoftware,Kicad,Pcbnew,10.0.6
; #@! TF.FileFunction,Plated,1,2,PTH
FMAT,2
METRIC
; #@! TA.AperFunction,Plated,PTH,ViaDrill
T1C0.300
; #@! TA.AperFunction,Plated,PTH,ComponentDrill
T2C0.800
; #@! TA.AperFunction,Plated,PTH,ComponentDrill
T3C0.900
; #@! TA.AperFunction,Plated,PTH,ComponentDrill
T4C1.000
; #@! TA.AperFunction,Plated,PTH,ComponentDrill
T5C1.100
; #@! TA.AperFunction,Plated,PTH,ComponentDrill
T6C1.500
%
G90
G05
T1
X125.0Y-104.5
X125.0Y-110.5
X125.35Y-130.0
X126.5Y-104.5
X126.5Y-110.5
X151.5Y-121.5
X155.0Y-121.5
X161.15Y-96.5
X161.15Y-98.035
X161.15Y-99.5
T2
X124.5Y-69.5
X124.5Y-74.5
T3
X177.0Y-82.4
X177.0Y-84.4
X177.0Y-86.4
T4
X130.5Y-55.38
X130.5Y-57.92
X130.5Y-60.46
X130.5Y-63.0
X130.5Y-65.54
X130.5Y-68.08
X130.5Y-70.62
X130.5Y-73.16
X131.5Y-82.1
X131.5Y-84.64
X131.5Y-87.18
X131.5Y-89.72
X131.5Y-92.26
X131.5Y-94.8
X131.5Y-97.34
X131.5Y-99.88
X131.5Y-102.42
X131.5Y-104.96
X131.5Y-107.5
X131.5Y-110.04
X131.5Y-112.58
X131.5Y-115.12
X131.5Y-117.66
X140.7Y-129.5
X148.3Y-129.5
X156.9Y-82.1
X156.9Y-84.64
X156.9Y-87.18
X156.9Y-89.72
X156.9Y-92.26
X156.9Y-94.8
X156.9Y-97.34
X156.9Y-99.88
X156.9Y-102.42
X156.9Y-104.96
X156.9Y-107.5
X156.9Y-110.04
X156.9Y-112.58
X156.9Y-115.12
X156.9Y-117.66
T5
X114.75Y-137.75
X114.75Y-142.25
X121.25Y-137.75
X121.25Y-142.25
X124.25Y-130.25
X124.25Y-134.75
X124.25Y-145.25
X124.25Y-149.75
X130.75Y-130.25
X130.75Y-134.75
X130.75Y-145.25
X130.75Y-149.75
X133.75Y-137.75
X133.75Y-142.25
X140.25Y-137.75
X140.25Y-142.25
X146.5Y-147.5
X146.5Y-152.0
X153.0Y-147.5
X153.0Y-152.0
X156.0Y-147.5
X156.0Y-152.0
X157.5Y-128.0
X157.5Y-132.5
X162.5Y-147.5
X162.5Y-152.0
X164.0Y-128.0
X164.0Y-132.5
X167.0Y-120.5
X167.0Y-125.0
X173.5Y-120.5
X173.5Y-125.0
T6
X177.0Y-80.3
X177.0Y-88.5
M30
